<svg xmlns="http://www.w3.org/2000/svg" xmlns:xlink="http://www.w3.org/1999/xlink" width="3780" zoomAndPan="magnify" viewBox="0 0 2835 1417.499962" height="1890" preserveAspectRatio="xMidYMid meet" version="1.0"><defs><clipPath id="a21526334b"><path d="M 1924 551.617188 L 2386 551.617188 L 2386 602 L 1924 602 Z M 1924 551.617188 " clip-rule="nonzero"/></clipPath><clipPath id="34ec936124"><path d="M 1920.328125 720 L 2391 720 L 2391 778 L 1920.328125 778 Z M 1920.328125 720 " clip-rule="nonzero"/></clipPath><clipPath id="e082dd7c77"><path d="M 2165 814 L 2663 814 L 2663 865.046875 L 2165 865.046875 Z M 2165 814 " clip-rule="nonzero"/></clipPath><clipPath id="273a0411fe"><path d="M 1291 627.414062 L 2034.488281 627.414062 L 2034.488281 940.84375 L 1291 940.84375 Z M 1291 627.414062 " clip-rule="nonzero"/></clipPath><clipPath id="2bc577666d"><path d="M 277 0.414062 L 740 0.414062 L 740 51 L 277 51 Z M 277 0.414062 " clip-rule="nonzero"/></clipPath><clipPath id="daad70b3c4"><path d="M 273 169 L 743.359375 169 L 743.359375 226 L 273 226 Z M 273 169 " clip-rule="nonzero"/></clipPath><clipPath id="d82549af8b"><path d="M 1 262 L 499 262 L 499 313.84375 L 1 313.84375 Z M 1 262 " clip-rule="nonzero"/></clipPath><clipPath id="5a41c25c10"><rect x="0" width="744" y="0" height="314"/></clipPath><clipPath id="eebf6c1d62"><path d="M 704 627.414062 L 1447.191406 627.414062 L 1447.191406 940.84375 L 704 940.84375 Z M 704 627.414062 " clip-rule="nonzero"/></clipPath><clipPath id="bf56ea795e"><path d="M 277 0.414062 L 740 0.414062 L 740 51 L 277 51 Z M 277 0.414062 " clip-rule="nonzero"/></clipPath><clipPath id="fa5bbfd7ff"><path d="M 0.0273438 262 L 499 262 L 499 313.84375 L 0.0273438 313.84375 Z M 0.0273438 262 " clip-rule="nonzero"/></clipPath><clipPath id="cdd45d9087"><rect x="0" width="744" y="0" height="314"/></clipPath><clipPath id="3a099b3a51"><path d="M 0.59375 580.40625 L 743.652344 580.40625 L 743.652344 893.832031 L 0.59375 893.832031 Z M 0.59375 580.40625 " clip-rule="nonzero"/></clipPath><clipPath id="02ff2f5950"><path d="M 278 0.40625 L 740 0.40625 L 740 51 L 278 51 Z M 278 0.40625 " clip-rule="nonzero"/></clipPath><clipPath id="3483b90c8c"><path d="M 273 169 L 743.613281 169 L 743.613281 226 L 273 226 Z M 273 169 " clip-rule="nonzero"/></clipPath><clipPath id="099eac0227"><path d="M 1 262 L 499 262 L 499 313.832031 L 1 313.832031 Z M 1 262 " clip-rule="nonzero"/></clipPath><clipPath id="f1d1fed338"><rect x="0" width="744" y="0" height="314"/></clipPath><clipPath id="cac9785105"><rect x="0" width="2664" y="0" height="942"/></clipPath></defs><g transform="matrix(1, 0, 0, 1, 69, 0)"><g clip-path="url(#cac9785105)"><path fill="#000000" d="M 779.464844 610.113281 C 785.808594 611.722656 791.800781 611.859375 797.324219 610.515625 L 1190.96875 361.1875 C 1019.335938 363.578125 871.535156 358 749.394531 349.070312 C 338.121094 318.992188 119.445312 245.984375 117.28125 245.253906 C 109.414062 242.570312 100.863281 246.792969 98.1875 254.667969 C 95.871094 261.484375 98.726562 268.789062 104.636719 272.375 C 101.734375 274.148438 99.371094 276.847656 98.1875 280.324219 C 95.515625 288.203125 99.71875 296.75 107.585938 299.433594 C 107.902344 299.539062 112.902344 301.214844 122.433594 304.0625 C 140.023438 357.617188 184.304688 461.296875 281.578125 543.785156 C 339.1875 592.636719 413.023438 618.121094 488.535156 617.53125 L 702.125 615.851562 C 742.238281 604.144531 767.507812 607.074219 779.464844 610.113281 Z M 779.464844 610.113281 " fill-opacity="1" fill-rule="nonzero"/><path fill="#000000" d="M 2398.417969 471.957031 L 2556.648438 256.746094 C 2567.039062 254.554688 2577.386719 252.40625 2587.847656 250.152344 C 2595.976562 248.40625 2601.148438 240.394531 2599.410156 232.269531 C 2598.5 228.054688 2595.894531 224.667969 2592.480469 222.589844 C 2597.796875 219.351562 2600.785156 213.046875 2599.410156 206.613281 C 2597.660156 198.472656 2589.621094 193.300781 2581.523438 195.054688 C 2098.835938 298.78125 1684.652344 343.296875 1347.855469 356.898438 L 941.980469 613.96875 L 2138.902344 604.574219 C 2241.464844 603.765625 2337.644531 554.613281 2398.417969 471.957031 Z M 2398.417969 471.957031 " fill-opacity="1" fill-rule="nonzero"/><path fill="#000000" d="M 1789.972656 50.285156 C 1797.652344 47.832031 1790.035156 1.804688 1763.820312 24.941406 L 806.628906 631.195312 C 798.933594 633.710938 787.757812 635.382812 773.941406 631.875 C 746.605469 624.9375 690.796875 633.265625 609.742188 684.542969 C 528.683594 735.816406 504.390625 763.9375 503.066406 794.117188 C 501.746094 824.292969 494.105469 892.890625 545.804688 906.105469 C 597.5 919.3125 716.832031 805.5625 738.96875 780.074219 C 759.445312 756.503906 805.734375 680.597656 832.03125 657.023438 Z M 1789.972656 50.285156 " fill-opacity="1" fill-rule="nonzero"/><g clip-path="url(#a21526334b)"><path fill="#000000" d="M 1925.515625 576.347656 C 1926.089844 575.40625 1930.207031 575.714844 1932.027344 574.398438 C 1933.847656 573.078125 1935.839844 571.578125 1938.195312 570.023438 C 1940.546875 568.464844 1943.269531 566.832031 1946.019531 565.335938 C 1948.773438 563.84375 1951.523438 562.785156 1954.269531 561.992188 C 1957.015625 561.199219 1959.75 560.617188 1962.492188 560.308594 C 1965.234375 560.003906 1967.984375 559.941406 1970.503906 560.085938 C 1973.019531 560.230469 1975.355469 560.296875 1977.710938 560.734375 C 1980.0625 561.171875 1982.457031 561.792969 1984.894531 562.558594 C 1987.332031 563.328125 1989.792969 564.292969 2003.742188 570.984375 C 2017.691406 577.671875 2042.972656 590.777344 2045.84375 591.769531 C 2048.71875 592.761719 2051.410156 593.414062 2054.078125 593.933594 C 2056.75 594.453125 2059.421875 594.746094 2062.082031 594.792969 C 2064.738281 594.84375 2067.335938 594.734375 2069.621094 594.46875 C 2071.90625 594.207031 2074.226562 593.769531 2076.574219 593.171875 C 2078.917969 592.574219 2081.277344 591.777344 2083.699219 590.949219 C 2086.125 590.121094 2088.886719 589.011719 2096.707031 584.867188 C 2104.527344 580.71875 2111.070312 577.28125 2116.40625 574.59375 C 2121.746094 571.90625 2125.824219 569.882812 2128.640625 568.703125 C 2131.457031 567.523438 2133.253906 567.074219 2136.761719 566.0625 C 2140.269531 565.046875 2143.65625 564.359375 2146.964844 563.863281 C 2150.273438 563.367188 2153.511719 563.039062 2156.695312 562.902344 C 2159.875 562.769531 2162.964844 562.867188 2166.34375 563.25 C 2169.722656 563.632812 2173.132812 564.320312 2176.574219 565.175781 C 2180.011719 566.03125 2183.496094 567.035156 2187.023438 568.21875 C 2190.546875 569.398438 2193.816406 570.683594 2218.703125 583.992188 C 2243.589844 597.296875 2246.769531 598.5625 2249.453125 599.347656 C 2252.132812 600.128906 2254.816406 600.710938 2257.484375 601.148438 C 2260.152344 601.582031 2262.816406 601.800781 2265.457031 601.808594 C 2268.097656 601.816406 2270.613281 601.683594 2273.121094 601.394531 C 2275.632812 601.101562 2278.144531 600.714844 2280.65625 600.199219 C 2283.171875 599.679688 2285.699219 599.066406 2288.390625 598.179688 C 2291.085938 597.292969 2301.085938 592.382812 2309.546875 588.410156 C 2318.003906 584.4375 2325.050781 581.414062 2330.597656 579.242188 C 2336.148438 577.070312 2340.136719 575.761719 2342.554688 575.265625 C 2344.972656 574.773438 2346.554688 574.46875 2347.941406 574.265625 C 2349.328125 574.0625 2350.746094 573.914062 2352.203125 573.824219 C 2353.660156 573.730469 2355.152344 573.671875 2356.761719 573.632812 C 2358.375 573.597656 2358.746094 573.582031 2360.195312 573.675781 C 2361.644531 573.765625 2364.390625 573.96875 2368.335938 574.324219 C 2372.28125 574.675781 2377.429688 575.007812 2382.042969 573.207031 C 2386.65625 571.40625 2386.867188 568.554688 2383.894531 568.335938 C 2383.894531 568.335938 2378.265625 563.628906 2373.492188 563.269531 C 2368.71875 562.90625 2365.105469 562.832031 2362.652344 562.734375 C 2360.199219 562.636719 2358.757812 562.601562 2357.699219 562.644531 C 2356.640625 562.683594 2354.847656 562.597656 2353.085938 562.703125 C 2351.320312 562.808594 2349.585938 562.988281 2347.886719 563.238281 C 2346.183594 563.492188 2344.511719 563.808594 2342.523438 564.199219 C 2340.53125 564.589844 2336.871094 565.707031 2332.042969 567.660156 C 2327.214844 569.609375 2321.066406 572.398438 2313.519531 576.003906 C 2305.976562 579.605469 2296.976562 583.957031 2291.144531 586.703125 C 2285.308594 589.449219 2283.109375 590.136719 2280.929688 590.730469 C 2278.75 591.324219 2276.574219 591.769531 2274.398438 592.074219 C 2272.226562 592.378906 2270.054688 592.457031 2267.859375 592.457031 C 2265.664062 592.457031 2263.425781 592.339844 2261.160156 592.097656 C 2258.894531 591.859375 2256.589844 591.511719 2254.261719 590.972656 C 2251.933594 590.4375 2249.554688 589.800781 2236.09375 583.117188 C 2222.636719 576.429688 2197.640625 563.226562 2193.726562 561.660156 C 2189.816406 560.09375 2186.046875 558.835938 2182.277344 557.839844 C 2178.507812 556.84375 2174.761719 556.050781 2171.023438 555.523438 C 2167.289062 554.996094 2163.542969 554.53125 2159.992188 554.464844 C 2156.4375 554.402344 2152.855469 554.554688 2149.238281 555.015625 C 2145.621094 555.480469 2141.964844 556.199219 2138.28125 557.167969 C 2134.597656 558.136719 2131.007812 559.226562 2128.523438 559.941406 C 2126.039062 560.652344 2122.410156 562.148438 2117.652344 564.308594 C 2112.898438 566.472656 2107.019531 569.410156 2100.019531 573.15625 C 2093.023438 576.90625 2084.9375 581.285156 2082.898438 582.070312 C 2080.863281 582.855469 2078.722656 583.566406 2076.625 584.054688 C 2074.523438 584.546875 2072.5 584.949219 2070.539062 585.238281 C 2068.578125 585.527344 2066.664062 585.699219 2064.453125 585.792969 C 2062.238281 585.886719 2060.019531 585.804688 2057.753906 585.640625 C 2055.484375 585.472656 2053.1875 585.050781 2050.851562 584.460938 C 2048.515625 583.871094 2046.496094 583.394531 2020.902344 571.066406 C 1995.3125 558.734375 1992.46875 557.539062 1989.792969 556.582031 C 1987.113281 555.625 1984.472656 554.78125 1981.855469 554.085938 C 1979.238281 553.390625 1976.644531 552.832031 1974.070312 552.308594 C 1971.492188 551.78125 1968.273438 551.503906 1965 551.515625 C 1961.730469 551.527344 1958.453125 551.855469 1955.175781 552.460938 C 1951.894531 553.066406 1948.628906 553.996094 1945.277344 555.117188 C 1941.929688 556.234375 1938.417969 558 1935.363281 559.84375 C 1932.308594 561.683594 1929.699219 563.738281 1927.492188 565.917969 C 1925.289062 568.097656 1923.90625 570.71875 1924.589844 572.816406 C 1924.71875 575.890625 1926.074219 575.371094 1925.515625 576.347656 Z M 1925.515625 576.347656 " fill-opacity="0.898" fill-rule="nonzero"/></g><path fill="#000000" d="M 2149.914062 660.890625 C 2149.960938 660.53125 2151.515625 660.304688 2152.507812 659.71875 C 2153.5 659.132812 2154.886719 658.101562 2156.96875 656.886719 C 2159.046875 655.671875 2161.800781 654.332031 2164.578125 653.214844 C 2167.355469 652.097656 2169.964844 651.339844 2172.75 650.742188 C 2175.535156 650.148438 2178.507812 649.757812 2181.664062 649.546875 C 2184.820312 649.332031 2188.167969 649.402344 2190.898438 649.550781 C 2193.628906 649.695312 2195.703125 649.941406 2197.789062 650.296875 C 2199.871094 650.652344 2201.96875 651.082031 2204.074219 651.609375 C 2206.183594 652.140625 2208.257812 652.898438 2213.925781 655.191406 C 2219.59375 657.480469 2228.171875 661.132812 2235.371094 664.257812 C 2242.574219 667.386719 2248.503906 669.757812 2253.136719 671.511719 C 2257.765625 673.265625 2261.199219 674.3125 2264.214844 675.039062 C 2267.234375 675.769531 2270.925781 676.539062 2274.59375 677.140625 C 2278.261719 677.746094 2281.917969 678.15625 2285.558594 678.398438 C 2289.203125 678.644531 2292.835938 678.609375 2295.941406 678.441406 C 2299.042969 678.273438 2301.703125 677.984375 2304.394531 677.582031 C 2307.089844 677.179688 2309.816406 676.667969 2312.574219 676.015625 C 2315.328125 675.363281 2318.125 674.625 2325.179688 672.089844 C 2332.238281 669.554688 2342.125 665.894531 2350.269531 662.847656 C 2358.414062 659.796875 2364.898438 657.609375 2369.628906 656.117188 C 2374.359375 654.625 2377.273438 653.925781 2380.070312 653.308594 C 2382.871094 652.691406 2386.375 651.945312 2389.832031 651.34375 C 2393.289062 650.742188 2396.707031 650.308594 2400.09375 650.132812 C 2403.484375 649.953125 2406.828125 650.035156 2410.335938 650.214844 C 2413.84375 650.398438 2417.445312 650.722656 2420.914062 651.132812 C 2424.382812 651.542969 2427.730469 652.015625 2430.933594 652.667969 C 2434.140625 653.320312 2437.210938 654.089844 2439.3125 654.621094 C 2441.414062 655.152344 2443.265625 655.761719 2447.121094 657.359375 C 2450.976562 658.957031 2456.675781 661.398438 2464.1875 664.652344 C 2471.695312 667.90625 2480.929688 672.128906 2487.609375 675.300781 C 2494.292969 678.46875 2497.015625 679.339844 2499.664062 680.019531 C 2502.316406 680.699219 2504.894531 681.179688 2507.40625 681.453125 C 2509.914062 681.726562 2512.34375 681.8125 2514.75 681.71875 C 2517.15625 681.628906 2519.710938 681.261719 2522.429688 680.824219 C 2525.148438 680.390625 2528.03125 679.808594 2531.097656 679.089844 C 2534.160156 678.375 2537.382812 677.4375 2552.9375 671.613281 C 2568.496094 665.792969 2595.976562 655.179688 2597.851562 654.742188 C 2599.722656 654.308594 2601.714844 653.855469 2603.679688 653.480469 C 2605.644531 653.109375 2607.597656 652.953125 2609.527344 652.996094 C 2611.457031 653.039062 2613.402344 653.140625 2617.292969 653.613281 C 2621.179688 654.085938 2625.488281 655.179688 2630.347656 657.042969 C 2635.207031 658.902344 2640.632812 661.457031 2646 662.089844 C 2651.363281 662.726562 2653.898438 657.816406 2650.859375 656.246094 C 2650.859375 656.246094 2646.378906 649.65625 2640.371094 647.234375 C 2634.367188 644.816406 2628.722656 643.214844 2623.4375 642.414062 C 2618.15625 641.617188 2613.550781 641.734375 2611.253906 641.910156 C 2608.957031 642.085938 2606.636719 642.367188 2604.308594 642.71875 C 2601.980469 643.074219 2599.609375 643.351562 2597.242188 643.863281 C 2594.875 644.378906 2592.242188 645.355469 2564.761719 656.0625 C 2537.28125 666.769531 2534.386719 667.804688 2531.472656 668.699219 C 2528.558594 669.589844 2525.851562 670.316406 2523.339844 670.839844 C 2520.828125 671.359375 2518.523438 671.691406 2516.433594 671.808594 C 2514.347656 671.921875 2512.496094 671.9375 2510.550781 671.785156 C 2508.605469 671.632812 2506.539062 671.304688 2504.347656 670.835938 C 2502.15625 670.367188 2499.839844 669.746094 2497.488281 669.109375 C 2495.132812 668.472656 2484.660156 663.945312 2475.980469 659.976562 C 2467.296875 656.007812 2460.339844 652.960938 2455.109375 650.765625 C 2449.878906 648.574219 2446.289062 647.320312 2444.421875 646.835938 C 2442.554688 646.351562 2439.519531 645.488281 2436.140625 644.691406 C 2432.761719 643.894531 2429.261719 643.230469 2425.644531 642.675781 C 2422.027344 642.121094 2418.285156 641.714844 2414.417969 641.476562 C 2410.550781 641.234375 2406.9375 641.164062 2403.277344 641.300781 C 2399.617188 641.441406 2395.925781 641.730469 2392.195312 642.140625 C 2388.464844 642.550781 2384.695312 643.140625 2380.976562 643.949219 C 2377.257812 644.761719 2375.195312 645.144531 2371.351562 646.328125 C 2367.507812 647.511719 2362.078125 649.386719 2354.980469 651.949219 C 2347.882812 654.511719 2339.046875 657.625 2328.617188 661.582031 C 2318.183594 665.542969 2315.789062 666.273438 2313.207031 666.910156 C 2310.628906 667.550781 2308.097656 668.085938 2305.613281 668.511719 C 2303.128906 668.933594 2300.6875 669.230469 2298.292969 669.441406 C 2295.894531 669.652344 2292.574219 669.824219 2289.277344 669.839844 C 2285.984375 669.855469 2282.664062 669.664062 2279.324219 669.25 C 2275.984375 668.835938 2272.625 668.203125 2269.195312 667.332031 C 2265.765625 666.464844 2263.550781 665.898438 2260.046875 664.722656 C 2256.542969 663.550781 2251.578125 661.808594 2245.265625 659.347656 C 2238.953125 656.890625 2231.265625 653.828125 2222.28125 649.894531 C 2213.300781 645.957031 2210.769531 645.078125 2208.4375 644.449219 C 2206.101562 643.820312 2203.792969 643.222656 2201.480469 642.730469 C 2199.164062 642.238281 2196.847656 641.894531 2194.496094 641.628906 C 2192.144531 641.363281 2188.367188 641.140625 2184.742188 641.210938 C 2181.121094 641.28125 2177.648438 641.535156 2174.328125 642.023438 C 2171.003906 642.515625 2167.835938 643.242188 2164.796875 644.222656 C 2161.757812 645.203125 2158.238281 646.855469 2155.351562 648.464844 C 2152.46875 650.070312 2150.15625 651.730469 2148.414062 653.539062 C 2146.671875 655.347656 2145.996094 657.621094 2146.367188 658.929688 C 2146.734375 660.863281 2149.921875 660.265625 2149.914062 660.890625 Z M 2149.914062 660.890625 " fill-opacity="0.898" fill-rule="nonzero"/><g clip-path="url(#34ec936124)"><path fill="#000000" d="M 1922.949219 736.382812 C 1922.992188 736.175781 1923.660156 735.738281 1925.691406 736.332031 C 1927.722656 736.925781 1929.957031 736.820312 1932.863281 736.078125 C 1935.769531 735.335938 1939.585938 734.660156 1943.03125 733.863281 C 1946.476562 733.066406 1949.234375 732.652344 1951.90625 732.261719 C 1954.578125 731.867188 1957.1875 731.835938 1959.722656 731.984375 C 1962.257812 732.132812 1964.71875 732.464844 1966.949219 732.875 C 1969.179688 733.289062 1971.179688 733.78125 1973.171875 734.34375 C 1975.167969 734.902344 1977.136719 735.589844 1979.082031 736.382812 C 1981.03125 737.171875 1982.96875 738.050781 1987.859375 741.046875 C 1992.75 744.042969 2000.378906 748.664062 2006.808594 752.773438 C 2013.238281 756.882812 2018.621094 760.273438 2023.035156 762.878906 C 2027.449219 765.480469 2030.941406 767.355469 2034.078125 768.675781 C 2037.21875 769.996094 2040.898438 771.460938 2044.632812 772.605469 C 2048.367188 773.75 2052.140625 774.59375 2055.9375 775.175781 C 2059.734375 775.761719 2063.554688 776.0625 2066.722656 776.15625 C 2069.894531 776.25 2072.558594 776.300781 2075.316406 776.097656 C 2078.074219 775.890625 2080.925781 775.523438 2083.863281 774.996094 C 2086.804688 774.46875 2089.835938 773.789062 2104.992188 768.125 C 2120.152344 762.460938 2146.890625 752.394531 2149.945312 751.480469 C 2153.003906 750.566406 2156.195312 749.765625 2159.402344 749.105469 C 2162.613281 748.449219 2165.828125 747.851562 2169.046875 747.292969 C 2172.269531 746.734375 2175.507812 746.417969 2178.855469 746.285156 C 2182.203125 746.152344 2185.691406 746.335938 2189.355469 746.722656 C 2193.019531 747.105469 2196.867188 747.726562 2200.886719 748.613281 C 2204.90625 749.503906 2209.265625 750.683594 2211.515625 751.410156 C 2213.765625 752.136719 2217.148438 753.550781 2221.6875 755.8125 C 2226.226562 758.074219 2231.925781 761.058594 2238.785156 764.71875 C 2245.644531 768.382812 2253.949219 772.507812 2256.234375 773.394531 C 2258.523438 774.285156 2260.683594 775.019531 2262.96875 775.515625 C 2265.253906 776.007812 2267.628906 776.433594 2270.097656 776.699219 C 2272.570312 776.96875 2275.183594 777.101562 2277.847656 777.039062 C 2280.515625 776.976562 2283.167969 776.746094 2285.8125 776.320312 C 2288.453125 775.894531 2291.097656 775.371094 2293.730469 774.679688 C 2296.367188 773.988281 2299.285156 772.996094 2309.800781 768.597656 C 2320.320312 764.203125 2329.054688 760.671875 2336.039062 758.007812 C 2343.027344 755.34375 2348.292969 753.734375 2351.539062 752.90625 C 2354.789062 752.082031 2356.417969 751.96875 2358.113281 751.671875 C 2359.808594 751.375 2361.332031 751.144531 2362.882812 750.988281 C 2364.429688 750.828125 2366 750.71875 2367.589844 750.632812 C 2369.179688 750.542969 2370.527344 750.589844 2381.625 749.269531 C 2392.71875 747.949219 2392.949219 742.535156 2385.589844 742.222656 C 2385.589844 742.222656 2370.988281 738.011719 2368.984375 738.117188 C 2366.980469 738.226562 2365.121094 738.269531 2363.289062 738.457031 C 2361.453125 738.644531 2359.636719 738.902344 2357.839844 739.203125 C 2356.042969 739.503906 2354.644531 739.796875 2351.765625 740.421875 C 2348.890625 741.042969 2344.492188 742.632812 2338.554688 745.089844 C 2332.613281 747.550781 2324.9375 750.636719 2315.636719 754.714844 C 2306.339844 758.796875 2295.394531 763.59375 2293.269531 764.207031 C 2291.144531 764.816406 2288.878906 765.355469 2286.625 765.769531 C 2284.375 766.179688 2282.113281 766.347656 2279.875 766.472656 C 2277.632812 766.59375 2275.414062 766.601562 2273.238281 766.492188 C 2271.0625 766.382812 2268.980469 766.164062 2267.007812 765.871094 C 2265.039062 765.574219 2263.1875 765.15625 2261.425781 764.707031 C 2259.664062 764.257812 2258.429688 763.9375 2250.941406 759.515625 C 2243.453125 755.089844 2236.828125 751.640625 2231.261719 748.9375 C 2225.695312 746.234375 2221.136719 744.339844 2217.570312 743.058594 C 2214.007812 741.777344 2211.710938 741.339844 2207.34375 740.15625 C 2202.980469 738.972656 2198.660156 738.085938 2194.480469 737.476562 C 2190.296875 736.867188 2186.246094 736.550781 2182.332031 736.558594 C 2178.417969 736.570312 2174.703125 736.828125 2171.191406 737.128906 C 2167.679688 737.429688 2164.199219 737.925781 2160.734375 738.558594 C 2157.269531 739.1875 2153.847656 740.066406 2150.429688 740.992188 C 2147.011719 741.921875 2143.371094 743.003906 2116.6875 753.28125 C 2090.007812 763.554688 2087.59375 763.941406 2084.839844 764.464844 C 2082.089844 764.988281 2079.46875 765.402344 2076.96875 765.695312 C 2074.46875 765.984375 2072.097656 766.152344 2069.832031 766.246094 C 2067.566406 766.34375 2064.136719 766.226562 2060.796875 765.855469 C 2057.457031 765.484375 2054.136719 764.871094 2050.832031 764.019531 C 2047.527344 763.167969 2044.226562 762.085938 2040.851562 760.746094 C 2037.472656 759.410156 2034.910156 758.40625 2031.371094 756.722656 C 2027.828125 755.039062 2023.097656 752.632812 2017.375 749.257812 C 2011.652344 745.886719 2004.921875 741.632812 1997.261719 736.304688 C 1989.601562 730.980469 1987.214844 729.648438 1985.074219 728.585938 C 1982.9375 727.523438 1980.773438 726.546875 1978.578125 725.667969 C 1976.378906 724.789062 1974.175781 723.929688 1971.898438 723.238281 C 1969.621094 722.546875 1966.753906 721.761719 1963.738281 721.277344 C 1960.71875 720.789062 1957.625 720.523438 1954.460938 720.484375 C 1951.292969 720.445312 1948.023438 720.253906 1944.636719 720.632812 C 1941.253906 721.011719 1936.488281 722.023438 1932.632812 723.347656 C 1928.777344 724.667969 1925.660156 726.09375 1923.910156 728.703125 C 1922.15625 731.316406 1921.210938 733.441406 1920.808594 734.433594 C 1920.324219 735.949219 1923.039062 735.855469 1922.949219 736.382812 Z M 1922.949219 736.382812 " fill-opacity="0.898" fill-rule="nonzero"/></g><g clip-path="url(#e082dd7c77)"><path fill="#000000" d="M 2167.566406 859.085938 C 2168.304688 857.582031 2171.230469 855.472656 2174.042969 853.414062 C 2176.851562 851.359375 2180.035156 849.109375 2184.125 847.027344 C 2188.214844 844.945312 2193.210938 843 2196.632812 842.046875 C 2200.054688 841.097656 2201.984375 840.992188 2204.054688 841.054688 C 2206.125 841.113281 2208.339844 841.347656 2210.691406 841.742188 C 2213.046875 842.132812 2215.507812 842.824219 2229.199219 847.789062 C 2242.886719 852.757812 2267.933594 862.457031 2270.988281 863.234375 C 2274.046875 864.007812 2276.960938 864.484375 2279.914062 864.820312 C 2282.871094 865.160156 2285.867188 865.355469 2288.90625 865.402344 C 2291.945312 865.453125 2295.0625 865.433594 2298.988281 865.148438 C 2302.917969 864.867188 2307.011719 864.570312 2311.242188 863.988281 C 2315.476562 863.40625 2319.847656 862.5625 2324.351562 861.496094 C 2328.859375 860.425781 2333.488281 859.179688 2336.542969 858.324219 C 2339.597656 857.472656 2343.859375 856.171875 2349.304688 854.308594 C 2354.75 852.445312 2361.40625 850.0625 2369.261719 847.105469 C 2377.113281 844.144531 2386.21875 840.867188 2388.355469 840.226562 C 2390.492188 839.585938 2392.535156 838.945312 2394.425781 838.359375 C 2396.320312 837.769531 2398.0625 837.238281 2399.664062 836.808594 C 2401.265625 836.378906 2402.707031 836.015625 2406.105469 835.269531 C 2409.5 834.523438 2412.808594 833.914062 2416.039062 833.46875 C 2419.273438 833.027344 2422.417969 832.671875 2425.488281 832.445312 C 2428.558594 832.21875 2431.53125 832.121094 2434.453125 832.148438 C 2437.371094 832.175781 2440.183594 832.324219 2442.878906 832.570312 C 2445.570312 832.816406 2448.136719 833.214844 2450.578125 833.707031 C 2453.023438 834.199219 2454.902344 834.683594 2480.910156 845.089844 C 2506.921875 855.496094 2510.035156 856.566406 2512.871094 857.191406 C 2515.707031 857.816406 2518.484375 858.292969 2521.21875 858.613281 C 2523.949219 858.933594 2526.644531 859.082031 2529.25 858.992188 C 2531.851562 858.902344 2533.632812 858.886719 2535.46875 858.632812 C 2537.304688 858.378906 2539.167969 858.007812 2541.054688 857.535156 C 2542.945312 857.066406 2544.863281 856.496094 2546.953125 855.722656 C 2549.046875 854.953125 2559.917969 849.8125 2569.347656 845.558594 C 2578.777344 841.304688 2586.898438 838.0625 2593.585938 835.617188 C 2600.277344 833.167969 2605.484375 831.488281 2609.328125 830.582031 C 2613.175781 829.675781 2616.578125 828.828125 2620.800781 828.40625 C 2625.023438 827.980469 2630.429688 827.792969 2636.972656 827.671875 C 2643.515625 827.550781 2651.1875 827.660156 2657.625 825.210938 C 2664.066406 822.765625 2664.148438 819.65625 2659.878906 819.542969 C 2659.878906 819.542969 2651.417969 814.09375 2643.8125 814.144531 C 2636.210938 814.195312 2629.644531 814.617188 2624.105469 815.414062 C 2618.5625 816.207031 2613.988281 817.214844 2610.40625 818.160156 C 2606.820312 819.105469 2602.007812 820.496094 2596.015625 822.773438 C 2590.023438 825.050781 2582.78125 828.207031 2574.199219 832.113281 C 2565.613281 836.019531 2555.613281 840.570312 2549.511719 843.320312 C 2543.410156 846.066406 2541.75 846.617188 2540.144531 847.074219 C 2538.535156 847.527344 2536.980469 847.894531 2535.476562 848.175781 C 2533.976562 848.453125 2532.523438 848.648438 2530.699219 848.875 C 2528.871094 849.097656 2526.707031 849.160156 2524.460938 849.101562 C 2522.214844 849.042969 2519.890625 848.773438 2517.488281 848.320312 C 2515.089844 847.863281 2512.636719 847.152344 2498.46875 841.789062 C 2484.300781 836.425781 2458.199219 826.097656 2455.292969 825.421875 C 2452.386719 824.746094 2449.601562 824.25 2446.710938 823.886719 C 2443.820312 823.527344 2440.832031 823.207031 2437.734375 823.066406 C 2434.632812 822.921875 2431.402344 822.871094 2428.117188 823.023438 C 2424.832031 823.175781 2421.492188 823.46875 2418.09375 823.941406 C 2414.695312 824.414062 2411.234375 824.996094 2407.707031 825.730469 C 2404.183594 826.460938 2400.617188 827.289062 2399 827.703125 C 2397.378906 828.113281 2395.636719 828.597656 2393.75 829.121094 C 2391.867188 829.640625 2389.847656 830.238281 2387.699219 830.917969 C 2385.546875 831.597656 2383.164062 832.476562 2374.480469 835.710938 C 2365.800781 838.945312 2358.347656 841.59375 2352.160156 843.785156 C 2345.972656 845.976562 2341.039062 847.671875 2337.378906 848.863281 C 2333.722656 850.058594 2331.3125 850.71875 2326.828125 851.738281 C 2322.34375 852.761719 2318.042969 853.609375 2313.925781 854.40625 C 2309.8125 855.203125 2305.859375 855.800781 2302.078125 856.304688 C 2298.296875 856.804688 2294.683594 857.054688 2291.886719 857.105469 C 2289.085938 857.15625 2286.320312 856.988281 2283.601562 856.746094 C 2280.882812 856.503906 2278.210938 856.140625 2275.585938 855.644531 C 2272.960938 855.152344 2270.753906 854.867188 2245.8125 845.066406 C 2220.867188 835.265625 2217.746094 834.316406 2214.980469 833.722656 C 2212.214844 833.125 2209.550781 832.65625 2206.972656 832.390625 C 2204.394531 832.125 2201.902344 832.046875 2199.234375 832.214844 C 2196.566406 832.382812 2190.261719 834.144531 2184.855469 836.296875 C 2179.453125 838.445312 2174.914062 841.136719 2171.203125 844.253906 C 2167.492188 847.371094 2165.625 851.613281 2165.28125 853.886719 C 2164.300781 857.871094 2168.203125 857.371094 2167.566406 859.085938 Z M 2167.566406 859.085938 " fill-opacity="0.898" fill-rule="nonzero"/></g><g clip-path="url(#273a0411fe)"><g transform="matrix(1, 0, 0, 1, 1291, 627)"><g clip-path="url(#5a41c25c10)"><g clip-path="url(#2bc577666d)"><path fill="#000000" d="M 738.28125 25.148438 C 737.710938 24.207031 733.59375 24.519531 731.769531 23.199219 C 729.949219 21.878906 727.957031 20.382812 725.601562 18.824219 C 723.25 17.265625 720.527344 15.632812 717.777344 14.140625 C 715.027344 12.644531 712.273438 11.585938 709.527344 10.792969 C 706.785156 10 704.050781 9.417969 701.308594 9.113281 C 698.566406 8.808594 695.8125 8.742188 693.296875 8.886719 C 690.78125 9.035156 688.445312 9.097656 686.089844 9.535156 C 683.738281 9.972656 681.34375 10.59375 678.90625 11.363281 C 676.46875 12.128906 674.007812 13.097656 660.058594 19.785156 C 646.109375 26.472656 620.832031 39.578125 617.957031 40.570312 C 615.082031 41.5625 612.394531 42.214844 609.722656 42.734375 C 607.054688 43.253906 604.382812 43.546875 601.722656 43.597656 C 599.066406 43.644531 596.46875 43.535156 594.183594 43.273438 C 591.898438 43.007812 589.578125 42.570312 587.230469 41.972656 C 584.886719 41.378906 582.527344 40.578125 580.105469 39.75 C 577.683594 38.921875 574.917969 37.8125 567.097656 33.667969 C 559.277344 29.523438 552.738281 26.085938 547.398438 23.394531 C 542.0625 20.707031 537.984375 18.683594 535.167969 17.503906 C 532.351562 16.324219 530.554688 15.878906 527.046875 14.863281 C 523.539062 13.847656 520.152344 13.164062 516.84375 12.667969 C 513.535156 12.171875 510.296875 11.839844 507.113281 11.707031 C 503.933594 11.574219 500.84375 11.667969 497.464844 12.050781 C 494.089844 12.433594 490.675781 13.121094 487.238281 13.976562 C 483.796875 14.835938 480.3125 15.839844 476.789062 17.019531 C 473.261719 18.203125 469.996094 19.488281 445.109375 32.792969 C 420.222656 46.097656 417.042969 47.363281 414.363281 48.148438 C 411.679688 48.929688 409 49.511719 406.328125 49.949219 C 403.660156 50.382812 400.996094 50.601562 398.355469 50.609375 C 395.714844 50.617188 393.199219 50.484375 390.691406 50.195312 C 388.183594 49.902344 385.671875 49.515625 383.15625 49 C 380.644531 48.480469 378.117188 47.867188 375.421875 46.980469 C 372.730469 46.09375 362.730469 41.183594 354.269531 37.210938 C 345.8125 33.238281 338.769531 30.214844 333.21875 28.042969 C 327.667969 25.875 323.679688 24.5625 321.261719 24.070312 C 318.84375 23.574219 317.261719 23.269531 315.878906 23.066406 C 314.492188 22.863281 313.070312 22.71875 311.617188 22.625 C 310.160156 22.53125 308.667969 22.472656 307.054688 22.4375 C 305.445312 22.398438 305.074219 22.386719 303.625 22.476562 C 302.171875 22.570312 299.425781 22.769531 295.480469 23.125 C 291.539062 23.480469 286.390625 23.808594 281.777344 22.007812 C 277.164062 20.207031 276.953125 17.359375 279.925781 17.136719 C 279.925781 17.136719 285.554688 12.433594 290.328125 12.070312 C 295.101562 11.710938 298.710938 11.636719 301.167969 11.539062 C 303.621094 11.4375 305.058594 11.40625 306.117188 11.445312 C 307.175781 11.488281 308.96875 11.398438 310.734375 11.503906 C 312.496094 11.609375 314.230469 11.792969 315.933594 12.042969 C 317.636719 12.292969 319.308594 12.613281 321.296875 13 C 323.285156 13.390625 326.949219 14.507812 331.773438 16.460938 C 336.601562 18.414062 342.75 21.199219 350.296875 24.804688 C 357.839844 28.410156 366.839844 32.761719 372.671875 35.503906 C 378.507812 38.25 380.703125 38.9375 382.882812 39.53125 C 385.0625 40.125 387.242188 40.570312 389.414062 40.875 C 391.585938 41.179688 393.757812 41.257812 395.957031 41.257812 C 398.152344 41.261719 400.390625 41.140625 402.65625 40.898438 C 404.921875 40.660156 407.222656 40.3125 409.550781 39.773438 C 411.878906 39.238281 414.261719 38.605469 427.71875 31.917969 C 441.175781 25.230469 466.171875 12.027344 470.082031 10.460938 C 473.996094 8.894531 477.765625 7.640625 481.53125 6.644531 C 485.300781 5.648438 489.046875 4.851562 492.785156 4.328125 C 496.519531 3.800781 500.265625 3.332031 503.816406 3.269531 C 507.371094 3.203125 510.953125 3.355469 514.570312 3.820312 C 518.1875 4.28125 521.839844 5.003906 525.527344 5.96875 C 529.210938 6.9375 532.800781 8.03125 535.285156 8.742188 C 537.769531 9.453125 541.398438 10.949219 546.152344 13.113281 C 550.910156 15.273438 556.785156 18.210938 563.785156 21.960938 C 570.785156 25.707031 578.867188 30.085938 580.90625 30.871094 C 582.945312 31.65625 585.082031 32.367188 587.179688 32.859375 C 589.28125 33.351562 591.304688 33.75 593.265625 34.039062 C 595.226562 34.328125 597.140625 34.5 599.351562 34.59375 C 601.5625 34.6875 603.785156 34.605469 606.050781 34.441406 C 608.320312 34.277344 610.617188 33.851562 612.953125 33.261719 C 615.289062 32.671875 617.308594 32.195312 642.898438 19.867188 C 668.488281 7.539062 671.332031 6.34375 674.007812 5.386719 C 676.6875 4.429688 679.328125 3.585938 681.945312 2.890625 C 684.5625 2.191406 687.152344 1.632812 689.730469 1.109375 C 692.304688 0.585938 695.527344 0.308594 698.796875 0.320312 C 702.066406 0.332031 705.34375 0.660156 708.625 1.265625 C 711.90625 1.867188 715.171875 2.800781 718.519531 3.917969 C 721.871094 5.035156 725.378906 6.804688 728.433594 8.644531 C 731.488281 10.488281 734.097656 12.542969 736.304688 14.71875 C 738.507812 16.898438 739.890625 19.523438 739.207031 21.617188 C 739.082031 24.695312 737.722656 24.171875 738.28125 25.148438 Z M 738.28125 25.148438 " fill-opacity="0.898" fill-rule="nonzero"/></g><path fill="#000000" d="M 513.894531 109.691406 C 513.847656 109.328125 512.292969 109.101562 511.300781 108.515625 C 510.308594 107.929688 508.921875 106.898438 506.839844 105.683594 C 504.761719 104.472656 502.007812 103.128906 499.230469 102.011719 C 496.453125 100.894531 493.84375 100.136719 491.058594 99.542969 C 488.277344 98.949219 485.304688 98.558594 482.144531 98.34375 C 478.988281 98.128906 475.644531 98.203125 472.914062 98.347656 C 470.183594 98.496094 468.105469 98.738281 466.023438 99.09375 C 463.9375 99.449219 461.84375 99.878906 459.734375 100.410156 C 457.628906 100.9375 455.554688 101.695312 449.886719 103.988281 C 444.214844 106.28125 435.640625 109.929688 428.441406 113.058594 C 421.238281 116.183594 415.308594 118.554688 410.679688 120.308594 C 406.046875 122.0625 402.617188 123.109375 399.597656 123.835938 C 396.578125 124.566406 392.890625 125.335938 389.222656 125.9375 C 385.554688 126.542969 381.898438 126.953125 378.257812 127.195312 C 374.613281 127.441406 370.980469 127.40625 367.875 127.238281 C 364.773438 127.070312 362.113281 126.78125 359.417969 126.378906 C 356.726562 125.976562 354 125.464844 351.242188 124.8125 C 348.488281 124.160156 345.691406 123.421875 338.636719 120.886719 C 331.578125 118.351562 321.695312 114.691406 313.550781 111.644531 C 305.40625 108.597656 298.921875 106.40625 294.191406 104.914062 C 289.460938 103.421875 286.546875 102.726562 283.746094 102.109375 C 280.949219 101.492188 277.445312 100.742188 273.988281 100.140625 C 270.53125 99.539062 267.113281 99.109375 263.726562 98.929688 C 260.339844 98.753906 256.996094 98.832031 253.484375 99.015625 C 249.976562 99.195312 246.375 99.519531 242.90625 99.929688 C 239.4375 100.339844 236.089844 100.8125 232.886719 101.464844 C 229.683594 102.117188 226.609375 102.886719 224.507812 103.417969 C 222.410156 103.949219 220.558594 104.558594 216.703125 106.15625 C 212.847656 107.757812 207.144531 110.195312 199.636719 113.449219 C 192.128906 116.707031 182.894531 120.929688 176.214844 124.097656 C 169.535156 127.265625 166.8125 128.136719 164.160156 128.816406 C 161.507812 129.496094 158.929688 129.976562 156.421875 130.25 C 153.914062 130.519531 151.480469 130.609375 149.078125 130.515625 C 146.671875 130.425781 144.117188 130.058594 141.398438 129.621094 C 138.679688 129.1875 135.792969 128.605469 132.730469 127.886719 C 129.667969 127.171875 126.445312 126.234375 110.890625 120.410156 C 95.332031 114.589844 67.855469 103.976562 65.980469 103.542969 C 64.105469 103.105469 62.117188 102.652344 60.152344 102.28125 C 58.1875 101.910156 56.234375 101.75 54.304688 101.792969 C 52.375 101.835938 50.429688 101.9375 46.539062 102.410156 C 42.652344 102.882812 38.34375 103.980469 33.484375 105.839844 C 28.625 107.699219 23.199219 110.253906 17.832031 110.890625 C 12.46875 111.523438 9.933594 106.613281 12.976562 105.042969 C 12.976562 105.042969 17.453125 98.457031 23.460938 96.035156 C 29.464844 93.613281 35.109375 92.011719 40.394531 91.214844 C 45.675781 90.417969 50.28125 90.535156 52.578125 90.710938 C 54.875 90.886719 57.195312 91.164062 59.523438 91.519531 C 61.851562 91.875 64.222656 92.148438 66.589844 92.664062 C 68.953125 93.175781 71.589844 94.15625 99.066406 104.863281 C 126.546875 115.566406 129.441406 116.605469 132.355469 117.496094 C 135.265625 118.386719 137.976562 119.113281 140.488281 119.636719 C 143 120.15625 145.300781 120.488281 147.390625 120.605469 C 149.480469 120.71875 151.332031 120.734375 153.277344 120.582031 C 155.222656 120.433594 157.285156 120.101562 159.476562 119.632812 C 161.667969 119.164062 163.988281 118.542969 166.339844 117.90625 C 168.691406 117.269531 179.164062 112.742188 187.84375 108.773438 C 196.527344 104.808594 203.484375 101.757812 208.714844 99.566406 C 213.941406 97.371094 217.535156 96.117188 219.402344 95.632812 C 221.269531 95.152344 224.304688 94.289062 227.683594 93.492188 C 231.0625 92.695312 234.5625 92.03125 238.179688 91.476562 C 241.796875 90.921875 245.539062 90.515625 249.402344 90.273438 C 253.269531 90.035156 256.882812 89.964844 260.542969 90.101562 C 264.203125 90.238281 267.894531 90.527344 271.625 90.9375 C 275.355469 91.347656 279.121094 91.9375 282.839844 92.75 C 286.5625 93.558594 288.625 93.941406 292.46875 95.125 C 296.3125 96.308594 301.742188 98.1875 308.839844 100.746094 C 315.9375 103.308594 324.769531 106.421875 335.203125 110.378906 C 345.632812 114.339844 348.027344 115.070312 350.609375 115.710938 C 353.1875 116.347656 355.71875 116.882812 358.203125 117.308594 C 360.6875 117.734375 363.128906 118.027344 365.523438 118.238281 C 367.921875 118.449219 371.242188 118.621094 374.535156 118.636719 C 377.832031 118.652344 381.152344 118.460938 384.488281 118.046875 C 387.828125 117.632812 391.1875 117 394.617188 116.128906 C 398.046875 115.261719 400.265625 114.695312 403.769531 113.523438 C 407.273438 112.347656 412.234375 110.605469 418.546875 108.144531 C 424.859375 105.6875 432.546875 102.625 441.53125 98.691406 C 450.511719 94.753906 453.042969 93.878906 455.375 93.25 C 457.707031 92.621094 460.019531 92.023438 462.332031 91.53125 C 464.644531 91.035156 466.964844 90.691406 469.316406 90.429688 C 471.664062 90.164062 475.445312 89.9375 479.066406 90.007812 C 482.6875 90.078125 486.160156 90.332031 489.484375 90.824219 C 492.804688 91.3125 495.972656 92.039062 499.011719 93.023438 C 502.050781 94.003906 505.570312 95.65625 508.457031 97.261719 C 511.339844 98.867188 513.652344 100.53125 515.394531 102.335938 C 517.136719 104.144531 517.8125 106.417969 517.441406 107.726562 C 517.074219 109.660156 513.886719 109.0625 513.894531 109.691406 Z M 513.894531 109.691406 " fill-opacity="0.898" fill-rule="nonzero"/><g clip-path="url(#daad70b3c4)"><path fill="#000000" d="M 740.847656 185.175781 C 740.804688 184.96875 740.136719 184.53125 738.105469 185.125 C 736.074219 185.71875 733.839844 185.613281 730.933594 184.871094 C 728.03125 184.128906 724.210938 183.453125 720.765625 182.65625 C 717.320312 181.863281 714.566406 181.449219 711.890625 181.054688 C 709.21875 180.664062 706.609375 180.628906 704.078125 180.777344 C 701.542969 180.925781 699.082031 181.257812 696.851562 181.667969 C 694.621094 182.082031 692.621094 182.578125 690.625 183.136719 C 688.632812 183.695312 686.664062 184.386719 684.714844 185.175781 C 682.769531 185.96875 680.832031 186.84375 675.941406 189.839844 C 671.050781 192.835938 663.421875 197.457031 656.992188 201.566406 C 650.5625 205.675781 645.183594 209.066406 640.769531 211.671875 C 636.355469 214.273438 632.863281 216.148438 629.722656 217.46875 C 626.585938 218.789062 622.90625 220.25 619.171875 221.398438 C 615.4375 222.542969 611.664062 223.386719 607.867188 223.96875 C 604.070312 224.554688 600.25 224.851562 597.082031 224.945312 C 593.910156 225.042969 591.246094 225.09375 588.488281 224.886719 C 585.730469 224.683594 582.878906 224.316406 579.941406 223.789062 C 577 223.257812 573.96875 222.582031 558.8125 216.917969 C 543.65625 211.253906 516.917969 201.1875 513.863281 200.273438 C 510.804688 199.359375 507.613281 198.558594 504.40625 197.898438 C 501.195312 197.242188 497.984375 196.644531 494.761719 196.085938 C 491.539062 195.527344 488.300781 195.210938 484.953125 195.078125 C 481.605469 194.945312 478.117188 195.128906 474.453125 195.515625 C 470.789062 195.902344 466.945312 196.519531 462.925781 197.40625 C 458.902344 198.296875 454.546875 199.476562 452.296875 200.203125 C 450.046875 200.929688 446.660156 202.34375 442.125 204.605469 C 437.585938 206.867188 431.886719 209.851562 425.027344 213.511719 C 418.167969 217.175781 409.867188 221.300781 407.578125 222.1875 C 405.289062 223.078125 403.132812 223.8125 400.847656 224.304688 C 398.558594 224.800781 396.1875 225.222656 393.714844 225.492188 C 391.242188 225.761719 388.632812 225.894531 385.964844 225.832031 C 383.300781 225.769531 380.648438 225.539062 378.003906 225.113281 C 375.363281 224.6875 372.71875 224.160156 370.085938 223.472656 C 367.449219 222.78125 364.53125 221.785156 354.015625 217.390625 C 343.496094 212.996094 334.761719 209.464844 327.777344 206.800781 C 320.789062 204.136719 315.523438 202.527344 312.277344 201.703125 C 309.03125 200.875 307.402344 200.765625 305.707031 200.464844 C 304.011719 200.167969 302.484375 199.9375 300.9375 199.78125 C 299.390625 199.625 297.820312 199.511719 296.230469 199.425781 C 294.640625 199.335938 293.289062 199.382812 282.195312 198.0625 C 271.101562 196.742188 270.871094 191.328125 278.230469 191.015625 C 278.230469 191.015625 292.832031 186.804688 294.835938 186.914062 C 296.835938 187.019531 298.695312 187.0625 300.53125 187.25 C 302.367188 187.4375 304.179688 187.695312 305.976562 187.996094 C 307.773438 188.296875 309.175781 188.589844 312.050781 189.214844 C 314.929688 189.835938 319.324219 191.425781 325.265625 193.886719 C 331.203125 196.34375 338.878906 199.429688 348.179688 203.507812 C 357.476562 207.589844 368.421875 212.386719 370.546875 212.996094 C 372.671875 213.609375 374.933594 214.144531 377.1875 214.558594 C 379.441406 214.972656 381.699219 215.140625 383.941406 215.265625 C 386.179688 215.386719 388.398438 215.390625 390.574219 215.285156 C 392.75 215.175781 394.832031 214.957031 396.804688 214.660156 C 398.777344 214.367188 400.628906 213.949219 402.386719 213.5 C 404.148438 213.050781 405.386719 212.730469 412.875 208.308594 C 420.359375 203.882812 426.984375 200.433594 432.550781 197.730469 C 438.117188 195.027344 442.675781 193.136719 446.238281 191.855469 C 449.804688 190.570312 452.101562 190.132812 456.464844 188.949219 C 460.832031 187.765625 465.148438 186.878906 469.332031 186.269531 C 473.515625 185.664062 477.5625 185.34375 481.476562 185.351562 C 485.390625 185.363281 489.109375 185.621094 492.617188 185.921875 C 496.128906 186.222656 499.609375 186.722656 503.074219 187.351562 C 506.539062 187.980469 509.960938 188.859375 513.378906 189.785156 C 516.796875 190.714844 520.4375 191.796875 547.117188 202.074219 C 573.800781 212.347656 576.214844 212.734375 578.964844 213.257812 C 581.714844 213.78125 584.335938 214.195312 586.835938 214.488281 C 589.335938 214.777344 591.707031 214.945312 593.972656 215.039062 C 596.238281 215.136719 599.667969 215.019531 603.007812 214.648438 C 606.347656 214.277344 609.667969 213.664062 612.972656 212.8125 C 616.277344 211.960938 619.574219 210.878906 622.953125 209.539062 C 626.328125 208.203125 628.894531 207.199219 632.433594 205.515625 C 635.972656 203.832031 640.707031 201.425781 646.425781 198.050781 C 652.148438 194.679688 658.878906 190.425781 666.539062 185.101562 C 674.199219 179.777344 676.585938 178.445312 678.722656 177.382812 C 680.859375 176.316406 683.027344 175.339844 685.222656 174.464844 C 687.421875 173.585938 689.625 172.722656 691.902344 172.03125 C 694.179688 171.339844 697.046875 170.558594 700.0625 170.070312 C 703.078125 169.585938 706.171875 169.316406 709.339844 169.277344 C 712.503906 169.238281 715.777344 169.046875 719.160156 169.429688 C 722.542969 169.808594 727.308594 170.820312 731.164062 172.140625 C 735.019531 173.460938 738.136719 174.886719 739.886719 177.5 C 741.640625 180.109375 742.585938 182.234375 742.988281 183.226562 C 743.472656 184.742188 740.761719 184.648438 740.847656 185.175781 Z M 740.847656 185.175781 " fill-opacity="0.898" fill-rule="nonzero"/></g><g clip-path="url(#d82549af8b)"><path fill="#000000" d="M 496.242188 307.875 C 495.507812 306.367188 492.578125 304.261719 489.769531 302.203125 C 486.957031 300.148438 483.777344 297.898438 479.683594 295.816406 C 475.59375 293.734375 470.597656 291.789062 467.179688 290.835938 C 463.757812 289.886719 461.828125 289.78125 459.757812 289.84375 C 457.683594 289.902344 455.472656 290.136719 453.117188 290.527344 C 450.765625 290.921875 448.304688 291.613281 434.613281 296.578125 C 420.925781 301.546875 395.878906 311.246094 392.824219 312.019531 C 389.769531 312.796875 386.855469 313.269531 383.898438 313.609375 C 380.945312 313.949219 377.945312 314.140625 374.90625 314.191406 C 371.871094 314.242188 368.753906 314.222656 364.824219 313.9375 C 360.898438 313.652344 356.804688 313.355469 352.574219 312.777344 C 348.339844 312.195312 343.96875 311.351562 339.464844 310.28125 C 334.957031 309.214844 330.332031 307.96875 327.277344 307.113281 C 324.21875 306.261719 319.957031 304.957031 314.511719 303.097656 C 309.066406 301.234375 302.410156 298.851562 294.558594 295.890625 C 286.707031 292.933594 277.601562 289.65625 275.464844 289.015625 C 273.328125 288.375 271.285156 287.734375 269.394531 287.148438 C 267.5 286.558594 265.757812 286.027344 264.15625 285.597656 C 262.554688 285.167969 261.113281 284.804688 257.71875 284.058594 C 254.320312 283.3125 251.015625 282.703125 247.78125 282.257812 C 244.550781 281.816406 241.402344 281.460938 238.332031 281.234375 C 235.265625 281.007812 232.289062 280.914062 229.371094 280.9375 C 226.449219 280.964844 223.636719 281.117188 220.945312 281.359375 C 218.253906 281.605469 215.6875 282.003906 213.242188 282.496094 C 210.796875 282.988281 208.921875 283.472656 182.914062 293.878906 C 156.90625 304.285156 153.789062 305.355469 150.957031 305.980469 C 148.121094 306.605469 145.34375 307.082031 142.609375 307.402344 C 139.875 307.722656 137.183594 307.871094 134.578125 307.78125 C 131.972656 307.691406 130.195312 307.671875 128.359375 307.417969 C 126.523438 307.164062 124.660156 306.796875 122.773438 306.324219 C 120.882812 305.851562 118.964844 305.285156 116.875 304.511719 C 114.78125 303.742188 103.910156 298.601562 94.480469 294.347656 C 85.054688 290.09375 76.933594 286.851562 70.242188 284.40625 C 63.554688 281.957031 58.347656 280.277344 54.503906 279.371094 C 50.65625 278.464844 47.253906 277.617188 43.03125 277.195312 C 38.808594 276.773438 33.402344 276.582031 26.859375 276.460938 C 20.320312 276.339844 12.644531 276.449219 6.207031 274 C -0.230469 271.554688 -0.3125 268.445312 3.953125 268.335938 C 3.953125 268.335938 12.414062 262.886719 20.019531 262.933594 C 27.621094 262.984375 34.1875 263.40625 39.726562 264.203125 C 45.269531 265 49.84375 266.003906 53.425781 266.949219 C 57.007812 267.894531 61.824219 269.285156 67.816406 271.5625 C 73.808594 273.839844 81.046875 276.996094 89.632812 280.902344 C 98.214844 284.808594 108.214844 289.359375 114.316406 292.109375 C 120.417969 294.855469 122.078125 295.402344 123.683594 295.859375 C 125.292969 296.316406 126.847656 296.683594 128.351562 296.960938 C 129.851562 297.242188 131.304688 297.4375 133.128906 297.664062 C 134.957031 297.886719 137.121094 297.949219 139.367188 297.890625 C 141.613281 297.832031 143.9375 297.5625 146.335938 297.109375 C 148.734375 296.652344 151.191406 295.941406 165.355469 290.578125 C 179.523438 285.214844 205.625 274.886719 208.527344 274.210938 C 211.433594 273.535156 214.222656 273.039062 217.113281 272.675781 C 220.003906 272.316406 222.992188 272 226.089844 271.855469 C 229.1875 271.710938 232.417969 271.660156 235.703125 271.8125 C 238.988281 271.964844 242.328125 272.257812 245.726562 272.730469 C 249.125 273.203125 252.589844 273.785156 256.113281 274.519531 C 259.636719 275.253906 263.203125 276.078125 264.820312 276.492188 C 266.441406 276.90625 268.183594 277.386719 270.070312 277.910156 C 271.953125 278.433594 273.972656 279.027344 276.121094 279.707031 C 278.273438 280.386719 280.65625 281.265625 289.339844 284.5 C 298.019531 287.734375 305.46875 290.382812 311.65625 292.574219 C 317.84375 294.765625 322.78125 296.460938 326.4375 297.652344 C 330.09375 298.847656 332.503906 299.507812 336.988281 300.527344 C 341.472656 301.546875 345.777344 302.398438 349.890625 303.195312 C 354.003906 303.988281 357.957031 304.589844 361.738281 305.089844 C 365.519531 305.589844 369.128906 305.84375 371.929688 305.894531 C 374.726562 305.941406 377.496094 305.777344 380.214844 305.535156 C 382.933594 305.292969 385.605469 304.925781 388.226562 304.433594 C 390.851562 303.941406 393.058594 303.652344 418 293.855469 C 442.945312 284.054688 446.066406 283.105469 448.832031 282.511719 C 451.597656 281.914062 454.261719 281.445312 456.839844 281.179688 C 459.417969 280.914062 461.910156 280.839844 464.578125 281.007812 C 467.246094 281.175781 473.546875 282.933594 478.953125 285.085938 C 484.359375 287.234375 488.894531 289.925781 492.605469 293.042969 C 496.316406 296.160156 498.183594 300.402344 498.527344 302.671875 C 499.507812 306.660156 495.605469 306.160156 496.242188 307.875 Z M 496.242188 307.875 " fill-opacity="0.898" fill-rule="nonzero"/></g></g></g></g><g clip-path="url(#eebf6c1d62)"><g transform="matrix(1, 0, 0, 1, 704, 627)"><g clip-path="url(#cdd45d9087)"><g clip-path="url(#bf56ea795e)"><path fill="#000000" d="M 737.984375 25.148438 C 737.410156 24.207031 733.292969 24.519531 731.472656 23.199219 C 729.652344 21.878906 727.660156 20.382812 725.304688 18.824219 C 722.953125 17.265625 720.230469 15.632812 717.480469 14.140625 C 714.730469 12.644531 711.976562 11.585938 709.230469 10.792969 C 706.484375 10 703.753906 9.417969 701.011719 9.113281 C 698.269531 8.808594 695.515625 8.742188 693 8.886719 C 690.480469 9.035156 688.148438 9.097656 685.792969 9.535156 C 683.4375 9.972656 681.046875 10.59375 678.609375 11.363281 C 676.171875 12.128906 673.710938 13.097656 659.761719 19.785156 C 645.8125 26.472656 620.535156 39.578125 617.660156 40.570312 C 614.785156 41.5625 612.097656 42.214844 609.425781 42.734375 C 606.753906 43.253906 604.085938 43.546875 601.425781 43.597656 C 598.765625 43.644531 596.171875 43.535156 593.886719 43.273438 C 591.601562 43.007812 589.28125 42.570312 586.933594 41.972656 C 584.589844 41.378906 582.230469 40.578125 579.808594 39.75 C 577.382812 38.921875 574.621094 37.8125 566.800781 33.667969 C 558.980469 29.523438 552.441406 26.085938 547.101562 23.394531 C 541.761719 20.707031 537.683594 18.683594 534.871094 17.503906 C 532.054688 16.324219 530.253906 15.878906 526.75 14.863281 C 523.242188 13.847656 519.855469 13.164062 516.546875 12.667969 C 513.238281 12.171875 509.996094 11.839844 506.816406 11.707031 C 503.636719 11.574219 500.546875 11.667969 497.167969 12.050781 C 493.789062 12.433594 490.378906 13.121094 486.9375 13.976562 C 483.5 14.835938 480.015625 15.839844 476.492188 17.019531 C 472.964844 18.203125 469.699219 19.488281 444.8125 32.792969 C 419.925781 46.097656 416.746094 47.363281 414.066406 48.148438 C 411.382812 48.929688 408.699219 49.511719 406.03125 49.949219 C 403.363281 50.382812 400.699219 50.601562 398.058594 50.609375 C 395.417969 50.617188 392.902344 50.484375 390.394531 50.195312 C 387.886719 49.902344 385.375 49.515625 382.859375 49 C 380.347656 48.480469 377.820312 47.867188 375.125 46.980469 C 372.433594 46.09375 362.433594 41.183594 353.972656 37.210938 C 345.515625 33.238281 338.46875 30.214844 332.921875 28.042969 C 327.371094 25.875 323.382812 24.5625 320.964844 24.070312 C 318.546875 23.574219 316.964844 23.269531 315.578125 23.066406 C 314.195312 22.863281 312.773438 22.71875 311.316406 22.625 C 309.863281 22.53125 308.371094 22.472656 306.757812 22.4375 C 305.148438 22.398438 304.777344 22.386719 303.324219 22.476562 C 301.875 22.570312 299.128906 22.769531 295.183594 23.125 C 291.238281 23.480469 286.09375 23.808594 281.480469 22.007812 C 276.867188 20.207031 276.65625 17.359375 279.628906 17.136719 C 279.628906 17.136719 285.257812 12.433594 290.03125 12.070312 C 294.804688 11.710938 298.414062 11.636719 300.871094 11.539062 C 303.324219 11.4375 304.761719 11.40625 305.820312 11.445312 C 306.878906 11.488281 308.671875 11.398438 310.4375 11.503906 C 312.199219 11.609375 313.933594 11.792969 315.636719 12.042969 C 317.339844 12.292969 319.007812 12.613281 321 13 C 322.988281 13.390625 326.652344 14.507812 331.476562 16.460938 C 336.304688 18.414062 342.453125 21.199219 350 24.804688 C 357.542969 28.410156 366.542969 32.761719 372.375 35.503906 C 378.210938 38.25 380.40625 38.9375 382.585938 39.53125 C 384.765625 40.125 386.945312 40.570312 389.117188 40.875 C 391.289062 41.179688 393.460938 41.257812 395.65625 41.257812 C 397.855469 41.261719 400.09375 41.140625 402.359375 40.898438 C 404.621094 40.660156 406.925781 40.3125 409.253906 39.773438 C 411.582031 39.238281 413.964844 38.605469 427.421875 31.917969 C 440.878906 25.230469 465.875 12.027344 469.785156 10.460938 C 473.695312 8.894531 477.46875 7.640625 481.234375 6.644531 C 485.003906 5.648438 488.75 4.851562 492.488281 4.328125 C 496.222656 3.800781 499.96875 3.332031 503.519531 3.269531 C 507.074219 3.203125 510.652344 3.355469 514.273438 3.820312 C 517.890625 4.28125 521.542969 5.003906 525.230469 5.96875 C 528.914062 6.9375 532.5 8.03125 534.988281 8.742188 C 537.472656 9.453125 541.101562 10.949219 545.855469 13.113281 C 550.613281 15.273438 556.488281 18.210938 563.488281 21.960938 C 570.484375 25.707031 578.570312 30.085938 580.609375 30.871094 C 582.644531 31.65625 584.785156 32.367188 586.882812 32.859375 C 588.984375 33.351562 591.007812 33.75 592.96875 34.039062 C 594.925781 34.328125 596.84375 34.5 599.054688 34.59375 C 601.265625 34.6875 603.488281 34.605469 605.753906 34.441406 C 608.023438 34.277344 610.320312 33.851562 612.65625 33.261719 C 614.992188 32.671875 617.011719 32.195312 642.601562 19.867188 C 668.191406 7.539062 671.035156 6.34375 673.710938 5.386719 C 676.390625 4.429688 679.03125 3.585938 681.648438 2.890625 C 684.265625 2.191406 686.855469 1.632812 689.433594 1.109375 C 692.007812 0.585938 695.230469 0.308594 698.5 0.320312 C 701.769531 0.332031 705.046875 0.660156 708.328125 1.265625 C 711.605469 1.867188 714.875 2.800781 718.222656 3.917969 C 721.570312 5.035156 725.082031 6.804688 728.136719 8.644531 C 731.191406 10.488281 733.800781 12.542969 736.007812 14.71875 C 738.210938 16.898438 739.59375 19.523438 738.910156 21.617188 C 738.78125 24.695312 737.425781 24.171875 737.984375 25.148438 Z M 737.984375 25.148438 " fill-opacity="0.898" fill-rule="nonzero"/></g><path fill="#000000" d="M 513.597656 109.691406 C 513.550781 109.328125 511.992188 109.101562 511.003906 108.515625 C 510.011719 107.929688 508.621094 106.898438 506.542969 105.683594 C 504.464844 104.472656 501.710938 103.128906 498.933594 102.011719 C 496.15625 100.894531 493.546875 100.136719 490.761719 99.542969 C 487.976562 98.949219 485.007812 98.558594 481.847656 98.34375 C 478.691406 98.128906 475.347656 98.203125 472.617188 98.347656 C 469.886719 98.496094 467.808594 98.738281 465.726562 99.09375 C 463.640625 99.449219 461.542969 99.878906 459.4375 100.410156 C 457.332031 100.9375 455.257812 101.695312 449.585938 103.988281 C 443.917969 106.28125 435.34375 109.929688 428.140625 113.058594 C 420.941406 116.183594 415.011719 118.554688 410.378906 120.308594 C 405.75 122.0625 402.320312 123.109375 399.300781 123.835938 C 396.28125 124.566406 392.59375 125.335938 388.921875 125.9375 C 385.253906 126.542969 381.601562 126.953125 377.960938 127.195312 C 374.316406 127.441406 370.683594 127.40625 367.578125 127.238281 C 364.476562 127.070312 361.816406 126.78125 359.121094 126.378906 C 356.429688 125.976562 353.703125 125.464844 350.945312 124.8125 C 348.191406 124.160156 345.394531 123.421875 338.339844 120.886719 C 331.28125 118.351562 321.394531 114.691406 313.253906 111.644531 C 305.109375 108.597656 298.625 106.40625 293.894531 104.914062 C 289.160156 103.421875 286.25 102.726562 283.449219 102.109375 C 280.652344 101.492188 277.148438 100.742188 273.691406 100.140625 C 270.234375 99.539062 266.816406 99.109375 263.429688 98.929688 C 260.039062 98.753906 256.695312 98.832031 253.1875 99.015625 C 249.679688 99.195312 246.078125 99.519531 242.609375 99.929688 C 239.140625 100.339844 235.792969 100.8125 232.589844 101.464844 C 229.386719 102.117188 226.3125 102.886719 224.210938 103.417969 C 222.109375 103.949219 220.261719 104.558594 216.40625 106.15625 C 212.550781 107.757812 206.847656 110.195312 199.339844 113.449219 C 191.832031 116.707031 182.597656 120.929688 175.917969 124.097656 C 169.238281 127.265625 166.515625 128.136719 163.863281 128.816406 C 161.210938 129.496094 158.632812 129.976562 156.125 130.25 C 153.617188 130.519531 151.183594 130.609375 148.777344 130.515625 C 146.375 130.425781 143.820312 130.058594 141.101562 129.621094 C 138.382812 129.1875 135.496094 128.605469 132.433594 127.886719 C 129.371094 127.171875 126.148438 126.234375 110.589844 120.410156 C 95.035156 114.589844 67.558594 103.976562 65.683594 103.542969 C 63.808594 103.105469 61.820312 102.652344 59.855469 102.28125 C 57.890625 101.910156 55.933594 101.75 54.007812 101.792969 C 52.078125 101.835938 50.132812 101.9375 46.242188 102.410156 C 42.355469 102.882812 38.046875 103.980469 33.1875 105.839844 C 28.328125 107.699219 22.902344 110.253906 17.535156 110.890625 C 12.171875 111.523438 9.636719 106.613281 12.675781 105.042969 C 12.675781 105.042969 17.15625 98.457031 23.164062 96.035156 C 29.167969 93.613281 34.8125 92.011719 40.09375 91.214844 C 45.378906 90.417969 49.984375 90.535156 52.28125 90.710938 C 54.578125 90.886719 56.898438 91.164062 59.226562 91.519531 C 61.554688 91.875 63.925781 92.148438 66.292969 92.664062 C 68.65625 93.175781 71.292969 94.15625 98.769531 104.863281 C 126.25 115.566406 129.144531 116.605469 132.058594 117.496094 C 134.96875 118.386719 137.679688 119.113281 140.191406 119.636719 C 142.703125 120.15625 145.003906 120.488281 147.09375 120.605469 C 149.183594 120.71875 151.035156 120.734375 152.980469 120.582031 C 154.921875 120.433594 156.988281 120.101562 159.179688 119.632812 C 161.371094 119.164062 163.6875 118.542969 166.042969 117.90625 C 168.394531 117.269531 178.867188 112.742188 187.546875 108.773438 C 196.230469 104.808594 203.1875 101.757812 208.417969 99.566406 C 213.644531 97.371094 217.238281 96.117188 219.105469 95.632812 C 220.972656 95.152344 224.007812 94.289062 227.386719 93.492188 C 230.765625 92.695312 234.265625 92.03125 237.882812 91.476562 C 241.5 90.921875 245.242188 90.515625 249.105469 90.273438 C 252.972656 90.035156 256.585938 89.964844 260.246094 90.101562 C 263.90625 90.238281 267.59375 90.527344 271.328125 90.9375 C 275.058594 91.347656 278.824219 91.9375 282.542969 92.75 C 286.261719 93.558594 288.328125 93.941406 292.171875 95.125 C 296.015625 96.308594 301.445312 98.1875 308.542969 100.746094 C 315.640625 103.308594 324.472656 106.421875 334.902344 110.378906 C 345.335938 114.339844 347.730469 115.070312 350.3125 115.710938 C 352.890625 116.347656 355.421875 116.882812 357.90625 117.308594 C 360.390625 117.734375 362.832031 118.027344 365.226562 118.238281 C 367.625 118.449219 370.945312 118.621094 374.238281 118.636719 C 377.535156 118.652344 380.851562 118.460938 384.191406 118.046875 C 387.53125 117.632812 390.890625 117 394.320312 116.128906 C 397.75 115.261719 399.964844 114.695312 403.46875 113.523438 C 406.976562 112.347656 411.9375 110.605469 418.25 108.144531 C 424.5625 105.6875 432.25 102.625 441.234375 98.691406 C 450.214844 94.753906 452.746094 93.878906 455.078125 93.25 C 457.410156 92.621094 459.722656 92.023438 462.035156 91.53125 C 464.347656 91.035156 466.667969 90.691406 469.015625 90.429688 C 471.367188 90.164062 475.144531 89.9375 478.769531 90.007812 C 482.390625 90.078125 485.863281 90.332031 489.183594 90.824219 C 492.507812 91.3125 495.675781 92.039062 498.714844 93.023438 C 501.753906 94.003906 505.273438 95.65625 508.15625 97.261719 C 511.042969 98.867188 513.355469 100.53125 515.097656 102.335938 C 516.839844 104.144531 517.515625 106.417969 517.144531 107.726562 C 516.777344 109.660156 513.589844 109.0625 513.597656 109.691406 Z M 513.597656 109.691406 " fill-opacity="0.898" fill-rule="nonzero"/><path fill="#000000" d="M 740.550781 185.175781 C 740.507812 184.96875 739.839844 184.53125 737.808594 185.125 C 735.777344 185.71875 733.542969 185.613281 730.636719 184.871094 C 727.734375 184.128906 723.914062 183.453125 720.46875 182.65625 C 717.023438 181.863281 714.265625 181.449219 711.59375 181.054688 C 708.921875 180.664062 706.3125 180.628906 703.777344 180.777344 C 701.246094 180.925781 698.78125 181.257812 696.554688 181.667969 C 694.324219 182.082031 692.324219 182.578125 690.328125 183.136719 C 688.335938 183.695312 686.367188 184.386719 684.417969 185.175781 C 682.472656 185.96875 680.535156 186.84375 675.644531 189.839844 C 670.753906 192.835938 663.125 197.457031 656.695312 201.566406 C 650.265625 205.675781 644.882812 209.066406 640.46875 211.671875 C 636.058594 214.273438 632.5625 216.148438 629.425781 217.46875 C 626.289062 218.789062 622.609375 220.25 618.875 221.398438 C 615.140625 222.542969 611.367188 223.386719 607.570312 223.96875 C 603.773438 224.554688 599.953125 224.851562 596.78125 224.945312 C 593.613281 225.042969 590.949219 225.09375 588.191406 224.886719 C 585.433594 224.683594 582.582031 224.316406 579.644531 223.789062 C 576.703125 223.257812 573.671875 222.582031 558.515625 216.917969 C 543.359375 211.253906 516.621094 201.1875 513.566406 200.273438 C 510.507812 199.359375 507.316406 198.558594 504.109375 197.898438 C 500.898438 197.242188 497.683594 196.644531 494.464844 196.085938 C 491.242188 195.527344 488.003906 195.210938 484.65625 195.078125 C 481.308594 194.945312 477.820312 195.128906 474.15625 195.515625 C 470.492188 195.902344 466.648438 196.519531 462.628906 197.40625 C 458.605469 198.296875 454.246094 199.476562 452 200.203125 C 449.75 200.929688 446.363281 202.34375 441.824219 204.605469 C 437.289062 206.867188 431.589844 209.851562 424.730469 213.511719 C 417.871094 217.175781 409.566406 221.300781 407.28125 222.1875 C 404.992188 223.078125 402.835938 223.8125 400.546875 224.304688 C 398.261719 224.800781 395.890625 225.222656 393.417969 225.492188 C 390.945312 225.761719 388.335938 225.894531 385.667969 225.832031 C 383.003906 225.769531 380.347656 225.539062 377.707031 225.113281 C 375.066406 224.6875 372.421875 224.160156 369.785156 223.472656 C 367.152344 222.78125 364.234375 221.785156 353.714844 217.390625 C 343.199219 212.996094 334.464844 209.464844 327.480469 206.800781 C 320.492188 204.136719 315.226562 202.527344 311.980469 201.703125 C 308.734375 200.875 307.105469 200.765625 305.410156 200.464844 C 303.710938 200.167969 302.1875 199.9375 300.640625 199.78125 C 299.089844 199.625 297.523438 199.511719 295.933594 199.425781 C 294.34375 199.335938 292.992188 199.382812 281.898438 198.0625 C 270.804688 196.742188 270.574219 191.328125 277.929688 191.015625 C 277.929688 191.015625 292.535156 186.804688 294.539062 186.914062 C 296.539062 187.019531 298.398438 187.0625 300.234375 187.25 C 302.070312 187.4375 303.882812 187.695312 305.679688 187.996094 C 307.476562 188.296875 308.875 188.589844 311.753906 189.214844 C 314.632812 189.835938 319.027344 191.425781 324.96875 193.886719 C 330.90625 196.34375 338.582031 199.429688 347.882812 203.507812 C 357.179688 207.589844 368.125 212.386719 370.25 212.996094 C 372.375 213.609375 374.636719 214.144531 376.890625 214.558594 C 379.144531 214.972656 381.402344 215.140625 383.644531 215.265625 C 385.882812 215.386719 388.101562 215.390625 390.277344 215.285156 C 392.453125 215.175781 394.535156 214.957031 396.507812 214.660156 C 398.480469 214.367188 400.332031 213.949219 402.089844 213.5 C 403.851562 213.050781 405.085938 212.730469 412.574219 208.308594 C 420.0625 203.882812 426.6875 200.433594 432.253906 197.730469 C 437.820312 195.027344 442.378906 193.136719 445.941406 191.855469 C 449.503906 190.570312 451.804688 190.132812 456.167969 188.949219 C 460.535156 187.765625 464.851562 186.878906 469.035156 186.269531 C 473.21875 185.664062 477.265625 185.34375 481.179688 185.351562 C 485.09375 185.363281 488.808594 185.621094 492.320312 185.921875 C 495.832031 186.222656 499.3125 186.722656 502.777344 187.351562 C 506.242188 187.980469 509.664062 188.859375 513.082031 189.785156 C 516.5 190.714844 520.136719 191.796875 546.820312 202.074219 C 573.5 212.347656 575.914062 212.734375 578.667969 213.257812 C 581.417969 213.78125 584.039062 214.195312 586.539062 214.488281 C 589.035156 214.777344 591.410156 214.945312 593.675781 215.039062 C 595.941406 215.136719 599.371094 215.019531 602.710938 214.648438 C 606.050781 214.277344 609.367188 213.664062 612.675781 212.8125 C 615.980469 211.960938 619.277344 210.878906 622.65625 209.539062 C 626.03125 208.203125 628.59375 207.199219 632.136719 205.515625 C 635.675781 203.832031 640.410156 201.425781 646.128906 198.050781 C 651.851562 194.679688 658.582031 190.425781 666.242188 185.101562 C 673.902344 179.777344 676.289062 178.445312 678.425781 177.382812 C 680.5625 176.316406 682.726562 175.339844 684.925781 174.464844 C 687.121094 173.585938 689.328125 172.722656 691.605469 172.03125 C 693.882812 171.339844 696.75 170.558594 699.765625 170.070312 C 702.78125 169.585938 705.875 169.316406 709.042969 169.277344 C 712.207031 169.238281 715.480469 169.046875 718.863281 169.429688 C 722.246094 169.808594 727.011719 170.820312 730.867188 172.140625 C 734.722656 173.460938 737.839844 174.886719 739.589844 177.5 C 741.34375 180.109375 742.289062 182.234375 742.691406 183.226562 C 743.175781 184.742188 740.460938 184.648438 740.550781 185.175781 Z M 740.550781 185.175781 " fill-opacity="0.898" fill-rule="nonzero"/><g clip-path="url(#fa5bbfd7ff)"><path fill="#000000" d="M 495.945312 307.875 C 495.207031 306.367188 492.28125 304.261719 489.472656 302.203125 C 486.660156 300.148438 483.476562 297.898438 479.386719 295.816406 C 475.296875 293.734375 470.300781 291.789062 466.878906 290.835938 C 463.460938 289.886719 461.53125 289.78125 459.460938 289.84375 C 457.386719 289.902344 455.175781 290.136719 452.820312 290.527344 C 450.46875 290.921875 448.007812 291.613281 434.316406 296.578125 C 420.628906 301.546875 395.582031 311.246094 392.527344 312.019531 C 389.472656 312.796875 386.558594 313.269531 383.601562 313.609375 C 380.648438 313.949219 377.648438 314.140625 374.609375 314.191406 C 371.574219 314.242188 368.457031 314.222656 364.527344 313.9375 C 360.601562 313.652344 356.507812 313.355469 352.277344 312.777344 C 348.042969 312.195312 343.671875 311.351562 339.167969 310.28125 C 334.660156 309.214844 330.03125 307.96875 326.976562 307.113281 C 323.921875 306.261719 319.660156 304.957031 314.214844 303.097656 C 308.769531 301.234375 302.113281 298.851562 294.261719 295.890625 C 286.410156 292.933594 277.304688 289.65625 275.167969 289.015625 C 273.03125 288.375 270.988281 287.734375 269.09375 287.148438 C 267.203125 286.558594 265.460938 286.027344 263.859375 285.597656 C 262.257812 285.167969 260.816406 284.804688 257.417969 284.058594 C 254.023438 283.3125 250.714844 282.703125 247.484375 282.257812 C 244.253906 281.816406 241.105469 281.460938 238.035156 281.234375 C 234.96875 281.007812 231.992188 280.914062 229.074219 280.9375 C 226.152344 280.964844 223.339844 281.117188 220.648438 281.359375 C 217.957031 281.605469 215.390625 282.003906 212.945312 282.496094 C 210.5 282.988281 208.625 283.472656 182.617188 293.878906 C 156.609375 304.285156 153.492188 305.355469 150.65625 305.980469 C 147.824219 306.605469 145.042969 307.082031 142.3125 307.402344 C 139.578125 307.722656 136.886719 307.871094 134.28125 307.78125 C 131.675781 307.691406 129.898438 307.671875 128.0625 307.417969 C 126.226562 307.164062 124.363281 306.796875 122.472656 306.324219 C 120.585938 305.851562 118.667969 305.285156 116.578125 304.511719 C 114.484375 303.742188 103.613281 298.601562 94.183594 294.347656 C 84.757812 290.09375 76.636719 286.851562 69.945312 284.40625 C 63.257812 281.957031 58.050781 280.277344 54.203125 279.371094 C 50.359375 278.464844 46.957031 277.617188 42.734375 277.195312 C 38.511719 276.773438 33.105469 276.582031 26.5625 276.460938 C 20.019531 276.339844 12.347656 276.449219 5.910156 274 C -0.53125 271.554688 -0.609375 268.445312 3.65625 268.335938 C 3.65625 268.335938 12.117188 262.886719 19.722656 262.933594 C 27.324219 262.984375 33.890625 263.40625 39.429688 264.203125 C 44.96875 265 49.546875 266.003906 53.128906 266.949219 C 56.710938 267.894531 61.527344 269.285156 67.519531 271.5625 C 73.511719 273.839844 80.75 276.996094 89.335938 280.902344 C 97.917969 284.808594 107.917969 289.359375 114.019531 292.109375 C 120.121094 294.855469 121.78125 295.402344 123.386719 295.859375 C 124.996094 296.316406 126.550781 296.683594 128.054688 296.960938 C 129.554688 297.242188 131.003906 297.4375 132.832031 297.664062 C 134.660156 297.886719 136.824219 297.949219 139.070312 297.890625 C 141.316406 297.832031 143.640625 297.5625 146.039062 297.109375 C 148.4375 296.652344 150.890625 295.941406 165.058594 290.578125 C 179.226562 285.214844 205.324219 274.886719 208.230469 274.210938 C 211.136719 273.535156 213.925781 273.039062 216.816406 272.675781 C 219.707031 272.316406 222.695312 272 225.792969 271.855469 C 228.890625 271.710938 232.121094 271.660156 235.40625 271.8125 C 238.691406 271.964844 242.03125 272.257812 245.429688 272.730469 C 248.828125 273.203125 252.289062 273.785156 255.816406 274.519531 C 259.339844 275.253906 262.90625 276.078125 264.523438 276.492188 C 266.144531 276.90625 267.886719 277.386719 269.773438 277.910156 C 271.65625 278.433594 273.675781 279.027344 275.824219 279.707031 C 277.976562 280.386719 280.359375 281.265625 289.039062 284.5 C 297.722656 287.734375 305.171875 290.382812 311.359375 292.574219 C 317.546875 294.765625 322.484375 296.460938 326.140625 297.652344 C 329.796875 298.847656 332.207031 299.507812 336.691406 300.527344 C 341.175781 301.546875 345.476562 302.398438 349.589844 303.195312 C 353.703125 303.988281 357.65625 304.589844 361.441406 305.089844 C 365.222656 305.589844 368.832031 305.84375 371.632812 305.894531 C 374.429688 305.941406 377.199219 305.777344 379.917969 305.535156 C 382.636719 305.292969 385.308594 304.925781 387.929688 304.433594 C 390.554688 303.941406 392.761719 303.652344 417.703125 293.855469 C 442.648438 284.054688 445.769531 283.105469 448.535156 282.511719 C 451.300781 281.914062 453.960938 281.445312 456.542969 281.179688 C 459.121094 280.914062 461.613281 280.839844 464.28125 281.007812 C 466.949219 281.175781 473.25 282.933594 478.65625 285.085938 C 484.058594 287.234375 488.597656 289.925781 492.308594 293.042969 C 496.019531 296.160156 497.886719 300.402344 498.230469 302.671875 C 499.210938 306.660156 495.308594 306.160156 495.945312 307.875 Z M 495.945312 307.875 " fill-opacity="0.898" fill-rule="nonzero"/></g></g></g></g><g clip-path="url(#3a099b3a51)"><g transform="matrix(1, 0, 0, 1, -0.000000000000014211, 580)"><g clip-path="url(#f1d1fed338)"><g clip-path="url(#02ff2f5950)"><path fill="#000000" d="M 738.445312 25.140625 C 737.871094 24.199219 733.753906 24.507812 731.933594 23.191406 C 730.113281 21.871094 728.121094 20.371094 725.765625 18.816406 C 723.414062 17.257812 720.691406 15.625 717.941406 14.128906 C 715.1875 12.636719 712.4375 11.578125 709.691406 10.785156 C 706.945312 9.992188 704.210938 9.410156 701.46875 9.101562 C 698.726562 8.796875 695.976562 8.734375 693.460938 8.878906 C 690.941406 9.023438 688.605469 9.089844 686.253906 9.527344 C 683.898438 9.964844 681.507812 10.585938 679.070312 11.351562 C 676.632812 12.121094 674.171875 13.085938 660.222656 19.777344 C 646.273438 26.464844 620.996094 39.570312 618.121094 40.5625 C 615.246094 41.554688 612.558594 42.203125 609.886719 42.722656 C 607.214844 43.242188 604.546875 43.539062 601.886719 43.585938 C 599.226562 43.636719 596.628906 43.523438 594.347656 43.261719 C 592.0625 43 589.742188 42.5625 587.394531 41.964844 C 585.046875 41.367188 582.691406 40.566406 580.269531 39.742188 C 577.84375 38.914062 575.082031 37.800781 567.261719 33.65625 C 559.441406 29.511719 552.902344 26.074219 547.5625 23.386719 C 542.222656 20.699219 538.144531 18.675781 535.328125 17.496094 C 532.515625 16.316406 530.714844 15.867188 527.207031 14.855469 C 523.699219 13.839844 520.316406 13.152344 517.007812 12.65625 C 513.695312 12.160156 510.457031 11.832031 507.277344 11.695312 C 504.09375 11.5625 501.007812 11.660156 497.628906 12.042969 C 494.25 12.425781 490.839844 13.113281 487.398438 13.96875 C 483.960938 14.824219 480.476562 15.828125 476.949219 17.011719 C 473.425781 18.191406 470.15625 19.476562 445.273438 32.785156 C 420.386719 46.089844 417.207031 47.355469 414.523438 48.136719 C 411.84375 48.921875 409.160156 49.503906 406.492188 49.9375 C 403.824219 50.375 401.160156 50.589844 398.519531 50.601562 C 395.878906 50.609375 393.363281 50.476562 390.855469 50.183594 C 388.347656 49.890625 385.835938 49.507812 383.320312 48.988281 C 380.804688 48.472656 378.277344 47.859375 375.585938 46.972656 C 372.894531 46.085938 362.890625 41.175781 354.433594 37.203125 C 345.976562 33.230469 338.929688 30.203125 333.382812 28.035156 C 327.832031 25.863281 323.84375 24.554688 321.425781 24.058594 C 319.007812 23.566406 317.425781 23.261719 316.039062 23.058594 C 314.65625 22.855469 313.234375 22.707031 311.777344 22.617188 C 310.320312 22.523438 308.832031 22.464844 307.21875 22.425781 C 305.605469 22.390625 305.234375 22.375 303.785156 22.46875 C 302.335938 22.558594 299.589844 22.761719 295.644531 23.117188 C 291.699219 23.46875 286.554688 23.800781 281.941406 22 C 277.328125 20.199219 277.117188 17.347656 280.085938 17.128906 C 280.085938 17.128906 285.71875 12.421875 290.492188 12.0625 C 295.261719 11.699219 298.875 11.625 301.328125 11.527344 C 303.785156 11.429688 305.222656 11.394531 306.28125 11.4375 C 307.339844 11.476562 309.132812 11.390625 310.898438 11.496094 C 312.660156 11.601562 314.394531 11.78125 316.097656 12.035156 C 317.796875 12.285156 319.46875 12.601562 321.460938 12.992188 C 323.449219 13.382812 327.109375 14.5 331.9375 16.453125 C 336.761719 18.402344 342.914062 21.191406 350.457031 24.796875 C 358.003906 28.398438 367 32.75 372.835938 35.496094 C 378.667969 38.238281 380.867188 38.929688 383.046875 39.523438 C 385.226562 40.113281 387.40625 40.558594 389.578125 40.867188 C 391.75 41.171875 393.921875 41.25 396.117188 41.25 C 398.316406 41.25 400.550781 41.132812 402.816406 40.890625 C 405.082031 40.652344 407.386719 40.304688 409.714844 39.765625 C 412.042969 39.226562 414.421875 38.59375 427.882812 31.90625 C 441.339844 25.222656 466.335938 12.019531 470.246094 10.453125 C 474.15625 8.886719 477.925781 7.628906 481.695312 6.632812 C 485.464844 5.636719 489.210938 4.84375 492.949219 4.316406 C 496.683594 3.792969 500.429688 3.324219 503.980469 3.257812 C 507.53125 3.195312 511.113281 3.347656 514.734375 3.808594 C 518.351562 4.273438 522.003906 4.992188 525.6875 5.960938 C 529.375 6.929688 532.960938 8.023438 535.445312 8.734375 C 537.933594 9.445312 541.558594 10.941406 546.316406 13.101562 C 551.074219 15.265625 556.949219 18.203125 563.949219 21.949219 C 570.945312 25.699219 579.03125 30.078125 581.066406 30.859375 C 583.105469 31.644531 585.246094 32.355469 587.34375 32.847656 C 589.445312 33.339844 591.46875 33.742188 593.429688 34.027344 C 595.386719 34.316406 597.304688 34.492188 599.515625 34.585938 C 601.726562 34.679688 603.945312 34.59375 606.214844 34.429688 C 608.480469 34.265625 610.777344 33.84375 613.117188 33.253906 C 615.453125 32.664062 617.46875 32.1875 643.0625 19.859375 C 668.652344 7.527344 671.492188 6.335938 674.171875 5.375 C 676.847656 4.417969 679.492188 3.578125 682.105469 2.878906 C 684.722656 2.183594 687.316406 1.625 689.894531 1.101562 C 692.46875 0.578125 695.691406 0.300781 698.960938 0.3125 C 702.230469 0.324219 705.507812 0.652344 708.789062 1.253906 C 712.066406 1.859375 715.332031 2.789062 718.683594 3.910156 C 722.03125 5.027344 725.542969 6.796875 728.597656 8.636719 C 731.652344 10.476562 734.261719 12.53125 736.46875 14.710938 C 738.671875 16.890625 740.054688 19.511719 739.367188 21.609375 C 739.242188 24.683594 737.886719 24.160156 738.445312 25.140625 Z M 738.445312 25.140625 " fill-opacity="0.898" fill-rule="nonzero"/></g><path fill="#000000" d="M 514.054688 109.679688 C 514.011719 109.320312 512.453125 109.09375 511.464844 108.507812 C 510.472656 107.921875 509.082031 106.890625 507.003906 105.675781 C 504.925781 104.460938 502.171875 103.117188 499.394531 102.003906 C 496.613281 100.886719 494.007812 100.128906 491.222656 99.53125 C 488.4375 98.9375 485.464844 98.546875 482.308594 98.335938 C 479.152344 98.121094 475.804688 98.191406 473.078125 98.339844 C 470.347656 98.484375 468.269531 98.730469 466.183594 99.085938 C 464.101562 99.441406 462.003906 99.871094 459.898438 100.398438 C 457.792969 100.929688 455.714844 101.6875 450.046875 103.976562 C 444.378906 106.269531 435.800781 109.921875 428.601562 113.046875 C 421.402344 116.175781 415.472656 118.546875 410.839844 120.300781 C 406.210938 122.050781 402.78125 123.097656 399.761719 123.828125 C 396.742188 124.558594 393.050781 125.328125 389.382812 125.929688 C 385.714844 126.53125 382.0625 126.941406 378.417969 127.1875 C 374.777344 127.429688 371.144531 127.398438 368.039062 127.230469 C 364.933594 127.0625 362.277344 126.773438 359.582031 126.371094 C 356.890625 125.96875 354.164062 125.453125 351.40625 124.804688 C 348.652344 124.152344 345.855469 123.414062 338.796875 120.878906 C 331.742188 118.34375 321.855469 114.683594 313.710938 111.632812 C 305.566406 108.585938 299.085938 106.398438 294.355469 104.90625 C 289.621094 103.414062 286.710938 102.714844 283.910156 102.097656 C 281.109375 101.480469 277.609375 100.734375 274.152344 100.132812 C 270.695312 99.53125 267.273438 99.097656 263.886719 98.921875 C 260.5 98.742188 257.15625 98.824219 253.648438 99.003906 C 250.140625 99.1875 246.539062 99.511719 243.070312 99.921875 C 239.601562 100.332031 236.253906 100.804688 233.050781 101.457031 C 229.84375 102.105469 226.773438 102.878906 224.671875 103.410156 C 222.570312 103.941406 220.722656 104.546875 216.863281 106.148438 C 213.007812 107.746094 207.308594 110.1875 199.800781 113.441406 C 192.292969 116.695312 183.054688 120.917969 176.375 124.085938 C 169.695312 127.257812 166.972656 128.128906 164.324219 128.804688 C 161.671875 129.484375 159.09375 129.96875 156.585938 130.238281 C 154.078125 130.511719 151.644531 130.597656 149.238281 130.507812 C 146.835938 130.414062 144.28125 130.046875 141.5625 129.613281 C 138.84375 129.175781 135.957031 128.59375 132.894531 127.878906 C 129.832031 127.160156 126.609375 126.222656 111.050781 120.402344 C 95.496094 114.582031 68.015625 103.96875 66.144531 103.53125 C 64.269531 103.097656 62.28125 102.644531 60.316406 102.269531 C 58.351562 101.898438 56.394531 101.742188 54.464844 101.785156 C 52.535156 101.828125 50.589844 101.929688 46.703125 102.402344 C 42.8125 102.875 38.507812 103.96875 33.648438 105.832031 C 28.789062 107.691406 23.359375 110.246094 17.996094 110.878906 C 12.632812 111.511719 10.097656 106.605469 13.136719 105.035156 C 13.136719 105.035156 17.617188 98.445312 23.621094 96.023438 C 29.628906 93.605469 35.273438 92.003906 40.554688 91.203125 C 45.839844 90.40625 50.445312 90.523438 52.742188 90.699219 C 55.039062 90.875 57.359375 91.15625 59.6875 91.507812 C 62.015625 91.863281 64.386719 92.140625 66.75 92.65625 C 69.117188 93.167969 71.753906 94.144531 99.230469 104.851562 C 126.707031 115.558594 129.605469 116.59375 132.515625 117.484375 C 135.429688 118.375 138.140625 119.105469 140.652344 119.625 C 143.164062 120.148438 145.464844 120.480469 147.554688 120.59375 C 149.644531 120.710938 151.496094 120.726562 153.4375 120.574219 C 155.382812 120.421875 157.449219 120.09375 159.640625 119.625 C 161.832031 119.15625 164.148438 118.535156 166.503906 117.898438 C 168.855469 117.257812 179.328125 112.734375 188.007812 108.765625 C 196.6875 104.796875 203.648438 101.746094 208.875 99.554688 C 214.105469 97.363281 217.699219 96.109375 219.566406 95.625 C 221.433594 95.140625 224.464844 94.277344 227.84375 93.480469 C 231.222656 92.683594 234.722656 92.019531 238.34375 91.464844 C 241.960938 90.910156 245.699219 90.503906 249.566406 90.265625 C 253.433594 90.023438 257.046875 89.953125 260.707031 90.09375 C 264.367188 90.230469 268.054688 90.519531 271.785156 90.929688 C 275.515625 91.339844 279.285156 91.929688 283.003906 92.738281 C 286.722656 93.550781 288.789062 93.933594 292.632812 95.117188 C 296.476562 96.300781 301.902344 98.175781 309 100.738281 C 316.097656 103.300781 324.933594 106.414062 335.363281 110.371094 C 345.796875 114.328125 348.191406 115.0625 350.769531 115.699219 C 353.351562 116.335938 355.882812 116.871094 358.367188 117.296875 C 360.851562 117.722656 363.289062 118.019531 365.6875 118.230469 C 368.085938 118.441406 371.40625 118.609375 374.699219 118.625 C 377.996094 118.644531 381.3125 118.453125 384.652344 118.039062 C 387.992188 117.621094 391.351562 116.992188 394.78125 116.121094 C 398.210938 115.25 400.425781 114.6875 403.929688 113.511719 C 407.433594 112.335938 412.398438 110.59375 418.710938 108.136719 C 425.023438 105.679688 432.710938 102.617188 441.691406 98.679688 C 450.675781 94.746094 453.203125 93.867188 455.539062 93.238281 C 457.871094 92.609375 460.183594 92.011719 462.496094 91.519531 C 464.808594 91.027344 467.128906 90.683594 469.476562 90.417969 C 471.828125 90.152344 475.605469 89.929688 479.230469 90 C 482.851562 90.070312 486.324219 90.324219 489.644531 90.8125 C 492.96875 91.304688 496.132812 92.03125 499.175781 93.011719 C 502.214844 93.992188 505.734375 95.644531 508.617188 97.253906 C 511.503906 98.859375 513.816406 100.519531 515.558594 102.328125 C 517.296875 104.136719 517.976562 106.410156 517.601562 107.714844 C 517.238281 109.652344 514.050781 109.050781 514.054688 109.679688 Z M 514.054688 109.679688 " fill-opacity="0.898" fill-rule="nonzero"/><g clip-path="url(#3483b90c8c)"><path fill="#000000" d="M 741.007812 185.164062 C 740.96875 184.957031 740.300781 184.523438 738.269531 185.117188 C 736.238281 185.710938 734.003906 185.605469 731.097656 184.863281 C 728.191406 184.121094 724.375 183.445312 720.929688 182.648438 C 717.484375 181.851562 714.726562 181.4375 712.054688 181.046875 C 709.382812 180.652344 706.773438 180.617188 704.238281 180.769531 C 701.707031 180.917969 699.242188 181.25 697.011719 181.660156 C 694.78125 182.070312 692.785156 182.566406 690.789062 183.125 C 688.792969 183.6875 686.828125 184.375 684.878906 185.167969 C 682.929688 185.957031 680.996094 186.835938 676.105469 189.832031 C 671.210938 192.828125 663.582031 197.449219 657.152344 201.558594 C 650.726562 205.664062 645.34375 209.054688 640.929688 211.660156 C 636.515625 214.265625 633.023438 216.136719 629.886719 217.457031 C 626.746094 218.777344 623.066406 220.242188 619.332031 221.386719 C 615.597656 222.535156 611.824219 223.375 608.03125 223.960938 C 604.234375 224.542969 600.414062 224.84375 597.242188 224.9375 C 594.074219 225.03125 591.410156 225.082031 588.648438 224.878906 C 585.890625 224.675781 583.042969 224.304688 580.101562 223.777344 C 577.164062 223.25 574.132812 222.574219 558.976562 216.910156 C 543.820312 211.246094 517.082031 201.179688 514.023438 200.265625 C 510.96875 199.351562 507.777344 198.550781 504.566406 197.890625 C 501.359375 197.230469 498.144531 196.636719 494.925781 196.078125 C 491.703125 195.519531 488.464844 195.203125 485.117188 195.070312 C 481.769531 194.933594 478.28125 195.121094 474.617188 195.503906 C 470.953125 195.890625 467.109375 196.511719 463.085938 197.398438 C 459.066406 198.285156 454.707031 199.464844 452.457031 200.195312 C 450.207031 200.921875 446.824219 202.335938 442.285156 204.597656 C 437.746094 206.859375 432.050781 209.84375 425.191406 213.503906 C 418.332031 217.164062 410.027344 221.289062 407.742188 222.179688 C 405.453125 223.066406 403.296875 223.804688 401.007812 224.296875 C 398.722656 224.789062 396.351562 225.214844 393.878906 225.484375 C 391.40625 225.75 388.796875 225.882812 386.128906 225.820312 C 383.464844 225.757812 380.808594 225.527344 378.167969 225.105469 C 375.523438 224.679688 372.882812 224.152344 370.246094 223.460938 C 367.613281 222.769531 364.695312 221.777344 354.175781 217.382812 C 343.660156 212.988281 334.925781 209.457031 327.941406 206.792969 C 320.953125 204.128906 315.6875 202.519531 312.441406 201.691406 C 309.195312 200.863281 307.5625 200.753906 305.867188 200.457031 C 304.171875 200.160156 302.648438 199.925781 301.101562 199.769531 C 299.550781 199.613281 297.984375 199.503906 296.394531 199.414062 C 294.804688 199.328125 293.453125 199.371094 282.359375 198.050781 C 271.265625 196.730469 271.03125 191.320312 278.390625 191.007812 C 278.390625 191.007812 292.996094 186.796875 294.996094 186.902344 C 297 187.011719 298.859375 187.054688 300.695312 187.242188 C 302.53125 187.425781 304.34375 187.6875 306.140625 187.988281 C 307.9375 188.289062 309.335938 188.582031 312.214844 189.203125 C 315.09375 189.828125 319.488281 191.414062 325.429688 193.875 C 331.367188 196.335938 339.042969 199.417969 348.339844 203.5 C 357.640625 207.582031 368.582031 212.378906 370.707031 212.988281 C 372.835938 213.597656 375.097656 214.136719 377.351562 214.550781 C 379.605469 214.964844 381.863281 215.132812 384.105469 215.253906 C 386.34375 215.378906 388.5625 215.382812 390.738281 215.273438 C 392.914062 215.164062 394.996094 214.945312 396.96875 214.652344 C 398.9375 214.359375 400.789062 213.941406 402.550781 213.492188 C 404.3125 213.042969 405.546875 212.722656 413.035156 208.296875 C 420.523438 203.875 427.148438 200.425781 432.714844 197.722656 C 438.277344 195.019531 442.839844 193.125 446.402344 191.84375 C 449.964844 190.5625 452.265625 190.125 456.628906 188.941406 C 460.996094 187.757812 465.3125 186.867188 469.496094 186.261719 C 473.675781 185.652344 477.726562 185.335938 481.640625 185.34375 C 485.554688 185.355469 489.269531 185.613281 492.78125 185.914062 C 496.292969 186.214844 499.773438 186.710938 503.238281 187.339844 C 506.703125 187.972656 510.121094 188.851562 513.542969 189.777344 C 516.960938 190.703125 520.597656 191.789062 547.28125 202.0625 C 573.960938 212.339844 576.375 212.726562 579.125 213.25 C 581.878906 213.773438 584.5 214.1875 587 214.476562 C 589.496094 214.765625 591.871094 214.933594 594.136719 215.03125 C 596.402344 215.125 599.832031 215.007812 603.171875 214.636719 C 606.507812 214.269531 609.828125 213.652344 613.136719 212.800781 C 616.441406 211.949219 619.738281 210.867188 623.117188 209.53125 C 626.492188 208.191406 629.054688 207.1875 632.597656 205.507812 C 636.136719 203.824219 640.867188 201.414062 646.589844 198.042969 C 652.308594 194.667969 659.039062 190.414062 666.703125 185.089844 C 674.363281 179.765625 676.75 178.433594 678.886719 177.371094 C 681.023438 176.308594 683.1875 175.332031 685.386719 174.453125 C 687.582031 173.574219 689.789062 172.714844 692.066406 172.023438 C 694.34375 171.332031 697.210938 170.550781 700.226562 170.0625 C 703.242188 169.574219 706.335938 169.308594 709.503906 169.269531 C 712.667969 169.230469 715.9375 169.039062 719.324219 169.417969 C 722.707031 169.800781 727.472656 170.808594 731.328125 172.132812 C 735.183594 173.453125 738.296875 174.878906 740.050781 177.488281 C 741.804688 180.101562 742.75 182.226562 743.148438 183.214844 C 743.636719 184.734375 740.921875 184.640625 741.007812 185.164062 Z M 741.007812 185.164062 " fill-opacity="0.898" fill-rule="nonzero"/></g><g clip-path="url(#099eac0227)"><path fill="#000000" d="M 496.40625 307.863281 C 495.667969 306.359375 492.742188 304.25 489.929688 302.195312 C 487.121094 300.136719 483.9375 297.890625 479.847656 295.808594 C 475.757812 293.726562 470.761719 291.777344 467.339844 290.828125 C 463.921875 289.875 461.992188 289.773438 459.917969 289.832031 C 457.847656 289.894531 455.636719 290.128906 453.28125 290.519531 C 450.925781 290.914062 448.46875 291.601562 434.777344 296.570312 C 421.089844 301.535156 396.042969 311.234375 392.988281 312.011719 C 389.929688 312.785156 387.019531 313.261719 384.0625 313.601562 C 381.105469 313.9375 378.109375 314.132812 375.070312 314.183594 C 372.03125 314.230469 368.917969 314.210938 364.988281 313.929688 C 361.058594 313.644531 356.96875 313.347656 352.734375 312.765625 C 348.503906 312.183594 344.132812 311.34375 339.628906 310.273438 C 335.121094 309.203125 330.492188 307.957031 327.4375 307.105469 C 324.382812 306.25 320.121094 304.949219 314.675781 303.085938 C 309.230469 301.226562 302.574219 298.84375 294.722656 295.882812 C 286.871094 292.921875 277.765625 289.648438 275.628906 289.003906 C 273.488281 288.363281 271.449219 287.722656 269.554688 287.136719 C 267.664062 286.550781 265.921875 286.015625 264.320312 285.589844 C 262.71875 285.160156 261.277344 284.792969 257.878906 284.046875 C 254.480469 283.300781 251.175781 282.691406 247.945312 282.25 C 244.710938 281.808594 241.566406 281.449219 238.496094 281.226562 C 235.425781 281 232.453125 280.902344 229.53125 280.929688 C 226.613281 280.957031 223.800781 281.105469 221.109375 281.351562 C 218.417969 281.597656 215.851562 281.996094 213.40625 282.488281 C 210.960938 282.976562 209.085938 283.464844 183.078125 293.871094 C 157.070312 304.277344 153.953125 305.34375 151.117188 305.96875 C 148.285156 306.59375 145.503906 307.070312 142.773438 307.394531 C 140.039062 307.714844 137.347656 307.863281 134.742188 307.769531 C 132.136719 307.679688 130.359375 307.664062 128.523438 307.410156 C 126.683594 307.15625 124.824219 306.785156 122.933594 306.316406 C 121.046875 305.84375 119.128906 305.273438 117.039062 304.503906 C 114.945312 303.734375 104.074219 298.59375 94.644531 294.339844 C 85.214844 290.085938 77.09375 286.84375 70.40625 284.394531 C 63.714844 281.949219 58.511719 280.269531 54.664062 279.363281 C 50.820312 278.457031 47.417969 277.609375 43.195312 277.1875 C 38.972656 276.761719 33.566406 276.574219 27.023438 276.453125 C 20.480469 276.332031 12.808594 276.4375 6.371094 273.992188 C -0.0703125 271.546875 -0.148438 268.4375 4.117188 268.324219 C 4.117188 268.324219 12.578125 262.875 20.183594 262.925781 C 27.785156 262.976562 34.351562 263.398438 39.890625 264.191406 C 45.429688 264.988281 50.007812 265.996094 53.589844 266.941406 C 57.171875 267.886719 61.984375 269.277344 67.976562 271.554688 C 73.96875 273.828125 81.210938 276.988281 89.792969 280.894531 C 98.378906 284.800781 108.378906 289.351562 114.476562 292.097656 C 120.578125 294.847656 122.238281 295.394531 123.847656 295.851562 C 125.453125 296.308594 127.011719 296.671875 128.511719 296.953125 C 130.015625 297.234375 131.464844 297.429688 133.292969 297.652344 C 135.117188 297.878906 137.285156 297.941406 139.53125 297.882812 C 141.777344 297.824219 144.101562 297.554688 146.5 297.097656 C 148.898438 296.644531 151.351562 295.929688 165.519531 290.566406 C 179.6875 285.207031 205.785156 274.878906 208.691406 274.203125 C 211.597656 273.523438 214.382812 273.027344 217.273438 272.667969 C 220.167969 272.304688 223.15625 271.988281 226.253906 271.84375 C 229.351562 271.703125 232.582031 271.652344 235.867188 271.804688 C 239.152344 271.953125 242.492188 272.246094 245.890625 272.722656 C 249.289062 273.195312 252.75 273.777344 256.273438 274.507812 C 259.800781 275.242188 263.367188 276.070312 264.984375 276.484375 C 266.601562 276.894531 268.347656 277.378906 270.230469 277.898438 C 272.117188 278.421875 274.136719 279.015625 276.285156 279.695312 C 278.433594 280.375 280.820312 281.253906 289.5 284.492188 C 298.183594 287.726562 305.632812 290.371094 311.820312 292.5625 C 318.007812 294.753906 322.941406 296.449219 326.601562 297.644531 C 330.257812 298.835938 332.667969 299.5 337.152344 300.519531 C 341.636719 301.539062 345.9375 302.390625 350.050781 303.183594 C 354.164062 303.980469 358.117188 304.582031 361.902344 305.082031 C 365.683594 305.582031 369.292969 305.832031 372.09375 305.882812 C 374.890625 305.933594 377.65625 305.769531 380.375 305.527344 C 383.097656 305.28125 385.765625 304.917969 388.390625 304.425781 C 391.015625 303.933594 393.222656 303.644531 418.164062 293.84375 C 443.105469 284.042969 446.230469 283.097656 448.996094 282.5 C 451.761719 281.90625 454.421875 281.4375 457 281.171875 C 459.578125 280.90625 462.074219 280.828125 464.742188 280.996094 C 467.410156 281.164062 473.710938 282.925781 479.117188 285.074219 C 484.519531 287.226562 489.058594 289.917969 492.769531 293.035156 C 496.480469 296.152344 498.347656 300.394531 498.6875 302.664062 C 499.671875 306.648438 495.769531 306.152344 496.40625 307.863281 Z M 496.40625 307.863281 " fill-opacity="0.898" fill-rule="nonzero"/></g></g></g></g></g></g></svg>