<svg xmlns="http://www.w3.org/2000/svg" xmlns:xlink="http://www.w3.org/1999/xlink" width="512" zoomAndPan="magnify" viewBox="0 0 384 599.999999" height="800" preserveAspectRatio="xMidYMid meet" version="1.0"><defs><clipPath id="8152acb7b9"><path d="M 1 129.386719 L 383 129.386719 L 383 409 L 1 409 Z M 1 129.386719 " clip-rule="nonzero"/></clipPath><clipPath id="7cbb3136b6"><path d="M 1 129.386719 L 383 129.386719 L 383 409 L 1 409 Z M 1 129.386719 " clip-rule="nonzero"/></clipPath></defs><g clip-path="url(#8152acb7b9)"><path fill="#000000" d="M 208.121094 129.820312 C 221.652344 129.398438 236.117188 133.527344 247.242188 141.25 C 247.609375 141.503906 247.972656 141.761719 248.332031 142.023438 C 248.691406 142.285156 249.046875 142.550781 249.402344 142.820312 C 249.753906 143.089844 250.105469 143.363281 250.453125 143.640625 C 250.804688 143.917969 251.148438 144.199219 251.492188 144.484375 C 251.832031 144.769531 252.171875 145.054688 252.507812 145.347656 C 252.84375 145.636719 253.179688 145.933594 253.507812 146.230469 C 253.839844 146.53125 254.164062 146.832031 254.488281 147.136719 C 254.8125 147.441406 255.132812 147.75 255.449219 148.0625 C 255.765625 148.375 256.082031 148.691406 256.390625 149.011719 C 256.699219 149.328125 257.007812 149.652344 257.3125 149.976562 C 257.613281 150.300781 257.914062 150.628906 258.210938 150.960938 C 258.507812 151.292969 258.800781 151.628906 259.089844 151.964844 C 259.378906 152.304688 259.667969 152.644531 259.949219 152.988281 C 260.230469 153.332031 260.511719 153.679688 260.785156 154.027344 C 261.058594 154.378906 261.332031 154.730469 261.597656 155.085938 C 261.867188 155.441406 262.128906 155.800781 262.390625 156.160156 C 262.648438 156.523438 262.90625 156.886719 263.160156 157.25 C 263.410156 157.617188 263.660156 157.988281 263.902344 158.359375 C 264.148438 158.730469 264.386719 159.105469 264.625 159.480469 C 264.863281 159.859375 265.09375 160.238281 265.324219 160.617188 C 265.550781 161 265.777344 161.382812 265.996094 161.769531 C 266.214844 162.15625 266.433594 162.546875 266.644531 162.9375 C 266.855469 163.328125 267.066406 163.71875 267.269531 164.117188 C 267.472656 164.511719 267.671875 164.910156 267.867188 165.308594 C 268.0625 165.707031 268.253906 166.109375 268.441406 166.511719 C 268.628906 166.917969 268.8125 167.320312 268.988281 167.730469 C 269.167969 168.136719 269.339844 168.546875 269.511719 168.957031 C 269.679688 169.367188 269.847656 169.78125 270.007812 170.195312 C 270.167969 170.609375 270.324219 171.027344 270.476562 171.445312 C 270.628906 171.863281 270.777344 172.28125 270.917969 172.703125 C 271.0625 173.125 271.203125 173.546875 271.335938 173.96875 C 271.46875 174.394531 271.601562 174.820312 271.726562 175.246094 C 272.492188 177.882812 272.964844 180.570312 273.453125 183.269531 C 285.417969 178.75 295.867188 176.902344 308.582031 179.667969 C 321.300781 182.4375 333.132812 190.339844 340.144531 201.320312 C 346.34375 211.027344 349.484375 223.425781 348.320312 234.941406 C 347.992188 238.148438 347.15625 241.179688 346.457031 244.3125 C 348.058594 244.953125 349.636719 245.628906 351.160156 246.433594 C 364.671875 253.570312 375.140625 266.886719 379.574219 281.410156 C 384.542969 297.691406 382.304688 318.21875 374.246094 333.207031 C 358.851562 361.839844 330.53125 373.503906 299.160156 373.667969 C 296.28125 373.683594 293.382812 373.707031 290.507812 373.550781 C 284.84375 373.25 278.113281 372.167969 272.558594 373.578125 C 268.542969 374.59375 265.675781 378.035156 262.566406 380.542969 C 260.550781 382.167969 258.394531 383.710938 256.234375 385.144531 C 251.453125 388.320312 245.929688 390.671875 240.433594 392.3125 C 224.722656 397 205.042969 396.597656 189.75 390.515625 C 187.675781 389.691406 185.734375 388.632812 183.773438 387.578125 C 180.078125 391.15625 176.984375 394.296875 172.792969 397.355469 C 169.261719 399.871094 165.1875 402.09375 161.175781 403.722656 C 144.242188 410.597656 126.429688 409.84375 109.71875 402.808594 C 100.804688 399.054688 91.824219 392.25 86.769531 383.921875 C 85.167969 381.285156 84.058594 378.449219 82.898438 375.601562 C 77.980469 374.578125 72.871094 374.152344 67.914062 373.257812 C 53.863281 370.722656 40.03125 365.472656 28.859375 356.425781 C 13.132812 343.691406 3.777344 327.738281 1.707031 307.496094 C -0.195312 288.871094 3.292969 269.183594 15.371094 254.40625 C 25.582031 241.914062 39.460938 233.921875 55.648438 232.289062 C 55.609375 229.523438 55.550781 226.75 55.816406 223.992188 C 56.824219 213.679688 61.035156 202.964844 67.09375 194.554688 C 76.949219 180.875 92.089844 169.828125 108.945312 167.054688 C 117.515625 165.644531 127.210938 165.621094 135.140625 169.59375 C 137.1875 170.621094 139.015625 171.960938 140.867188 173.289062 C 142.113281 170.898438 143.140625 168.410156 144.4375 166.042969 C 147.027344 161.328125 150.332031 157.183594 153.964844 153.238281 C 168.617188 137.34375 186.847656 130.710938 208.121094 129.820312 Z M 208.121094 129.820312 " fill-opacity="1" fill-rule="nonzero"/></g><path fill="#ffffff" d="M 206.929688 135.992188 C 221.59375 135.550781 237.800781 140.230469 249.058594 149.804688 C 249.410156 150.105469 249.757812 150.414062 250.101562 150.722656 C 250.445312 151.035156 250.785156 151.347656 251.121094 151.667969 C 251.457031 151.984375 251.789062 152.308594 252.121094 152.636719 C 252.449219 152.964844 252.773438 153.292969 253.09375 153.628906 C 253.414062 153.964844 253.730469 154.304688 254.039062 154.644531 C 254.351562 154.988281 254.660156 155.335938 254.964844 155.6875 C 255.265625 156.035156 255.566406 156.390625 255.859375 156.746094 C 256.15625 157.105469 256.445312 157.46875 256.730469 157.832031 C 257.019531 158.195312 257.300781 158.566406 257.578125 158.9375 C 257.855469 159.308594 258.125 159.683594 258.394531 160.0625 C 258.660156 160.441406 258.925781 160.820312 259.183594 161.207031 C 259.441406 161.589844 259.695312 161.980469 259.941406 162.371094 C 260.191406 162.761719 260.433594 163.15625 260.675781 163.550781 C 260.914062 163.949219 261.148438 164.347656 261.375 164.75 C 261.605469 165.152344 261.832031 165.558594 262.050781 165.96875 C 262.269531 166.375 262.484375 166.785156 262.691406 167.199219 C 262.902344 167.613281 263.105469 168.03125 263.304688 168.449219 C 263.503906 168.867188 263.695312 169.285156 263.886719 169.710938 C 264.074219 170.132812 264.257812 170.558594 264.4375 170.988281 C 264.613281 171.414062 264.785156 171.84375 264.953125 172.277344 C 265.121094 172.707031 265.285156 173.140625 265.441406 173.578125 C 265.597656 174.011719 265.75 174.453125 265.894531 174.890625 C 266.042969 175.332031 266.183594 175.773438 266.316406 176.214844 C 266.453125 176.660156 266.582031 177.101562 266.707031 177.550781 C 266.832031 177.996094 266.949219 178.441406 267.0625 178.890625 C 267.179688 179.339844 267.285156 179.792969 267.386719 180.242188 C 267.492188 180.695312 267.585938 181.148438 267.679688 181.601562 C 267.769531 182.058594 267.855469 182.511719 267.933594 182.96875 C 268.015625 183.425781 268.089844 183.882812 268.15625 184.339844 C 268.226562 184.796875 268.289062 185.257812 268.347656 185.714844 C 268.40625 186.175781 268.457031 186.636719 268.503906 187.097656 C 268.550781 187.558594 268.589844 188.019531 268.625 188.480469 C 266.089844 189.824219 263.621094 191.246094 261.277344 192.90625 C 254.476562 197.738281 248.6875 204.363281 247.339844 212.84375 C 247.253906 213.394531 247.160156 213.851562 247.503906 214.316406 C 249.8125 213.4375 252.265625 207.488281 253.632812 205.265625 C 254.980469 203.074219 256.394531 200.882812 258.242188 199.066406 C 262.167969 195.203125 272.886719 189.515625 278.179688 187.523438 C 290.375 182.9375 303.761719 182.691406 315.765625 188.140625 C 316.113281 188.296875 316.457031 188.457031 316.804688 188.625 C 317.148438 188.789062 317.488281 188.957031 317.828125 189.132812 C 318.167969 189.304688 318.507812 189.484375 318.84375 189.664062 C 319.179688 189.847656 319.511719 190.03125 319.84375 190.222656 C 320.171875 190.414062 320.5 190.609375 320.828125 190.804688 C 321.152344 191.003906 321.476562 191.207031 321.800781 191.414062 C 322.121094 191.617188 322.4375 191.828125 322.753906 192.042969 C 323.070312 192.257812 323.382812 192.472656 323.695312 192.695312 C 324.003906 192.917969 324.3125 193.144531 324.617188 193.371094 C 324.921875 193.601562 325.226562 193.835938 325.527344 194.070312 C 325.824219 194.308594 326.121094 194.550781 326.414062 194.792969 C 326.707031 195.035156 327 195.285156 327.285156 195.535156 C 327.574219 195.785156 327.859375 196.042969 328.136719 196.300781 C 328.417969 196.558594 328.695312 196.820312 328.972656 197.085938 C 329.246094 197.347656 329.519531 197.617188 329.785156 197.890625 C 330.054688 198.160156 330.320312 198.433594 330.578125 198.714844 C 330.839844 198.992188 331.097656 199.273438 331.351562 199.558594 C 331.605469 199.839844 331.859375 200.128906 332.105469 200.421875 C 332.351562 200.710938 332.597656 201.003906 332.835938 201.300781 C 333.074219 201.597656 333.3125 201.898438 333.546875 202.199219 C 333.777344 202.5 334.007812 202.808594 334.230469 203.113281 C 334.457031 203.421875 334.675781 203.734375 334.894531 204.046875 C 335.113281 204.359375 335.324219 204.675781 335.535156 204.996094 C 335.746094 205.316406 335.953125 205.636719 336.152344 205.960938 C 336.355469 206.285156 336.550781 206.609375 336.746094 206.9375 C 336.9375 207.265625 337.128906 207.597656 337.316406 207.929688 C 337.5 208.265625 337.683594 208.601562 337.859375 208.9375 C 338.035156 209.273438 338.210938 209.617188 338.378906 209.957031 C 338.546875 210.300781 338.710938 210.644531 338.871094 210.988281 C 339.03125 211.335938 339.1875 211.683594 339.339844 212.035156 C 339.492188 212.382812 339.640625 212.734375 339.78125 213.089844 C 339.925781 213.441406 340.066406 213.796875 340.199219 214.15625 C 344.535156 225.953125 344.730469 236.085938 339.425781 247.570312 C 347.5 250.398438 354.496094 254.53125 360.671875 260.460938 C 371.539062 270.890625 376.503906 284.90625 376.699219 299.726562 C 376.707031 300.257812 376.707031 300.785156 376.703125 301.3125 C 376.699219 301.84375 376.6875 302.371094 376.667969 302.898438 C 376.652344 303.425781 376.628906 303.957031 376.597656 304.484375 C 376.566406 305.011719 376.527344 305.539062 376.484375 306.066406 C 376.441406 306.59375 376.390625 307.117188 376.335938 307.644531 C 376.277344 308.171875 376.214844 308.695312 376.144531 309.21875 C 376.074219 309.742188 376 310.265625 375.917969 310.789062 C 375.835938 311.308594 375.746094 311.832031 375.648438 312.351562 C 375.554688 312.871094 375.453125 313.390625 375.34375 313.90625 C 375.238281 314.425781 375.121094 314.941406 375.003906 315.457031 C 374.882812 315.972656 374.753906 316.484375 374.621094 316.996094 C 374.488281 317.507812 374.347656 318.019531 374.203125 318.527344 C 374.058594 319.035156 373.90625 319.539062 373.746094 320.046875 C 373.589844 320.550781 373.425781 321.050781 373.253906 321.550781 C 373.082031 322.054688 372.90625 322.550781 372.722656 323.046875 C 372.539062 323.542969 372.351562 324.039062 372.15625 324.527344 C 371.960938 325.019531 371.761719 325.507812 371.554688 325.996094 C 371.347656 326.484375 371.132812 326.96875 370.914062 327.449219 C 370.695312 327.929688 370.472656 328.410156 370.242188 328.882812 C 370.011719 329.359375 369.773438 329.832031 369.53125 330.304688 C 369.289062 330.773438 369.042969 331.242188 368.789062 331.703125 C 368.535156 332.167969 368.277344 332.628906 368.011719 333.085938 C 367.746094 333.542969 367.476562 334 367.199219 334.449219 C 366.921875 334.902344 366.640625 335.347656 366.355469 335.792969 C 366.066406 336.238281 365.773438 336.679688 365.476562 337.113281 C 365.179688 337.550781 364.875 337.984375 364.566406 338.414062 C 364.257812 338.84375 363.945312 339.269531 363.625 339.691406 C 363.308594 340.113281 362.984375 340.53125 362.652344 340.945312 C 362.324219 341.359375 361.988281 341.769531 361.648438 342.175781 C 361.3125 342.582031 360.964844 342.984375 360.617188 343.378906 C 360.269531 343.777344 359.914062 344.171875 359.554688 344.558594 C 359.195312 344.949219 358.832031 345.332031 358.464844 345.710938 C 342.960938 361.570312 317.164062 368.558594 295.4375 367.785156 C 287.777344 367.511719 275.960938 365.875 268.652344 368.148438 C 265.082031 369.257812 261.398438 373.632812 258.519531 376.066406 C 248.320312 384.683594 234.457031 388.710938 221.296875 389.460938 C 211.414062 390.023438 200.203125 389.347656 190.898438 385.710938 C 189.367188 385.113281 187.660156 384.351562 186.375 383.3125 C 185.558594 382.65625 184.832031 381.804688 183.917969 381.289062 C 183.460938 381.03125 183.09375 380.992188 182.578125 380.996094 C 181.542969 381.480469 180.550781 382.957031 179.800781 383.835938 C 178.664062 385.023438 177.484375 386.164062 176.257812 387.261719 C 175.03125 388.355469 173.765625 389.402344 172.457031 390.398438 C 171.152344 391.394531 169.804688 392.339844 168.425781 393.234375 C 167.042969 394.125 165.628906 394.960938 164.183594 395.742188 C 160.8125 397.601562 157.300781 399.289062 153.621094 400.4375 C 142.667969 403.859375 130.078125 403.28125 119.132812 400.09375 C 109.890625 397.402344 100.570312 392.003906 94.273438 384.667969 C 92.632812 382.757812 91.21875 380.453125 90 378.253906 C 88.125 374.871094 87.152344 371.15625 85.300781 367.796875 C 84.800781 367.570312 84.703125 367.566406 84.160156 367.617188 C 83.371094 368.117188 83.019531 368.921875 82.535156 369.691406 C 79.898438 369.8125 75.898438 368.890625 73.230469 368.433594 C 57.042969 365.65625 41.832031 359.660156 29.035156 349.222656 C 15.960938 338.558594 8.640625 323.78125 6.996094 307.105469 C 5.234375 289.199219 8.679688 271.691406 20.402344 257.542969 C 30.046875 245.902344 41.917969 239.257812 57.054688 237.84375 C 58.289062 242.097656 61.316406 250.515625 65 253.195312 C 65.542969 253.589844 65.910156 253.605469 66.558594 253.515625 C 67.058594 252.914062 66.707031 252.132812 66.4375 251.472656 C 65.660156 249.5625 64.601562 247.738281 63.710938 245.875 C 63.449219 245.335938 63.203125 244.789062 62.96875 244.238281 C 62.738281 243.6875 62.519531 243.132812 62.316406 242.570312 C 62.113281 242.007812 61.925781 241.441406 61.75 240.867188 C 61.578125 240.296875 61.417969 239.71875 61.273438 239.140625 C 61.128906 238.558594 61 237.976562 60.886719 237.386719 C 60.773438 236.800781 60.671875 236.210938 60.589844 235.621094 C 60.507812 235.027344 60.4375 234.433594 60.386719 233.839844 C 60.332031 233.242188 60.296875 232.644531 60.273438 232.046875 C 59.640625 217.207031 66.945312 202.109375 76.902344 191.347656 C 87.117188 180.308594 101.453125 172.234375 116.703125 171.652344 C 125.980469 171.296875 133.910156 173.914062 140.722656 180.226562 C 139.730469 182.417969 138.621094 185.566406 139.484375 187.953125 C 139.65625 188.425781 139.796875 188.644531 140.253906 188.851562 C 140.320312 188.8125 140.390625 188.777344 140.453125 188.734375 C 140.835938 188.445312 141.042969 188.027344 141.230469 187.597656 C 141.84375 186.171875 142.199219 184.53125 142.644531 183.042969 C 143.410156 180.476562 144.253906 177.96875 145.347656 175.519531 C 146.023438 174.023438 146.753906 172.550781 147.539062 171.109375 C 148.324219 169.667969 149.164062 168.257812 150.058594 166.878906 C 150.953125 165.5 151.898438 164.15625 152.894531 162.851562 C 153.890625 161.542969 154.933594 160.277344 156.027344 159.050781 C 169.257812 144.453125 187.441406 136.890625 206.929688 135.992188 Z M 206.929688 135.992188 " fill-opacity="1" fill-rule="nonzero"/><path fill="#000000" d="M 365.855469 303.824219 C 365.859375 303.976562 365.871094 304.132812 365.867188 304.285156 C 365.648438 316.695312 357.828125 332.914062 349.0625 341.554688 C 339.089844 351.378906 327.226562 356.257812 313.230469 356.175781 C 313.78125 355.925781 318.394531 355.183594 319.613281 354.847656 C 326.902344 352.820312 334.171875 349.796875 340.472656 345.582031 C 351.429688 338.253906 359.671875 326.765625 363.554688 314.210938 C 364.609375 310.8125 365.167969 307.308594 365.855469 303.824219 Z M 365.855469 303.824219 " fill-opacity="1" fill-rule="nonzero"/><path fill="#000000" d="M 107.535156 385.191406 C 109.175781 385.335938 112.136719 387.144531 113.785156 387.773438 C 114.726562 388.128906 115.675781 388.460938 116.632812 388.765625 C 117.589844 389.074219 118.554688 389.359375 119.527344 389.617188 C 120.5 389.875 121.480469 390.109375 122.464844 390.320312 C 123.449219 390.527344 124.4375 390.710938 125.429688 390.871094 C 126.421875 391.03125 127.417969 391.164062 128.421875 391.273438 C 129.421875 391.378906 130.421875 391.464844 131.425781 391.519531 C 132.433594 391.578125 133.4375 391.609375 134.445312 391.617188 C 135.449219 391.625 136.457031 391.605469 137.460938 391.5625 C 141.785156 391.328125 146.253906 390.65625 150.398438 389.40625 C 152.039062 388.914062 158.5 386.46875 159.628906 386.855469 C 159.511719 387.347656 159.164062 387.625 158.828125 387.996094 C 156.585938 389.824219 154.023438 391.085938 151.242188 391.875 C 136.316406 396.117188 120.800781 392.519531 107.535156 385.191406 Z M 107.535156 385.191406 " fill-opacity="1" fill-rule="nonzero"/><path fill="#000000" d="M 16.710938 322.40625 C 18.089844 324.539062 19.3125 328.804688 20.859375 331.539062 C 26.144531 340.886719 35.207031 348.0625 44.640625 352.945312 C 46.632812 353.976562 51.53125 355.183594 52.828125 356.582031 C 47.878906 357.277344 42.984375 355.628906 38.851562 352.957031 C 28.769531 346.4375 19.289062 334.179688 16.710938 322.40625 Z M 16.710938 322.40625 " fill-opacity="1" fill-rule="nonzero"/><path fill="#000000" d="M 252.675781 369.359375 C 252.933594 369.734375 252.925781 369.566406 252.835938 369.976562 C 252.414062 371.921875 250.011719 373.679688 248.390625 374.703125 C 237.859375 381.359375 223.1875 382.0625 211.21875 379.359375 C 210.617188 379.207031 210.054688 378.964844 209.480469 378.734375 C 224.898438 380.632812 239.683594 378.195312 252.675781 369.359375 Z M 252.675781 369.359375 " fill-opacity="1" fill-rule="nonzero"/><path fill="#000000" d="M 32.820312 254.808594 L 32.90625 254.890625 C 25.386719 262.691406 19.609375 271.171875 16.101562 281.480469 C 14.941406 284.898438 14.082031 288.414062 13.066406 291.875 C 12.183594 290.542969 12.964844 286.554688 13.273438 285 C 15.410156 274.175781 23.644531 260.972656 32.820312 254.808594 Z M 32.820312 254.808594 " fill-opacity="1" fill-rule="nonzero"/><g clip-path="url(#7cbb3136b6)"><path fill="#000000" d="M 208.121094 129.820312 C 221.652344 129.398438 236.117188 133.527344 247.242188 141.25 C 247.609375 141.503906 247.972656 141.761719 248.332031 142.023438 C 248.691406 142.285156 249.046875 142.550781 249.402344 142.820312 C 249.753906 143.089844 250.105469 143.363281 250.453125 143.640625 C 250.804688 143.917969 251.148438 144.199219 251.492188 144.484375 C 251.832031 144.769531 252.171875 145.054688 252.507812 145.347656 C 252.84375 145.636719 253.179688 145.933594 253.507812 146.230469 C 253.839844 146.53125 254.164062 146.832031 254.488281 147.136719 C 254.8125 147.441406 255.132812 147.75 255.449219 148.0625 C 255.765625 148.375 256.082031 148.691406 256.390625 149.011719 C 256.699219 149.328125 257.007812 149.652344 257.3125 149.976562 C 257.613281 150.300781 257.914062 150.628906 258.210938 150.960938 C 258.507812 151.292969 258.800781 151.628906 259.089844 151.964844 C 259.378906 152.304688 259.667969 152.644531 259.949219 152.988281 C 260.230469 153.332031 260.511719 153.679688 260.785156 154.027344 C 261.058594 154.378906 261.332031 154.730469 261.597656 155.085938 C 261.867188 155.441406 262.128906 155.800781 262.390625 156.160156 C 262.648438 156.523438 262.90625 156.886719 263.160156 157.25 C 263.410156 157.617188 263.660156 157.988281 263.902344 158.359375 C 264.148438 158.730469 264.386719 159.105469 264.625 159.480469 C 264.863281 159.859375 265.09375 160.238281 265.324219 160.617188 C 265.550781 161 265.777344 161.382812 265.996094 161.769531 C 266.214844 162.15625 266.433594 162.546875 266.644531 162.9375 C 266.855469 163.328125 267.066406 163.71875 267.269531 164.117188 C 267.472656 164.511719 267.671875 164.910156 267.867188 165.308594 C 268.0625 165.707031 268.253906 166.109375 268.441406 166.511719 C 268.628906 166.917969 268.8125 167.320312 268.988281 167.730469 C 269.167969 168.136719 269.339844 168.546875 269.511719 168.957031 C 269.679688 169.367188 269.847656 169.78125 270.007812 170.195312 C 270.167969 170.609375 270.324219 171.027344 270.476562 171.445312 C 270.628906 171.863281 270.777344 172.28125 270.917969 172.703125 C 271.0625 173.125 271.203125 173.546875 271.335938 173.96875 C 271.46875 174.394531 271.601562 174.820312 271.726562 175.246094 C 272.492188 177.882812 272.964844 180.570312 273.453125 183.269531 C 285.417969 178.75 295.867188 176.902344 308.582031 179.667969 C 321.300781 182.4375 333.132812 190.339844 340.144531 201.320312 C 346.34375 211.027344 349.484375 223.425781 348.320312 234.941406 C 347.992188 238.148438 347.15625 241.179688 346.457031 244.3125 C 348.058594 244.953125 349.636719 245.628906 351.160156 246.433594 C 364.671875 253.570312 375.140625 266.886719 379.574219 281.410156 C 384.542969 297.691406 382.304688 318.21875 374.246094 333.207031 C 358.851562 361.839844 330.53125 373.503906 299.160156 373.667969 C 296.28125 373.683594 293.382812 373.707031 290.507812 373.550781 C 284.84375 373.25 278.113281 372.167969 272.558594 373.578125 C 268.542969 374.59375 265.675781 378.035156 262.566406 380.542969 C 260.550781 382.167969 258.394531 383.710938 256.234375 385.144531 C 251.453125 388.320312 245.929688 390.671875 240.433594 392.3125 C 224.722656 397 205.042969 396.597656 189.75 390.515625 C 187.675781 389.691406 185.734375 388.632812 183.773438 387.578125 C 180.078125 391.15625 176.984375 394.296875 172.792969 397.355469 C 169.261719 399.871094 165.1875 402.09375 161.175781 403.722656 C 144.242188 410.597656 126.429688 409.84375 109.71875 402.808594 C 100.804688 399.054688 91.824219 392.25 86.769531 383.921875 C 85.167969 381.285156 84.058594 378.449219 82.898438 375.601562 C 77.980469 374.578125 72.871094 374.152344 67.914062 373.257812 C 53.863281 370.722656 40.03125 365.472656 28.859375 356.425781 C 13.132812 343.691406 3.777344 327.738281 1.707031 307.496094 C -0.195312 288.871094 3.292969 269.183594 15.371094 254.40625 C 25.582031 241.914062 39.460938 233.921875 55.648438 232.289062 C 55.609375 229.523438 55.550781 226.75 55.816406 223.992188 C 56.824219 213.679688 61.035156 202.964844 67.09375 194.554688 C 76.949219 180.875 92.089844 169.828125 108.945312 167.054688 C 117.515625 165.644531 127.210938 165.621094 135.140625 169.59375 C 137.1875 170.621094 139.015625 171.960938 140.867188 173.289062 C 142.113281 170.898438 143.140625 168.410156 144.4375 166.042969 C 147.027344 161.328125 150.332031 157.183594 153.964844 153.238281 C 168.617188 137.34375 186.847656 130.710938 208.121094 129.820312 Z M 208.121094 129.820312 " fill-opacity="1" fill-rule="nonzero"/></g><path fill="#ffffff" d="M 206.929688 135.992188 C 221.59375 135.550781 237.800781 140.230469 249.058594 149.804688 C 249.410156 150.105469 249.757812 150.414062 250.101562 150.722656 C 250.445312 151.035156 250.785156 151.347656 251.121094 151.667969 C 251.457031 151.984375 251.789062 152.308594 252.121094 152.636719 C 252.449219 152.964844 252.773438 153.292969 253.09375 153.628906 C 253.414062 153.964844 253.730469 154.304688 254.039062 154.644531 C 254.351562 154.988281 254.660156 155.335938 254.964844 155.6875 C 255.265625 156.035156 255.566406 156.390625 255.859375 156.746094 C 256.15625 157.105469 256.445312 157.46875 256.730469 157.832031 C 257.019531 158.195312 257.300781 158.566406 257.578125 158.9375 C 257.855469 159.308594 258.125 159.683594 258.394531 160.0625 C 258.660156 160.441406 258.925781 160.820312 259.183594 161.207031 C 259.441406 161.589844 259.695312 161.980469 259.941406 162.371094 C 260.191406 162.761719 260.433594 163.15625 260.675781 163.550781 C 260.914062 163.949219 261.148438 164.347656 261.375 164.75 C 261.605469 165.152344 261.832031 165.558594 262.050781 165.96875 C 262.269531 166.375 262.484375 166.785156 262.691406 167.199219 C 262.902344 167.613281 263.105469 168.03125 263.304688 168.449219 C 263.503906 168.867188 263.695312 169.285156 263.886719 169.710938 C 264.074219 170.132812 264.257812 170.558594 264.4375 170.988281 C 264.613281 171.414062 264.785156 171.84375 264.953125 172.277344 C 265.121094 172.707031 265.285156 173.140625 265.441406 173.578125 C 265.597656 174.011719 265.75 174.453125 265.894531 174.890625 C 266.042969 175.332031 266.183594 175.773438 266.316406 176.214844 C 266.453125 176.660156 266.582031 177.101562 266.707031 177.550781 C 266.832031 177.996094 266.949219 178.441406 267.0625 178.890625 C 267.179688 179.339844 267.285156 179.792969 267.386719 180.242188 C 267.492188 180.695312 267.585938 181.148438 267.679688 181.601562 C 267.769531 182.058594 267.855469 182.511719 267.933594 182.96875 C 268.015625 183.425781 268.089844 183.882812 268.15625 184.339844 C 268.226562 184.796875 268.289062 185.257812 268.347656 185.714844 C 268.40625 186.175781 268.457031 186.636719 268.503906 187.097656 C 268.550781 187.558594 268.589844 188.019531 268.625 188.480469 C 266.089844 189.824219 263.621094 191.246094 261.277344 192.90625 C 254.476562 197.738281 248.6875 204.363281 247.339844 212.84375 C 247.253906 213.394531 247.160156 213.851562 247.503906 214.316406 C 249.8125 213.4375 252.265625 207.488281 253.632812 205.265625 C 254.980469 203.074219 256.394531 200.882812 258.242188 199.066406 C 262.167969 195.203125 272.886719 189.515625 278.179688 187.523438 C 290.375 182.9375 303.761719 182.691406 315.765625 188.140625 C 316.113281 188.296875 316.457031 188.457031 316.804688 188.625 C 317.148438 188.789062 317.488281 188.957031 317.828125 189.132812 C 318.167969 189.304688 318.507812 189.484375 318.84375 189.664062 C 319.179688 189.847656 319.511719 190.03125 319.84375 190.222656 C 320.171875 190.414062 320.5 190.609375 320.828125 190.804688 C 321.152344 191.003906 321.476562 191.207031 321.800781 191.414062 C 322.121094 191.617188 322.4375 191.828125 322.753906 192.042969 C 323.070312 192.257812 323.382812 192.472656 323.695312 192.695312 C 324.003906 192.917969 324.3125 193.144531 324.617188 193.371094 C 324.921875 193.601562 325.226562 193.835938 325.527344 194.070312 C 325.824219 194.308594 326.121094 194.550781 326.414062 194.792969 C 326.707031 195.035156 327 195.285156 327.285156 195.535156 C 327.574219 195.785156 327.859375 196.042969 328.136719 196.300781 C 328.417969 196.558594 328.695312 196.820312 328.972656 197.085938 C 329.246094 197.347656 329.519531 197.617188 329.785156 197.890625 C 330.054688 198.160156 330.320312 198.433594 330.578125 198.714844 C 330.839844 198.992188 331.097656 199.273438 331.351562 199.558594 C 331.605469 199.839844 331.859375 200.128906 332.105469 200.421875 C 332.351562 200.710938 332.597656 201.003906 332.835938 201.300781 C 333.074219 201.597656 333.3125 201.898438 333.546875 202.199219 C 333.777344 202.5 334.007812 202.808594 334.230469 203.113281 C 334.457031 203.421875 334.675781 203.734375 334.894531 204.046875 C 335.113281 204.359375 335.324219 204.675781 335.535156 204.996094 C 335.746094 205.316406 335.953125 205.636719 336.152344 205.960938 C 336.355469 206.285156 336.550781 206.609375 336.746094 206.9375 C 336.9375 207.265625 337.128906 207.597656 337.316406 207.929688 C 337.5 208.265625 337.683594 208.601562 337.859375 208.9375 C 338.035156 209.273438 338.210938 209.617188 338.378906 209.957031 C 338.546875 210.300781 338.710938 210.644531 338.871094 210.988281 C 339.03125 211.335938 339.1875 211.683594 339.339844 212.035156 C 339.492188 212.382812 339.640625 212.734375 339.78125 213.089844 C 339.925781 213.441406 340.066406 213.796875 340.199219 214.15625 C 344.535156 225.953125 344.730469 236.085938 339.425781 247.570312 C 347.5 250.398438 354.496094 254.53125 360.671875 260.460938 C 371.539062 270.890625 376.503906 284.90625 376.699219 299.726562 C 376.707031 300.257812 376.707031 300.785156 376.703125 301.3125 C 376.699219 301.84375 376.6875 302.371094 376.667969 302.898438 C 376.652344 303.425781 376.628906 303.957031 376.597656 304.484375 C 376.566406 305.011719 376.527344 305.539062 376.484375 306.066406 C 376.441406 306.59375 376.390625 307.117188 376.335938 307.644531 C 376.277344 308.171875 376.214844 308.695312 376.144531 309.21875 C 376.074219 309.742188 376 310.265625 375.917969 310.789062 C 375.835938 311.308594 375.746094 311.832031 375.648438 312.351562 C 375.554688 312.871094 375.453125 313.390625 375.34375 313.90625 C 375.238281 314.425781 375.121094 314.941406 375.003906 315.457031 C 374.882812 315.972656 374.753906 316.484375 374.621094 316.996094 C 374.488281 317.507812 374.347656 318.019531 374.203125 318.527344 C 374.058594 319.035156 373.90625 319.539062 373.746094 320.046875 C 373.589844 320.550781 373.425781 321.050781 373.253906 321.550781 C 373.082031 322.054688 372.90625 322.550781 372.722656 323.046875 C 372.539062 323.542969 372.351562 324.039062 372.15625 324.527344 C 371.960938 325.019531 371.761719 325.507812 371.554688 325.996094 C 371.347656 326.484375 371.132812 326.96875 370.914062 327.449219 C 370.695312 327.929688 370.472656 328.410156 370.242188 328.882812 C 370.011719 329.359375 369.773438 329.832031 369.53125 330.304688 C 369.289062 330.773438 369.042969 331.242188 368.789062 331.703125 C 368.535156 332.167969 368.277344 332.628906 368.011719 333.085938 C 367.746094 333.542969 367.476562 334 367.199219 334.449219 C 366.921875 334.902344 366.640625 335.347656 366.355469 335.792969 C 366.066406 336.238281 365.773438 336.679688 365.476562 337.113281 C 365.179688 337.550781 364.875 337.984375 364.566406 338.414062 C 364.257812 338.84375 363.945312 339.269531 363.625 339.691406 C 363.308594 340.113281 362.984375 340.53125 362.652344 340.945312 C 362.324219 341.359375 361.988281 341.769531 361.648438 342.175781 C 361.3125 342.582031 360.964844 342.984375 360.617188 343.378906 C 360.269531 343.777344 359.914062 344.171875 359.554688 344.558594 C 359.195312 344.949219 358.832031 345.332031 358.464844 345.710938 C 342.960938 361.570312 317.164062 368.558594 295.4375 367.785156 C 287.777344 367.511719 275.960938 365.875 268.652344 368.148438 C 265.082031 369.257812 261.398438 373.632812 258.519531 376.066406 C 248.320312 384.683594 234.457031 388.710938 221.296875 389.460938 C 211.414062 390.023438 200.203125 389.347656 190.898438 385.710938 C 189.367188 385.113281 187.660156 384.351562 186.375 383.3125 C 185.558594 382.65625 184.832031 381.804688 183.917969 381.289062 C 183.460938 381.03125 183.09375 380.992188 182.578125 380.996094 C 181.542969 381.480469 180.550781 382.957031 179.800781 383.835938 C 178.664062 385.023438 177.484375 386.164062 176.257812 387.261719 C 175.03125 388.355469 173.765625 389.402344 172.457031 390.398438 C 171.152344 391.394531 169.804688 392.339844 168.425781 393.234375 C 167.042969 394.125 165.628906 394.960938 164.183594 395.742188 C 160.8125 397.601562 157.300781 399.289062 153.621094 400.4375 C 142.667969 403.859375 130.078125 403.28125 119.132812 400.09375 C 109.890625 397.402344 100.570312 392.003906 94.273438 384.667969 C 92.632812 382.757812 91.21875 380.453125 90 378.253906 C 88.125 374.871094 87.152344 371.15625 85.300781 367.796875 C 84.800781 367.570312 84.703125 367.566406 84.160156 367.617188 C 83.371094 368.117188 83.019531 368.921875 82.535156 369.691406 C 79.898438 369.8125 75.898438 368.890625 73.230469 368.433594 C 57.042969 365.65625 41.832031 359.660156 29.035156 349.222656 C 15.960938 338.558594 8.640625 323.78125 6.996094 307.105469 C 5.234375 289.199219 8.679688 271.691406 20.402344 257.542969 C 30.046875 245.902344 41.917969 239.257812 57.054688 237.84375 C 58.289062 242.097656 61.316406 250.515625 65 253.195312 C 65.542969 253.589844 65.910156 253.605469 66.558594 253.515625 C 67.058594 252.914062 66.707031 252.132812 66.4375 251.472656 C 65.660156 249.5625 64.601562 247.738281 63.710938 245.875 C 63.449219 245.335938 63.203125 244.789062 62.96875 244.238281 C 62.738281 243.6875 62.519531 243.132812 62.316406 242.570312 C 62.113281 242.007812 61.925781 241.441406 61.75 240.867188 C 61.578125 240.296875 61.417969 239.71875 61.273438 239.140625 C 61.128906 238.558594 61 237.976562 60.886719 237.386719 C 60.773438 236.800781 60.671875 236.210938 60.589844 235.621094 C 60.507812 235.027344 60.4375 234.433594 60.386719 233.839844 C 60.332031 233.242188 60.296875 232.644531 60.273438 232.046875 C 59.640625 217.207031 66.945312 202.109375 76.902344 191.347656 C 87.117188 180.308594 101.453125 172.234375 116.703125 171.652344 C 125.980469 171.296875 133.910156 173.914062 140.722656 180.226562 C 139.730469 182.417969 138.621094 185.566406 139.484375 187.953125 C 139.65625 188.425781 139.796875 188.644531 140.253906 188.851562 C 140.320312 188.8125 140.390625 188.777344 140.453125 188.734375 C 140.835938 188.445312 141.042969 188.027344 141.230469 187.597656 C 141.84375 186.171875 142.199219 184.53125 142.644531 183.042969 C 143.410156 180.476562 144.253906 177.96875 145.347656 175.519531 C 146.023438 174.023438 146.753906 172.550781 147.539062 171.109375 C 148.324219 169.667969 149.164062 168.257812 150.058594 166.878906 C 150.953125 165.5 151.898438 164.15625 152.894531 162.851562 C 153.890625 161.542969 154.933594 160.277344 156.027344 159.050781 C 169.257812 144.453125 187.441406 136.890625 206.929688 135.992188 Z M 206.929688 135.992188 " fill-opacity="1" fill-rule="nonzero"/><path fill="#000000" d="M 365.855469 303.824219 C 365.859375 303.976562 365.871094 304.132812 365.867188 304.285156 C 365.648438 316.695312 357.828125 332.914062 349.0625 341.554688 C 339.089844 351.378906 327.226562 356.257812 313.230469 356.175781 C 313.78125 355.925781 318.394531 355.183594 319.613281 354.847656 C 326.902344 352.820312 334.171875 349.796875 340.472656 345.582031 C 351.429688 338.253906 359.671875 326.765625 363.554688 314.210938 C 364.609375 310.8125 365.167969 307.308594 365.855469 303.824219 Z M 365.855469 303.824219 " fill-opacity="1" fill-rule="nonzero"/><path fill="#000000" d="M 107.535156 385.191406 C 109.175781 385.335938 112.136719 387.144531 113.785156 387.773438 C 114.726562 388.128906 115.675781 388.460938 116.632812 388.765625 C 117.589844 389.074219 118.554688 389.359375 119.527344 389.617188 C 120.5 389.875 121.480469 390.109375 122.464844 390.320312 C 123.449219 390.527344 124.4375 390.710938 125.429688 390.871094 C 126.421875 391.03125 127.417969 391.164062 128.421875 391.273438 C 129.421875 391.378906 130.421875 391.464844 131.425781 391.519531 C 132.433594 391.578125 133.4375 391.609375 134.445312 391.617188 C 135.449219 391.625 136.457031 391.605469 137.460938 391.5625 C 141.785156 391.328125 146.253906 390.65625 150.398438 389.40625 C 152.039062 388.914062 158.5 386.46875 159.628906 386.855469 C 159.511719 387.347656 159.164062 387.625 158.828125 387.996094 C 156.585938 389.824219 154.023438 391.085938 151.242188 391.875 C 136.316406 396.117188 120.800781 392.519531 107.535156 385.191406 Z M 107.535156 385.191406 " fill-opacity="1" fill-rule="nonzero"/><path fill="#000000" d="M 16.710938 322.40625 C 18.089844 324.539062 19.3125 328.804688 20.859375 331.539062 C 26.144531 340.886719 35.207031 348.0625 44.640625 352.945312 C 46.632812 353.976562 51.53125 355.183594 52.828125 356.582031 C 47.878906 357.277344 42.984375 355.628906 38.851562 352.957031 C 28.769531 346.4375 19.289062 334.179688 16.710938 322.40625 Z M 16.710938 322.40625 " fill-opacity="1" fill-rule="nonzero"/><path fill="#000000" d="M 252.675781 369.359375 C 252.933594 369.734375 252.925781 369.566406 252.835938 369.976562 C 252.414062 371.921875 250.011719 373.679688 248.390625 374.703125 C 237.859375 381.359375 223.1875 382.0625 211.21875 379.359375 C 210.617188 379.207031 210.054688 378.964844 209.480469 378.734375 C 224.898438 380.632812 239.683594 378.195312 252.675781 369.359375 Z M 252.675781 369.359375 " fill-opacity="1" fill-rule="nonzero"/><path fill="#000000" d="M 32.820312 254.808594 L 32.90625 254.890625 C 25.386719 262.691406 19.609375 271.171875 16.101562 281.480469 C 14.941406 284.898438 14.082031 288.414062 13.066406 291.875 C 12.183594 290.542969 12.964844 286.554688 13.273438 285 C 15.410156 274.175781 23.644531 260.972656 32.820312 254.808594 Z M 32.820312 254.808594 " fill-opacity="1" fill-rule="nonzero"/></svg>