<svg xmlns="http://www.w3.org/2000/svg" xmlns:xlink="http://www.w3.org/1999/xlink" width="512" zoomAndPan="magnify" viewBox="0 0 384 599.999999" height="800" preserveAspectRatio="xMidYMid meet" version="1.0"><defs><g/><clipPath id="a5329b42da"><path d="M 57.484375 129.152344 L 326.578125 129.152344 L 326.578125 511.652344 L 57.484375 511.652344 Z M 57.484375 129.152344 " clip-rule="nonzero"/></clipPath><clipPath id="a6654d1ddb"><path d="M 102.027344 196.441406 L 281.953125 196.441406 L 281.953125 377.941406 L 102.027344 377.941406 Z M 102.027344 196.441406 " clip-rule="nonzero"/></clipPath></defs><g clip-path="url(#a5329b42da)"><path stroke-linecap="butt" transform="matrix(0.849214, 0, 0, 0.849811, 57.565263, 129.152417)" fill="none" stroke-linejoin="miter" d="M 314.00038 447.608546 L 2.462262 447.608546 L 2.462262 154.101245 C 2.462262 151.619076 2.52206 149.136907 2.641656 146.659334 C 2.765852 144.181762 2.945246 141.704189 3.189037 139.23581 C 3.432829 136.767431 3.736419 134.303648 4.099806 131.849059 C 4.463194 129.394469 4.890979 126.949073 5.373963 124.517466 C 5.856946 122.081264 6.399727 119.663447 7.002307 117.254824 C 7.609486 114.8462 8.267263 112.455963 8.989439 110.079516 C 9.711614 107.707666 10.488987 105.349605 11.326158 103.014528 C 12.15873 100.67945 13.051099 98.362759 14.003267 96.069051 C 14.950834 93.775343 15.9582 91.509214 17.020763 89.266069 C 18.078727 87.022923 19.196489 84.807358 20.364849 82.619372 C 21.533208 80.426789 22.756767 78.270979 24.035523 76.142749 C 25.309679 74.014519 26.639033 71.918465 28.014386 69.854587 C 29.394339 67.79071 30.82489 65.763605 32.301439 63.768676 C 33.777989 61.773748 35.305136 59.820189 36.882882 57.898806 C 38.456028 55.98202 40.075173 54.102007 41.740316 52.263363 C 43.410058 50.424719 45.1212 48.627445 46.87374 46.876137 C 48.630879 45.120232 50.424818 43.410293 52.264755 41.741724 C 54.104692 40.077751 55.981427 38.455148 57.899562 36.878511 C 59.817696 35.306471 61.772629 33.780397 63.76896 32.300288 C 65.760692 30.824777 67.789222 29.395231 69.854552 28.016248 C 71.915281 26.637266 74.012809 25.308845 76.142536 24.035585 C 78.272263 22.757727 80.429589 21.535029 82.619114 20.36749 C 84.804039 19.195355 87.021163 18.078379 89.265886 17.021159 C 91.510609 15.959342 93.778331 14.952684 96.069053 14.001186 C 98.364374 13.054285 100.678095 12.162542 103.014815 11.32596 C 105.351535 10.489377 107.706654 9.707953 110.080172 8.990882 C 112.458291 8.269214 114.845609 7.607303 117.255926 7.005147 C 119.661644 6.402991 122.081161 5.855994 124.514477 5.37335 C 126.952394 4.890706 129.39491 4.463222 131.851226 4.10009 C 134.302942 3.736957 136.768457 3.433581 139.238573 3.189961 C 141.708688 2.946341 144.178803 2.762476 146.658118 2.642964 C 149.137433 2.518856 151.616748 2.4591 154.100663 2.4591 L 162.311381 2.4591 C 164.790696 2.4591 167.274611 2.518856 169.753926 2.638368 C 172.233241 2.762476 174.707956 2.941744 177.178072 3.185364 C 179.648187 3.428985 182.109103 3.732361 184.565418 4.095493 C 187.021734 4.458625 189.46425 4.881513 191.902167 5.364157 C 194.335483 5.846801 196.755 6.393798 199.165318 6.995953 C 201.571035 7.598109 203.962953 8.260021 206.341072 8.977092 C 208.71459 9.69876 211.06971 10.475587 213.411029 11.31217 C 215.747749 12.148753 218.06147 13.040495 220.356791 13.987396 C 222.647513 14.938895 224.919835 15.940955 227.159958 17.002772 C 229.404681 18.064589 231.621805 19.181565 233.81133 20.349104 C 236.000855 21.516643 238.162781 22.739341 240.292508 24.017198 C 242.417635 25.295056 244.515163 26.618879 246.580492 27.997862 C 248.645821 29.376845 250.674352 30.80639 252.666083 32.281902 C 254.662415 33.76201 256.617348 35.288084 258.535482 36.864721 C 260.458216 38.436762 262.334952 40.059365 264.174889 41.723338 C 266.014826 43.391907 267.813364 45.101846 269.565904 46.85775 C 271.323044 48.613655 273.034185 50.406333 274.703928 52.249573 C 276.369071 54.088217 277.988215 55.963634 279.565961 57.885016 C 281.139107 59.801802 282.666255 61.759958 284.147404 63.75029 C 285.623953 65.745218 287.054504 67.772323 288.434457 69.836201 C 289.81441 71.900078 291.139164 73.996132 292.41792 76.128959 C 293.692077 78.257189 294.915635 80.412999 296.088594 82.605582 C 297.256954 84.793568 298.374716 87.009134 299.43268 89.252279 C 300.495243 91.495424 301.502609 93.766149 302.450176 96.059858 C 303.402344 98.353566 304.294713 100.66566 305.131884 103.005334 C 305.969056 105.340412 306.746429 107.698473 307.468604 110.070323 C 308.18618 112.44677 308.848557 114.837007 309.455736 117.24563 C 310.058315 119.654254 310.601097 122.076667 311.08408 124.508273 C 311.571664 126.944476 311.994849 129.389872 312.358237 131.844462 C 312.721624 134.299051 313.025214 136.762834 313.269005 139.23581 C 313.512797 141.704189 313.696791 144.177165 313.816387 146.659334 C 313.940582 149.136907 314.00038 151.619076 314.00038 154.101245 Z M 314.00038 447.608546 " stroke="#231f20" stroke-width="4.92" stroke-opacity="1" stroke-miterlimit="10"/></g><g fill="#000000" fill-opacity="1"><g transform="translate(111.093747, 450.073585)"><g><path d="M 13.984375 -28.5625 C 18.617188 -28.5625 22.15625 -27.363281 24.59375 -24.96875 C 27.039062 -22.570312 28.265625 -19.007812 28.265625 -14.28125 C 28.265625 -9.5625 27.039062 -6 24.59375 -3.59375 C 22.15625 -1.195312 18.617188 0 13.984375 0 L 3.71875 0 L 3.71875 -28.5625 Z M 13.65625 -4.75 C 16.59375 -4.75 18.789062 -5.5 20.25 -7 C 21.707031 -8.507812 22.4375 -10.9375 22.4375 -14.28125 C 22.4375 -17.625 21.707031 -20.046875 20.25 -21.546875 C 18.789062 -23.054688 16.59375 -23.8125 13.65625 -23.8125 L 9.359375 -23.8125 L 9.359375 -4.75 Z M 13.65625 -4.75 "/></g></g></g><g fill="#000000" fill-opacity="1"><g transform="translate(141.618114, 450.073585)"><g><path d="M 12.515625 0.40625 C 10.410156 0.40625 8.5625 -0.0234375 6.96875 -0.890625 C 5.375 -1.753906 4.132812 -3.019531 3.25 -4.6875 C 2.375 -6.363281 1.9375 -8.390625 1.9375 -10.765625 C 1.9375 -13.128906 2.375 -15.148438 3.25 -16.828125 C 4.132812 -18.515625 5.375 -19.789062 6.96875 -20.65625 C 8.5625 -21.519531 10.410156 -21.953125 12.515625 -21.953125 C 14.628906 -21.953125 16.484375 -21.519531 18.078125 -20.65625 C 19.671875 -19.789062 20.910156 -18.515625 21.796875 -16.828125 C 22.679688 -15.148438 23.125 -13.128906 23.125 -10.765625 C 23.125 -8.390625 22.679688 -6.363281 21.796875 -4.6875 C 20.910156 -3.019531 19.671875 -1.753906 18.078125 -0.890625 C 16.484375 -0.0234375 14.628906 0.40625 12.515625 0.40625 Z M 12.515625 -4.1875 C 15.867188 -4.1875 17.546875 -6.378906 17.546875 -10.765625 C 17.546875 -13.046875 17.113281 -14.710938 16.25 -15.765625 C 15.394531 -16.828125 14.148438 -17.359375 12.515625 -17.359375 C 9.171875 -17.359375 7.5 -15.160156 7.5 -10.765625 C 7.5 -6.378906 9.171875 -4.1875 12.515625 -4.1875 Z M 12.515625 -4.1875 "/></g></g></g><g fill="#000000" fill-opacity="1"><g transform="translate(166.65473, 450.073585)"><g><path d="M 3.109375 0 L 3.109375 -21.546875 L 8.296875 -21.546875 L 8.296875 -18.65625 L 8.71875 -18.578125 C 9.414062 -19.734375 10.234375 -20.582031 11.171875 -21.125 C 12.117188 -21.675781 13.332031 -21.953125 14.8125 -21.953125 C 16.4375 -21.953125 17.742188 -21.628906 18.734375 -20.984375 C 19.722656 -20.335938 20.445312 -19.398438 20.90625 -18.171875 L 21.3125 -18.171875 C 21.976562 -19.453125 22.832031 -20.398438 23.875 -21.015625 C 24.925781 -21.640625 26.234375 -21.953125 27.796875 -21.953125 C 32.265625 -21.953125 34.5 -19.46875 34.5 -14.5 L 34.5 0 L 29.078125 0 L 29.078125 -13.8125 C 29.078125 -15.070312 28.828125 -15.984375 28.328125 -16.546875 C 27.835938 -17.109375 27.046875 -17.390625 25.953125 -17.390625 C 22.984375 -17.390625 21.5 -15.398438 21.5 -11.421875 L 21.5 0 L 16.09375 0 L 16.09375 -13.8125 C 16.09375 -15.070312 15.84375 -15.984375 15.34375 -16.546875 C 14.84375 -17.109375 14.046875 -17.390625 12.953125 -17.390625 C 11.554688 -17.390625 10.46875 -16.921875 9.6875 -15.984375 C 8.90625 -15.054688 8.515625 -13.578125 8.515625 -11.546875 L 8.515625 0 Z M 3.109375 0 "/></g></g></g><g fill="#000000" fill-opacity="1"><g transform="translate(203.916714, 450.073585)"><g><path d="M 8.40625 0.40625 C 7.019531 0.40625 5.816406 0.15625 4.796875 -0.34375 C 3.785156 -0.851562 3.003906 -1.597656 2.453125 -2.578125 C 1.910156 -3.566406 1.640625 -4.753906 1.640625 -6.140625 C 1.640625 -7.410156 1.910156 -8.476562 2.453125 -9.34375 C 3.003906 -10.207031 3.851562 -10.914062 5 -11.46875 C 6.144531 -12.03125 7.644531 -12.457031 9.5 -12.75 C 10.78125 -12.957031 11.753906 -13.1875 12.421875 -13.4375 C 13.097656 -13.6875 13.550781 -13.96875 13.78125 -14.28125 C 14.019531 -14.59375 14.140625 -14.988281 14.140625 -15.46875 C 14.140625 -16.15625 13.898438 -16.679688 13.421875 -17.046875 C 12.941406 -17.410156 12.140625 -17.59375 11.015625 -17.59375 C 9.816406 -17.59375 8.675781 -17.328125 7.59375 -16.796875 C 6.519531 -16.265625 5.582031 -15.5625 4.78125 -14.6875 L 4.390625 -14.6875 L 2.125 -18.109375 C 3.21875 -19.316406 4.550781 -20.257812 6.125 -20.9375 C 7.707031 -21.613281 9.429688 -21.953125 11.296875 -21.953125 C 14.140625 -21.953125 16.195312 -21.347656 17.46875 -20.140625 C 18.75 -18.929688 19.390625 -17.210938 19.390625 -14.984375 L 19.390625 -5.625 C 19.390625 -4.664062 19.816406 -4.1875 20.671875 -4.1875 C 20.992188 -4.1875 21.3125 -4.242188 21.625 -4.359375 L 21.890625 -4.28125 L 22.28125 -0.515625 C 21.988281 -0.316406 21.570312 -0.15625 21.03125 -0.03125 C 20.5 0.09375 19.914062 0.15625 19.28125 0.15625 C 17.988281 0.15625 16.976562 -0.0859375 16.25 -0.578125 C 15.53125 -1.078125 15.015625 -1.851562 14.703125 -2.90625 L 14.296875 -2.953125 C 13.242188 -0.710938 11.28125 0.40625 8.40625 0.40625 Z M 10.125 -3.640625 C 11.375 -3.640625 12.367188 -4.054688 13.109375 -4.890625 C 13.859375 -5.734375 14.234375 -6.90625 14.234375 -8.40625 L 14.234375 -10.59375 L 13.875 -10.671875 C 13.539062 -10.410156 13.109375 -10.191406 12.578125 -10.015625 C 12.054688 -9.835938 11.300781 -9.664062 10.3125 -9.5 C 9.144531 -9.300781 8.300781 -8.960938 7.78125 -8.484375 C 7.269531 -8.015625 7.015625 -7.34375 7.015625 -6.46875 C 7.015625 -5.539062 7.285156 -4.835938 7.828125 -4.359375 C 8.378906 -3.878906 9.144531 -3.640625 10.125 -3.640625 Z M 10.125 -3.640625 "/></g></g></g><g fill="#000000" fill-opacity="1"><g transform="translate(226.629344, 450.073585)"><g><path d="M 5.796875 -24.125 C 4.828125 -24.125 4.035156 -24.421875 3.421875 -25.015625 C 2.804688 -25.609375 2.5 -26.375 2.5 -27.3125 C 2.5 -28.226562 2.804688 -28.984375 3.421875 -29.578125 C 4.035156 -30.171875 4.828125 -30.46875 5.796875 -30.46875 C 6.453125 -30.46875 7.03125 -30.332031 7.53125 -30.0625 C 8.039062 -29.789062 8.4375 -29.414062 8.71875 -28.9375 C 9 -28.457031 9.140625 -27.914062 9.140625 -27.3125 C 9.140625 -26.695312 9 -26.144531 8.71875 -25.65625 C 8.4375 -25.175781 8.039062 -24.800781 7.53125 -24.53125 C 7.03125 -24.257812 6.453125 -24.125 5.796875 -24.125 Z M 3.109375 0 L 3.109375 -21.546875 L 8.515625 -21.546875 L 8.515625 0 Z M 3.109375 0 "/></g></g></g><g fill="#000000" fill-opacity="1"><g transform="translate(238.229773, 450.073585)"><g><path d="M 3.109375 0 L 3.109375 -21.546875 L 8.296875 -21.546875 L 8.296875 -18.375 L 8.71875 -18.28125 C 10.050781 -20.726562 12.222656 -21.953125 15.234375 -21.953125 C 17.722656 -21.953125 19.550781 -21.273438 20.71875 -19.921875 C 21.882812 -18.566406 22.46875 -16.59375 22.46875 -14 L 22.46875 0 L 17.046875 0 L 17.046875 -13.34375 C 17.046875 -14.769531 16.757812 -15.800781 16.1875 -16.4375 C 15.613281 -17.070312 14.695312 -17.390625 13.4375 -17.390625 C 11.882812 -17.390625 10.675781 -16.882812 9.8125 -15.875 C 8.945312 -14.875 8.515625 -13.300781 8.515625 -11.15625 L 8.515625 0 Z M 3.109375 0 "/></g></g></g><g fill="#000000" fill-opacity="1"><g transform="translate(263.47265, 450.073585)"><g/></g></g><g clip-path="url(#a6654d1ddb)"><path fill="#000000" d="M 230.179688 306.441406 C 228.667969 306.441406 227.449219 305.210938 227.449219 303.707031 C 227.449219 302.191406 228.667969 300.972656 230.179688 300.972656 L 267.648438 300.972656 C 269.152344 300.972656 270.378906 302.191406 270.378906 303.707031 C 270.378906 305.210938 269.148438 306.441406 267.648438 306.441406 Z M 216.9375 306.441406 C 215.433594 306.441406 214.207031 305.210938 214.207031 303.707031 C 214.207031 302.191406 215.433594 300.972656 216.9375 300.972656 L 218.816406 300.972656 C 220.324219 300.972656 221.546875 302.191406 221.546875 303.707031 C 221.546875 305.210938 220.320312 306.441406 218.816406 306.441406 Z M 230.179688 271.769531 C 228.667969 271.769531 227.449219 270.550781 227.449219 269.035156 C 227.449219 267.523438 228.667969 266.296875 230.179688 266.296875 L 267.648438 266.296875 C 269.152344 266.296875 270.378906 267.527344 270.378906 269.035156 C 270.378906 270.550781 269.148438 271.769531 267.648438 271.769531 Z M 216.9375 271.769531 C 215.433594 271.769531 214.207031 270.550781 214.207031 269.035156 C 214.207031 267.523438 215.433594 266.296875 216.9375 266.296875 L 218.816406 266.296875 C 220.324219 266.296875 221.546875 267.527344 221.546875 269.035156 C 221.546875 270.550781 220.320312 271.769531 218.816406 271.769531 Z M 230.179688 237.101562 C 228.667969 237.101562 227.449219 235.871094 227.449219 234.367188 C 227.449219 232.851562 228.667969 231.632812 230.179688 231.632812 L 267.648438 231.632812 C 269.152344 231.632812 270.378906 232.851562 270.378906 234.367188 C 270.378906 235.871094 269.148438 237.101562 267.648438 237.101562 Z M 216.9375 237.101562 C 215.433594 237.101562 214.207031 235.871094 214.207031 234.367188 C 214.207031 232.851562 215.433594 231.632812 216.9375 231.632812 L 218.816406 231.632812 C 220.324219 231.632812 221.546875 232.851562 221.546875 234.367188 C 221.546875 235.871094 220.320312 237.101562 218.816406 237.101562 Z M 214.867188 253.921875 L 269.714844 253.921875 L 269.714844 249.476562 L 214.867188 249.476562 Z M 275.179688 254 C 279.039062 254.507812 281.980469 257.832031 281.980469 261.777344 L 281.980469 276.289062 C 281.980469 280.242188 279.039062 283.5625 275.179688 284.078125 L 275.179688 288.664062 C 279.039062 289.171875 281.980469 292.5 281.980469 296.453125 L 281.980469 310.964844 C 281.980469 315.289062 278.464844 318.820312 274.140625 318.820312 L 256.980469 318.820312 L 256.980469 346.640625 L 267.316406 359.066406 C 267.835938 359.632812 268.113281 360.199219 268.125 360.996094 L 268.125 368.0625 C 268.125 373.445312 263.722656 377.855469 258.347656 377.855469 L 140.820312 377.855469 C 135.4375 377.855469 131.046875 373.445312 131.046875 368.0625 L 131.046875 360.996094 C 131.046875 360.242188 131.351562 359.550781 131.839844 359.066406 L 142.179688 346.640625 L 142.179688 339.050781 C 134.769531 335.128906 128.027344 329.957031 122.25 323.75 C 122.171875 323.683594 122.109375 323.605469 122.054688 323.539062 C 108.648438 309.027344 102.003906 290.65625 101.96875 272.320312 L 102.011719 269.429688 C 102.710938 250.105469 110.746094 231.054688 125.976562 216.839844 L 125.964844 216.839844 C 126.042969 216.761719 126.109375 216.695312 126.1875 216.640625 C 140.671875 203.210938 158.996094 196.554688 177.300781 196.519531 L 179.832031 196.550781 C 198.675781 197.148438 217.300781 204.757812 231.429688 219.25 L 274.136719 219.25 C 278.457031 219.25 281.976562 222.773438 281.976562 227.105469 L 281.976562 241.617188 C 281.976562 245.574219 279.035156 248.886719 275.175781 249.40625 L 275.175781 254 Z M 269.714844 284.144531 L 214.867188 284.144531 L 214.867188 288.597656 L 269.714844 288.597656 Z M 209.402344 284.078125 C 207.867188 283.878906 206.472656 283.222656 205.347656 282.257812 L 157.078125 282.257812 L 157.078125 335.15625 L 242.085938 335.15625 L 242.085938 318.816406 L 210.433594 318.816406 C 206.121094 318.816406 202.605469 315.285156 202.605469 310.960938 L 202.605469 296.449219 C 202.605469 292.496094 205.546875 289.171875 209.402344 288.660156 Z M 202.617188 276.789062 L 202.605469 272.542969 L 152.585938 272.542969 C 149.878906 272.542969 147.644531 274.78125 147.644531 277.507812 L 147.644531 344.867188 L 251.523438 344.867188 L 251.523438 318.820312 L 247.546875 318.820312 L 247.546875 337.898438 C 247.546875 339.414062 246.328125 340.632812 244.816406 340.632812 L 154.347656 340.632812 C 152.839844 340.632812 151.617188 339.414062 151.617188 337.898438 L 151.617188 279.523438 C 151.617188 278.007812 152.84375 276.789062 154.347656 276.789062 Z M 202.605469 267.082031 L 202.605469 261.777344 C 202.605469 257.832031 205.546875 254.507812 209.402344 254 L 208.730469 249.289062 C 205.191406 248.492188 202.605469 245.320312 202.605469 241.621094 L 202.605469 239.75 C 195.207031 241.863281 187.710938 243.0625 180.199219 243.328125 L 180.199219 267.078125 L 202.605469 267.078125 Z M 274.140625 259.390625 L 210.433594 259.390625 C 209.136719 259.390625 208.058594 260.476562 208.058594 261.773438 L 208.058594 276.285156 C 208.058594 277.589844 209.132812 278.664062 210.433594 278.664062 C 231.675781 278.664062 252.910156 278.664062 274.140625 278.664062 C 275.441406 278.664062 276.527344 277.589844 276.527344 276.285156 L 276.527344 261.773438 C 276.527344 260.476562 275.445312 259.390625 274.140625 259.390625 Z M 274.140625 294.070312 L 210.433594 294.070312 C 209.136719 294.070312 208.058594 295.144531 208.058594 296.449219 L 208.058594 310.960938 C 208.058594 312.265625 209.140625 313.339844 210.433594 313.339844 L 274.140625 313.339844 C 275.441406 313.339844 276.527344 312.265625 276.527344 310.960938 L 276.527344 296.449219 C 276.527344 295.144531 275.445312 294.070312 274.140625 294.070312 Z M 210.433594 219.257812 L 223.515625 219.257812 C 214.945312 211.757812 204.957031 206.683594 194.460938 204.058594 C 198.964844 208.335938 202.78125 214.117188 205.875 220.730469 C 207.160156 219.796875 208.742188 219.257812 210.433594 219.257812 Z M 202.605469 234.058594 L 202.605469 226.835938 C 202.164062 225.75 201.699219 224.675781 201.210938 223.625 C 196.898438 214.207031 189.742188 203.980469 180.199219 202.230469 L 180.199219 237.859375 C 187.710938 237.578125 195.203125 236.304688 202.605469 234.058594 Z M 274.140625 224.730469 L 210.433594 224.730469 C 209.136719 224.730469 208.058594 225.804688 208.058594 227.109375 L 208.058594 241.621094 C 208.058594 242.925781 209.140625 244 210.433594 244 L 274.140625 244 C 275.441406 244 276.527344 242.925781 276.527344 241.621094 L 276.527344 227.109375 C 276.527344 225.804688 275.445312 224.730469 274.140625 224.730469 Z M 259.578125 358.257812 L 252.988281 350.335938 L 146.171875 350.335938 L 139.59375 358.257812 Z M 262.664062 363.730469 L 136.507812 363.730469 L 136.507812 368.0625 C 136.507812 370.433594 138.453125 372.382812 140.820312 372.382812 L 258.351562 372.382812 C 260.71875 372.382812 262.667969 370.433594 262.667969 368.0625 L 262.667969 363.730469 Z M 142.179688 332.820312 L 142.179688 313.542969 C 137.09375 315.695312 132.148438 318.273438 127.40625 321.242188 C 131.839844 325.796875 136.773438 329.65625 142.179688 332.820312 Z M 142.179688 307.664062 L 142.179688 302.832031 C 140.199219 293.9375 139.128906 284.441406 138.960938 274.890625 L 107.464844 274.890625 C 108.039062 289.925781 113.425781 304.835938 123.6875 317.132812 C 129.585938 313.378906 135.746094 310.199219 142.179688 307.664062 Z M 146.03125 269.421875 C 147.820312 267.957031 150.109375 267.082031 152.585938 267.082031 L 174.738281 267.082031 L 174.738281 243.363281 C 165.804688 243.152344 156.988281 241.625 148.410156 238.890625 C 145.890625 248.636719 144.605469 259.140625 144.40625 269.421875 Z M 107.464844 269.421875 L 138.960938 269.421875 C 139.160156 258.519531 140.539062 247.410156 143.25 237.082031 C 136.605469 234.546875 130.058594 231.246094 123.6875 227.179688 C 113.492188 239.375 108.054688 254.308594 107.464844 269.421875 Z M 127.40625 223.070312 C 133.078125 226.625 138.882812 229.527344 144.777344 231.8125 C 148.027344 221.539062 153.171875 210.984375 160.480469 204.058594 C 149.398438 206.828125 138.839844 212.34375 129.871094 220.664062 L 129.828125 220.707031 Z M 149.910156 233.625 C 157.996094 236.226562 166.3125 237.679688 174.738281 237.890625 L 174.738281 202.230469 C 162.027344 204.554688 153.746094 221.449219 149.910156 233.625 Z M 149.910156 233.625 " fill-opacity="1" fill-rule="nonzero"/></g></svg>