<svg xmlns="http://www.w3.org/2000/svg" xmlns:xlink="http://www.w3.org/1999/xlink" width="512" zoomAndPan="magnify" viewBox="0 0 384 599.999999" height="800" preserveAspectRatio="xMidYMid meet" version="1.0"><defs><clipPath id="2c93ab180c"><path d="M 92 422 L 119 422 L 119 447 L 92 447 Z M 92 422 " clip-rule="nonzero"/></clipPath><clipPath id="6ddd4e4778"><path d="M 297.136719 74.53125 L 209.804688 497.609375 L 83.46875 471.53125 L 170.800781 48.453125 Z M 297.136719 74.53125 " clip-rule="nonzero"/></clipPath><clipPath id="d7f1e5e434"><path d="M 297.195312 74.257812 L 209.859375 497.339844 L 83.523438 471.261719 L 170.859375 48.179688 Z M 297.195312 74.257812 " clip-rule="nonzero"/></clipPath><clipPath id="6dee8e256b"><path d="M 297.195312 74.257812 L 209.859375 497.339844 L 83.523438 471.261719 L 170.859375 48.179688 Z M 297.195312 74.257812 " clip-rule="nonzero"/></clipPath><clipPath id="7ae2223499"><path d="M 114 417 L 128 417 L 128 431 L 114 431 Z M 114 417 " clip-rule="nonzero"/></clipPath><clipPath id="7f9248d80d"><path d="M 297.136719 74.53125 L 209.804688 497.609375 L 83.46875 471.53125 L 170.800781 48.453125 Z M 297.136719 74.53125 " clip-rule="nonzero"/></clipPath><clipPath id="abdd7c2704"><path d="M 297.195312 74.257812 L 209.859375 497.339844 L 83.523438 471.261719 L 170.859375 48.179688 Z M 297.195312 74.257812 " clip-rule="nonzero"/></clipPath><clipPath id="1390c3d5fc"><path d="M 297.195312 74.257812 L 209.859375 497.339844 L 83.523438 471.261719 L 170.859375 48.179688 Z M 297.195312 74.257812 " clip-rule="nonzero"/></clipPath><clipPath id="4d2fcad0ed"><path d="M 84 452 L 114 452 L 114 474 L 84 474 Z M 84 452 " clip-rule="nonzero"/></clipPath><clipPath id="499a0ffd43"><path d="M 297.136719 74.53125 L 209.804688 497.609375 L 83.46875 471.53125 L 170.800781 48.453125 Z M 297.136719 74.53125 " clip-rule="nonzero"/></clipPath><clipPath id="b2f57336aa"><path d="M 297.195312 74.257812 L 209.859375 497.339844 L 83.523438 471.261719 L 170.859375 48.179688 Z M 297.195312 74.257812 " clip-rule="nonzero"/></clipPath><clipPath id="3816af37ca"><path d="M 297.195312 74.257812 L 209.859375 497.339844 L 83.523438 471.261719 L 170.859375 48.179688 Z M 297.195312 74.257812 " clip-rule="nonzero"/></clipPath><clipPath id="46a1c11dab"><path d="M 110 446 L 123 446 L 123 461 L 110 461 Z M 110 446 " clip-rule="nonzero"/></clipPath><clipPath id="4a59eaca96"><path d="M 297.136719 74.53125 L 209.804688 497.609375 L 83.46875 471.53125 L 170.800781 48.453125 Z M 297.136719 74.53125 " clip-rule="nonzero"/></clipPath><clipPath id="462cf9194f"><path d="M 297.195312 74.257812 L 209.859375 497.339844 L 83.523438 471.261719 L 170.859375 48.179688 Z M 297.195312 74.257812 " clip-rule="nonzero"/></clipPath><clipPath id="4b5f865a8b"><path d="M 297.195312 74.257812 L 209.859375 497.339844 L 83.523438 471.261719 L 170.859375 48.179688 Z M 297.195312 74.257812 " clip-rule="nonzero"/></clipPath><clipPath id="53c88e217c"><path d="M 148 382 L 175 382 L 175 409 L 148 409 Z M 148 382 " clip-rule="nonzero"/></clipPath><clipPath id="e0f616a34c"><path d="M 297.136719 74.53125 L 209.804688 497.609375 L 83.46875 471.53125 L 170.800781 48.453125 Z M 297.136719 74.53125 " clip-rule="nonzero"/></clipPath><clipPath id="e4cebcd1a6"><path d="M 297.195312 74.257812 L 209.859375 497.339844 L 83.523438 471.261719 L 170.859375 48.179688 Z M 297.195312 74.257812 " clip-rule="nonzero"/></clipPath><clipPath id="69da7aec8c"><path d="M 297.195312 74.257812 L 209.859375 497.339844 L 83.523438 471.261719 L 170.859375 48.179688 Z M 297.195312 74.257812 " clip-rule="nonzero"/></clipPath><clipPath id="12c2d27d2e"><path d="M 169 376 L 184 376 L 184 390 L 169 390 Z M 169 376 " clip-rule="nonzero"/></clipPath><clipPath id="ebd6689ff1"><path d="M 297.136719 74.53125 L 209.804688 497.609375 L 83.46875 471.53125 L 170.800781 48.453125 Z M 297.136719 74.53125 " clip-rule="nonzero"/></clipPath><clipPath id="2cae7cf840"><path d="M 297.195312 74.257812 L 209.859375 497.339844 L 83.523438 471.261719 L 170.859375 48.179688 Z M 297.195312 74.257812 " clip-rule="nonzero"/></clipPath><clipPath id="0e8e076b6c"><path d="M 297.195312 74.257812 L 209.859375 497.339844 L 83.523438 471.261719 L 170.859375 48.179688 Z M 297.195312 74.257812 " clip-rule="nonzero"/></clipPath><clipPath id="d837be7655"><path d="M 143 412 L 172 412 L 172 436 L 143 436 Z M 143 412 " clip-rule="nonzero"/></clipPath><clipPath id="dd8e6596a3"><path d="M 297.136719 74.53125 L 209.804688 497.609375 L 83.46875 471.53125 L 170.800781 48.453125 Z M 297.136719 74.53125 " clip-rule="nonzero"/></clipPath><clipPath id="8fa34e9f36"><path d="M 297.195312 74.257812 L 209.859375 497.339844 L 83.523438 471.261719 L 170.859375 48.179688 Z M 297.195312 74.257812 " clip-rule="nonzero"/></clipPath><clipPath id="118d283d6c"><path d="M 297.195312 74.257812 L 209.859375 497.339844 L 83.523438 471.261719 L 170.859375 48.179688 Z M 297.195312 74.257812 " clip-rule="nonzero"/></clipPath><clipPath id="34bb1d330b"><path d="M 167 406 L 180 406 L 180 421 L 167 421 Z M 167 406 " clip-rule="nonzero"/></clipPath><clipPath id="7cfe8896ac"><path d="M 297.136719 74.53125 L 209.804688 497.609375 L 83.46875 471.53125 L 170.800781 48.453125 Z M 297.136719 74.53125 " clip-rule="nonzero"/></clipPath><clipPath id="29e7d60000"><path d="M 297.195312 74.257812 L 209.859375 497.339844 L 83.523438 471.261719 L 170.859375 48.179688 Z M 297.195312 74.257812 " clip-rule="nonzero"/></clipPath><clipPath id="1545cde236"><path d="M 297.195312 74.257812 L 209.859375 497.339844 L 83.523438 471.261719 L 170.859375 48.179688 Z M 297.195312 74.257812 " clip-rule="nonzero"/></clipPath><clipPath id="0b01a50a64"><path d="M 194 333 L 216 333 L 216 363 L 194 363 Z M 194 333 " clip-rule="nonzero"/></clipPath><clipPath id="3dda056d95"><path d="M 297.136719 74.53125 L 209.804688 497.609375 L 83.46875 471.53125 L 170.800781 48.453125 Z M 297.136719 74.53125 " clip-rule="nonzero"/></clipPath><clipPath id="a56dce9d73"><path d="M 297.195312 74.257812 L 209.859375 497.339844 L 83.523438 471.261719 L 170.859375 48.179688 Z M 297.195312 74.257812 " clip-rule="nonzero"/></clipPath><clipPath id="7f89574e98"><path d="M 297.195312 74.257812 L 209.859375 497.339844 L 83.523438 471.261719 L 170.859375 48.179688 Z M 297.195312 74.257812 " clip-rule="nonzero"/></clipPath><clipPath id="e0e4cea188"><path d="M 207 324 L 221 324 L 221 337 L 207 337 Z M 207 324 " clip-rule="nonzero"/></clipPath><clipPath id="b6c3adef17"><path d="M 297.136719 74.53125 L 209.804688 497.609375 L 83.46875 471.53125 L 170.800781 48.453125 Z M 297.136719 74.53125 " clip-rule="nonzero"/></clipPath><clipPath id="06ccdeb0a7"><path d="M 297.195312 74.257812 L 209.859375 497.339844 L 83.523438 471.261719 L 170.859375 48.179688 Z M 297.195312 74.257812 " clip-rule="nonzero"/></clipPath><clipPath id="bb4cc4c7f2"><path d="M 297.195312 74.257812 L 209.859375 497.339844 L 83.523438 471.261719 L 170.859375 48.179688 Z M 297.195312 74.257812 " clip-rule="nonzero"/></clipPath><clipPath id="4f37d5108d"><path d="M 200 362 L 225 362 L 225 390 L 200 390 Z M 200 362 " clip-rule="nonzero"/></clipPath><clipPath id="298842c082"><path d="M 297.136719 74.53125 L 209.804688 497.609375 L 83.46875 471.53125 L 170.800781 48.453125 Z M 297.136719 74.53125 " clip-rule="nonzero"/></clipPath><clipPath id="243b425ac5"><path d="M 297.195312 74.257812 L 209.859375 497.339844 L 83.523438 471.261719 L 170.859375 48.179688 Z M 297.195312 74.257812 " clip-rule="nonzero"/></clipPath><clipPath id="58c3232f7c"><path d="M 297.195312 74.257812 L 209.859375 497.339844 L 83.523438 471.261719 L 170.859375 48.179688 Z M 297.195312 74.257812 " clip-rule="nonzero"/></clipPath><clipPath id="01eee70793"><path d="M 216 353 L 230 353 L 230 367 L 216 367 Z M 216 353 " clip-rule="nonzero"/></clipPath><clipPath id="46eff9c076"><path d="M 297.136719 74.53125 L 209.804688 497.609375 L 83.46875 471.53125 L 170.800781 48.453125 Z M 297.136719 74.53125 " clip-rule="nonzero"/></clipPath><clipPath id="275eb1015c"><path d="M 297.195312 74.257812 L 209.859375 497.339844 L 83.523438 471.261719 L 170.859375 48.179688 Z M 297.195312 74.257812 " clip-rule="nonzero"/></clipPath><clipPath id="a2858f3459"><path d="M 297.195312 74.257812 L 209.859375 497.339844 L 83.523438 471.261719 L 170.859375 48.179688 Z M 297.195312 74.257812 " clip-rule="nonzero"/></clipPath><clipPath id="8708206392"><path d="M 213 272 L 230 272 L 230 301 L 213 301 Z M 213 272 " clip-rule="nonzero"/></clipPath><clipPath id="d1befabbce"><path d="M 297.136719 74.53125 L 209.804688 497.609375 L 83.46875 471.53125 L 170.800781 48.453125 Z M 297.136719 74.53125 " clip-rule="nonzero"/></clipPath><clipPath id="d2461185fc"><path d="M 297.195312 74.257812 L 209.859375 497.339844 L 83.523438 471.261719 L 170.859375 48.179688 Z M 297.195312 74.257812 " clip-rule="nonzero"/></clipPath><clipPath id="24ead7098a"><path d="M 297.195312 74.257812 L 209.859375 497.339844 L 83.523438 471.261719 L 170.859375 48.179688 Z M 297.195312 74.257812 " clip-rule="nonzero"/></clipPath><clipPath id="c841c8c3a4"><path d="M 217 259 L 230 259 L 230 271 L 217 271 Z M 217 259 " clip-rule="nonzero"/></clipPath><clipPath id="15e57bd1df"><path d="M 297.136719 74.53125 L 209.804688 497.609375 L 83.46875 471.53125 L 170.800781 48.453125 Z M 297.136719 74.53125 " clip-rule="nonzero"/></clipPath><clipPath id="c272ec2d2d"><path d="M 297.195312 74.257812 L 209.859375 497.339844 L 83.523438 471.261719 L 170.859375 48.179688 Z M 297.195312 74.257812 " clip-rule="nonzero"/></clipPath><clipPath id="19e46b5173"><path d="M 297.195312 74.257812 L 209.859375 497.339844 L 83.523438 471.261719 L 170.859375 48.179688 Z M 297.195312 74.257812 " clip-rule="nonzero"/></clipPath><clipPath id="a60db5d64f"><path d="M 230 295 L 249 295 L 249 323 L 230 323 Z M 230 295 " clip-rule="nonzero"/></clipPath><clipPath id="f70efa7099"><path d="M 297.136719 74.53125 L 209.804688 497.609375 L 83.46875 471.53125 L 170.800781 48.453125 Z M 297.136719 74.53125 " clip-rule="nonzero"/></clipPath><clipPath id="c1a88cc05b"><path d="M 297.195312 74.257812 L 209.859375 497.339844 L 83.523438 471.261719 L 170.859375 48.179688 Z M 297.195312 74.257812 " clip-rule="nonzero"/></clipPath><clipPath id="a300fdd114"><path d="M 297.195312 74.257812 L 209.859375 497.339844 L 83.523438 471.261719 L 170.859375 48.179688 Z M 297.195312 74.257812 " clip-rule="nonzero"/></clipPath><clipPath id="27b7fcfca9"><path d="M 237 282 L 250 282 L 250 294 L 237 294 Z M 237 282 " clip-rule="nonzero"/></clipPath><clipPath id="e97eb31bf0"><path d="M 297.136719 74.53125 L 209.804688 497.609375 L 83.46875 471.53125 L 170.800781 48.453125 Z M 297.136719 74.53125 " clip-rule="nonzero"/></clipPath><clipPath id="5e3b6bcc60"><path d="M 297.195312 74.257812 L 209.859375 497.339844 L 83.523438 471.261719 L 170.859375 48.179688 Z M 297.195312 74.257812 " clip-rule="nonzero"/></clipPath><clipPath id="6197d3185e"><path d="M 297.195312 74.257812 L 209.859375 497.339844 L 83.523438 471.261719 L 170.859375 48.179688 Z M 297.195312 74.257812 " clip-rule="nonzero"/></clipPath><clipPath id="80cd6408bd"><path d="M 215 205 L 233 205 L 233 233 L 215 233 Z M 215 205 " clip-rule="nonzero"/></clipPath><clipPath id="5a42050805"><path d="M 297.136719 74.53125 L 209.804688 497.609375 L 83.46875 471.53125 L 170.800781 48.453125 Z M 297.136719 74.53125 " clip-rule="nonzero"/></clipPath><clipPath id="4430d696a2"><path d="M 297.195312 74.257812 L 209.859375 497.339844 L 83.523438 471.261719 L 170.859375 48.179688 Z M 297.195312 74.257812 " clip-rule="nonzero"/></clipPath><clipPath id="c59e8cb3c5"><path d="M 297.195312 74.257812 L 209.859375 497.339844 L 83.523438 471.261719 L 170.859375 48.179688 Z M 297.195312 74.257812 " clip-rule="nonzero"/></clipPath><clipPath id="368b628343"><path d="M 217 192 L 230 192 L 230 203 L 217 203 Z M 217 192 " clip-rule="nonzero"/></clipPath><clipPath id="559b967ea5"><path d="M 297.136719 74.53125 L 209.804688 497.609375 L 83.46875 471.53125 L 170.800781 48.453125 Z M 297.136719 74.53125 " clip-rule="nonzero"/></clipPath><clipPath id="00ac7b78f7"><path d="M 297.195312 74.257812 L 209.859375 497.339844 L 83.523438 471.261719 L 170.859375 48.179688 Z M 297.195312 74.257812 " clip-rule="nonzero"/></clipPath><clipPath id="413187f59b"><path d="M 297.195312 74.257812 L 209.859375 497.339844 L 83.523438 471.261719 L 170.859375 48.179688 Z M 297.195312 74.257812 " clip-rule="nonzero"/></clipPath><clipPath id="def08e6933"><path d="M 237 225 L 255 225 L 255 253 L 237 253 Z M 237 225 " clip-rule="nonzero"/></clipPath><clipPath id="40cb40bc47"><path d="M 297.136719 74.53125 L 209.804688 497.609375 L 83.46875 471.53125 L 170.800781 48.453125 Z M 297.136719 74.53125 " clip-rule="nonzero"/></clipPath><clipPath id="da99b29e67"><path d="M 297.195312 74.257812 L 209.859375 497.339844 L 83.523438 471.261719 L 170.859375 48.179688 Z M 297.195312 74.257812 " clip-rule="nonzero"/></clipPath><clipPath id="864fefbb04"><path d="M 297.195312 74.257812 L 209.859375 497.339844 L 83.523438 471.261719 L 170.859375 48.179688 Z M 297.195312 74.257812 " clip-rule="nonzero"/></clipPath><clipPath id="bfe911fbd1"><path d="M 240 212 L 253 212 L 253 223 L 240 223 Z M 240 212 " clip-rule="nonzero"/></clipPath><clipPath id="99108d9d79"><path d="M 297.136719 74.53125 L 209.804688 497.609375 L 83.46875 471.53125 L 170.800781 48.453125 Z M 297.136719 74.53125 " clip-rule="nonzero"/></clipPath><clipPath id="750e18ffb7"><path d="M 297.195312 74.257812 L 209.859375 497.339844 L 83.523438 471.261719 L 170.859375 48.179688 Z M 297.195312 74.257812 " clip-rule="nonzero"/></clipPath><clipPath id="9b003fee4e"><path d="M 297.195312 74.257812 L 209.859375 497.339844 L 83.523438 471.261719 L 170.859375 48.179688 Z M 297.195312 74.257812 " clip-rule="nonzero"/></clipPath><clipPath id="e72294c367"><path d="M 210 137 L 229 137 L 229 165 L 210 165 Z M 210 137 " clip-rule="nonzero"/></clipPath><clipPath id="2b8db284b7"><path d="M 297.136719 74.53125 L 209.804688 497.609375 L 83.46875 471.53125 L 170.800781 48.453125 Z M 297.136719 74.53125 " clip-rule="nonzero"/></clipPath><clipPath id="c8e2949eb6"><path d="M 297.195312 74.257812 L 209.859375 497.339844 L 83.523438 471.261719 L 170.859375 48.179688 Z M 297.195312 74.257812 " clip-rule="nonzero"/></clipPath><clipPath id="93e4dc7723"><path d="M 297.195312 74.257812 L 209.859375 497.339844 L 83.523438 471.261719 L 170.859375 48.179688 Z M 297.195312 74.257812 " clip-rule="nonzero"/></clipPath><clipPath id="a83fd666a6"><path d="M 210 124 L 223 124 L 223 136 L 210 136 Z M 210 124 " clip-rule="nonzero"/></clipPath><clipPath id="add7617d44"><path d="M 297.136719 74.53125 L 209.804688 497.609375 L 83.46875 471.53125 L 170.800781 48.453125 Z M 297.136719 74.53125 " clip-rule="nonzero"/></clipPath><clipPath id="6e35bc2c5e"><path d="M 297.195312 74.257812 L 209.859375 497.339844 L 83.523438 471.261719 L 170.859375 48.179688 Z M 297.195312 74.257812 " clip-rule="nonzero"/></clipPath><clipPath id="0b43b1c736"><path d="M 297.195312 74.257812 L 209.859375 497.339844 L 83.523438 471.261719 L 170.859375 48.179688 Z M 297.195312 74.257812 " clip-rule="nonzero"/></clipPath><clipPath id="8900e9dfb1"><path d="M 234 155 L 252 155 L 252 183 L 234 183 Z M 234 155 " clip-rule="nonzero"/></clipPath><clipPath id="b61ed89176"><path d="M 297.136719 74.53125 L 209.804688 497.609375 L 83.46875 471.53125 L 170.800781 48.453125 Z M 297.136719 74.53125 " clip-rule="nonzero"/></clipPath><clipPath id="b21c278ee9"><path d="M 297.195312 74.257812 L 209.859375 497.339844 L 83.523438 471.261719 L 170.859375 48.179688 Z M 297.195312 74.257812 " clip-rule="nonzero"/></clipPath><clipPath id="6ac7c491c9"><path d="M 297.195312 74.257812 L 209.859375 497.339844 L 83.523438 471.261719 L 170.859375 48.179688 Z M 297.195312 74.257812 " clip-rule="nonzero"/></clipPath><clipPath id="9943601fca"><path d="M 234 142 L 248 142 L 248 153 L 234 153 Z M 234 142 " clip-rule="nonzero"/></clipPath><clipPath id="c29d792602"><path d="M 297.136719 74.53125 L 209.804688 497.609375 L 83.46875 471.53125 L 170.800781 48.453125 Z M 297.136719 74.53125 " clip-rule="nonzero"/></clipPath><clipPath id="f96be5c73d"><path d="M 297.195312 74.257812 L 209.859375 497.339844 L 83.523438 471.261719 L 170.859375 48.179688 Z M 297.195312 74.257812 " clip-rule="nonzero"/></clipPath><clipPath id="aedbd1e81a"><path d="M 297.195312 74.257812 L 209.859375 497.339844 L 83.523438 471.261719 L 170.859375 48.179688 Z M 297.195312 74.257812 " clip-rule="nonzero"/></clipPath><clipPath id="f62a256fa3"><path d="M 202 68 L 221 68 L 221 96 L 202 96 Z M 202 68 " clip-rule="nonzero"/></clipPath><clipPath id="df2d66cbdb"><path d="M 297.136719 74.53125 L 209.804688 497.609375 L 83.46875 471.53125 L 170.800781 48.453125 Z M 297.136719 74.53125 " clip-rule="nonzero"/></clipPath><clipPath id="8340929845"><path d="M 297.195312 74.257812 L 209.859375 497.339844 L 83.523438 471.261719 L 170.859375 48.179688 Z M 297.195312 74.257812 " clip-rule="nonzero"/></clipPath><clipPath id="6e91688402"><path d="M 297.195312 74.257812 L 209.859375 497.339844 L 83.523438 471.261719 L 170.859375 48.179688 Z M 297.195312 74.257812 " clip-rule="nonzero"/></clipPath><clipPath id="d2cf7054be"><path d="M 202 56 L 215 56 L 215 68 L 202 68 Z M 202 56 " clip-rule="nonzero"/></clipPath><clipPath id="fad6b3a761"><path d="M 297.136719 74.53125 L 209.804688 497.609375 L 83.46875 471.53125 L 170.800781 48.453125 Z M 297.136719 74.53125 " clip-rule="nonzero"/></clipPath><clipPath id="436132270a"><path d="M 297.195312 74.257812 L 209.859375 497.339844 L 83.523438 471.261719 L 170.859375 48.179688 Z M 297.195312 74.257812 " clip-rule="nonzero"/></clipPath><clipPath id="9a052e3ca0"><path d="M 297.195312 74.257812 L 209.859375 497.339844 L 83.523438 471.261719 L 170.859375 48.179688 Z M 297.195312 74.257812 " clip-rule="nonzero"/></clipPath><clipPath id="b4f4a0941b"><path d="M 226 86 L 243 86 L 243 114 L 226 114 Z M 226 86 " clip-rule="nonzero"/></clipPath><clipPath id="c7df6815f9"><path d="M 297.136719 74.53125 L 209.804688 497.609375 L 83.46875 471.53125 L 170.800781 48.453125 Z M 297.136719 74.53125 " clip-rule="nonzero"/></clipPath><clipPath id="e3b4ddcd3c"><path d="M 297.195312 74.257812 L 209.859375 497.339844 L 83.523438 471.261719 L 170.859375 48.179688 Z M 297.195312 74.257812 " clip-rule="nonzero"/></clipPath><clipPath id="d0efa2b1ac"><path d="M 297.195312 74.257812 L 209.859375 497.339844 L 83.523438 471.261719 L 170.859375 48.179688 Z M 297.195312 74.257812 " clip-rule="nonzero"/></clipPath><clipPath id="7237123f5c"><path d="M 226 73 L 240 73 L 240 85 L 226 85 Z M 226 73 " clip-rule="nonzero"/></clipPath><clipPath id="fa1552b072"><path d="M 297.136719 74.53125 L 209.804688 497.609375 L 83.46875 471.53125 L 170.800781 48.453125 Z M 297.136719 74.53125 " clip-rule="nonzero"/></clipPath><clipPath id="a66229b275"><path d="M 297.195312 74.257812 L 209.859375 497.339844 L 83.523438 471.261719 L 170.859375 48.179688 Z M 297.195312 74.257812 " clip-rule="nonzero"/></clipPath><clipPath id="d0ce901042"><path d="M 297.195312 74.257812 L 209.859375 497.339844 L 83.523438 471.261719 L 170.859375 48.179688 Z M 297.195312 74.257812 " clip-rule="nonzero"/></clipPath><clipPath id="725f223d67"><path d="M 93 422 L 120 422 L 120 447 L 93 447 Z M 93 422 " clip-rule="nonzero"/></clipPath><clipPath id="fb7a69dc06"><path d="M 298.664062 74.53125 L 211.332031 497.609375 L 84.996094 471.53125 L 172.328125 48.453125 Z M 298.664062 74.53125 " clip-rule="nonzero"/></clipPath><clipPath id="807ec4d45f"><path d="M 298.71875 74.257812 L 211.386719 497.339844 L 85.050781 471.261719 L 172.382812 48.179688 Z M 298.71875 74.257812 " clip-rule="nonzero"/></clipPath><clipPath id="2ffc99540a"><path d="M 298.71875 74.257812 L 211.386719 497.339844 L 85.050781 471.261719 L 172.382812 48.179688 Z M 298.71875 74.257812 " clip-rule="nonzero"/></clipPath><clipPath id="fc5724c036"><path d="M 116 417 L 130 417 L 130 431 L 116 431 Z M 116 417 " clip-rule="nonzero"/></clipPath><clipPath id="5f0982ed5d"><path d="M 298.664062 74.53125 L 211.332031 497.609375 L 84.996094 471.53125 L 172.328125 48.453125 Z M 298.664062 74.53125 " clip-rule="nonzero"/></clipPath><clipPath id="d63a504a22"><path d="M 298.71875 74.257812 L 211.386719 497.339844 L 85.050781 471.261719 L 172.382812 48.179688 Z M 298.71875 74.257812 " clip-rule="nonzero"/></clipPath><clipPath id="64b6de85be"><path d="M 298.71875 74.257812 L 211.386719 497.339844 L 85.050781 471.261719 L 172.382812 48.179688 Z M 298.71875 74.257812 " clip-rule="nonzero"/></clipPath><clipPath id="245899120f"><path d="M 86 452 L 115 452 L 115 474 L 86 474 Z M 86 452 " clip-rule="nonzero"/></clipPath><clipPath id="973b63c6a6"><path d="M 298.664062 74.53125 L 211.332031 497.609375 L 84.996094 471.53125 L 172.328125 48.453125 Z M 298.664062 74.53125 " clip-rule="nonzero"/></clipPath><clipPath id="c3c6527358"><path d="M 298.71875 74.257812 L 211.386719 497.339844 L 85.050781 471.261719 L 172.382812 48.179688 Z M 298.71875 74.257812 " clip-rule="nonzero"/></clipPath><clipPath id="ee9184411e"><path d="M 298.71875 74.257812 L 211.386719 497.339844 L 85.050781 471.261719 L 172.382812 48.179688 Z M 298.71875 74.257812 " clip-rule="nonzero"/></clipPath><clipPath id="a018a06b6c"><path d="M 111 446 L 124 446 L 124 461 L 111 461 Z M 111 446 " clip-rule="nonzero"/></clipPath><clipPath id="599df9f828"><path d="M 298.664062 74.53125 L 211.332031 497.609375 L 84.996094 471.53125 L 172.328125 48.453125 Z M 298.664062 74.53125 " clip-rule="nonzero"/></clipPath><clipPath id="6e401d0e72"><path d="M 298.71875 74.257812 L 211.386719 497.339844 L 85.050781 471.261719 L 172.382812 48.179688 Z M 298.71875 74.257812 " clip-rule="nonzero"/></clipPath><clipPath id="07a49c2950"><path d="M 298.71875 74.257812 L 211.386719 497.339844 L 85.050781 471.261719 L 172.382812 48.179688 Z M 298.71875 74.257812 " clip-rule="nonzero"/></clipPath><clipPath id="b3320842e1"><path d="M 150 382 L 176 382 L 176 409 L 150 409 Z M 150 382 " clip-rule="nonzero"/></clipPath><clipPath id="3d2c215d0d"><path d="M 298.664062 74.53125 L 211.332031 497.609375 L 84.996094 471.53125 L 172.328125 48.453125 Z M 298.664062 74.53125 " clip-rule="nonzero"/></clipPath><clipPath id="0c4e91ac15"><path d="M 298.71875 74.257812 L 211.386719 497.339844 L 85.050781 471.261719 L 172.382812 48.179688 Z M 298.71875 74.257812 " clip-rule="nonzero"/></clipPath><clipPath id="f86dd9da54"><path d="M 298.71875 74.257812 L 211.386719 497.339844 L 85.050781 471.261719 L 172.382812 48.179688 Z M 298.71875 74.257812 " clip-rule="nonzero"/></clipPath><clipPath id="3af0d748d3"><path d="M 171 376 L 185 376 L 185 390 L 171 390 Z M 171 376 " clip-rule="nonzero"/></clipPath><clipPath id="251899e1f6"><path d="M 298.664062 74.53125 L 211.332031 497.609375 L 84.996094 471.53125 L 172.328125 48.453125 Z M 298.664062 74.53125 " clip-rule="nonzero"/></clipPath><clipPath id="6de17aa6ac"><path d="M 298.71875 74.257812 L 211.386719 497.339844 L 85.050781 471.261719 L 172.382812 48.179688 Z M 298.71875 74.257812 " clip-rule="nonzero"/></clipPath><clipPath id="3336324af0"><path d="M 298.71875 74.257812 L 211.386719 497.339844 L 85.050781 471.261719 L 172.382812 48.179688 Z M 298.71875 74.257812 " clip-rule="nonzero"/></clipPath><clipPath id="5eb0346383"><path d="M 144 412 L 174 412 L 174 436 L 144 436 Z M 144 412 " clip-rule="nonzero"/></clipPath><clipPath id="cb76aa055b"><path d="M 298.664062 74.53125 L 211.332031 497.609375 L 84.996094 471.53125 L 172.328125 48.453125 Z M 298.664062 74.53125 " clip-rule="nonzero"/></clipPath><clipPath id="2481e6a8ef"><path d="M 298.71875 74.257812 L 211.386719 497.339844 L 85.050781 471.261719 L 172.382812 48.179688 Z M 298.71875 74.257812 " clip-rule="nonzero"/></clipPath><clipPath id="99101de78c"><path d="M 298.71875 74.257812 L 211.386719 497.339844 L 85.050781 471.261719 L 172.382812 48.179688 Z M 298.71875 74.257812 " clip-rule="nonzero"/></clipPath><clipPath id="73fc104ae8"><path d="M 168 406 L 182 406 L 182 421 L 168 421 Z M 168 406 " clip-rule="nonzero"/></clipPath><clipPath id="5e909a6988"><path d="M 298.664062 74.53125 L 211.332031 497.609375 L 84.996094 471.53125 L 172.328125 48.453125 Z M 298.664062 74.53125 " clip-rule="nonzero"/></clipPath><clipPath id="809235e7b4"><path d="M 298.71875 74.257812 L 211.386719 497.339844 L 85.050781 471.261719 L 172.382812 48.179688 Z M 298.71875 74.257812 " clip-rule="nonzero"/></clipPath><clipPath id="d08a3693a2"><path d="M 298.71875 74.257812 L 211.386719 497.339844 L 85.050781 471.261719 L 172.382812 48.179688 Z M 298.71875 74.257812 " clip-rule="nonzero"/></clipPath><clipPath id="bf54efd454"><path d="M 195 333 L 217 333 L 217 363 L 195 363 Z M 195 333 " clip-rule="nonzero"/></clipPath><clipPath id="743dcf4117"><path d="M 298.664062 74.53125 L 211.332031 497.609375 L 84.996094 471.53125 L 172.328125 48.453125 Z M 298.664062 74.53125 " clip-rule="nonzero"/></clipPath><clipPath id="635b88ef07"><path d="M 298.71875 74.257812 L 211.386719 497.339844 L 85.050781 471.261719 L 172.382812 48.179688 Z M 298.71875 74.257812 " clip-rule="nonzero"/></clipPath><clipPath id="85bed6403a"><path d="M 298.71875 74.257812 L 211.386719 497.339844 L 85.050781 471.261719 L 172.382812 48.179688 Z M 298.71875 74.257812 " clip-rule="nonzero"/></clipPath><clipPath id="c53083f24b"><path d="M 208 324 L 223 324 L 223 337 L 208 337 Z M 208 324 " clip-rule="nonzero"/></clipPath><clipPath id="dadfc043c1"><path d="M 298.664062 74.53125 L 211.332031 497.609375 L 84.996094 471.53125 L 172.328125 48.453125 Z M 298.664062 74.53125 " clip-rule="nonzero"/></clipPath><clipPath id="1bd0e7a3f4"><path d="M 298.71875 74.257812 L 211.386719 497.339844 L 85.050781 471.261719 L 172.382812 48.179688 Z M 298.71875 74.257812 " clip-rule="nonzero"/></clipPath><clipPath id="b9619f4885"><path d="M 298.71875 74.257812 L 211.386719 497.339844 L 85.050781 471.261719 L 172.382812 48.179688 Z M 298.71875 74.257812 " clip-rule="nonzero"/></clipPath><clipPath id="4dcb9c3c43"><path d="M 201 362 L 227 362 L 227 390 L 201 390 Z M 201 362 " clip-rule="nonzero"/></clipPath><clipPath id="49e9d9cda9"><path d="M 298.664062 74.53125 L 211.332031 497.609375 L 84.996094 471.53125 L 172.328125 48.453125 Z M 298.664062 74.53125 " clip-rule="nonzero"/></clipPath><clipPath id="572460c24f"><path d="M 298.71875 74.257812 L 211.386719 497.339844 L 85.050781 471.261719 L 172.382812 48.179688 Z M 298.71875 74.257812 " clip-rule="nonzero"/></clipPath><clipPath id="1224d95d5c"><path d="M 298.71875 74.257812 L 211.386719 497.339844 L 85.050781 471.261719 L 172.382812 48.179688 Z M 298.71875 74.257812 " clip-rule="nonzero"/></clipPath><clipPath id="4df22540f1"><path d="M 218 353 L 231 353 L 231 367 L 218 367 Z M 218 353 " clip-rule="nonzero"/></clipPath><clipPath id="4a80c6c888"><path d="M 298.664062 74.53125 L 211.332031 497.609375 L 84.996094 471.53125 L 172.328125 48.453125 Z M 298.664062 74.53125 " clip-rule="nonzero"/></clipPath><clipPath id="5ffe8db60a"><path d="M 298.71875 74.257812 L 211.386719 497.339844 L 85.050781 471.261719 L 172.382812 48.179688 Z M 298.71875 74.257812 " clip-rule="nonzero"/></clipPath><clipPath id="0b883cda88"><path d="M 298.71875 74.257812 L 211.386719 497.339844 L 85.050781 471.261719 L 172.382812 48.179688 Z M 298.71875 74.257812 " clip-rule="nonzero"/></clipPath><clipPath id="66c68222d0"><path d="M 214 272 L 232 272 L 232 301 L 214 301 Z M 214 272 " clip-rule="nonzero"/></clipPath><clipPath id="49077f3a0e"><path d="M 298.664062 74.53125 L 211.332031 497.609375 L 84.996094 471.53125 L 172.328125 48.453125 Z M 298.664062 74.53125 " clip-rule="nonzero"/></clipPath><clipPath id="ef9d4c1a13"><path d="M 298.71875 74.257812 L 211.386719 497.339844 L 85.050781 471.261719 L 172.382812 48.179688 Z M 298.71875 74.257812 " clip-rule="nonzero"/></clipPath><clipPath id="1ac9e4bfac"><path d="M 298.71875 74.257812 L 211.386719 497.339844 L 85.050781 471.261719 L 172.382812 48.179688 Z M 298.71875 74.257812 " clip-rule="nonzero"/></clipPath><clipPath id="ae97596abc"><path d="M 218 259 L 232 259 L 232 271 L 218 271 Z M 218 259 " clip-rule="nonzero"/></clipPath><clipPath id="dead707ca2"><path d="M 298.664062 74.53125 L 211.332031 497.609375 L 84.996094 471.53125 L 172.328125 48.453125 Z M 298.664062 74.53125 " clip-rule="nonzero"/></clipPath><clipPath id="ab10df2c54"><path d="M 298.71875 74.257812 L 211.386719 497.339844 L 85.050781 471.261719 L 172.382812 48.179688 Z M 298.71875 74.257812 " clip-rule="nonzero"/></clipPath><clipPath id="6f8cfcd476"><path d="M 298.71875 74.257812 L 211.386719 497.339844 L 85.050781 471.261719 L 172.382812 48.179688 Z M 298.71875 74.257812 " clip-rule="nonzero"/></clipPath><clipPath id="5fe39b5c36"><path d="M 231 295 L 251 295 L 251 323 L 231 323 Z M 231 295 " clip-rule="nonzero"/></clipPath><clipPath id="bb15fa3c52"><path d="M 298.664062 74.53125 L 211.332031 497.609375 L 84.996094 471.53125 L 172.328125 48.453125 Z M 298.664062 74.53125 " clip-rule="nonzero"/></clipPath><clipPath id="ac174d131b"><path d="M 298.71875 74.257812 L 211.386719 497.339844 L 85.050781 471.261719 L 172.382812 48.179688 Z M 298.71875 74.257812 " clip-rule="nonzero"/></clipPath><clipPath id="8ca726b108"><path d="M 298.71875 74.257812 L 211.386719 497.339844 L 85.050781 471.261719 L 172.382812 48.179688 Z M 298.71875 74.257812 " clip-rule="nonzero"/></clipPath><clipPath id="cc90f2ff88"><path d="M 238 282 L 252 282 L 252 294 L 238 294 Z M 238 282 " clip-rule="nonzero"/></clipPath><clipPath id="5a88db43c0"><path d="M 298.664062 74.53125 L 211.332031 497.609375 L 84.996094 471.53125 L 172.328125 48.453125 Z M 298.664062 74.53125 " clip-rule="nonzero"/></clipPath><clipPath id="b7deb1fe8e"><path d="M 298.71875 74.257812 L 211.386719 497.339844 L 85.050781 471.261719 L 172.382812 48.179688 Z M 298.71875 74.257812 " clip-rule="nonzero"/></clipPath><clipPath id="9e625c3845"><path d="M 298.71875 74.257812 L 211.386719 497.339844 L 85.050781 471.261719 L 172.382812 48.179688 Z M 298.71875 74.257812 " clip-rule="nonzero"/></clipPath><clipPath id="d7a49d7715"><path d="M 217 205 L 235 205 L 235 233 L 217 233 Z M 217 205 " clip-rule="nonzero"/></clipPath><clipPath id="34fc463f09"><path d="M 298.664062 74.53125 L 211.332031 497.609375 L 84.996094 471.53125 L 172.328125 48.453125 Z M 298.664062 74.53125 " clip-rule="nonzero"/></clipPath><clipPath id="173619c066"><path d="M 298.71875 74.257812 L 211.386719 497.339844 L 85.050781 471.261719 L 172.382812 48.179688 Z M 298.71875 74.257812 " clip-rule="nonzero"/></clipPath><clipPath id="d0a4e0bb01"><path d="M 298.71875 74.257812 L 211.386719 497.339844 L 85.050781 471.261719 L 172.382812 48.179688 Z M 298.71875 74.257812 " clip-rule="nonzero"/></clipPath><clipPath id="915298857f"><path d="M 218 192 L 231 192 L 231 203 L 218 203 Z M 218 192 " clip-rule="nonzero"/></clipPath><clipPath id="418ec6789e"><path d="M 298.664062 74.53125 L 211.332031 497.609375 L 84.996094 471.53125 L 172.328125 48.453125 Z M 298.664062 74.53125 " clip-rule="nonzero"/></clipPath><clipPath id="d9f3950e2a"><path d="M 298.71875 74.257812 L 211.386719 497.339844 L 85.050781 471.261719 L 172.382812 48.179688 Z M 298.71875 74.257812 " clip-rule="nonzero"/></clipPath><clipPath id="45bc6536ed"><path d="M 298.71875 74.257812 L 211.386719 497.339844 L 85.050781 471.261719 L 172.382812 48.179688 Z M 298.71875 74.257812 " clip-rule="nonzero"/></clipPath><clipPath id="aa3059c769"><path d="M 238 225 L 256 225 L 256 253 L 238 253 Z M 238 225 " clip-rule="nonzero"/></clipPath><clipPath id="9fc5b53c20"><path d="M 298.664062 74.53125 L 211.332031 497.609375 L 84.996094 471.53125 L 172.328125 48.453125 Z M 298.664062 74.53125 " clip-rule="nonzero"/></clipPath><clipPath id="b3b8c818b6"><path d="M 298.71875 74.257812 L 211.386719 497.339844 L 85.050781 471.261719 L 172.382812 48.179688 Z M 298.71875 74.257812 " clip-rule="nonzero"/></clipPath><clipPath id="424d86dec5"><path d="M 298.71875 74.257812 L 211.386719 497.339844 L 85.050781 471.261719 L 172.382812 48.179688 Z M 298.71875 74.257812 " clip-rule="nonzero"/></clipPath><clipPath id="7bc10a08af"><path d="M 241 212 L 254 212 L 254 223 L 241 223 Z M 241 212 " clip-rule="nonzero"/></clipPath><clipPath id="3facf5bbf0"><path d="M 298.664062 74.53125 L 211.332031 497.609375 L 84.996094 471.53125 L 172.328125 48.453125 Z M 298.664062 74.53125 " clip-rule="nonzero"/></clipPath><clipPath id="b6e0ed823c"><path d="M 298.71875 74.257812 L 211.386719 497.339844 L 85.050781 471.261719 L 172.382812 48.179688 Z M 298.71875 74.257812 " clip-rule="nonzero"/></clipPath><clipPath id="2fc393b501"><path d="M 298.71875 74.257812 L 211.386719 497.339844 L 85.050781 471.261719 L 172.382812 48.179688 Z M 298.71875 74.257812 " clip-rule="nonzero"/></clipPath><clipPath id="bad673c413"><path d="M 212 137 L 230 137 L 230 165 L 212 165 Z M 212 137 " clip-rule="nonzero"/></clipPath><clipPath id="f135448640"><path d="M 298.664062 74.53125 L 211.332031 497.609375 L 84.996094 471.53125 L 172.328125 48.453125 Z M 298.664062 74.53125 " clip-rule="nonzero"/></clipPath><clipPath id="159cf64ce7"><path d="M 298.71875 74.257812 L 211.386719 497.339844 L 85.050781 471.261719 L 172.382812 48.179688 Z M 298.71875 74.257812 " clip-rule="nonzero"/></clipPath><clipPath id="b6a20c74d7"><path d="M 298.71875 74.257812 L 211.386719 497.339844 L 85.050781 471.261719 L 172.382812 48.179688 Z M 298.71875 74.257812 " clip-rule="nonzero"/></clipPath><clipPath id="768d42aa1a"><path d="M 211 124 L 224 124 L 224 136 L 211 136 Z M 211 124 " clip-rule="nonzero"/></clipPath><clipPath id="b4b40ba43c"><path d="M 298.664062 74.53125 L 211.332031 497.609375 L 84.996094 471.53125 L 172.328125 48.453125 Z M 298.664062 74.53125 " clip-rule="nonzero"/></clipPath><clipPath id="e8a7218fbe"><path d="M 298.71875 74.257812 L 211.386719 497.339844 L 85.050781 471.261719 L 172.382812 48.179688 Z M 298.71875 74.257812 " clip-rule="nonzero"/></clipPath><clipPath id="d17fe2c7ff"><path d="M 298.71875 74.257812 L 211.386719 497.339844 L 85.050781 471.261719 L 172.382812 48.179688 Z M 298.71875 74.257812 " clip-rule="nonzero"/></clipPath><clipPath id="bdacb1bb51"><path d="M 235 155 L 253 155 L 253 183 L 235 183 Z M 235 155 " clip-rule="nonzero"/></clipPath><clipPath id="95f25ee6d1"><path d="M 298.664062 74.53125 L 211.332031 497.609375 L 84.996094 471.53125 L 172.328125 48.453125 Z M 298.664062 74.53125 " clip-rule="nonzero"/></clipPath><clipPath id="be63b40e5f"><path d="M 298.71875 74.257812 L 211.386719 497.339844 L 85.050781 471.261719 L 172.382812 48.179688 Z M 298.71875 74.257812 " clip-rule="nonzero"/></clipPath><clipPath id="cfb928efaf"><path d="M 298.71875 74.257812 L 211.386719 497.339844 L 85.050781 471.261719 L 172.382812 48.179688 Z M 298.71875 74.257812 " clip-rule="nonzero"/></clipPath><clipPath id="5d94aafffb"><path d="M 236 142 L 250 142 L 250 153 L 236 153 Z M 236 142 " clip-rule="nonzero"/></clipPath><clipPath id="6250ab6ec3"><path d="M 298.664062 74.53125 L 211.332031 497.609375 L 84.996094 471.53125 L 172.328125 48.453125 Z M 298.664062 74.53125 " clip-rule="nonzero"/></clipPath><clipPath id="b1bb3519d7"><path d="M 298.71875 74.257812 L 211.386719 497.339844 L 85.050781 471.261719 L 172.382812 48.179688 Z M 298.71875 74.257812 " clip-rule="nonzero"/></clipPath><clipPath id="e1e17ed75c"><path d="M 298.71875 74.257812 L 211.386719 497.339844 L 85.050781 471.261719 L 172.382812 48.179688 Z M 298.71875 74.257812 " clip-rule="nonzero"/></clipPath><clipPath id="de131b54d6"><path d="M 204 68 L 223 68 L 223 96 L 204 96 Z M 204 68 " clip-rule="nonzero"/></clipPath><clipPath id="39127349c9"><path d="M 298.664062 74.53125 L 211.332031 497.609375 L 84.996094 471.53125 L 172.328125 48.453125 Z M 298.664062 74.53125 " clip-rule="nonzero"/></clipPath><clipPath id="b2e48637bb"><path d="M 298.71875 74.257812 L 211.386719 497.339844 L 85.050781 471.261719 L 172.382812 48.179688 Z M 298.71875 74.257812 " clip-rule="nonzero"/></clipPath><clipPath id="985189cc3a"><path d="M 298.71875 74.257812 L 211.386719 497.339844 L 85.050781 471.261719 L 172.382812 48.179688 Z M 298.71875 74.257812 " clip-rule="nonzero"/></clipPath><clipPath id="1391a12414"><path d="M 203 56 L 216 56 L 216 68 L 203 68 Z M 203 56 " clip-rule="nonzero"/></clipPath><clipPath id="64e3ff37c8"><path d="M 298.664062 74.53125 L 211.332031 497.609375 L 84.996094 471.53125 L 172.328125 48.453125 Z M 298.664062 74.53125 " clip-rule="nonzero"/></clipPath><clipPath id="7b5e11061e"><path d="M 298.71875 74.257812 L 211.386719 497.339844 L 85.050781 471.261719 L 172.382812 48.179688 Z M 298.71875 74.257812 " clip-rule="nonzero"/></clipPath><clipPath id="9c69a555aa"><path d="M 298.71875 74.257812 L 211.386719 497.339844 L 85.050781 471.261719 L 172.382812 48.179688 Z M 298.71875 74.257812 " clip-rule="nonzero"/></clipPath><clipPath id="9a2d6a4506"><path d="M 228 86 L 245 86 L 245 114 L 228 114 Z M 228 86 " clip-rule="nonzero"/></clipPath><clipPath id="01690fc659"><path d="M 298.664062 74.53125 L 211.332031 497.609375 L 84.996094 471.53125 L 172.328125 48.453125 Z M 298.664062 74.53125 " clip-rule="nonzero"/></clipPath><clipPath id="a44a330073"><path d="M 298.71875 74.257812 L 211.386719 497.339844 L 85.050781 471.261719 L 172.382812 48.179688 Z M 298.71875 74.257812 " clip-rule="nonzero"/></clipPath><clipPath id="f9802582eb"><path d="M 298.71875 74.257812 L 211.386719 497.339844 L 85.050781 471.261719 L 172.382812 48.179688 Z M 298.71875 74.257812 " clip-rule="nonzero"/></clipPath><clipPath id="a37b85c419"><path d="M 228 73 L 241 73 L 241 85 L 228 85 Z M 228 73 " clip-rule="nonzero"/></clipPath><clipPath id="923fbdefe7"><path d="M 298.664062 74.53125 L 211.332031 497.609375 L 84.996094 471.53125 L 172.328125 48.453125 Z M 298.664062 74.53125 " clip-rule="nonzero"/></clipPath><clipPath id="2126037e03"><path d="M 298.71875 74.257812 L 211.386719 497.339844 L 85.050781 471.261719 L 172.382812 48.179688 Z M 298.71875 74.257812 " clip-rule="nonzero"/></clipPath><clipPath id="c7801daa48"><path d="M 298.71875 74.257812 L 211.386719 497.339844 L 85.050781 471.261719 L 172.382812 48.179688 Z M 298.71875 74.257812 " clip-rule="nonzero"/></clipPath></defs><g clip-path="url(#2c93ab180c)"><g clip-path="url(#6ddd4e4778)"><g clip-path="url(#d7f1e5e434)"><g clip-path="url(#6dee8e256b)"><path fill="#020202" d="M 118.339844 431.84375 C 118.058594 431.347656 117.785156 430.875 117.523438 430.40625 C 115.792969 427.332031 114.476562 424.96875 112.195312 422.269531 C 111.917969 422.480469 111.667969 422.679688 111.429688 422.886719 C 109.515625 424.523438 107.457031 424.804688 106.160156 425.183594 C 92.085938 429.335938 89.167969 440.332031 95.800781 445.28125 C 100.773438 448.988281 106.800781 443.742188 109.316406 439.628906 C 109.53125 439.265625 109.792969 438.894531 110.097656 438.496094 C 112.277344 435.558594 115.089844 433.324219 118.339844 431.84375 Z M 118.339844 431.84375 " fill-opacity="1" fill-rule="nonzero"/></g></g></g></g><g clip-path="url(#7ae2223499)"><g clip-path="url(#7f9248d80d)"><g clip-path="url(#abdd7c2704)"><g clip-path="url(#1390c3d5fc)"><path fill="#020202" d="M 118.253906 425.070312 C 118.972656 426.246094 119.652344 427.4375 120.378906 428.742188 C 120.65625 429.25 120.945312 429.761719 121.253906 430.285156 C 121.316406 430.265625 121.378906 430.242188 121.445312 430.210938 C 126.042969 428.46875 129.785156 425.160156 126.972656 420.605469 C 124.113281 415.984375 118.636719 417.996094 114.976562 420.464844 C 116.28125 422.050781 117.308594 423.535156 118.253906 425.070312 Z M 118.253906 425.070312 " fill-opacity="1" fill-rule="nonzero"/></g></g></g></g><g clip-path="url(#4d2fcad0ed)"><g clip-path="url(#499a0ffd43)"><g clip-path="url(#b2f57336aa)"><g clip-path="url(#3816af37ca)"><path fill="#020202" d="M 107.304688 452.195312 C 107.621094 452.667969 107.921875 453.121094 108.222656 453.574219 C 110.179688 456.496094 111.683594 458.75 113.074219 462.003906 C 112.765625 462.148438 112.460938 462.28125 112.183594 462.398438 C 109.851562 463.359375 108.65625 465.054688 107.726562 466.03125 C 97.613281 476.636719 86.457031 474.21875 85.054688 466.085938 C 84 459.988281 91.433594 457.019531 96.246094 456.660156 C 96.65625 456.628906 97.121094 456.5625 97.613281 456.492188 C 101.222656 455.886719 104.507812 454.402344 107.304688 452.195312 Z M 107.304688 452.195312 " fill-opacity="1" fill-rule="nonzero"/></g></g></g></g><g clip-path="url(#46a1c11dab)"><g clip-path="url(#4a59eaca96)"><g clip-path="url(#462cf9194f)"><g clip-path="url(#4b5f865a8b)"><path fill="#020202" d="M 113.324219 455.355469 C 112.605469 454.179688 111.84375 453.039062 111.007812 451.804688 C 110.691406 451.324219 110.363281 450.839844 110.027344 450.332031 C 110.082031 450.285156 110.125 450.25 110.183594 450.203125 C 113.828125 446.910156 118.488281 445.089844 121.273438 449.664062 C 124.105469 454.300781 119.8125 458.253906 115.957031 460.382812 C 115.125 458.464844 114.257812 456.890625 113.324219 455.355469 Z M 113.324219 455.355469 " fill-opacity="1" fill-rule="nonzero"/></g></g></g></g><g clip-path="url(#53c88e217c)"><g clip-path="url(#e0f616a34c)"><g clip-path="url(#e4cebcd1a6)"><g clip-path="url(#69da7aec8c)"><path fill="#020202" d="M 174.097656 391.347656 C 173.769531 390.875 173.457031 390.417969 173.144531 389.972656 C 171.109375 387.023438 169.550781 384.761719 166.992188 382.234375 C 166.734375 382.46875 166.5 382.699219 166.28125 382.929688 C 164.5 384.769531 162.429688 385.242188 161.167969 385.757812 C 147.320312 391.285156 145.40625 402.683594 152.585938 407.066406 C 157.96875 410.347656 163.570312 404.480469 165.730469 400.074219 C 165.910156 399.695312 166.148438 399.285156 166.410156 398.851562 C 168.316406 395.675781 170.957031 393.148438 174.097656 391.347656 Z M 174.097656 391.347656 " fill-opacity="1" fill-rule="nonzero"/></g></g></g></g><g clip-path="url(#12c2d27d2e)"><g clip-path="url(#ebd6689ff1)"><g clip-path="url(#2cae7cf840)"><g clip-path="url(#0e8e076b6c)"><path fill="#020202" d="M 173.371094 384.5 C 174.203125 385.617188 175 386.761719 175.863281 388.015625 C 176.191406 388.5 176.53125 388.984375 176.890625 389.5 C 176.953125 389.464844 177.007812 389.441406 177.070312 389.410156 C 181.554688 387.214844 185.027344 383.519531 181.753906 379.171875 C 178.425781 374.765625 173.070312 377.308594 169.613281 380.140625 C 171.101562 381.628906 172.269531 383.035156 173.371094 384.5 Z M 173.371094 384.5 " fill-opacity="1" fill-rule="nonzero"/></g></g></g></g><g clip-path="url(#d837be7655)"><g clip-path="url(#dd8e6596a3)"><g clip-path="url(#8fa34e9f36)"><g clip-path="url(#118d283d6c)"><path fill="#020202" d="M 164.847656 412.980469 C 165.210938 413.425781 165.558594 413.867188 165.910156 414.285156 C 168.164062 417.0625 169.902344 419.199219 171.613281 422.359375 C 171.308594 422.539062 171.019531 422.699219 170.746094 422.851562 C 168.476562 424.035156 167.433594 425.875 166.589844 426.949219 C 157.355469 438.628906 145.847656 437.234375 143.667969 429.125 C 142.023438 423.042969 149.261719 419.351562 154.097656 418.535156 C 154.519531 418.460938 154.980469 418.359375 155.460938 418.230469 C 159.050781 417.273438 162.226562 415.46875 164.847656 412.980469 Z M 164.847656 412.980469 " fill-opacity="1" fill-rule="nonzero"/></g></g></g></g><g clip-path="url(#34bb1d330b)"><g clip-path="url(#7cfe8896ac)"><g clip-path="url(#29e7d60000)"><g clip-path="url(#1545cde236)"><path fill="#020202" d="M 171.234375 415.605469 C 170.398438 414.484375 169.511719 413.402344 168.5625 412.222656 C 168.191406 411.765625 167.8125 411.304688 167.425781 410.820312 C 167.472656 410.773438 167.515625 410.726562 167.5625 410.675781 C 170.9375 407.007812 175.472656 404.730469 178.730469 409.089844 C 182.035156 413.515625 178.066406 417.917969 174.351562 420.429688 C 173.351562 418.59375 172.335938 417.066406 171.234375 415.605469 Z M 171.234375 415.605469 " fill-opacity="1" fill-rule="nonzero"/></g></g></g></g><g clip-path="url(#0b01a50a64)"><g clip-path="url(#3dda056d95)"><g clip-path="url(#a56dce9d73)"><g clip-path="url(#7f89574e98)"><path fill="#020202" d="M 215.390625 339.351562 C 214.910156 339.035156 214.441406 338.730469 213.984375 338.425781 C 210.984375 336.457031 208.679688 334.929688 205.351562 333.550781 C 205.207031 333.867188 205.070312 334.171875 204.953125 334.460938 C 203.988281 336.835938 202.257812 338.050781 201.273438 339.003906 C 190.5 349.324219 193.019531 360.621094 201.328125 362.015625 C 207.558594 363.046875 210.550781 355.496094 210.890625 350.597656 C 210.917969 350.179688 210.980469 349.707031 211.0625 349.214844 C 211.65625 345.535156 213.15625 342.207031 215.390625 339.351562 Z M 215.390625 339.351562 " fill-opacity="1" fill-rule="nonzero"/></g></g></g></g><g clip-path="url(#e0e4cea188)"><g clip-path="url(#b6c3adef17)"><g clip-path="url(#06ccdeb0a7)"><g clip-path="url(#bb4cc4c7f2)"><path fill="#020202" d="M 212.140625 333.265625 C 213.335938 333.984375 214.507812 334.757812 215.769531 335.597656 C 216.261719 335.917969 216.761719 336.25 217.28125 336.589844 C 217.324219 336.539062 217.371094 336.492188 217.417969 336.433594 C 220.753906 332.71875 222.589844 327.980469 217.914062 325.167969 C 213.160156 322.316406 209.152344 326.699219 207.011719 330.621094 C 208.949219 331.449219 210.574219 332.316406 212.140625 333.265625 Z M 212.140625 333.265625 " fill-opacity="1" fill-rule="nonzero"/></g></g></g></g><g clip-path="url(#4f37d5108d)"><g clip-path="url(#298842c082)"><g clip-path="url(#243b425ac5)"><g clip-path="url(#58c3232f7c)"><path fill="#020202" d="M 214.953125 362.910156 C 215.460938 363.1875 215.949219 363.460938 216.429688 363.722656 C 219.570312 365.457031 221.984375 366.785156 224.761719 369.09375 C 224.554688 369.371094 224.339844 369.628906 224.140625 369.863281 C 222.484375 371.820312 222.203125 373.914062 221.816406 375.230469 C 217.644531 389.535156 206.4375 392.546875 201.359375 385.839844 C 197.550781 380.816406 202.875 374.671875 207.054688 372.089844 C 207.417969 371.863281 207.808594 371.597656 208.203125 371.300781 C 211.1875 369.074219 213.460938 366.203125 214.953125 362.910156 Z M 214.953125 362.910156 " fill-opacity="1" fill-rule="nonzero"/></g></g></g></g><g clip-path="url(#01eee70793)"><g clip-path="url(#46eff9c076)"><g clip-path="url(#275eb1015c)"><g clip-path="url(#a2858f3459)"><path fill="#020202" d="M 221.867188 362.960938 C 220.671875 362.242188 219.445312 361.5625 218.117188 360.824219 C 217.605469 360.546875 217.078125 360.25 216.539062 359.945312 C 216.5625 359.878906 216.585938 359.816406 216.613281 359.75 C 218.363281 355.078125 221.722656 351.265625 226.386719 354.097656 C 231.121094 356.96875 229.089844 362.546875 226.59375 366.269531 C 224.957031 364.941406 223.433594 363.910156 221.867188 362.960938 Z M 221.867188 362.960938 " fill-opacity="1" fill-rule="nonzero"/></g></g></g></g><g clip-path="url(#8708206392)"><g clip-path="url(#d1befabbce)"><g clip-path="url(#d2461185fc)"><g clip-path="url(#24ead7098a)"><path fill="#020202" d="M 228.316406 273.636719 C 227.75 273.53125 227.203125 273.429688 226.664062 273.339844 C 223.136719 272.691406 220.433594 272.203125 216.839844 272.226562 C 216.828125 272.570312 216.828125 272.902344 216.832031 273.214844 C 216.875 275.765625 215.761719 277.558594 215.222656 278.820312 C 209.378906 292.492188 216.125 301.902344 224.292969 299.929688 C 230.410156 298.453125 230.199219 290.347656 228.59375 285.71875 C 228.453125 285.320312 228.328125 284.867188 228.207031 284.378906 C 227.320312 280.765625 227.378906 277.113281 228.316406 273.636719 Z M 228.316406 273.636719 " fill-opacity="1" fill-rule="nonzero"/></g></g></g></g><g clip-path="url(#c841c8c3a4)"><g clip-path="url(#15e57bd1df)"><g clip-path="url(#c272ec2d2d)"><g clip-path="url(#19e46b5173)"><path fill="#020202" d="M 222.945312 269.304688 C 224.332031 269.496094 225.703125 269.757812 227.199219 270.03125 C 227.777344 270.140625 228.355469 270.246094 228.972656 270.351562 C 228.996094 270.285156 229.011719 270.21875 229.035156 270.15625 C 230.648438 265.441406 230.476562 260.378906 225.070312 259.621094 C 219.601562 258.851562 217.636719 264.441406 217.207031 268.882812 C 219.3125 268.886719 221.132812 269.046875 222.945312 269.304688 Z M 222.945312 269.304688 " fill-opacity="1" fill-rule="nonzero"/></g></g></g></g><g clip-path="url(#a60db5d64f)"><g clip-path="url(#f70efa7099)"><g clip-path="url(#c1a88cc05b)"><g clip-path="url(#a300fdd114)"><path fill="#020202" d="M 237.140625 295.429688 C 237.71875 295.492188 238.265625 295.546875 238.808594 295.601562 C 242.371094 295.964844 245.101562 296.253906 248.550781 297.277344 C 248.46875 297.617188 248.382812 297.933594 248.285156 298.238281 C 247.523438 300.679688 248.089844 302.714844 248.25 304.066406 C 250.035156 318.828125 240.925781 325.96875 233.636719 321.78125 C 228.167969 318.644531 230.652344 310.933594 233.480469 306.941406 C 233.722656 306.597656 233.980469 306.203125 234.21875 305.765625 C 236.097656 302.5625 237.066406 299.042969 237.140625 295.429688 Z M 237.140625 295.429688 " fill-opacity="1" fill-rule="nonzero"/></g></g></g></g><g clip-path="url(#27b7fcfca9)"><g clip-path="url(#e97eb31bf0)"><g clip-path="url(#5e3b6bcc60)"><g clip-path="url(#6197d3185e)"><path fill="#020202" d="M 243.5 292.792969 C 242.117188 292.597656 240.722656 292.449219 239.226562 292.289062 C 238.648438 292.230469 238.046875 292.164062 237.433594 292.105469 C 237.4375 292.035156 237.425781 291.964844 237.425781 291.90625 C 237.203125 286.929688 238.789062 282.117188 244.175781 282.902344 C 249.640625 283.695312 249.960938 289.609375 249.136719 294 C 247.117188 293.398438 245.3125 293.050781 243.5 292.792969 Z M 243.5 292.792969 " fill-opacity="1" fill-rule="nonzero"/></g></g></g></g><g clip-path="url(#80cd6408bd)"><g clip-path="url(#5a42050805)"><g clip-path="url(#4430d696a2)"><g clip-path="url(#c59e8cb3c5)"><path fill="#020202" d="M 228.929688 205.582031 C 228.351562 205.570312 227.8125 205.550781 227.269531 205.542969 C 223.722656 205.433594 221.003906 205.355469 217.484375 205.914062 C 217.53125 206.257812 217.566406 206.578125 217.621094 206.886719 C 218.042969 209.378906 217.230469 211.300781 216.890625 212.617188 C 213.230469 226.867188 221.230469 235.070312 228.925781 231.921875 C 234.691406 229.566406 233.265625 221.667969 231 217.378906 C 230.800781 217 230.609375 216.582031 230.425781 216.125 C 229.019531 212.71875 228.53125 209.140625 228.929688 205.582031 Z M 228.929688 205.582031 " fill-opacity="1" fill-rule="nonzero"/></g></g></g></g><g clip-path="url(#368b628343)"><g clip-path="url(#559b967ea5)"><g clip-path="url(#00ac7b78f7)"><g clip-path="url(#413187f59b)"><path fill="#020202" d="M 223.019531 202.15625 C 224.402344 202.140625 225.785156 202.183594 227.292969 202.230469 C 227.867188 202.246094 228.464844 202.265625 229.078125 202.277344 C 229.09375 202.210938 229.105469 202.144531 229.109375 202.074219 C 229.984375 197.21875 229.042969 192.289062 223.65625 192.355469 C 218.1875 192.414062 217.101562 198.175781 217.347656 202.59375 C 219.402344 202.289062 221.210938 202.175781 223.019531 202.15625 Z M 223.019531 202.15625 " fill-opacity="1" fill-rule="nonzero"/></g></g></g></g><g clip-path="url(#def08e6933)"><g clip-path="url(#40cb40bc47)"><g clip-path="url(#da99b29e67)"><g clip-path="url(#864fefbb04)"><path fill="#020202" d="M 240.828125 225.597656 C 241.402344 225.578125 241.949219 225.550781 242.488281 225.523438 C 246.035156 225.355469 248.75 225.222656 252.273438 225.71875 C 252.238281 226.058594 252.203125 226.386719 252.152344 226.699219 C 251.773438 229.199219 252.632812 231.105469 253 232.40625 C 256.953125 246.589844 249.125 254.929688 241.359375 251.929688 C 235.546875 249.679688 236.808594 241.761719 238.976562 237.425781 C 239.171875 237.050781 239.351562 236.625 239.527344 236.164062 C 240.882812 232.738281 241.300781 229.148438 240.828125 225.597656 Z M 240.828125 225.597656 " fill-opacity="1" fill-rule="nonzero"/></g></g></g></g><g clip-path="url(#bfe911fbd1)"><g clip-path="url(#99108d9d79)"><g clip-path="url(#750e18ffb7)"><g clip-path="url(#9b003fee4e)"><path fill="#020202" d="M 246.65625 222.066406 C 245.273438 222.082031 243.894531 222.140625 242.394531 222.214844 C 241.8125 222.242188 241.226562 222.273438 240.605469 222.296875 C 240.597656 222.234375 240.578125 222.160156 240.566406 222.101562 C 239.59375 217.269531 240.429688 212.324219 245.824219 212.28125 C 251.300781 212.246094 252.503906 217.980469 252.34375 222.394531 C 250.28125 222.121094 248.464844 222.046875 246.65625 222.066406 Z M 246.65625 222.066406 " fill-opacity="1" fill-rule="nonzero"/></g></g></g></g><g clip-path="url(#e72294c367)"><g clip-path="url(#2b8db284b7)"><g clip-path="url(#c8e2949eb6)"><g clip-path="url(#93e4dc7723)"><path fill="#020202" d="M 222.34375 137.203125 C 221.765625 137.242188 221.214844 137.28125 220.675781 137.320312 C 217.101562 137.5625 214.363281 137.75 210.890625 138.648438 C 210.957031 138.988281 211.042969 139.304688 211.132812 139.613281 C 211.804688 142.074219 211.171875 144.078125 210.960938 145.433594 C 208.683594 160.105469 217.523438 167.558594 224.949219 163.636719 C 230.511719 160.707031 228.296875 152.917969 225.609375 148.828125 C 225.378906 148.480469 225.140625 148.070312 224.90625 147.628906 C 223.136719 144.355469 222.292969 140.808594 222.34375 137.203125 Z M 222.34375 137.203125 " fill-opacity="1" fill-rule="nonzero"/></g></g></g></g><g clip-path="url(#a83fd666a6)"><g clip-path="url(#add7617d44)"><g clip-path="url(#6e35bc2c5e)"><g clip-path="url(#0b43b1c736)"><path fill="#020202" d="M 216.078125 134.335938 C 217.464844 134.183594 218.863281 134.089844 220.363281 133.996094 C 220.953125 133.957031 221.539062 133.917969 222.164062 133.871094 C 222.164062 133.804688 222.167969 133.734375 222.179688 133.667969 C 222.578125 128.714844 221.152344 123.84375 215.746094 124.4375 C 210.257812 125.039062 209.738281 130.925781 210.414062 135.339844 C 212.457031 134.8125 214.265625 134.527344 216.078125 134.335938 Z M 216.078125 134.335938 " fill-opacity="1" fill-rule="nonzero"/></g></g></g></g><g clip-path="url(#8900e9dfb1)"><g clip-path="url(#b61ed89176)"><g clip-path="url(#b21c278ee9)"><g clip-path="url(#6ac7c491c9)"><path fill="#020202" d="M 236.273438 156.132812 C 236.847656 156.054688 237.398438 155.972656 237.933594 155.898438 C 241.46875 155.382812 244.191406 154.984375 247.773438 155.132812 C 247.773438 155.480469 247.761719 155.8125 247.757812 156.125 C 247.625 158.671875 248.671875 160.507812 249.171875 161.777344 C 254.546875 175.640625 247.496094 184.777344 239.410156 182.519531 C 233.34375 180.828125 233.839844 172.75 235.59375 168.179688 C 235.746094 167.785156 235.894531 167.339844 236.03125 166.859375 C 237.023438 163.289062 237.089844 159.652344 236.273438 156.132812 Z M 236.273438 156.132812 " fill-opacity="1" fill-rule="nonzero"/></g></g></g></g><g clip-path="url(#9943601fca)"><g clip-path="url(#c29d792602)"><g clip-path="url(#f96be5c73d)"><g clip-path="url(#aedbd1e81a)"><path fill="#020202" d="M 241.769531 152.011719 C 240.382812 152.164062 239 152.363281 237.503906 152.585938 C 236.917969 152.675781 236.332031 152.761719 235.714844 152.839844 C 235.691406 152.777344 235.671875 152.707031 235.664062 152.644531 C 234.210938 147.886719 234.5625 142.832031 239.96875 142.273438 C 245.464844 141.695312 247.230469 147.339844 247.511719 151.800781 C 245.410156 151.710938 243.582031 151.820312 241.769531 152.011719 Z M 241.769531 152.011719 " fill-opacity="1" fill-rule="nonzero"/></g></g></g></g><g clip-path="url(#f62a256fa3)"><g clip-path="url(#df2d66cbdb)"><g clip-path="url(#8340929845)"><g clip-path="url(#6e91688402)"><path fill="#020202" d="M 214.417969 68.796875 C 213.855469 68.84375 213.300781 68.878906 212.773438 68.917969 C 209.246094 69.171875 206.539062 69.375 203.117188 70.289062 C 203.191406 70.613281 203.273438 70.945312 203.363281 71.238281 C 204.042969 73.667969 203.425781 75.652344 203.230469 76.988281 C 201.070312 91.5 209.847656 98.800781 217.152344 94.890625 C 222.636719 91.957031 220.398438 84.273438 217.71875 80.253906 C 217.488281 79.90625 217.246094 79.511719 217.015625 79.070312 C 215.246094 75.851562 214.390625 72.359375 214.417969 68.796875 Z M 214.417969 68.796875 " fill-opacity="1" fill-rule="nonzero"/></g></g></g></g><g clip-path="url(#d2cf7054be)"><g clip-path="url(#fad6b3a761)"><g clip-path="url(#436132270a)"><g clip-path="url(#9a052e3ca0)"><path fill="#020202" d="M 208.21875 66.003906 C 209.585938 65.847656 210.972656 65.75 212.453125 65.640625 C 213.03125 65.597656 213.617188 65.558594 214.230469 65.511719 C 214.230469 65.441406 214.234375 65.375 214.25 65.308594 C 214.613281 60.402344 213.179688 55.613281 207.839844 56.234375 C 202.425781 56.859375 201.945312 62.675781 202.644531 67.035156 C 204.640625 66.5 206.429688 66.199219 208.21875 66.003906 Z M 208.21875 66.003906 " fill-opacity="1" fill-rule="nonzero"/></g></g></g></g><g clip-path="url(#b4f4a0941b)"><g clip-path="url(#c7df6815f9)"><g clip-path="url(#e3b4ddcd3c)"><g clip-path="url(#d0efa2b1ac)"><path fill="#020202" d="M 228.285156 87.425781 C 228.847656 87.347656 229.386719 87.261719 229.925781 87.175781 C 233.414062 86.648438 236.097656 86.234375 239.648438 86.363281 C 239.648438 86.699219 239.648438 87.035156 239.632812 87.34375 C 239.519531 89.859375 240.570312 91.660156 241.0625 92.917969 C 246.445312 106.574219 239.546875 115.652344 231.539062 113.464844 C 225.539062 111.835938 225.984375 103.851562 227.683594 99.328125 C 227.832031 98.933594 227.96875 98.496094 228.105469 98.015625 C 229.074219 94.488281 229.113281 90.890625 228.285156 87.425781 Z M 228.285156 87.425781 " fill-opacity="1" fill-rule="nonzero"/></g></g></g></g><g clip-path="url(#7237123f5c)"><g clip-path="url(#fa1552b072)"><g clip-path="url(#a66229b275)"><g clip-path="url(#d0ce901042)"><path fill="#020202" d="M 233.695312 83.324219 C 232.332031 83.480469 230.957031 83.683594 229.488281 83.910156 C 228.914062 84 228.328125 84.085938 227.730469 84.171875 C 227.707031 84.109375 227.6875 84.046875 227.679688 83.976562 C 226.214844 79.28125 226.539062 74.289062 231.871094 73.703125 C 237.289062 73.113281 239.070312 78.667969 239.378906 83.074219 C 237.296875 83.003906 235.5 83.117188 233.695312 83.324219 Z M 233.695312 83.324219 " fill-opacity="1" fill-rule="nonzero"/></g></g></g></g><g clip-path="url(#725f223d67)"><g clip-path="url(#fb7a69dc06)"><g clip-path="url(#807ec4d45f)"><g clip-path="url(#2ffc99540a)"><path fill="#020202" d="M 119.863281 431.84375 C 119.585938 431.347656 119.3125 430.875 119.050781 430.40625 C 117.320312 427.332031 116 424.96875 113.71875 422.269531 C 113.445312 422.480469 113.195312 422.679688 112.957031 422.886719 C 111.042969 424.523438 108.980469 424.804688 107.6875 425.183594 C 93.613281 429.335938 90.695312 440.332031 97.328125 445.28125 C 102.296875 448.988281 108.328125 443.742188 110.84375 439.628906 C 111.058594 439.265625 111.320312 438.894531 111.621094 438.496094 C 113.804688 435.558594 116.617188 433.324219 119.863281 431.84375 Z M 119.863281 431.84375 " fill-opacity="1" fill-rule="nonzero"/></g></g></g></g><g clip-path="url(#fc5724c036)"><g clip-path="url(#5f0982ed5d)"><g clip-path="url(#d63a504a22)"><g clip-path="url(#64b6de85be)"><path fill="#020202" d="M 119.78125 425.070312 C 120.5 426.246094 121.179688 427.4375 121.90625 428.742188 C 122.183594 429.25 122.472656 429.761719 122.78125 430.285156 C 122.84375 430.265625 122.90625 430.242188 122.96875 430.210938 C 127.570312 428.46875 131.308594 425.160156 128.496094 420.605469 C 125.640625 415.984375 120.164062 417.996094 116.503906 420.464844 C 117.808594 422.050781 118.835938 423.535156 119.78125 425.070312 Z M 119.78125 425.070312 " fill-opacity="1" fill-rule="nonzero"/></g></g></g></g><g clip-path="url(#245899120f)"><g clip-path="url(#973b63c6a6)"><g clip-path="url(#c3c6527358)"><g clip-path="url(#ee9184411e)"><path fill="#020202" d="M 108.828125 452.195312 C 109.148438 452.667969 109.449219 453.121094 109.75 453.574219 C 111.707031 456.496094 113.210938 458.75 114.601562 462.003906 C 114.292969 462.148438 113.988281 462.28125 113.707031 462.398438 C 111.378906 463.359375 110.183594 465.054688 109.25 466.03125 C 99.140625 476.636719 87.984375 474.21875 86.582031 466.085938 C 85.523438 459.988281 92.960938 457.019531 97.773438 456.660156 C 98.183594 456.628906 98.648438 456.5625 99.136719 456.492188 C 102.75 455.886719 106.035156 454.402344 108.828125 452.195312 Z M 108.828125 452.195312 " fill-opacity="1" fill-rule="nonzero"/></g></g></g></g><g clip-path="url(#a018a06b6c)"><g clip-path="url(#599df9f828)"><g clip-path="url(#6e401d0e72)"><g clip-path="url(#07a49c2950)"><path fill="#020202" d="M 114.847656 455.355469 C 114.128906 454.179688 113.371094 453.039062 112.535156 451.804688 C 112.21875 451.324219 111.890625 450.839844 111.554688 450.332031 C 111.609375 450.285156 111.652344 450.25 111.707031 450.203125 C 115.351562 446.910156 120.015625 445.089844 122.800781 449.664062 C 125.632812 454.300781 121.339844 458.253906 117.484375 460.382812 C 116.652344 458.464844 115.785156 456.890625 114.847656 455.355469 Z M 114.847656 455.355469 " fill-opacity="1" fill-rule="nonzero"/></g></g></g></g><g clip-path="url(#b3320842e1)"><g clip-path="url(#3d2c215d0d)"><g clip-path="url(#0c4e91ac15)"><g clip-path="url(#f86dd9da54)"><path fill="#020202" d="M 175.625 391.347656 C 175.292969 390.875 174.984375 390.417969 174.667969 389.972656 C 172.636719 387.023438 171.078125 384.761719 168.515625 382.234375 C 168.261719 382.46875 168.027344 382.699219 167.804688 382.929688 C 166.023438 384.769531 163.957031 385.242188 162.691406 385.757812 C 148.84375 391.285156 146.933594 402.683594 154.113281 407.066406 C 159.492188 410.347656 165.09375 404.480469 167.253906 400.074219 C 167.4375 399.695312 167.671875 399.285156 167.9375 398.851562 C 169.84375 395.675781 172.484375 393.148438 175.625 391.347656 Z M 175.625 391.347656 " fill-opacity="1" fill-rule="nonzero"/></g></g></g></g><g clip-path="url(#3af0d748d3)"><g clip-path="url(#251899e1f6)"><g clip-path="url(#6de17aa6ac)"><g clip-path="url(#3336324af0)"><path fill="#020202" d="M 174.894531 384.5 C 175.730469 385.617188 176.523438 386.761719 177.390625 388.015625 C 177.71875 388.5 178.058594 388.984375 178.414062 389.5 C 178.480469 389.464844 178.53125 389.441406 178.597656 389.410156 C 183.082031 387.214844 186.554688 383.519531 183.28125 379.171875 C 179.953125 374.765625 174.597656 377.308594 171.136719 380.140625 C 172.628906 381.628906 173.796875 383.035156 174.894531 384.5 Z M 174.894531 384.5 " fill-opacity="1" fill-rule="nonzero"/></g></g></g></g><g clip-path="url(#5eb0346383)"><g clip-path="url(#cb76aa055b)"><g clip-path="url(#2481e6a8ef)"><g clip-path="url(#99101de78c)"><path fill="#020202" d="M 166.375 412.980469 C 166.734375 413.425781 167.085938 413.867188 167.4375 414.285156 C 169.691406 417.0625 171.429688 419.199219 173.136719 422.359375 C 172.835938 422.539062 172.546875 422.699219 172.273438 422.851562 C 170 424.035156 168.960938 425.875 168.113281 426.949219 C 158.878906 438.628906 147.375 437.234375 145.191406 429.125 C 143.550781 423.042969 150.789062 419.351562 155.625 418.535156 C 156.046875 418.460938 156.507812 418.359375 156.988281 418.230469 C 160.578125 417.273438 163.753906 415.46875 166.375 412.980469 Z M 166.375 412.980469 " fill-opacity="1" fill-rule="nonzero"/></g></g></g></g><g clip-path="url(#73fc104ae8)"><g clip-path="url(#5e909a6988)"><g clip-path="url(#809235e7b4)"><g clip-path="url(#d08a3693a2)"><path fill="#020202" d="M 172.761719 415.605469 C 171.925781 414.484375 171.039062 413.402344 170.085938 412.222656 C 169.71875 411.765625 169.339844 411.304688 168.953125 410.820312 C 168.996094 410.773438 169.042969 410.726562 169.085938 410.675781 C 172.460938 407.007812 176.996094 404.730469 180.257812 409.089844 C 183.558594 413.515625 179.59375 417.917969 175.875 420.429688 C 174.878906 418.59375 173.859375 417.066406 172.761719 415.605469 Z M 172.761719 415.605469 " fill-opacity="1" fill-rule="nonzero"/></g></g></g></g><g clip-path="url(#bf54efd454)"><g clip-path="url(#743dcf4117)"><g clip-path="url(#635b88ef07)"><g clip-path="url(#85bed6403a)"><path fill="#020202" d="M 216.914062 339.351562 C 216.4375 339.035156 215.96875 338.730469 215.507812 338.425781 C 212.507812 336.457031 210.207031 334.929688 206.878906 333.550781 C 206.730469 333.867188 206.597656 334.171875 206.480469 334.460938 C 205.515625 336.835938 203.78125 338.050781 202.796875 339.003906 C 192.027344 349.324219 194.546875 360.621094 202.855469 362.015625 C 209.082031 363.046875 212.078125 355.496094 212.417969 350.597656 C 212.445312 350.179688 212.507812 349.707031 212.585938 349.214844 C 213.183594 345.535156 214.683594 342.207031 216.914062 339.351562 Z M 216.914062 339.351562 " fill-opacity="1" fill-rule="nonzero"/></g></g></g></g><g clip-path="url(#c53083f24b)"><g clip-path="url(#dadfc043c1)"><g clip-path="url(#1bd0e7a3f4)"><g clip-path="url(#b9619f4885)"><path fill="#020202" d="M 213.667969 333.265625 C 214.863281 333.984375 216.035156 334.757812 217.296875 335.597656 C 217.789062 335.917969 218.285156 336.25 218.808594 336.589844 C 218.851562 336.539062 218.894531 336.492188 218.945312 336.433594 C 222.28125 332.71875 224.117188 327.980469 219.4375 325.167969 C 214.6875 322.316406 210.679688 326.699219 208.535156 330.621094 C 210.472656 331.449219 212.101562 332.316406 213.667969 333.265625 Z M 213.667969 333.265625 " fill-opacity="1" fill-rule="nonzero"/></g></g></g></g><g clip-path="url(#4dcb9c3c43)"><g clip-path="url(#49e9d9cda9)"><g clip-path="url(#572460c24f)"><g clip-path="url(#1224d95d5c)"><path fill="#020202" d="M 216.476562 362.910156 C 216.988281 363.1875 217.476562 363.460938 217.957031 363.722656 C 221.097656 365.457031 223.507812 366.785156 226.289062 369.09375 C 226.078125 369.371094 225.863281 369.628906 225.664062 369.863281 C 224.011719 371.820312 223.730469 373.914062 223.339844 375.230469 C 219.171875 389.535156 207.960938 392.546875 202.882812 385.839844 C 199.078125 380.816406 204.402344 374.671875 208.582031 372.089844 C 208.941406 371.863281 209.332031 371.597656 209.730469 371.300781 C 212.714844 369.074219 214.988281 366.203125 216.476562 362.910156 Z M 216.476562 362.910156 " fill-opacity="1" fill-rule="nonzero"/></g></g></g></g><g clip-path="url(#4df22540f1)"><g clip-path="url(#4a80c6c888)"><g clip-path="url(#5ffe8db60a)"><g clip-path="url(#0b883cda88)"><path fill="#020202" d="M 223.394531 362.960938 C 222.199219 362.242188 220.972656 361.5625 219.640625 360.824219 C 219.132812 360.546875 218.601562 360.25 218.0625 359.945312 C 218.089844 359.878906 218.113281 359.816406 218.136719 359.75 C 219.890625 355.078125 223.25 351.265625 227.910156 354.097656 C 232.648438 356.96875 230.617188 362.546875 228.121094 366.269531 C 226.484375 364.941406 224.960938 363.910156 223.394531 362.960938 Z M 223.394531 362.960938 " fill-opacity="1" fill-rule="nonzero"/></g></g></g></g><g clip-path="url(#66c68222d0)"><g clip-path="url(#49077f3a0e)"><g clip-path="url(#ef9d4c1a13)"><g clip-path="url(#1ac9e4bfac)"><path fill="#020202" d="M 229.84375 273.636719 C 229.273438 273.53125 228.730469 273.429688 228.191406 273.339844 C 224.664062 272.691406 221.960938 272.203125 218.367188 272.226562 C 218.351562 272.570312 218.351562 272.902344 218.359375 273.214844 C 218.398438 275.765625 217.289062 277.558594 216.75 278.820312 C 210.902344 292.492188 217.648438 301.902344 225.820312 299.929688 C 231.9375 298.453125 231.722656 290.347656 230.117188 285.71875 C 229.980469 285.320312 229.855469 284.867188 229.734375 284.378906 C 228.847656 280.765625 228.90625 277.113281 229.84375 273.636719 Z M 229.84375 273.636719 " fill-opacity="1" fill-rule="nonzero"/></g></g></g></g><g clip-path="url(#ae97596abc)"><g clip-path="url(#dead707ca2)"><g clip-path="url(#ab10df2c54)"><g clip-path="url(#6f8cfcd476)"><path fill="#020202" d="M 224.472656 269.304688 C 225.855469 269.496094 227.226562 269.757812 228.722656 270.03125 C 229.304688 270.140625 229.882812 270.246094 230.5 270.351562 C 230.523438 270.285156 230.539062 270.21875 230.5625 270.15625 C 232.171875 265.441406 232 260.378906 226.597656 259.621094 C 221.125 258.851562 219.160156 264.441406 218.730469 268.882812 C 220.839844 268.886719 222.660156 269.046875 224.472656 269.304688 Z M 224.472656 269.304688 " fill-opacity="1" fill-rule="nonzero"/></g></g></g></g><g clip-path="url(#5fe39b5c36)"><g clip-path="url(#bb15fa3c52)"><g clip-path="url(#ac174d131b)"><g clip-path="url(#8ca726b108)"><path fill="#020202" d="M 238.667969 295.429688 C 239.246094 295.492188 239.789062 295.546875 240.335938 295.601562 C 243.894531 295.964844 246.628906 296.253906 250.078125 297.277344 C 249.996094 297.617188 249.90625 297.933594 249.808594 298.238281 C 249.050781 300.679688 249.617188 302.714844 249.777344 304.066406 C 251.558594 318.828125 242.453125 325.96875 235.160156 321.78125 C 229.691406 318.644531 232.175781 310.933594 235.003906 306.941406 C 235.25 306.597656 235.503906 306.203125 235.746094 305.765625 C 237.625 302.5625 238.59375 299.042969 238.667969 295.429688 Z M 238.667969 295.429688 " fill-opacity="1" fill-rule="nonzero"/></g></g></g></g><g clip-path="url(#cc90f2ff88)"><g clip-path="url(#5a88db43c0)"><g clip-path="url(#b7deb1fe8e)"><g clip-path="url(#9e625c3845)"><path fill="#020202" d="M 245.027344 292.792969 C 243.640625 292.597656 242.246094 292.449219 240.75 292.289062 C 240.171875 292.230469 239.574219 292.164062 238.960938 292.105469 C 238.960938 292.035156 238.953125 291.964844 238.953125 291.90625 C 238.730469 286.929688 240.316406 282.117188 245.699219 282.902344 C 251.167969 283.695312 251.488281 289.609375 250.660156 294 C 248.640625 293.398438 246.839844 293.050781 245.027344 292.792969 Z M 245.027344 292.792969 " fill-opacity="1" fill-rule="nonzero"/></g></g></g></g><g clip-path="url(#d7a49d7715)"><g clip-path="url(#34fc463f09)"><g clip-path="url(#173619c066)"><g clip-path="url(#d0a4e0bb01)"><path fill="#020202" d="M 230.453125 205.582031 C 229.878906 205.570312 229.335938 205.550781 228.796875 205.542969 C 225.25 205.433594 222.53125 205.355469 219.011719 205.914062 C 219.054688 206.257812 219.09375 206.578125 219.144531 206.886719 C 219.570312 209.378906 218.757812 211.300781 218.414062 212.617188 C 214.753906 226.867188 222.757812 235.070312 230.449219 231.921875 C 236.21875 229.566406 234.789062 221.667969 232.527344 217.378906 C 232.324219 217 232.132812 216.582031 231.949219 216.125 C 230.546875 212.71875 230.054688 209.140625 230.453125 205.582031 Z M 230.453125 205.582031 " fill-opacity="1" fill-rule="nonzero"/></g></g></g></g><g clip-path="url(#915298857f)"><g clip-path="url(#418ec6789e)"><g clip-path="url(#d9f3950e2a)"><g clip-path="url(#45bc6536ed)"><path fill="#020202" d="M 224.546875 202.15625 C 225.929688 202.140625 227.308594 202.183594 228.816406 202.230469 C 229.394531 202.246094 229.992188 202.265625 230.605469 202.277344 C 230.617188 202.210938 230.632812 202.144531 230.632812 202.074219 C 231.507812 197.21875 230.570312 192.289062 225.179688 192.355469 C 219.710938 192.414062 218.628906 198.175781 218.875 202.59375 C 220.929688 202.289062 222.734375 202.175781 224.546875 202.15625 Z M 224.546875 202.15625 " fill-opacity="1" fill-rule="nonzero"/></g></g></g></g><g clip-path="url(#aa3059c769)"><g clip-path="url(#9fc5b53c20)"><g clip-path="url(#b3b8c818b6)"><g clip-path="url(#424d86dec5)"><path fill="#020202" d="M 242.355469 225.597656 C 242.925781 225.578125 243.476562 225.550781 244.015625 225.523438 C 247.558594 225.355469 250.273438 225.222656 253.796875 225.71875 C 253.761719 226.058594 253.730469 226.386719 253.675781 226.699219 C 253.300781 229.199219 254.15625 231.105469 254.527344 232.40625 C 258.480469 246.589844 250.652344 254.929688 242.886719 251.929688 C 237.070312 249.679688 238.335938 241.761719 240.503906 237.425781 C 240.699219 237.050781 240.878906 236.625 241.054688 236.164062 C 242.410156 232.738281 242.828125 229.148438 242.355469 225.597656 Z M 242.355469 225.597656 " fill-opacity="1" fill-rule="nonzero"/></g></g></g></g><g clip-path="url(#7bc10a08af)"><g clip-path="url(#3facf5bbf0)"><g clip-path="url(#b6e0ed823c)"><g clip-path="url(#2fc393b501)"><path fill="#020202" d="M 248.179688 222.066406 C 246.800781 222.082031 245.417969 222.140625 243.921875 222.214844 C 243.335938 222.242188 242.75 222.273438 242.132812 222.296875 C 242.121094 222.234375 242.101562 222.160156 242.09375 222.101562 C 241.121094 217.269531 241.957031 212.324219 247.351562 212.28125 C 252.824219 212.246094 254.027344 217.980469 253.871094 222.394531 C 251.808594 222.121094 249.992188 222.046875 248.179688 222.066406 Z M 248.179688 222.066406 " fill-opacity="1" fill-rule="nonzero"/></g></g></g></g><g clip-path="url(#bad673c413)"><g clip-path="url(#f135448640)"><g clip-path="url(#159cf64ce7)"><g clip-path="url(#b6a20c74d7)"><path fill="#020202" d="M 223.871094 137.203125 C 223.292969 137.242188 222.742188 137.28125 222.199219 137.320312 C 218.628906 137.5625 215.890625 137.75 212.414062 138.648438 C 212.484375 138.988281 212.570312 139.304688 212.65625 139.613281 C 213.332031 142.074219 212.695312 144.078125 212.488281 145.433594 C 210.210938 160.105469 219.050781 167.558594 226.476562 163.636719 C 232.039062 160.707031 229.824219 152.917969 227.132812 148.828125 C 226.90625 148.480469 226.664062 148.070312 226.429688 147.628906 C 224.664062 144.355469 223.820312 140.808594 223.871094 137.203125 Z M 223.871094 137.203125 " fill-opacity="1" fill-rule="nonzero"/></g></g></g></g><g clip-path="url(#768d42aa1a)"><g clip-path="url(#b4b40ba43c)"><g clip-path="url(#e8a7218fbe)"><g clip-path="url(#d17fe2c7ff)"><path fill="#020202" d="M 217.601562 134.335938 C 218.988281 134.183594 220.386719 134.089844 221.890625 133.996094 C 222.476562 133.957031 223.066406 133.917969 223.6875 133.871094 C 223.691406 133.804688 223.695312 133.734375 223.707031 133.667969 C 224.105469 128.714844 222.675781 123.84375 217.273438 124.4375 C 211.785156 125.039062 211.265625 130.925781 211.941406 135.339844 C 213.984375 134.8125 215.792969 134.527344 217.601562 134.335938 Z M 217.601562 134.335938 " fill-opacity="1" fill-rule="nonzero"/></g></g></g></g><g clip-path="url(#bdacb1bb51)"><g clip-path="url(#95f25ee6d1)"><g clip-path="url(#be63b40e5f)"><g clip-path="url(#cfb928efaf)"><path fill="#020202" d="M 237.800781 156.132812 C 238.371094 156.054688 238.921875 155.972656 239.460938 155.898438 C 242.996094 155.382812 245.71875 154.984375 249.300781 155.132812 C 249.300781 155.480469 249.289062 155.8125 249.28125 156.125 C 249.148438 158.671875 250.195312 160.507812 250.699219 161.777344 C 256.074219 175.640625 249.019531 184.777344 240.9375 182.519531 C 234.871094 180.828125 235.367188 172.75 237.121094 168.179688 C 237.273438 167.785156 237.421875 167.339844 237.554688 166.859375 C 238.546875 163.289062 238.613281 159.652344 237.800781 156.132812 Z M 237.800781 156.132812 " fill-opacity="1" fill-rule="nonzero"/></g></g></g></g><g clip-path="url(#5d94aafffb)"><g clip-path="url(#6250ab6ec3)"><g clip-path="url(#b1bb3519d7)"><g clip-path="url(#e1e17ed75c)"><path fill="#020202" d="M 243.296875 152.011719 C 241.910156 152.164062 240.523438 152.363281 239.03125 152.585938 C 238.445312 152.675781 237.859375 152.761719 237.242188 152.839844 C 237.21875 152.777344 237.199219 152.707031 237.1875 152.644531 C 235.738281 147.886719 236.085938 142.832031 241.496094 142.273438 C 246.988281 141.695312 248.753906 147.339844 249.039062 151.800781 C 246.9375 151.710938 245.109375 151.820312 243.296875 152.011719 Z M 243.296875 152.011719 " fill-opacity="1" fill-rule="nonzero"/></g></g></g></g><g clip-path="url(#de131b54d6)"><g clip-path="url(#39127349c9)"><g clip-path="url(#b2e48637bb)"><g clip-path="url(#985189cc3a)"><path fill="#020202" d="M 215.945312 68.796875 C 215.378906 68.84375 214.828125 68.878906 214.296875 68.917969 C 210.769531 69.171875 208.066406 69.375 204.644531 70.289062 C 204.714844 70.613281 204.800781 70.945312 204.890625 71.238281 C 205.570312 73.667969 204.949219 75.652344 204.757812 76.988281 C 202.59375 91.5 211.375 98.800781 218.679688 94.890625 C 224.164062 91.957031 221.925781 84.273438 219.246094 80.253906 C 219.015625 79.90625 218.773438 79.511719 218.539062 79.070312 C 216.769531 75.851562 215.917969 72.359375 215.945312 68.796875 Z M 215.945312 68.796875 " fill-opacity="1" fill-rule="nonzero"/></g></g></g></g><g clip-path="url(#1391a12414)"><g clip-path="url(#64e3ff37c8)"><g clip-path="url(#7b5e11061e)"><g clip-path="url(#9c69a555aa)"><path fill="#020202" d="M 209.746094 66.003906 C 211.109375 65.847656 212.496094 65.75 213.980469 65.640625 C 214.554688 65.597656 215.144531 65.558594 215.753906 65.511719 C 215.757812 65.441406 215.761719 65.375 215.773438 65.308594 C 216.136719 60.402344 214.707031 55.613281 209.363281 56.234375 C 203.953125 56.859375 203.472656 62.675781 204.167969 67.035156 C 206.167969 66.5 207.957031 66.199219 209.746094 66.003906 Z M 209.746094 66.003906 " fill-opacity="1" fill-rule="nonzero"/></g></g></g></g><g clip-path="url(#9a2d6a4506)"><g clip-path="url(#01690fc659)"><g clip-path="url(#a44a330073)"><g clip-path="url(#f9802582eb)"><path fill="#020202" d="M 229.8125 87.425781 C 230.371094 87.347656 230.910156 87.261719 231.449219 87.175781 C 234.941406 86.648438 237.621094 86.234375 241.175781 86.363281 C 241.175781 86.699219 241.175781 87.035156 241.15625 87.34375 C 241.042969 89.859375 242.097656 91.660156 242.589844 92.917969 C 247.972656 106.574219 241.070312 115.652344 233.066406 113.464844 C 227.066406 111.835938 227.511719 103.851562 229.207031 99.328125 C 229.359375 98.933594 229.496094 98.496094 229.628906 98.015625 C 230.601562 94.488281 230.636719 90.890625 229.8125 87.425781 Z M 229.8125 87.425781 " fill-opacity="1" fill-rule="nonzero"/></g></g></g></g><g clip-path="url(#a37b85c419)"><g clip-path="url(#923fbdefe7)"><g clip-path="url(#2126037e03)"><g clip-path="url(#c7801daa48)"><path fill="#020202" d="M 235.222656 83.324219 C 233.859375 83.480469 232.484375 83.683594 231.011719 83.910156 C 230.4375 84 229.851562 84.085938 229.257812 84.171875 C 229.234375 84.109375 229.210938 84.046875 229.203125 83.976562 C 227.738281 79.28125 228.0625 74.289062 233.398438 73.703125 C 238.8125 73.113281 240.597656 78.667969 240.902344 83.074219 C 238.820312 83.003906 237.027344 83.117188 235.222656 83.324219 Z M 235.222656 83.324219 " fill-opacity="1" fill-rule="nonzero"/></g></g></g></g></svg>