<svg xmlns="http://www.w3.org/2000/svg" xmlns:xlink="http://www.w3.org/1999/xlink" width="512" zoomAndPan="magnify" viewBox="0 0 384 599.999999" height="800" preserveAspectRatio="xMidYMid meet" version="1.0"><defs><clipPath id="2c1bda1018"><path d="M 1 23 L 367 23 L 367 572 L 1 572 Z M 1 23 " clip-rule="nonzero"/></clipPath><clipPath id="54960dff68"><path d="M 514.277344 202.59375 L 345.707031 576.609375 L -141.8125 356.882812 L 26.757812 -17.132812 Z M 514.277344 202.59375 " clip-rule="nonzero"/></clipPath><clipPath id="0b54e13b99"><path d="M 514.472656 202.679688 L 345.898438 576.699219 L -142.304688 356.660156 L 26.265625 -17.355469 Z M 514.472656 202.679688 " clip-rule="nonzero"/></clipPath><clipPath id="2f6d90bb1c"><path d="M 514.472656 202.679688 L 345.898438 576.699219 L -142.304688 356.660156 L 26.265625 -17.355469 Z M 514.472656 202.679688 " clip-rule="nonzero"/></clipPath></defs><g clip-path="url(#2c1bda1018)"><g clip-path="url(#54960dff68)"><g clip-path="url(#0b54e13b99)"><g clip-path="url(#2f6d90bb1c)"><path fill="#000000" d="M 46.054688 55.695312 C 49.621094 57.527344 53.191406 59.363281 56.921875 61.925781 C 60.65625 64.496094 64.554688 67.789062 67.617188 71.351562 C 70.679688 74.914062 72.902344 78.734375 74.617188 82.503906 C 76.335938 86.273438 77.546875 89.992188 78.132812 93.78125 C 78.71875 97.574219 78.671875 101.433594 77.578125 104.460938 C 76.484375 107.488281 74.339844 109.679688 71.464844 110.929688 C 68.589844 112.175781 64.988281 112.472656 59.910156 110.984375 C 54.824219 109.492188 48.261719 106.210938 42.5 101.617188 C 36.746094 97.015625 31.792969 91.105469 28.152344 86.199219 C 24.507812 81.292969 22.175781 77.394531 19.839844 73.5 C 20.550781 72.570312 21.261719 71.644531 22.671875 70.65625 C 24.085938 69.667969 26.207031 68.617188 27.617188 68.863281 C 29.019531 69.109375 29.71875 70.660156 30.40625 71.660156 C 31.097656 72.660156 31.773438 73.125 33.640625 72.023438 C 35.507812 70.925781 38.546875 68.261719 40.359375 66.75 C 42.164062 65.242188 42.742188 64.886719 42.632812 64.316406 C 42.523438 63.746094 41.726562 62.960938 40.894531 62.351562 C 40.058594 61.746094 39.1875 61.320312 39.125 60.742188 C 39.058594 60.164062 39.808594 59.425781 41.097656 58.558594 C 42.390625 57.691406 44.226562 56.695312 46.058594 55.699219 Z M 326.425781 512.464844 C 324.800781 516.125 323.171875 519.785156 321.875 524.128906 C 320.574219 528.460938 319.609375 533.480469 319.460938 538.167969 C 319.308594 542.859375 319.976562 547.226562 321.003906 551.242188 C 322.035156 555.257812 323.421875 558.914062 325.347656 562.234375 C 327.273438 565.550781 329.730469 568.535156 332.484375 570.207031 C 335.234375 571.878906 338.289062 572.242188 341.304688 571.414062 C 344.328125 570.585938 347.320312 568.558594 350.34375 564.214844 C 353.367188 559.867188 356.421875 553.199219 358.019531 546.011719 C 359.621094 538.824219 359.761719 531.117188 359.519531 525.015625 C 359.28125 518.910156 358.65625 514.410156 358.019531 509.914062 C 356.886719 509.632812 355.75 509.359375 354.027344 509.476562 C 352.304688 509.59375 349.988281 510.101562 349.050781 511.175781 C 348.109375 512.25 348.539062 513.890625 348.636719 515.101562 C 348.730469 516.316406 348.488281 517.101562 346.34375 517.414062 C 344.203125 517.726562 340.160156 517.554688 337.804688 517.511719 C 335.449219 517.472656 334.777344 517.546875 334.503906 517.03125 C 334.234375 516.519531 334.355469 515.40625 334.625 514.417969 C 334.894531 513.425781 335.308594 512.542969 334.992188 512.050781 C 334.675781 511.5625 333.636719 511.453125 332.082031 511.589844 C 330.535156 511.722656 328.476562 512.097656 326.425781 512.46875 Z M 330.191406 499.011719 C 335.4375 499.433594 345.859375 499.070312 351.132812 498.539062 C 356.40625 498.003906 356.542969 497.308594 356.695312 494.460938 C 356.851562 491.617188 357.03125 486.625 355.996094 482.308594 C 354.960938 477.992188 352.714844 474.34375 349.972656 471.773438 C 347.230469 469.207031 343.988281 467.714844 341.332031 467.269531 C 338.679688 466.824219 336.609375 467.414062 334.75 468.445312 C 332.890625 469.472656 331.25 470.941406 329.667969 472.753906 C 328.089844 474.5625 326.5625 476.71875 325.546875 479.550781 C 324.535156 482.375 324.035156 485.878906 323.992188 488.757812 C 323.949219 491.632812 324.359375 493.898438 324.609375 495.636719 C 324.855469 497.371094 324.9375 498.589844 330.183594 499.015625 Z M 280.484375 450.035156 C 281.796875 453.824219 283.113281 457.605469 284.039062 462.039062 C 284.964844 466.472656 285.507812 471.550781 285.265625 476.234375 C 285.015625 480.921875 283.984375 485.21875 282.621094 489.125 C 281.257812 493.035156 279.570312 496.566406 277.371094 499.707031 C 275.175781 502.847656 272.472656 505.609375 269.585938 507.039062 C 266.703125 508.472656 263.636719 508.574219 260.695312 507.496094 C 257.757812 506.414062 254.949219 504.140625 252.300781 499.554688 C 249.648438 494.96875 247.167969 488.0625 246.179688 480.765625 C 245.191406 473.46875 245.695312 465.773438 246.449219 459.710938 C 247.203125 453.652344 248.210938 449.222656 249.210938 444.789062 C 250.371094 444.609375 251.519531 444.429688 253.230469 444.695312 C 254.9375 444.957031 257.199219 445.664062 258.046875 446.808594 C 258.890625 447.960938 258.324219 449.558594 258.128906 450.757812 C 257.9375 451.960938 258.105469 452.765625 260.21875 453.253906 C 262.328125 453.746094 266.371094 453.921875 268.722656 454.078125 C 271.074219 454.234375 271.734375 454.371094 272.050781 453.886719 C 272.363281 453.398438 272.335938 452.277344 272.148438 451.265625 C 271.964844 450.253906 271.625 449.34375 271.980469 448.878906 C 272.339844 448.417969 273.386719 448.398438 274.921875 448.664062 C 276.457031 448.925781 278.472656 449.476562 280.484375 450.019531 Z M 277.867188 436.3125 C 272.601562 436.285156 262.25 435.035156 257.039062 434.058594 C 251.828125 433.078125 251.753906 432.375 251.839844 429.527344 C 251.925781 426.679688 252.167969 421.691406 253.558594 417.472656 C 254.953125 413.257812 257.5 409.816406 260.445312 407.488281 C 263.394531 405.164062 266.746094 403.957031 269.425781 403.738281 C 272.109375 403.515625 274.125 404.28125 275.886719 405.46875 C 277.652344 406.65625 279.164062 408.253906 280.585938 410.191406 C 282.011719 412.128906 283.351562 414.40625 284.125 417.3125 C 284.894531 420.214844 285.105469 423.742188 284.902344 426.617188 C 284.703125 429.492188 284.101562 431.707031 283.710938 433.417969 C 283.316406 435.132812 283.136719 436.332031 277.875 436.308594 Z M 322.921875 337.367188 C 322.945312 341.375 322.960938 345.382812 323.558594 349.871094 C 324.160156 354.359375 325.335938 359.328125 327.128906 363.667969 C 328.921875 368.007812 331.324219 371.71875 333.90625 374.957031 C 336.492188 378.195312 339.265625 380.960938 342.378906 383.199219 C 345.496094 385.4375 348.960938 387.144531 352.160156 387.542969 C 355.355469 387.9375 358.285156 387.019531 360.695312 385.019531 C 363.105469 383.027344 365.003906 379.953125 365.980469 374.75 C 366.949219 369.542969 367 362.207031 365.503906 355 C 364.007812 347.785156 360.976562 340.699219 358.246094 335.230469 C 355.519531 329.765625 353.097656 325.917969 350.679688 322.070312 C 349.53125 322.285156 348.382812 322.496094 346.855469 323.304688 C 345.335938 324.117188 343.4375 325.53125 343.015625 326.898438 C 342.601562 328.265625 343.667969 329.582031 344.25 330.652344 C 344.832031 331.722656 344.933594 332.539062 343.109375 333.695312 C 341.28125 334.859375 337.527344 336.363281 335.367188 337.289062 C 333.199219 338.21875 332.621094 338.566406 332.160156 338.210938 C 331.707031 337.851562 331.359375 336.792969 331.199219 335.773438 C 331.039062 334.757812 331.054688 333.789062 330.5625 333.46875 C 330.070312 333.148438 329.074219 333.484375 327.71875 334.242188 C 326.363281 334.996094 324.640625 336.179688 322.921875 337.367188 Z M 320.828125 323.554688 C 325.789062 321.789062 335.132812 317.179688 339.726562 314.53125 C 344.316406 311.878906 344.152344 311.1875 343.128906 308.53125 C 342.097656 305.875 340.214844 301.25 337.5 297.734375 C 334.785156 294.214844 331.238281 291.8125 327.6875 290.597656 C 324.132812 289.378906 320.570312 289.351562 317.964844 290.035156 C 315.355469 290.71875 313.714844 292.105469 312.445312 293.804688 C 311.179688 295.507812 310.285156 297.519531 309.582031 299.820312 C 308.882812 302.121094 308.378906 304.71875 308.613281 307.707031 C 308.855469 310.703125 309.832031 314.101562 310.976562 316.746094 C 312.125 319.386719 313.425781 321.285156 314.363281 322.761719 C 315.300781 324.25 315.871094 325.320312 320.832031 323.558594 Z M 255.398438 299.28125 C 258.152344 302.195312 260.90625 305.113281 263.574219 308.773438 C 266.242188 312.433594 268.824219 316.847656 270.523438 321.21875 C 272.226562 325.59375 273.046875 329.9375 273.414062 334.0625 C 273.78125 338.1875 273.683594 342.097656 272.972656 345.867188 C 272.261719 349.636719 270.9375 353.261719 268.894531 355.753906 C 266.851562 358.242188 264.097656 359.59375 260.972656 359.808594 C 257.847656 360.027344 254.351562 359.113281 250.058594 356.015625 C 245.757812 352.917969 240.65625 347.640625 236.757812 341.390625 C 232.855469 335.140625 230.160156 327.917969 228.359375 322.078125 C 226.554688 316.242188 225.648438 311.789062 224.746094 307.335938 C 225.726562 306.695312 226.703125 306.058594 228.367188 305.597656 C 230.03125 305.136719 232.378906 304.851562 233.621094 305.554688 C 234.867188 306.253906 235.007812 307.945312 235.324219 309.121094 C 235.640625 310.292969 236.128906 310.957031 238.25 310.535156 C 240.378906 310.121094 244.136719 308.621094 246.339844 307.800781 C 248.550781 306.980469 249.210938 306.832031 249.292969 306.257812 C 249.382812 305.683594 248.890625 304.679688 248.308594 303.828125 C 247.726562 302.980469 247.039062 302.289062 247.179688 301.722656 C 247.3125 301.15625 248.261719 300.707031 249.765625 300.324219 C 251.273438 299.9375 253.332031 299.605469 255.394531 299.277344 Z M 247.375 287.839844 C 242.5625 289.980469 232.617188 293.089844 227.460938 294.335938 C 222.304688 295.582031 221.949219 294.96875 220.855469 292.335938 C 219.761719 289.703125 217.9375 285.054688 217.472656 280.640625 C 217.011719 276.21875 217.917969 272.039062 219.648438 268.710938 C 221.382812 265.378906 223.945312 262.902344 226.296875 261.605469 C 228.652344 260.300781 230.804688 260.175781 232.894531 260.53125 C 234.992188 260.890625 237.023438 261.726562 239.121094 262.910156 C 241.21875 264.09375 243.375 265.621094 245.269531 267.957031 C 247.167969 270.289062 248.800781 273.421875 249.804688 276.125 C 250.800781 278.820312 251.167969 281.09375 251.511719 282.816406 C 251.855469 284.535156 252.1875 285.707031 247.378906 287.847656 Z M 234.859375 187.476562 C 236.277344 191.226562 237.6875 194.976562 239.8125 198.980469 C 241.933594 202.980469 244.773438 207.230469 247.957031 210.675781 C 251.144531 214.125 254.695312 216.769531 258.246094 218.902344 C 261.796875 221.039062 265.355469 222.667969 269.058594 223.683594 C 272.761719 224.699219 276.609375 225.09375 279.738281 224.351562 C 282.871094 223.613281 285.292969 221.726562 286.863281 219.019531 C 288.429688 216.308594 289.136719 212.769531 288.234375 207.550781 C 287.332031 202.335938 284.824219 195.441406 280.910156 189.195312 C 276.996094 182.953125 271.683594 177.363281 267.222656 173.1875 C 262.761719 169.011719 259.152344 166.242188 255.546875 163.480469 C 254.542969 164.078125 253.539062 164.679688 252.394531 165.972656 C 251.25 167.265625 249.964844 169.246094 250.046875 170.671875 C 250.132812 172.097656 251.589844 172.964844 252.511719 173.761719 C 253.429688 174.5625 253.808594 175.289062 252.503906 177.019531 C 251.203125 178.742188 248.203125 181.460938 246.496094 183.085938 C 244.789062 184.714844 244.371094 185.238281 243.8125 185.0625 C 243.257812 184.886719 242.570312 184.011719 242.0625 183.113281 C 241.554688 182.21875 241.234375 181.300781 240.660156 181.171875 C 240.089844 181.042969 239.273438 181.703125 238.261719 182.886719 C 237.253906 184.066406 236.054688 185.777344 234.859375 187.480469 Z M 228.085938 175.253906 C 232.117188 171.871094 239.277344 164.296875 242.65625 160.214844 C 246.039062 156.132812 245.640625 155.546875 243.75 153.402344 C 241.863281 151.269531 238.480469 147.585938 234.710938 145.234375 C 230.9375 142.878906 226.78125 141.859375 223.023438 141.957031 C 219.265625 142.054688 215.917969 143.265625 213.71875 144.8125 C 211.515625 146.355469 210.457031 148.230469 209.863281 150.269531 C 209.265625 152.304688 209.128906 154.503906 209.273438 156.902344 C 209.417969 159.304688 209.847656 161.910156 211.113281 164.632812 C 212.382812 167.359375 214.484375 170.203125 216.476562 172.28125 C 218.46875 174.367188 220.347656 175.683594 221.746094 176.75 C 223.144531 177.8125 224.050781 178.625 228.085938 175.242188 Z M 158.308594 175.257812 C 161.90625 177.035156 165.503906 178.808594 169.277344 181.316406 C 173.050781 183.824219 177.007812 187.054688 180.121094 190.566406 C 183.242188 194.078125 185.527344 197.863281 187.300781 201.601562 C 189.082031 205.347656 190.355469 209.042969 191.003906 212.824219 C 191.648438 216.605469 191.667969 220.472656 190.621094 223.515625 C 189.574219 226.558594 187.460938 228.785156 184.609375 230.078125 C 181.757812 231.371094 178.160156 231.722656 173.058594 230.316406 C 167.949219 228.90625 161.332031 225.734375 155.5 221.230469 C 149.671875 216.726562 144.621094 210.894531 140.898438 206.042969 C 137.175781 201.199219 134.78125 197.335938 132.378906 193.472656 C 133.074219 192.535156 133.769531 191.59375 135.167969 190.585938 C 136.566406 189.574219 138.667969 188.492188 140.078125 188.710938 C 141.488281 188.9375 142.210938 190.472656 142.914062 191.460938 C 143.617188 192.453125 144.308594 192.902344 146.15625 191.773438 C 148 190.644531 151 187.929688 152.785156 186.394531 C 154.566406 184.855469 155.132812 184.488281 155.015625 183.914062 C 154.890625 183.347656 154.089844 182.574219 153.242188 181.980469 C 152.398438 181.386719 151.519531 180.976562 151.449219 180.398438 C 151.371094 179.820312 152.105469 179.070312 153.390625 178.183594 C 154.664062 177.296875 156.484375 176.269531 158.304688 175.246094 Z M 146.800781 167.324219 C 143.039062 171.003906 134.792969 177.382812 130.402344 180.339844 C 126.007812 183.304688 125.460938 182.851562 123.515625 180.761719 C 121.574219 178.675781 118.234375 174.953125 116.265625 170.972656 C 114.292969 166.992188 113.6875 162.757812 114.152344 159.03125 C 114.613281 155.304688 116.152344 152.089844 117.90625 150.050781 C 119.65625 148.007812 121.628906 147.144531 123.71875 146.746094 C 125.804688 146.355469 128.003906 146.429688 130.382812 146.8125 C 132.761719 147.191406 135.316406 147.875 137.902344 149.398438 C 140.492188 150.925781 143.117188 153.296875 144.996094 155.480469 C 146.871094 157.667969 148 159.671875 148.921875 161.164062 C 149.847656 162.65625 150.566406 163.640625 146.800781 167.324219 Z M 122.394531 69.152344 C 123.742188 72.929688 125.101562 76.699219 127.160156 80.738281 C 129.21875 84.773438 131.988281 89.070312 135.121094 92.566406 C 138.253906 96.0625 141.753906 98.765625 145.273438 100.957031 C 148.785156 103.152344 152.320312 104.835938 156.007812 105.910156 C 159.691406 106.984375 163.53125 107.445312 166.675781 106.75 C 169.820312 106.058594 172.277344 104.222656 173.882812 101.535156 C 175.492188 98.847656 176.257812 95.320312 175.441406 90.089844 C 174.625 84.855469 172.222656 77.925781 168.414062 71.617188 C 164.601562 65.308594 159.375 59.636719 154.984375 55.390625 C 150.59375 51.140625 147.027344 48.316406 143.464844 45.496094 C 142.453125 46.078125 141.441406 46.664062 140.277344 47.933594 C 139.109375 49.207031 137.789062 51.171875 137.855469 52.601562 C 137.914062 54.027344 139.359375 54.917969 140.265625 55.730469 C 141.171875 56.542969 141.546875 57.277344 140.210938 58.980469 C 138.871094 60.683594 135.835938 63.351562 134.105469 64.949219 C 132.371094 66.546875 131.9375 67.066406 131.390625 66.886719 C 130.835938 66.707031 130.160156 65.8125 129.671875 64.910156 C 129.179688 64.003906 128.871094 63.082031 128.304688 62.949219 C 127.738281 62.808594 126.90625 63.453125 125.878906 64.617188 C 124.851562 65.785156 123.628906 67.472656 122.402344 69.164062 Z M 115.820312 56.824219 C 119.90625 53.507812 127.183594 46.050781 130.628906 42.027344 C 134.078125 38 133.691406 37.40625 131.835938 35.238281 C 129.984375 33.070312 126.660156 29.335938 122.9375 26.921875 C 119.203125 24.511719 115.0625 23.421875 111.304688 23.457031 C 107.546875 23.496094 104.175781 24.652344 101.949219 26.160156 C 99.722656 27.667969 98.632812 29.53125 98 31.558594 C 97.367188 33.582031 97.191406 35.777344 97.304688 38.179688 C 97.414062 40.582031 97.800781 43.199219 99.023438 45.941406 C 100.246094 48.6875 102.300781 51.5625 104.257812 53.679688 C 106.21875 55.792969 108.078125 57.144531 109.457031 58.230469 C 110.835938 59.316406 111.730469 60.140625 115.820312 56.824219 Z M 34.675781 47.578125 C 30.855469 51.195312 22.507812 57.433594 18.066406 60.328125 C 13.625 63.222656 13.082031 62.757812 11.171875 60.636719 C 9.265625 58.519531 5.992188 54.746094 4.085938 50.730469 C 2.179688 46.71875 1.640625 42.472656 2.167969 38.753906 C 2.691406 35.039062 4.28125 31.851562 6.066406 29.839844 C 7.855469 27.828125 9.839844 26.992188 11.933594 26.636719 C 14.023438 26.277344 16.226562 26.386719 18.597656 26.808594 C 20.964844 27.226562 23.507812 27.953125 26.074219 29.519531 C 28.640625 31.085938 31.222656 33.496094 33.070312 35.714844 C 34.90625 37.929688 36.011719 39.949219 36.90625 41.460938 C 37.808594 42.964844 38.507812 43.960938 34.6875 47.582031 Z M 34.675781 47.578125 " fill-opacity="1" fill-rule="evenodd"/><path fill="#000000" d="M 46.054688 55.695312 C 49.621094 57.527344 53.191406 59.363281 56.921875 61.925781 C 60.65625 64.496094 64.554688 67.789062 67.617188 71.351562 C 70.679688 74.914062 72.902344 78.734375 74.617188 82.503906 C 76.335938 86.273438 77.546875 89.992188 78.132812 93.78125 C 78.71875 97.574219 78.671875 101.433594 77.578125 104.460938 C 76.484375 107.488281 74.339844 109.679688 71.464844 110.929688 C 68.589844 112.175781 64.988281 112.472656 59.910156 110.984375 C 54.824219 109.492188 48.261719 106.210938 42.5 101.617188 C 36.746094 97.015625 31.792969 91.105469 28.152344 86.199219 C 24.507812 81.292969 22.175781 77.394531 19.839844 73.5 C 20.550781 72.570312 21.261719 71.644531 22.671875 70.65625 C 24.085938 69.667969 26.207031 68.617188 27.617188 68.863281 C 29.019531 69.109375 29.71875 70.660156 30.40625 71.660156 C 31.097656 72.660156 31.773438 73.125 33.640625 72.023438 C 35.507812 70.925781 38.546875 68.261719 40.359375 66.75 C 42.164062 65.242188 42.742188 64.886719 42.632812 64.316406 C 42.523438 63.746094 41.726562 62.960938 40.894531 62.351562 C 40.058594 61.746094 39.1875 61.320312 39.125 60.742188 C 39.058594 60.164062 39.808594 59.425781 41.097656 58.558594 C 42.390625 57.691406 44.226562 56.695312 46.058594 55.699219 Z M 326.425781 512.464844 C 324.800781 516.125 323.171875 519.785156 321.875 524.128906 C 320.574219 528.460938 319.609375 533.480469 319.460938 538.167969 C 319.308594 542.859375 319.976562 547.226562 321.003906 551.242188 C 322.035156 555.257812 323.421875 558.914062 325.347656 562.234375 C 327.273438 565.550781 329.730469 568.535156 332.484375 570.207031 C 335.234375 571.878906 338.289062 572.242188 341.304688 571.414062 C 344.328125 570.585938 347.320312 568.558594 350.34375 564.214844 C 353.367188 559.867188 356.421875 553.199219 358.019531 546.011719 C 359.621094 538.824219 359.761719 531.117188 359.519531 525.015625 C 359.28125 518.910156 358.65625 514.410156 358.019531 509.914062 C 356.886719 509.632812 355.75 509.359375 354.027344 509.476562 C 352.304688 509.59375 349.988281 510.101562 349.050781 511.175781 C 348.109375 512.25 348.539062 513.890625 348.636719 515.101562 C 348.730469 516.316406 348.488281 517.101562 346.34375 517.414062 C 344.203125 517.726562 340.160156 517.554688 337.804688 517.511719 C 335.449219 517.472656 334.777344 517.546875 334.503906 517.03125 C 334.234375 516.519531 334.355469 515.40625 334.625 514.417969 C 334.894531 513.425781 335.308594 512.542969 334.992188 512.050781 C 334.675781 511.5625 333.636719 511.453125 332.082031 511.589844 C 330.535156 511.722656 328.476562 512.097656 326.425781 512.46875 Z M 330.191406 499.011719 C 335.4375 499.433594 345.859375 499.070312 351.132812 498.539062 C 356.40625 498.003906 356.542969 497.308594 356.695312 494.460938 C 356.851562 491.617188 357.03125 486.625 355.996094 482.308594 C 354.960938 477.992188 352.714844 474.34375 349.972656 471.773438 C 347.230469 469.207031 343.988281 467.714844 341.332031 467.269531 C 338.679688 466.824219 336.609375 467.414062 334.75 468.445312 C 332.890625 469.472656 331.25 470.941406 329.667969 472.753906 C 328.089844 474.5625 326.5625 476.71875 325.546875 479.550781 C 324.535156 482.375 324.035156 485.878906 323.992188 488.757812 C 323.949219 491.632812 324.359375 493.898438 324.609375 495.636719 C 324.855469 497.371094 324.9375 498.589844 330.183594 499.015625 Z M 280.484375 450.035156 C 281.796875 453.824219 283.113281 457.605469 284.039062 462.039062 C 284.964844 466.472656 285.507812 471.550781 285.265625 476.234375 C 285.015625 480.921875 283.984375 485.21875 282.621094 489.125 C 281.257812 493.035156 279.570312 496.566406 277.371094 499.707031 C 275.175781 502.847656 272.472656 505.609375 269.585938 507.039062 C 266.703125 508.472656 263.636719 508.574219 260.695312 507.496094 C 257.757812 506.414062 254.949219 504.140625 252.300781 499.554688 C 249.648438 494.96875 247.167969 488.0625 246.179688 480.765625 C 245.191406 473.46875 245.695312 465.773438 246.449219 459.710938 C 247.203125 453.652344 248.210938 449.222656 249.210938 444.789062 C 250.371094 444.609375 251.519531 444.429688 253.230469 444.695312 C 254.9375 444.957031 257.199219 445.664062 258.046875 446.808594 C 258.890625 447.960938 258.324219 449.558594 258.128906 450.757812 C 257.9375 451.960938 258.105469 452.765625 260.21875 453.253906 C 262.328125 453.746094 266.371094 453.921875 268.722656 454.078125 C 271.074219 454.234375 271.734375 454.371094 272.050781 453.886719 C 272.363281 453.398438 272.335938 452.277344 272.148438 451.265625 C 271.964844 450.253906 271.625 449.34375 271.980469 448.878906 C 272.339844 448.417969 273.386719 448.398438 274.921875 448.664062 C 276.457031 448.925781 278.472656 449.476562 280.484375 450.019531 Z M 277.867188 436.3125 C 272.601562 436.285156 262.25 435.035156 257.039062 434.058594 C 251.828125 433.078125 251.753906 432.375 251.839844 429.527344 C 251.925781 426.679688 252.167969 421.691406 253.558594 417.472656 C 254.953125 413.257812 257.5 409.816406 260.445312 407.488281 C 263.394531 405.164062 266.746094 403.957031 269.425781 403.738281 C 272.109375 403.515625 274.125 404.28125 275.886719 405.46875 C 277.652344 406.65625 279.164062 408.253906 280.585938 410.191406 C 282.011719 412.128906 283.351562 414.40625 284.125 417.3125 C 284.894531 420.214844 285.105469 423.742188 284.902344 426.617188 C 284.703125 429.492188 284.101562 431.707031 283.710938 433.417969 C 283.316406 435.132812 283.136719 436.332031 277.875 436.308594 Z M 322.921875 337.367188 C 322.945312 341.375 322.960938 345.382812 323.558594 349.871094 C 324.160156 354.359375 325.335938 359.328125 327.128906 363.667969 C 328.921875 368.007812 331.324219 371.71875 333.90625 374.957031 C 336.492188 378.195312 339.265625 380.960938 342.378906 383.199219 C 345.496094 385.4375 348.960938 387.144531 352.160156 387.542969 C 355.355469 387.9375 358.285156 387.019531 360.695312 385.019531 C 363.105469 383.027344 365.003906 379.953125 365.980469 374.75 C 366.949219 369.542969 367 362.207031 365.503906 355 C 364.007812 347.785156 360.976562 340.699219 358.246094 335.230469 C 355.519531 329.765625 353.097656 325.917969 350.679688 322.070312 C 349.53125 322.285156 348.382812 322.496094 346.855469 323.304688 C 345.335938 324.117188 343.4375 325.53125 343.015625 326.898438 C 342.601562 328.265625 343.667969 329.582031 344.25 330.652344 C 344.832031 331.722656 344.933594 332.539062 343.109375 333.695312 C 341.28125 334.859375 337.527344 336.363281 335.367188 337.289062 C 333.199219 338.21875 332.621094 338.566406 332.160156 338.210938 C 331.707031 337.851562 331.359375 336.792969 331.199219 335.773438 C 331.039062 334.757812 331.054688 333.789062 330.5625 333.46875 C 330.070312 333.148438 329.074219 333.484375 327.71875 334.242188 C 326.363281 334.996094 324.640625 336.179688 322.921875 337.367188 Z M 320.828125 323.554688 C 325.789062 321.789062 335.132812 317.179688 339.726562 314.53125 C 344.316406 311.878906 344.152344 311.1875 343.128906 308.53125 C 342.097656 305.875 340.214844 301.25 337.5 297.734375 C 334.785156 294.214844 331.238281 291.8125 327.6875 290.597656 C 324.132812 289.378906 320.570312 289.351562 317.964844 290.035156 C 315.355469 290.71875 313.714844 292.105469 312.445312 293.804688 C 311.179688 295.507812 310.285156 297.519531 309.582031 299.820312 C 308.882812 302.121094 308.378906 304.71875 308.613281 307.707031 C 308.855469 310.703125 309.832031 314.101562 310.976562 316.746094 C 312.125 319.386719 313.425781 321.285156 314.363281 322.761719 C 315.300781 324.25 315.871094 325.320312 320.832031 323.558594 Z M 255.398438 299.28125 C 258.152344 302.195312 260.90625 305.113281 263.574219 308.773438 C 266.242188 312.433594 268.824219 316.847656 270.523438 321.21875 C 272.226562 325.59375 273.046875 329.9375 273.414062 334.0625 C 273.78125 338.1875 273.683594 342.097656 272.972656 345.867188 C 272.261719 349.636719 270.9375 353.261719 268.894531 355.753906 C 266.851562 358.242188 264.097656 359.59375 260.972656 359.808594 C 257.847656 360.027344 254.351562 359.113281 250.058594 356.015625 C 245.757812 352.917969 240.65625 347.640625 236.757812 341.390625 C 232.855469 335.140625 230.160156 327.917969 228.359375 322.078125 C 226.554688 316.242188 225.648438 311.789062 224.746094 307.335938 C 225.726562 306.695312 226.703125 306.058594 228.367188 305.597656 C 230.03125 305.136719 232.378906 304.851562 233.621094 305.554688 C 234.867188 306.253906 235.007812 307.945312 235.324219 309.121094 C 235.640625 310.292969 236.128906 310.957031 238.25 310.535156 C 240.378906 310.121094 244.136719 308.621094 246.339844 307.800781 C 248.550781 306.980469 249.210938 306.832031 249.292969 306.257812 C 249.382812 305.683594 248.890625 304.679688 248.308594 303.828125 C 247.726562 302.980469 247.039062 302.289062 247.179688 301.722656 C 247.3125 301.15625 248.261719 300.707031 249.765625 300.324219 C 251.273438 299.9375 253.332031 299.605469 255.394531 299.277344 Z M 247.375 287.839844 C 242.5625 289.980469 232.617188 293.089844 227.460938 294.335938 C 222.304688 295.582031 221.949219 294.96875 220.855469 292.335938 C 219.761719 289.703125 217.9375 285.054688 217.472656 280.640625 C 217.011719 276.21875 217.917969 272.039062 219.648438 268.710938 C 221.382812 265.378906 223.945312 262.902344 226.296875 261.605469 C 228.652344 260.300781 230.804688 260.175781 232.894531 260.53125 C 234.992188 260.890625 237.023438 261.726562 239.121094 262.910156 C 241.21875 264.09375 243.375 265.621094 245.269531 267.957031 C 247.167969 270.289062 248.800781 273.421875 249.804688 276.125 C 250.800781 278.820312 251.167969 281.09375 251.511719 282.816406 C 251.855469 284.535156 252.1875 285.707031 247.378906 287.847656 Z M 234.859375 187.476562 C 236.277344 191.226562 237.6875 194.976562 239.8125 198.980469 C 241.933594 202.980469 244.773438 207.230469 247.957031 210.675781 C 251.144531 214.125 254.695312 216.769531 258.246094 218.902344 C 261.796875 221.039062 265.355469 222.667969 269.058594 223.683594 C 272.761719 224.699219 276.609375 225.09375 279.738281 224.351562 C 282.871094 223.613281 285.292969 221.726562 286.863281 219.019531 C 288.429688 216.308594 289.136719 212.769531 288.234375 207.550781 C 287.332031 202.335938 284.824219 195.441406 280.910156 189.195312 C 276.996094 182.953125 271.683594 177.363281 267.222656 173.1875 C 262.761719 169.011719 259.152344 166.242188 255.546875 163.480469 C 254.542969 164.078125 253.539062 164.679688 252.394531 165.972656 C 251.25 167.265625 249.964844 169.246094 250.046875 170.671875 C 250.132812 172.097656 251.589844 172.964844 252.511719 173.761719 C 253.429688 174.5625 253.808594 175.289062 252.503906 177.019531 C 251.203125 178.742188 248.203125 181.460938 246.496094 183.085938 C 244.789062 184.714844 244.371094 185.238281 243.8125 185.0625 C 243.257812 184.886719 242.570312 184.011719 242.0625 183.113281 C 241.554688 182.21875 241.234375 181.300781 240.660156 181.171875 C 240.089844 181.042969 239.273438 181.703125 238.261719 182.886719 C 237.253906 184.066406 236.054688 185.777344 234.859375 187.480469 Z M 228.085938 175.253906 C 232.117188 171.871094 239.277344 164.296875 242.65625 160.214844 C 246.039062 156.132812 245.640625 155.546875 243.75 153.402344 C 241.863281 151.269531 238.480469 147.585938 234.710938 145.234375 C 230.9375 142.878906 226.78125 141.859375 223.023438 141.957031 C 219.265625 142.054688 215.917969 143.265625 213.71875 144.8125 C 211.515625 146.355469 210.457031 148.230469 209.863281 150.269531 C 209.265625 152.304688 209.128906 154.503906 209.273438 156.902344 C 209.417969 159.304688 209.847656 161.910156 211.113281 164.632812 C 212.382812 167.359375 214.484375 170.203125 216.476562 172.28125 C 218.46875 174.367188 220.347656 175.683594 221.746094 176.75 C 223.144531 177.8125 224.050781 178.625 228.085938 175.242188 Z M 158.308594 175.257812 C 161.90625 177.035156 165.503906 178.808594 169.277344 181.316406 C 173.050781 183.824219 177.007812 187.054688 180.121094 190.566406 C 183.242188 194.078125 185.527344 197.863281 187.300781 201.601562 C 189.082031 205.347656 190.355469 209.042969 191.003906 212.824219 C 191.648438 216.605469 191.667969 220.472656 190.621094 223.515625 C 189.574219 226.558594 187.460938 228.785156 184.609375 230.078125 C 181.757812 231.371094 178.160156 231.722656 173.058594 230.316406 C 167.949219 228.90625 161.332031 225.734375 155.5 221.230469 C 149.671875 216.726562 144.621094 210.894531 140.898438 206.042969 C 137.175781 201.199219 134.78125 197.335938 132.378906 193.472656 C 133.074219 192.535156 133.769531 191.59375 135.167969 190.585938 C 136.566406 189.574219 138.667969 188.492188 140.078125 188.710938 C 141.488281 188.9375 142.210938 190.472656 142.914062 191.460938 C 143.617188 192.453125 144.308594 192.902344 146.15625 191.773438 C 148 190.644531 151 187.929688 152.785156 186.394531 C 154.566406 184.855469 155.132812 184.488281 155.015625 183.914062 C 154.890625 183.347656 154.089844 182.574219 153.242188 181.980469 C 152.398438 181.386719 151.519531 180.976562 151.449219 180.398438 C 151.371094 179.820312 152.105469 179.070312 153.390625 178.183594 C 154.664062 177.296875 156.484375 176.269531 158.304688 175.246094 Z M 146.800781 167.324219 C 143.039062 171.003906 134.792969 177.382812 130.402344 180.339844 C 126.007812 183.304688 125.460938 182.851562 123.515625 180.761719 C 121.574219 178.675781 118.234375 174.953125 116.265625 170.972656 C 114.292969 166.992188 113.6875 162.757812 114.152344 159.03125 C 114.613281 155.304688 116.152344 152.089844 117.90625 150.050781 C 119.65625 148.007812 121.628906 147.144531 123.71875 146.746094 C 125.804688 146.355469 128.003906 146.429688 130.382812 146.8125 C 132.761719 147.191406 135.316406 147.875 137.902344 149.398438 C 140.492188 150.925781 143.117188 153.296875 144.996094 155.480469 C 146.871094 157.667969 148 159.671875 148.921875 161.164062 C 149.847656 162.65625 150.566406 163.640625 146.800781 167.324219 Z M 122.394531 69.152344 C 123.742188 72.929688 125.101562 76.699219 127.160156 80.738281 C 129.21875 84.773438 131.988281 89.070312 135.121094 92.566406 C 138.253906 96.0625 141.753906 98.765625 145.273438 100.957031 C 148.785156 103.152344 152.320312 104.835938 156.007812 105.910156 C 159.691406 106.984375 163.53125 107.445312 166.675781 106.75 C 169.820312 106.058594 172.277344 104.222656 173.882812 101.535156 C 175.492188 98.847656 176.257812 95.320312 175.441406 90.089844 C 174.625 84.855469 172.222656 77.925781 168.414062 71.617188 C 164.601562 65.308594 159.375 59.636719 154.984375 55.390625 C 150.59375 51.140625 147.027344 48.316406 143.464844 45.496094 C 142.453125 46.078125 141.441406 46.664062 140.277344 47.933594 C 139.109375 49.207031 137.789062 51.171875 137.855469 52.601562 C 137.914062 54.027344 139.359375 54.917969 140.265625 55.730469 C 141.171875 56.542969 141.546875 57.277344 140.210938 58.980469 C 138.871094 60.683594 135.835938 63.351562 134.105469 64.949219 C 132.371094 66.546875 131.9375 67.066406 131.390625 66.886719 C 130.835938 66.707031 130.160156 65.8125 129.671875 64.910156 C 129.179688 64.003906 128.871094 63.082031 128.304688 62.949219 C 127.738281 62.808594 126.90625 63.453125 125.878906 64.617188 C 124.851562 65.785156 123.628906 67.472656 122.402344 69.164062 Z M 115.820312 56.824219 C 119.90625 53.507812 127.183594 46.050781 130.628906 42.027344 C 134.078125 38 133.691406 37.40625 131.835938 35.238281 C 129.984375 33.070312 126.660156 29.335938 122.9375 26.921875 C 119.203125 24.511719 115.0625 23.421875 111.304688 23.457031 C 107.546875 23.496094 104.175781 24.652344 101.949219 26.160156 C 99.722656 27.667969 98.632812 29.53125 98 31.558594 C 97.367188 33.582031 97.191406 35.777344 97.304688 38.179688 C 97.414062 40.582031 97.800781 43.199219 99.023438 45.941406 C 100.246094 48.6875 102.300781 51.5625 104.257812 53.679688 C 106.21875 55.792969 108.078125 57.144531 109.457031 58.230469 C 110.835938 59.316406 111.730469 60.140625 115.820312 56.824219 Z M 34.675781 47.578125 C 30.855469 51.195312 22.507812 57.433594 18.066406 60.328125 C 13.625 63.222656 13.082031 62.757812 11.171875 60.636719 C 9.265625 58.519531 5.992188 54.746094 4.085938 50.730469 C 2.179688 46.71875 1.640625 42.472656 2.167969 38.753906 C 2.691406 35.039062 4.28125 31.851562 6.066406 29.839844 C 7.855469 27.828125 9.839844 26.992188 11.933594 26.636719 C 14.023438 26.277344 16.226562 26.386719 18.597656 26.808594 C 20.964844 27.226562 23.507812 27.953125 26.074219 29.519531 C 28.640625 31.085938 31.222656 33.496094 33.070312 35.714844 C 34.90625 37.929688 36.011719 39.949219 36.90625 41.460938 C 37.808594 42.964844 38.507812 43.960938 34.6875 47.582031 Z M 34.675781 47.578125 " fill-opacity="1" fill-rule="evenodd"/></g></g></g></g></svg>