<svg xmlns="http://www.w3.org/2000/svg" xmlns:xlink="http://www.w3.org/1999/xlink" width="512" zoomAndPan="magnify" viewBox="0 0 384 599.999999" height="800" preserveAspectRatio="xMidYMid meet" version="1.0"><defs><clipPath id="6bf7929e15"><path d="M 0 28 L 384 28 L 384 392 L 0 392 Z M 0 28 " clip-rule="nonzero"/></clipPath><clipPath id="5552b9eee5"><path d="M 41.460938 28.179688 L 401.914062 123.132812 L 331.222656 391.476562 L -29.226562 296.523438 Z M 41.460938 28.179688 " clip-rule="nonzero"/></clipPath><clipPath id="92604ca975"><path d="M 106 38 L 150 38 L 150 109 L 106 109 Z M 106 38 " clip-rule="nonzero"/></clipPath><clipPath id="af08045b6c"><path d="M 41.460938 0.179688 L 401.914062 95.132812 L 331.222656 363.476562 L -29.226562 268.523438 Z M 41.460938 0.179688 " clip-rule="nonzero"/></clipPath><clipPath id="d9827e8b37"><path d="M 402.007812 95.054688 L 41.554688 0.101562 L -29.136719 268.445312 L 331.316406 363.402344 Z M 402.007812 95.054688 " clip-rule="nonzero"/></clipPath><clipPath id="2541592776"><path d="M 402.007812 95.054688 L 41.554688 0.101562 L -29.136719 268.445312 L 331.316406 363.402344 Z M 402.007812 95.054688 " clip-rule="nonzero"/></clipPath><clipPath id="75d6c6cd10"><path d="M 58 32 L 101 32 L 101 104 L 58 104 Z M 58 32 " clip-rule="nonzero"/></clipPath><clipPath id="90e39cd151"><path d="M 41.460938 0.179688 L 401.914062 95.132812 L 331.222656 363.476562 L -29.226562 268.523438 Z M 41.460938 0.179688 " clip-rule="nonzero"/></clipPath><clipPath id="0e53e3f39f"><path d="M 402.007812 95.054688 L 41.554688 0.101562 L -29.136719 268.445312 L 331.316406 363.402344 Z M 402.007812 95.054688 " clip-rule="nonzero"/></clipPath><clipPath id="1a63a60317"><path d="M 402.007812 95.054688 L 41.554688 0.101562 L -29.136719 268.445312 L 331.316406 363.402344 Z M 402.007812 95.054688 " clip-rule="nonzero"/></clipPath><clipPath id="840ed1e363"><path d="M 14 79 L 62 79 L 62 148 L 14 148 Z M 14 79 " clip-rule="nonzero"/></clipPath><clipPath id="968f2084ec"><path d="M 41.460938 0.179688 L 401.914062 95.132812 L 331.222656 363.476562 L -29.226562 268.523438 Z M 41.460938 0.179688 " clip-rule="nonzero"/></clipPath><clipPath id="9bbb472076"><path d="M 402.007812 95.054688 L 41.554688 0.101562 L -29.136719 268.445312 L 331.316406 363.402344 Z M 402.007812 95.054688 " clip-rule="nonzero"/></clipPath><clipPath id="9caca6424a"><path d="M 402.007812 95.054688 L 41.554688 0.101562 L -29.136719 268.445312 L 331.316406 363.402344 Z M 402.007812 95.054688 " clip-rule="nonzero"/></clipPath><clipPath id="2fc9fab657"><path d="M 138 92 L 182 92 L 182 157 L 138 157 Z M 138 92 " clip-rule="nonzero"/></clipPath><clipPath id="d95744da7f"><path d="M 41.460938 0.179688 L 401.914062 95.132812 L 331.222656 363.476562 L -29.226562 268.523438 Z M 41.460938 0.179688 " clip-rule="nonzero"/></clipPath><clipPath id="26e53eb2a5"><path d="M 402.007812 95.054688 L 41.554688 0.101562 L -29.136719 268.445312 L 331.316406 363.402344 Z M 402.007812 95.054688 " clip-rule="nonzero"/></clipPath><clipPath id="0715a79202"><path d="M 402.007812 95.054688 L 41.554688 0.101562 L -29.136719 268.445312 L 331.316406 363.402344 Z M 402.007812 95.054688 " clip-rule="nonzero"/></clipPath><clipPath id="ca6b2d1700"><path d="M 28 118 L 160 118 L 160 221 L 28 221 Z M 28 118 " clip-rule="nonzero"/></clipPath><clipPath id="96c1ef0550"><path d="M 41.460938 0.179688 L 401.914062 95.132812 L 331.222656 363.476562 L -29.226562 268.523438 Z M 41.460938 0.179688 " clip-rule="nonzero"/></clipPath><clipPath id="1d0fe95e91"><path d="M 402.007812 95.054688 L 41.554688 0.101562 L -29.136719 268.445312 L 331.316406 363.402344 Z M 402.007812 95.054688 " clip-rule="nonzero"/></clipPath><clipPath id="de147fa52b"><path d="M 402.007812 95.054688 L 41.554688 0.101562 L -29.136719 268.445312 L 331.316406 363.402344 Z M 402.007812 95.054688 " clip-rule="nonzero"/></clipPath><clipPath id="6944832f61"><path d="M 83 17 L 101 17 L 101 32 L 83 32 Z M 83 17 " clip-rule="nonzero"/></clipPath><clipPath id="331c504b91"><path d="M 41.460938 0.179688 L 401.914062 95.132812 L 331.222656 363.476562 L -29.226562 268.523438 Z M 41.460938 0.179688 " clip-rule="nonzero"/></clipPath><clipPath id="d34207b0a6"><path d="M 402.007812 95.054688 L 41.554688 0.101562 L -29.136719 268.445312 L 331.316406 363.402344 Z M 402.007812 95.054688 " clip-rule="nonzero"/></clipPath><clipPath id="b6216ba862"><path d="M 402.007812 95.054688 L 41.554688 0.101562 L -29.136719 268.445312 L 331.316406 363.402344 Z M 402.007812 95.054688 " clip-rule="nonzero"/></clipPath><clipPath id="a6885fb831"><path d="M 125 22 L 135 22 L 135 43 L 125 43 Z M 125 22 " clip-rule="nonzero"/></clipPath><clipPath id="9dfb45438e"><path d="M 41.460938 0.179688 L 401.914062 95.132812 L 331.222656 363.476562 L -29.226562 268.523438 Z M 41.460938 0.179688 " clip-rule="nonzero"/></clipPath><clipPath id="258d6aad1a"><path d="M 402.007812 95.054688 L 41.554688 0.101562 L -29.136719 268.445312 L 331.316406 363.402344 Z M 402.007812 95.054688 " clip-rule="nonzero"/></clipPath><clipPath id="dd7cdfd331"><path d="M 402.007812 95.054688 L 41.554688 0.101562 L -29.136719 268.445312 L 331.316406 363.402344 Z M 402.007812 95.054688 " clip-rule="nonzero"/></clipPath><clipPath id="fdf3416cb8"><path d="M 164 74 L 175 74 L 175 95 L 164 95 Z M 164 74 " clip-rule="nonzero"/></clipPath><clipPath id="93e4485ba3"><path d="M 41.460938 0.179688 L 401.914062 95.132812 L 331.222656 363.476562 L -29.226562 268.523438 Z M 41.460938 0.179688 " clip-rule="nonzero"/></clipPath><clipPath id="f47604032f"><path d="M 402.007812 95.054688 L 41.554688 0.101562 L -29.136719 268.445312 L 331.316406 363.402344 Z M 402.007812 95.054688 " clip-rule="nonzero"/></clipPath><clipPath id="1fe8752328"><path d="M 402.007812 95.054688 L 41.554688 0.101562 L -29.136719 268.445312 L 331.316406 363.402344 Z M 402.007812 95.054688 " clip-rule="nonzero"/></clipPath><clipPath id="0e6c105cf8"><path d="M 33 62 L 49 62 L 49 80 L 33 80 Z M 33 62 " clip-rule="nonzero"/></clipPath><clipPath id="5e9dee561c"><path d="M 41.460938 0.179688 L 401.914062 95.132812 L 331.222656 363.476562 L -29.226562 268.523438 Z M 41.460938 0.179688 " clip-rule="nonzero"/></clipPath><clipPath id="be090984e1"><path d="M 402.007812 95.054688 L 41.554688 0.101562 L -29.136719 268.445312 L 331.316406 363.402344 Z M 402.007812 95.054688 " clip-rule="nonzero"/></clipPath><clipPath id="b8b2f4a431"><path d="M 402.007812 95.054688 L 41.554688 0.101562 L -29.136719 268.445312 L 331.316406 363.402344 Z M 402.007812 95.054688 " clip-rule="nonzero"/></clipPath><clipPath id="8e3739f396"><path d="M 253 158 L 307 158 L 307 220 L 253 220 Z M 253 158 " clip-rule="nonzero"/></clipPath><clipPath id="40832bffb2"><path d="M 41.460938 0.179688 L 401.914062 95.132812 L 331.222656 363.476562 L -29.226562 268.523438 Z M 41.460938 0.179688 " clip-rule="nonzero"/></clipPath><clipPath id="af2c950f00"><path d="M 402.007812 95.054688 L 41.554688 0.101562 L -29.136719 268.445312 L 331.316406 363.402344 Z M 402.007812 95.054688 " clip-rule="nonzero"/></clipPath><clipPath id="1a4da1795e"><path d="M 402.007812 95.054688 L 41.554688 0.101562 L -29.136719 268.445312 L 331.316406 363.402344 Z M 402.007812 95.054688 " clip-rule="nonzero"/></clipPath><clipPath id="b7891d3fa5"><path d="M 293 173 L 345 173 L 345 242 L 293 242 Z M 293 173 " clip-rule="nonzero"/></clipPath><clipPath id="024e84d91e"><path d="M 41.460938 0.179688 L 401.914062 95.132812 L 331.222656 363.476562 L -29.226562 268.523438 Z M 41.460938 0.179688 " clip-rule="nonzero"/></clipPath><clipPath id="a23907bf81"><path d="M 402.007812 95.054688 L 41.554688 0.101562 L -29.136719 268.445312 L 331.316406 363.402344 Z M 402.007812 95.054688 " clip-rule="nonzero"/></clipPath><clipPath id="02545a1923"><path d="M 402.007812 95.054688 L 41.554688 0.101562 L -29.136719 268.445312 L 331.316406 363.402344 Z M 402.007812 95.054688 " clip-rule="nonzero"/></clipPath><clipPath id="6246a36f97"><path d="M 300 239 L 355 239 L 355 303 L 300 303 Z M 300 239 " clip-rule="nonzero"/></clipPath><clipPath id="377ed785dc"><path d="M 41.460938 0.179688 L 401.914062 95.132812 L 331.222656 363.476562 L -29.226562 268.523438 Z M 41.460938 0.179688 " clip-rule="nonzero"/></clipPath><clipPath id="258cdf79fc"><path d="M 402.007812 95.054688 L 41.554688 0.101562 L -29.136719 268.445312 L 331.316406 363.402344 Z M 402.007812 95.054688 " clip-rule="nonzero"/></clipPath><clipPath id="79842a9dd8"><path d="M 402.007812 95.054688 L 41.554688 0.101562 L -29.136719 268.445312 L 331.316406 363.402344 Z M 402.007812 95.054688 " clip-rule="nonzero"/></clipPath><clipPath id="a51f810fa6"><path d="M 196 177 L 247 177 L 247 239 L 196 239 Z M 196 177 " clip-rule="nonzero"/></clipPath><clipPath id="2a0488ffb2"><path d="M 41.460938 0.179688 L 401.914062 95.132812 L 331.222656 363.476562 L -29.226562 268.523438 Z M 41.460938 0.179688 " clip-rule="nonzero"/></clipPath><clipPath id="eae03e1220"><path d="M 402.007812 95.054688 L 41.554688 0.101562 L -29.136719 268.445312 L 331.316406 363.402344 Z M 402.007812 95.054688 " clip-rule="nonzero"/></clipPath><clipPath id="f02ea5b79b"><path d="M 402.007812 95.054688 L 41.554688 0.101562 L -29.136719 268.445312 L 331.316406 363.402344 Z M 402.007812 95.054688 " clip-rule="nonzero"/></clipPath><clipPath id="82dd6e3080"><path d="M 180 233 L 302 233 L 302 346 L 180 346 Z M 180 233 " clip-rule="nonzero"/></clipPath><clipPath id="0690284f84"><path d="M 41.460938 0.179688 L 401.914062 95.132812 L 331.222656 363.476562 L -29.226562 268.523438 Z M 41.460938 0.179688 " clip-rule="nonzero"/></clipPath><clipPath id="833208ea55"><path d="M 402.007812 95.054688 L 41.554688 0.101562 L -29.136719 268.445312 L 331.316406 363.402344 Z M 402.007812 95.054688 " clip-rule="nonzero"/></clipPath><clipPath id="2c854c5ee6"><path d="M 402.007812 95.054688 L 41.554688 0.101562 L -29.136719 268.445312 L 331.316406 363.402344 Z M 402.007812 95.054688 " clip-rule="nonzero"/></clipPath><clipPath id="a528c45aff"><path d="M 332 156 L 342 156 L 342 178 L 332 178 Z M 332 156 " clip-rule="nonzero"/></clipPath><clipPath id="8b1bb1ae48"><path d="M 41.460938 0.179688 L 401.914062 95.132812 L 331.222656 363.476562 L -29.226562 268.523438 Z M 41.460938 0.179688 " clip-rule="nonzero"/></clipPath><clipPath id="a16d130605"><path d="M 402.007812 95.054688 L 41.554688 0.101562 L -29.136719 268.445312 L 331.316406 363.402344 Z M 402.007812 95.054688 " clip-rule="nonzero"/></clipPath><clipPath id="7750879d9d"><path d="M 402.007812 95.054688 L 41.554688 0.101562 L -29.136719 268.445312 L 331.316406 363.402344 Z M 402.007812 95.054688 " clip-rule="nonzero"/></clipPath><clipPath id="0973345845"><path d="M 293 145 L 313 145 L 313 158 L 293 158 Z M 293 145 " clip-rule="nonzero"/></clipPath><clipPath id="d2e2f733fe"><path d="M 41.460938 0.179688 L 401.914062 95.132812 L 331.222656 363.476562 L -29.226562 268.523438 Z M 41.460938 0.179688 " clip-rule="nonzero"/></clipPath><clipPath id="044338c452"><path d="M 402.007812 95.054688 L 41.554688 0.101562 L -29.136719 268.445312 L 331.316406 363.402344 Z M 402.007812 95.054688 " clip-rule="nonzero"/></clipPath><clipPath id="cc32e9ca8d"><path d="M 402.007812 95.054688 L 41.554688 0.101562 L -29.136719 268.445312 L 331.316406 363.402344 Z M 402.007812 95.054688 " clip-rule="nonzero"/></clipPath><clipPath id="4a853189a0"><path d="M 230 164 L 250 164 L 250 178 L 230 178 Z M 230 164 " clip-rule="nonzero"/></clipPath><clipPath id="8d5046b727"><path d="M 41.460938 0.179688 L 401.914062 95.132812 L 331.222656 363.476562 L -29.226562 268.523438 Z M 41.460938 0.179688 " clip-rule="nonzero"/></clipPath><clipPath id="eb01b3f980"><path d="M 402.007812 95.054688 L 41.554688 0.101562 L -29.136719 268.445312 L 331.316406 363.402344 Z M 402.007812 95.054688 " clip-rule="nonzero"/></clipPath><clipPath id="4399d612e0"><path d="M 402.007812 95.054688 L 41.554688 0.101562 L -29.136719 268.445312 L 331.316406 363.402344 Z M 402.007812 95.054688 " clip-rule="nonzero"/></clipPath><clipPath id="d54f84d420"><path d="M 345 224 L 356 224 L 356 246 L 345 246 Z M 345 224 " clip-rule="nonzero"/></clipPath><clipPath id="f098168cdd"><path d="M 41.460938 0.179688 L 401.914062 95.132812 L 331.222656 363.476562 L -29.226562 268.523438 Z M 41.460938 0.179688 " clip-rule="nonzero"/></clipPath><clipPath id="dcf4e9b85b"><path d="M 402.007812 95.054688 L 41.554688 0.101562 L -29.136719 268.445312 L 331.316406 363.402344 Z M 402.007812 95.054688 " clip-rule="nonzero"/></clipPath><clipPath id="ecdc0c95c4"><path d="M 402.007812 95.054688 L 41.554688 0.101562 L -29.136719 268.445312 L 331.316406 363.402344 Z M 402.007812 95.054688 " clip-rule="nonzero"/></clipPath><clipPath id="c8cd05664e"><rect x="0" width="384" y="0" height="364"/></clipPath><clipPath id="1647af134d"><path d="M 106 38 L 150 38 L 150 109 L 106 109 Z M 106 38 " clip-rule="nonzero"/></clipPath><clipPath id="44ec76d9e0"><path d="M 41.460938 0.179688 L 401.914062 95.132812 L 331.222656 363.476562 L -29.226562 268.523438 Z M 41.460938 0.179688 " clip-rule="nonzero"/></clipPath><clipPath id="d4239b0e62"><path d="M 402.007812 95.054688 L 41.554688 0.101562 L -29.136719 268.445312 L 331.316406 363.402344 Z M 402.007812 95.054688 " clip-rule="nonzero"/></clipPath><clipPath id="46aea80f81"><path d="M 402.007812 95.054688 L 41.554688 0.101562 L -29.136719 268.445312 L 331.316406 363.402344 Z M 402.007812 95.054688 " clip-rule="nonzero"/></clipPath><clipPath id="3db6440849"><path d="M 58 32 L 101 32 L 101 104 L 58 104 Z M 58 32 " clip-rule="nonzero"/></clipPath><clipPath id="b25202a4c3"><path d="M 41.460938 0.179688 L 401.914062 95.132812 L 331.222656 363.476562 L -29.226562 268.523438 Z M 41.460938 0.179688 " clip-rule="nonzero"/></clipPath><clipPath id="ca7952cb5c"><path d="M 402.007812 95.054688 L 41.554688 0.101562 L -29.136719 268.445312 L 331.316406 363.402344 Z M 402.007812 95.054688 " clip-rule="nonzero"/></clipPath><clipPath id="30eb130cb0"><path d="M 402.007812 95.054688 L 41.554688 0.101562 L -29.136719 268.445312 L 331.316406 363.402344 Z M 402.007812 95.054688 " clip-rule="nonzero"/></clipPath><clipPath id="6643fb2f7c"><path d="M 14 79 L 62 79 L 62 148 L 14 148 Z M 14 79 " clip-rule="nonzero"/></clipPath><clipPath id="b724c45756"><path d="M 41.460938 0.179688 L 401.914062 95.132812 L 331.222656 363.476562 L -29.226562 268.523438 Z M 41.460938 0.179688 " clip-rule="nonzero"/></clipPath><clipPath id="3d3beffaba"><path d="M 402.007812 95.054688 L 41.554688 0.101562 L -29.136719 268.445312 L 331.316406 363.402344 Z M 402.007812 95.054688 " clip-rule="nonzero"/></clipPath><clipPath id="65bce2d0e7"><path d="M 402.007812 95.054688 L 41.554688 0.101562 L -29.136719 268.445312 L 331.316406 363.402344 Z M 402.007812 95.054688 " clip-rule="nonzero"/></clipPath><clipPath id="d3e396e50a"><path d="M 138 92 L 182 92 L 182 157 L 138 157 Z M 138 92 " clip-rule="nonzero"/></clipPath><clipPath id="e372f58cbc"><path d="M 41.460938 0.179688 L 401.914062 95.132812 L 331.222656 363.476562 L -29.226562 268.523438 Z M 41.460938 0.179688 " clip-rule="nonzero"/></clipPath><clipPath id="712e529ee5"><path d="M 402.007812 95.054688 L 41.554688 0.101562 L -29.136719 268.445312 L 331.316406 363.402344 Z M 402.007812 95.054688 " clip-rule="nonzero"/></clipPath><clipPath id="f636ccf147"><path d="M 402.007812 95.054688 L 41.554688 0.101562 L -29.136719 268.445312 L 331.316406 363.402344 Z M 402.007812 95.054688 " clip-rule="nonzero"/></clipPath><clipPath id="fdae3a00bd"><path d="M 28 118 L 160 118 L 160 221 L 28 221 Z M 28 118 " clip-rule="nonzero"/></clipPath><clipPath id="a2d93c1a4c"><path d="M 41.460938 0.179688 L 401.914062 95.132812 L 331.222656 363.476562 L -29.226562 268.523438 Z M 41.460938 0.179688 " clip-rule="nonzero"/></clipPath><clipPath id="97090da1db"><path d="M 402.007812 95.054688 L 41.554688 0.101562 L -29.136719 268.445312 L 331.316406 363.402344 Z M 402.007812 95.054688 " clip-rule="nonzero"/></clipPath><clipPath id="1df4726b04"><path d="M 402.007812 95.054688 L 41.554688 0.101562 L -29.136719 268.445312 L 331.316406 363.402344 Z M 402.007812 95.054688 " clip-rule="nonzero"/></clipPath><clipPath id="1b0c6bb43b"><path d="M 83 17 L 101 17 L 101 32 L 83 32 Z M 83 17 " clip-rule="nonzero"/></clipPath><clipPath id="4e699a18cf"><path d="M 41.460938 0.179688 L 401.914062 95.132812 L 331.222656 363.476562 L -29.226562 268.523438 Z M 41.460938 0.179688 " clip-rule="nonzero"/></clipPath><clipPath id="02d5b78601"><path d="M 402.007812 95.054688 L 41.554688 0.101562 L -29.136719 268.445312 L 331.316406 363.402344 Z M 402.007812 95.054688 " clip-rule="nonzero"/></clipPath><clipPath id="cae7c9da8b"><path d="M 402.007812 95.054688 L 41.554688 0.101562 L -29.136719 268.445312 L 331.316406 363.402344 Z M 402.007812 95.054688 " clip-rule="nonzero"/></clipPath><clipPath id="b5dcbfaddb"><path d="M 125 22 L 135 22 L 135 43 L 125 43 Z M 125 22 " clip-rule="nonzero"/></clipPath><clipPath id="287b7b0db0"><path d="M 41.460938 0.179688 L 401.914062 95.132812 L 331.222656 363.476562 L -29.226562 268.523438 Z M 41.460938 0.179688 " clip-rule="nonzero"/></clipPath><clipPath id="9abf25c068"><path d="M 402.007812 95.054688 L 41.554688 0.101562 L -29.136719 268.445312 L 331.316406 363.402344 Z M 402.007812 95.054688 " clip-rule="nonzero"/></clipPath><clipPath id="d2314a8383"><path d="M 402.007812 95.054688 L 41.554688 0.101562 L -29.136719 268.445312 L 331.316406 363.402344 Z M 402.007812 95.054688 " clip-rule="nonzero"/></clipPath><clipPath id="2c6debd398"><path d="M 164 74 L 175 74 L 175 95 L 164 95 Z M 164 74 " clip-rule="nonzero"/></clipPath><clipPath id="12a114ccc5"><path d="M 41.460938 0.179688 L 401.914062 95.132812 L 331.222656 363.476562 L -29.226562 268.523438 Z M 41.460938 0.179688 " clip-rule="nonzero"/></clipPath><clipPath id="7ddf7eee08"><path d="M 402.007812 95.054688 L 41.554688 0.101562 L -29.136719 268.445312 L 331.316406 363.402344 Z M 402.007812 95.054688 " clip-rule="nonzero"/></clipPath><clipPath id="4323f1144f"><path d="M 402.007812 95.054688 L 41.554688 0.101562 L -29.136719 268.445312 L 331.316406 363.402344 Z M 402.007812 95.054688 " clip-rule="nonzero"/></clipPath><clipPath id="0851dd1125"><path d="M 33 62 L 49 62 L 49 80 L 33 80 Z M 33 62 " clip-rule="nonzero"/></clipPath><clipPath id="3d6cd75b8c"><path d="M 41.460938 0.179688 L 401.914062 95.132812 L 331.222656 363.476562 L -29.226562 268.523438 Z M 41.460938 0.179688 " clip-rule="nonzero"/></clipPath><clipPath id="c050f127de"><path d="M 402.007812 95.054688 L 41.554688 0.101562 L -29.136719 268.445312 L 331.316406 363.402344 Z M 402.007812 95.054688 " clip-rule="nonzero"/></clipPath><clipPath id="47cc4e2f1a"><path d="M 402.007812 95.054688 L 41.554688 0.101562 L -29.136719 268.445312 L 331.316406 363.402344 Z M 402.007812 95.054688 " clip-rule="nonzero"/></clipPath><clipPath id="f25f20afac"><path d="M 253 158 L 307 158 L 307 220 L 253 220 Z M 253 158 " clip-rule="nonzero"/></clipPath><clipPath id="e9097cc57d"><path d="M 41.460938 0.179688 L 401.914062 95.132812 L 331.222656 363.476562 L -29.226562 268.523438 Z M 41.460938 0.179688 " clip-rule="nonzero"/></clipPath><clipPath id="83c980bbd0"><path d="M 402.007812 95.054688 L 41.554688 0.101562 L -29.136719 268.445312 L 331.316406 363.402344 Z M 402.007812 95.054688 " clip-rule="nonzero"/></clipPath><clipPath id="1b6c4df481"><path d="M 402.007812 95.054688 L 41.554688 0.101562 L -29.136719 268.445312 L 331.316406 363.402344 Z M 402.007812 95.054688 " clip-rule="nonzero"/></clipPath><clipPath id="49b7d0fa61"><path d="M 293 173 L 345 173 L 345 242 L 293 242 Z M 293 173 " clip-rule="nonzero"/></clipPath><clipPath id="637c58c6e5"><path d="M 41.460938 0.179688 L 401.914062 95.132812 L 331.222656 363.476562 L -29.226562 268.523438 Z M 41.460938 0.179688 " clip-rule="nonzero"/></clipPath><clipPath id="80890d5859"><path d="M 402.007812 95.054688 L 41.554688 0.101562 L -29.136719 268.445312 L 331.316406 363.402344 Z M 402.007812 95.054688 " clip-rule="nonzero"/></clipPath><clipPath id="ca2e5e3dc1"><path d="M 402.007812 95.054688 L 41.554688 0.101562 L -29.136719 268.445312 L 331.316406 363.402344 Z M 402.007812 95.054688 " clip-rule="nonzero"/></clipPath><clipPath id="7c5545c5a2"><path d="M 300 239 L 355 239 L 355 303 L 300 303 Z M 300 239 " clip-rule="nonzero"/></clipPath><clipPath id="a779c6b710"><path d="M 41.460938 0.179688 L 401.914062 95.132812 L 331.222656 363.476562 L -29.226562 268.523438 Z M 41.460938 0.179688 " clip-rule="nonzero"/></clipPath><clipPath id="dd0e8edaf1"><path d="M 402.007812 95.054688 L 41.554688 0.101562 L -29.136719 268.445312 L 331.316406 363.402344 Z M 402.007812 95.054688 " clip-rule="nonzero"/></clipPath><clipPath id="b494eaa8b9"><path d="M 402.007812 95.054688 L 41.554688 0.101562 L -29.136719 268.445312 L 331.316406 363.402344 Z M 402.007812 95.054688 " clip-rule="nonzero"/></clipPath><clipPath id="e6aba96b41"><path d="M 196 177 L 247 177 L 247 239 L 196 239 Z M 196 177 " clip-rule="nonzero"/></clipPath><clipPath id="54537bdeb8"><path d="M 41.460938 0.179688 L 401.914062 95.132812 L 331.222656 363.476562 L -29.226562 268.523438 Z M 41.460938 0.179688 " clip-rule="nonzero"/></clipPath><clipPath id="5ec16aa603"><path d="M 402.007812 95.054688 L 41.554688 0.101562 L -29.136719 268.445312 L 331.316406 363.402344 Z M 402.007812 95.054688 " clip-rule="nonzero"/></clipPath><clipPath id="9acf2ce174"><path d="M 402.007812 95.054688 L 41.554688 0.101562 L -29.136719 268.445312 L 331.316406 363.402344 Z M 402.007812 95.054688 " clip-rule="nonzero"/></clipPath><clipPath id="f4a85d3fad"><path d="M 180 233 L 302 233 L 302 346 L 180 346 Z M 180 233 " clip-rule="nonzero"/></clipPath><clipPath id="e49e953d43"><path d="M 41.460938 0.179688 L 401.914062 95.132812 L 331.222656 363.476562 L -29.226562 268.523438 Z M 41.460938 0.179688 " clip-rule="nonzero"/></clipPath><clipPath id="0c0896ff73"><path d="M 402.007812 95.054688 L 41.554688 0.101562 L -29.136719 268.445312 L 331.316406 363.402344 Z M 402.007812 95.054688 " clip-rule="nonzero"/></clipPath><clipPath id="d7bdfb0602"><path d="M 402.007812 95.054688 L 41.554688 0.101562 L -29.136719 268.445312 L 331.316406 363.402344 Z M 402.007812 95.054688 " clip-rule="nonzero"/></clipPath><clipPath id="d6ccefdd55"><path d="M 332 156 L 342 156 L 342 178 L 332 178 Z M 332 156 " clip-rule="nonzero"/></clipPath><clipPath id="d875e90396"><path d="M 41.460938 0.179688 L 401.914062 95.132812 L 331.222656 363.476562 L -29.226562 268.523438 Z M 41.460938 0.179688 " clip-rule="nonzero"/></clipPath><clipPath id="941b689ae8"><path d="M 402.007812 95.054688 L 41.554688 0.101562 L -29.136719 268.445312 L 331.316406 363.402344 Z M 402.007812 95.054688 " clip-rule="nonzero"/></clipPath><clipPath id="524d3aecbb"><path d="M 402.007812 95.054688 L 41.554688 0.101562 L -29.136719 268.445312 L 331.316406 363.402344 Z M 402.007812 95.054688 " clip-rule="nonzero"/></clipPath><clipPath id="97e5280725"><path d="M 293 145 L 313 145 L 313 158 L 293 158 Z M 293 145 " clip-rule="nonzero"/></clipPath><clipPath id="5ad5ed483a"><path d="M 41.460938 0.179688 L 401.914062 95.132812 L 331.222656 363.476562 L -29.226562 268.523438 Z M 41.460938 0.179688 " clip-rule="nonzero"/></clipPath><clipPath id="9257a08b75"><path d="M 402.007812 95.054688 L 41.554688 0.101562 L -29.136719 268.445312 L 331.316406 363.402344 Z M 402.007812 95.054688 " clip-rule="nonzero"/></clipPath><clipPath id="b7e1a05494"><path d="M 402.007812 95.054688 L 41.554688 0.101562 L -29.136719 268.445312 L 331.316406 363.402344 Z M 402.007812 95.054688 " clip-rule="nonzero"/></clipPath><clipPath id="0979b1e7d1"><path d="M 230 164 L 250 164 L 250 178 L 230 178 Z M 230 164 " clip-rule="nonzero"/></clipPath><clipPath id="ac44cb2114"><path d="M 41.460938 0.179688 L 401.914062 95.132812 L 331.222656 363.476562 L -29.226562 268.523438 Z M 41.460938 0.179688 " clip-rule="nonzero"/></clipPath><clipPath id="a78e40373a"><path d="M 402.007812 95.054688 L 41.554688 0.101562 L -29.136719 268.445312 L 331.316406 363.402344 Z M 402.007812 95.054688 " clip-rule="nonzero"/></clipPath><clipPath id="1b8a9b2316"><path d="M 402.007812 95.054688 L 41.554688 0.101562 L -29.136719 268.445312 L 331.316406 363.402344 Z M 402.007812 95.054688 " clip-rule="nonzero"/></clipPath><clipPath id="d75b526227"><path d="M 345 224 L 356 224 L 356 246 L 345 246 Z M 345 224 " clip-rule="nonzero"/></clipPath><clipPath id="4f9cb34719"><path d="M 41.460938 0.179688 L 401.914062 95.132812 L 331.222656 363.476562 L -29.226562 268.523438 Z M 41.460938 0.179688 " clip-rule="nonzero"/></clipPath><clipPath id="f34a8eb2bd"><path d="M 402.007812 95.054688 L 41.554688 0.101562 L -29.136719 268.445312 L 331.316406 363.402344 Z M 402.007812 95.054688 " clip-rule="nonzero"/></clipPath><clipPath id="0bdc748f68"><path d="M 402.007812 95.054688 L 41.554688 0.101562 L -29.136719 268.445312 L 331.316406 363.402344 Z M 402.007812 95.054688 " clip-rule="nonzero"/></clipPath><clipPath id="cb37d278fc"><rect x="0" width="384" y="0" height="364"/></clipPath></defs><g clip-path="url(#6bf7929e15)"><g clip-path="url(#5552b9eee5)"><g transform="matrix(1, 0, 0, 1, 0, 28)"><g clip-path="url(#c8cd05664e)"><g clip-path="url(#92604ca975)"><g clip-path="url(#af08045b6c)"><g clip-path="url(#d9827e8b37)"><g clip-path="url(#2541592776)"><path fill="#000000" d="M 130.726562 41.324219 C 134.78125 44.441406 138.285156 49.617188 140.453125 52.480469 C 144.945312 58.410156 148.996094 65.1875 149.582031 72.773438 C 150.257812 81.488281 148.164062 91.082031 143.019531 98.359375 C 139.910156 102.757812 135.320312 106.347656 130.082031 107.78125 C 123.363281 109.617188 113.304688 106.4375 109.285156 100.320312 C 104.8125 93.511719 106.289062 84.425781 107.75 76.921875 C 109.570312 67.574219 110.964844 58.046875 114.574219 49.167969 C 117.519531 41.921875 122.757812 35.207031 130.726562 41.324219 Z M 130.726562 41.324219 " fill-opacity="1" fill-rule="nonzero"/></g></g></g></g><g clip-path="url(#75d6c6cd10)"><g clip-path="url(#90e39cd151)"><g clip-path="url(#0e53e3f39f)"><g clip-path="url(#1a63a60317)"><path fill="#000000" d="M 89.339844 32.820312 C 96 32.574219 100.597656 39.035156 100.265625 46.464844 C 99.910156 54.3125 99.398438 62.15625 99.125 70.007812 C 98.738281 81.097656 100.695312 96.679688 87.992188 101.910156 C 78.015625 106.019531 66.785156 100.867188 61.996094 91.511719 C 56.273438 80.335938 57.773438 65.121094 63.535156 54.316406 C 68.054688 45.839844 78.957031 33.203125 89.339844 32.820312 Z M 89.339844 32.820312 " fill-opacity="1" fill-rule="nonzero"/></g></g></g></g><g clip-path="url(#840ed1e363)"><g clip-path="url(#968f2084ec)"><g clip-path="url(#9bbb472076)"><g clip-path="url(#9caca6424a)"><path fill="#000000" d="M 38.851562 79.445312 C 39.730469 79.234375 40.609375 79.132812 41.472656 79.164062 C 46.4375 79.363281 49.09375 84.578125 51.078125 88.394531 C 58.550781 102.753906 62.203125 109.503906 61.136719 119.265625 C 60.070312 129.03125 58.472656 146.765625 38.582031 147.484375 C 25.511719 147.957031 17.242188 136.617188 15.054688 124.824219 C 12.425781 110.621094 18.898438 95.539062 29 85.589844 C 31.464844 83.164062 35.140625 80.339844 38.851562 79.445312 Z M 38.851562 79.445312 " fill-opacity="1" fill-rule="nonzero"/></g></g></g></g><g clip-path="url(#2fc9fab657)"><g clip-path="url(#d95744da7f)"><g clip-path="url(#26e53eb2a5)"><g clip-path="url(#0715a79202)"><path fill="#000000" d="M 166.679688 92.167969 C 174.769531 93.582031 178.355469 104.222656 179.628906 112.019531 C 181.328125 122.445312 183.394531 134.507812 179.128906 144.5625 C 174.1875 156.214844 156.664062 160.515625 147.253906 151.738281 C 138.402344 143.480469 136.28125 130.566406 139.765625 119.15625 C 142.765625 109.332031 150.636719 95.542969 161.160156 92.554688 C 163.199219 91.972656 165.03125 91.878906 166.679688 92.167969 Z M 166.679688 92.167969 " fill-opacity="1" fill-rule="nonzero"/></g></g></g></g><g clip-path="url(#ca6b2d1700)"><g clip-path="url(#96c1ef0550)"><g clip-path="url(#1d0fe95e91)"><g clip-path="url(#de147fa52b)"><path fill="#000000" d="M 98.421875 118.339844 C 109.488281 118.554688 120.496094 124.1875 125.886719 134.453125 C 129.328125 140.992188 133.308594 147.238281 137.722656 153.164062 C 142.378906 159.40625 147.976562 164.773438 152.808594 170.824219 C 161.097656 181.203125 161.4375 197.511719 153.832031 208.304688 C 141.660156 225.5625 121.3125 220.300781 107.46875 214.40625 C 98.289062 210.503906 88.601562 206.054688 78.457031 208.90625 C 68.570312 211.6875 59.078125 212.621094 48.890625 210.441406 C 34.175781 207.296875 26.414062 193.707031 29.355469 179.175781 C 31.40625 169.0625 38.230469 161.027344 47.269531 156.296875 C 51.695312 153.980469 56.632812 152.636719 60.652344 149.578125 C 68.253906 143.789062 69.402344 133.921875 75.796875 127.296875 C 81.820312 121.054688 90.136719 118.179688 98.421875 118.339844 Z M 98.421875 118.339844 " fill-opacity="1" fill-rule="nonzero"/></g></g></g></g><g clip-path="url(#6944832f61)"><g clip-path="url(#331c504b91)"><g clip-path="url(#d34207b0a6)"><g clip-path="url(#b6216ba862)"><path fill="#000000" d="M 83.898438 31.335938 C 83.820312 31.566406 84.035156 31.777344 84.265625 31.703125 C 86.761719 30.875 89.242188 30.511719 91.601562 30.777344 C 92.40625 30.867188 93.171875 31.050781 93.882812 31.316406 C 94.050781 31.375 94.222656 31.277344 94.261719 31.105469 C 95.515625 25.171875 98.484375 20.804688 100.148438 18.722656 C 100.550781 18.214844 100.128906 17.464844 99.492188 17.566406 C 89.449219 19.113281 85.363281 27.113281 83.898438 31.335938 Z M 83.898438 31.335938 " fill-opacity="1" fill-rule="nonzero"/></g></g></g></g><g clip-path="url(#a6885fb831)"><g clip-path="url(#9dfb45438e)"><g clip-path="url(#258d6aad1a)"><g clip-path="url(#dd7cdfd331)"><path fill="#000000" d="M 125.035156 23.414062 C 125.6875 25.929688 126.597656 31.027344 125.390625 36.859375 C 125.335938 37.136719 125.527344 37.390625 125.808594 37.421875 C 127.371094 37.605469 129.082031 38.335938 130.941406 39.761719 C 131.941406 40.53125 132.910156 41.421875 133.832031 42.375 C 134.113281 42.664062 134.597656 42.503906 134.640625 42.101562 C 135.097656 37.816406 134.945312 28.378906 126.082031 22.636719 C 125.550781 22.300781 124.882812 22.796875 125.035156 23.414062 Z M 125.035156 23.414062 " fill-opacity="1" fill-rule="nonzero"/></g></g></g></g><g clip-path="url(#fdf3416cb8)"><g clip-path="url(#93e4485ba3)"><g clip-path="url(#f47604032f)"><g clip-path="url(#1fe8752328)"><path fill="#000000" d="M 164.976562 75.3125 C 165.628906 77.648438 166.734375 83.039062 165.4375 89.265625 C 165.378906 89.554688 165.585938 89.828125 165.882812 89.847656 C 166.261719 89.875 166.628906 89.917969 166.988281 89.980469 C 169.796875 90.472656 172.0625 92.085938 173.878906 94.300781 C 174.152344 94.632812 174.695312 94.476562 174.734375 94.042969 C 175.136719 89.535156 174.726562 80.269531 165.746094 74.734375 C 165.34375 74.488281 164.847656 74.863281 164.976562 75.3125 Z M 164.976562 75.3125 " fill-opacity="1" fill-rule="nonzero"/></g></g></g></g><g clip-path="url(#0e6c105cf8)"><g clip-path="url(#5e9dee561c)"><g clip-path="url(#be090984e1)"><g clip-path="url(#b8b2f4a431)"><path fill="#000000" d="M 33.695312 79.253906 C 33.609375 79.742188 34.152344 80.09375 34.570312 79.820312 C 36.203125 78.757812 37.292969 77.824219 39.761719 77.449219 C 40.550781 77.332031 42.964844 77.726562 43.855469 77.929688 C 43.996094 77.960938 44.125 77.863281 44.132812 77.71875 C 44.480469 71.628906 46.636719 66.277344 47.984375 63.964844 C 48.316406 63.40625 47.792969 62.726562 47.179688 62.914062 C 37.15625 66.027344 34.425781 74.992188 33.695312 79.253906 Z M 33.695312 79.253906 " fill-opacity="1" fill-rule="nonzero"/></g></g></g></g><g clip-path="url(#8e3739f396)"><g clip-path="url(#40832bffb2)"><g clip-path="url(#af2c950f00)"><g clip-path="url(#1a4da1795e)"><path fill="#000000" d="M 296.800781 158.183594 C 291.6875 158.339844 285.820312 160.496094 282.390625 161.550781 C 275.277344 163.738281 268.03125 166.875 263.125 172.6875 C 257.488281 179.367188 253.582031 188.375 253.507812 197.285156 C 253.460938 202.675781 255.085938 208.269531 258.503906 212.496094 C 262.882812 217.910156 272.902344 221.207031 279.738281 218.589844 C 287.34375 215.675781 291.457031 207.441406 294.652344 200.5 C 298.636719 191.84375 303.070312 183.300781 305.328125 173.984375 C 307.171875 166.382812 306.839844 157.867188 296.800781 158.183594 Z M 296.800781 158.183594 " fill-opacity="1" fill-rule="nonzero"/></g></g></g></g><g clip-path="url(#b7891d3fa5)"><g clip-path="url(#024e84d91e)"><g clip-path="url(#a23907bf81)"><g clip-path="url(#02545a1923)"><path fill="#000000" d="M 335.359375 175.457031 C 330.09375 171.367188 322.589844 173.921875 318.519531 180.148438 C 314.222656 186.726562 310.054688 193.390625 305.691406 199.921875 C 299.527344 209.148438 288.835938 220.652344 296.089844 232.316406 C 301.789062 241.480469 313.910156 243.859375 323.265625 239.066406 C 334.4375 233.339844 342.105469 220.117188 343.742188 207.980469 C 345.027344 198.460938 343.5625 181.835938 335.359375 175.457031 Z M 335.359375 175.457031 " fill-opacity="1" fill-rule="nonzero"/></g></g></g></g><g clip-path="url(#6246a36f97)"><g clip-path="url(#377ed785dc)"><g clip-path="url(#258cdf79fc)"><g clip-path="url(#79842a9dd8)"><path fill="#000000" d="M 349.09375 242.796875 C 348.507812 242.113281 347.855469 241.515625 347.132812 241.039062 C 342.988281 238.296875 337.789062 240.980469 333.945312 242.917969 C 319.492188 250.203125 312.585938 253.546875 307.75 262.097656 C 302.910156 270.644531 293.847656 285.972656 309.566406 298.175781 C 319.902344 306.195312 333.238281 301.824219 341.902344 293.527344 C 352.335938 283.539062 355.890625 267.515625 353.503906 253.539062 C 352.921875 250.132812 351.585938 245.691406 349.09375 242.796875 Z M 349.09375 242.796875 " fill-opacity="1" fill-rule="nonzero"/></g></g></g></g><g clip-path="url(#a51f810fa6)"><g clip-path="url(#2a0488ffb2)"><g clip-path="url(#eae03e1220)"><g clip-path="url(#f02ea5b79b)"><path fill="#000000" d="M 237.917969 178.4375 C 230.527344 174.859375 221.398438 181.402344 215.816406 186.984375 C 208.34375 194.457031 199.617188 203.035156 197.207031 213.691406 C 194.410156 226.03125 206.121094 239.765625 218.886719 238.136719 C 230.894531 236.605469 240.15625 227.363281 243.996094 216.070312 C 247.300781 206.339844 248.96875 190.554688 242.175781 181.976562 C 240.859375 180.316406 239.425781 179.167969 237.917969 178.4375 Z M 237.917969 178.4375 " fill-opacity="1" fill-rule="nonzero"/></g></g></g></g><g clip-path="url(#82dd6e3080)"><g clip-path="url(#0690284f84)"><g clip-path="url(#833208ea55)"><g clip-path="url(#2c854c5ee6)"><path fill="#000000" d="M 278.027344 239.5625 C 268.921875 233.269531 256.699219 231.410156 246.324219 236.589844 C 239.714844 239.890625 232.832031 242.632812 225.789062 244.859375 C 218.363281 247.207031 210.683594 248.292969 203.226562 250.378906 C 190.4375 253.960938 180.632812 267 180.503906 280.203125 C 180.296875 301.320312 199.886719 308.9375 214.566406 312.242188 C 224.300781 314.4375 234.757812 316.484375 241.324219 324.726562 C 247.726562 332.761719 254.886719 339.066406 264.425781 343.25 C 278.207031 349.292969 292.445312 342.800781 298.546875 329.285156 C 302.789062 319.878906 301.945312 309.371094 297.371094 300.25 C 295.132812 295.785156 291.910156 291.8125 290.4375 286.976562 C 287.648438 277.839844 292.480469 269.160156 291.160156 260.046875 C 289.917969 251.464844 284.84375 244.269531 278.027344 239.5625 Z M 278.027344 239.5625 " fill-opacity="1" fill-rule="nonzero"/></g></g></g></g><g clip-path="url(#a528c45aff)"><g clip-path="url(#8b1bb1ae48)"><g clip-path="url(#a16d130605)"><g clip-path="url(#7750879d9d)"><path fill="#000000" d="M 340.640625 177.433594 C 340.570312 177.664062 340.269531 177.710938 340.128906 177.515625 C 338.585938 175.382812 336.785156 173.640625 334.714844 172.476562 C 334.007812 172.082031 333.28125 171.785156 332.546875 171.582031 C 332.378906 171.535156 332.292969 171.351562 332.363281 171.191406 C 334.8125 165.640625 334.953125 160.363281 334.816406 157.703125 C 334.789062 157.054688 335.570312 156.691406 336.027344 157.148438 C 343.277344 164.269531 341.917969 173.148438 340.640625 177.433594 Z M 340.640625 177.433594 " fill-opacity="1" fill-rule="nonzero"/></g></g></g></g><g clip-path="url(#0973345845)"><g clip-path="url(#d2e2f733fe)"><g clip-path="url(#044338c452)"><g clip-path="url(#cc32e9ca8d)"><path fill="#000000" d="M 311.882812 146.96875 C 309.882812 148.632812 306.167969 152.238281 303.738281 157.671875 C 303.621094 157.929688 303.316406 158.027344 303.070312 157.886719 C 301.699219 157.121094 299.882812 156.710938 297.539062 156.785156 C 296.277344 156.824219 294.972656 156.984375 293.667969 157.21875 C 293.269531 157.289062 292.96875 156.875 293.167969 156.523438 C 295.300781 152.78125 300.9375 145.207031 311.484375 145.726562 C 312.113281 145.761719 312.367188 146.554688 311.882812 146.96875 Z M 311.882812 146.96875 " fill-opacity="1" fill-rule="nonzero"/></g></g></g></g><g clip-path="url(#4a853189a0)"><g clip-path="url(#8d5046b727)"><g clip-path="url(#eb01b3f980)"><g clip-path="url(#4399d612e0)"><path fill="#000000" d="M 249.148438 165.757812 C 247.253906 167.269531 243.207031 171 240.621094 176.808594 C 240.5 177.078125 240.171875 177.179688 239.921875 177.023438 C 239.597656 176.824219 239.277344 176.644531 238.945312 176.484375 C 236.378906 175.242188 233.597656 175.226562 230.832031 175.964844 C 230.414062 176.074219 230.066406 175.628906 230.289062 175.257812 C 232.59375 171.363281 238.339844 164.082031 248.863281 164.835938 C 249.332031 164.871094 249.515625 165.464844 249.148438 165.757812 Z M 249.148438 165.757812 " fill-opacity="1" fill-rule="nonzero"/></g></g></g></g><g clip-path="url(#d54f84d420)"><g clip-path="url(#f098168cdd)"><g clip-path="url(#dcf4e9b85b)"><g clip-path="url(#ecdc0c95c4)"><path fill="#000000" d="M 353.394531 245.65625 C 353.175781 246.101562 352.53125 246.066406 352.351562 245.605469 C 351.648438 243.785156 351.3125 242.390625 349.527344 240.648438 C 348.953125 240.089844 346.761719 239 345.917969 238.644531 C 345.789062 238.589844 345.742188 238.433594 345.820312 238.3125 C 349.09375 233.164062 350.46875 227.5625 350.726562 224.898438 C 350.785156 224.25 351.605469 224.003906 351.996094 224.515625 C 358.3125 232.898438 355.289062 241.769531 353.394531 245.65625 Z M 353.394531 245.65625 " fill-opacity="1" fill-rule="nonzero"/></g></g></g></g></g></g><g transform="matrix(1, 0, 0, 1, 0, 28)"><g clip-path="url(#cb37d278fc)"><g clip-path="url(#1647af134d)"><g clip-path="url(#44ec76d9e0)"><g clip-path="url(#d4239b0e62)"><g clip-path="url(#46aea80f81)"><path fill="#000000" d="M 130.726562 41.324219 C 134.78125 44.441406 138.285156 49.617188 140.453125 52.480469 C 144.945312 58.410156 148.996094 65.1875 149.582031 72.773438 C 150.257812 81.488281 148.164062 91.082031 143.019531 98.359375 C 139.910156 102.757812 135.320312 106.347656 130.082031 107.78125 C 123.363281 109.617188 113.304688 106.4375 109.285156 100.320312 C 104.8125 93.511719 106.289062 84.425781 107.75 76.921875 C 109.570312 67.574219 110.964844 58.046875 114.574219 49.167969 C 117.519531 41.921875 122.757812 35.207031 130.726562 41.324219 Z M 130.726562 41.324219 " fill-opacity="1" fill-rule="nonzero"/></g></g></g></g><g clip-path="url(#3db6440849)"><g clip-path="url(#b25202a4c3)"><g clip-path="url(#ca7952cb5c)"><g clip-path="url(#30eb130cb0)"><path fill="#000000" d="M 89.339844 32.820312 C 96 32.574219 100.597656 39.035156 100.265625 46.464844 C 99.910156 54.3125 99.398438 62.15625 99.125 70.007812 C 98.738281 81.097656 100.695312 96.679688 87.992188 101.910156 C 78.015625 106.019531 66.785156 100.867188 61.996094 91.511719 C 56.273438 80.335938 57.773438 65.121094 63.535156 54.316406 C 68.054688 45.839844 78.957031 33.203125 89.339844 32.820312 Z M 89.339844 32.820312 " fill-opacity="1" fill-rule="nonzero"/></g></g></g></g><g clip-path="url(#6643fb2f7c)"><g clip-path="url(#b724c45756)"><g clip-path="url(#3d3beffaba)"><g clip-path="url(#65bce2d0e7)"><path fill="#000000" d="M 38.851562 79.445312 C 39.730469 79.234375 40.609375 79.132812 41.472656 79.164062 C 46.4375 79.363281 49.09375 84.578125 51.078125 88.394531 C 58.550781 102.753906 62.203125 109.503906 61.136719 119.265625 C 60.070312 129.03125 58.472656 146.765625 38.582031 147.484375 C 25.511719 147.957031 17.242188 136.617188 15.054688 124.824219 C 12.425781 110.621094 18.898438 95.539062 29 85.589844 C 31.464844 83.164062 35.140625 80.339844 38.851562 79.445312 Z M 38.851562 79.445312 " fill-opacity="1" fill-rule="nonzero"/></g></g></g></g><g clip-path="url(#d3e396e50a)"><g clip-path="url(#e372f58cbc)"><g clip-path="url(#712e529ee5)"><g clip-path="url(#f636ccf147)"><path fill="#000000" d="M 166.679688 92.167969 C 174.769531 93.582031 178.355469 104.222656 179.628906 112.019531 C 181.328125 122.445312 183.394531 134.507812 179.128906 144.5625 C 174.1875 156.214844 156.664062 160.515625 147.253906 151.738281 C 138.402344 143.480469 136.28125 130.566406 139.765625 119.15625 C 142.765625 109.332031 150.636719 95.542969 161.160156 92.554688 C 163.199219 91.972656 165.03125 91.878906 166.679688 92.167969 Z M 166.679688 92.167969 " fill-opacity="1" fill-rule="nonzero"/></g></g></g></g><g clip-path="url(#fdae3a00bd)"><g clip-path="url(#a2d93c1a4c)"><g clip-path="url(#97090da1db)"><g clip-path="url(#1df4726b04)"><path fill="#000000" d="M 98.421875 118.339844 C 109.488281 118.554688 120.496094 124.1875 125.886719 134.453125 C 129.328125 140.992188 133.308594 147.238281 137.722656 153.164062 C 142.378906 159.40625 147.976562 164.773438 152.808594 170.824219 C 161.097656 181.203125 161.4375 197.511719 153.832031 208.304688 C 141.660156 225.5625 121.3125 220.300781 107.46875 214.40625 C 98.289062 210.503906 88.601562 206.054688 78.457031 208.90625 C 68.570312 211.6875 59.078125 212.621094 48.890625 210.441406 C 34.175781 207.296875 26.414062 193.707031 29.355469 179.175781 C 31.40625 169.0625 38.230469 161.027344 47.269531 156.296875 C 51.695312 153.980469 56.632812 152.636719 60.652344 149.578125 C 68.253906 143.789062 69.402344 133.921875 75.796875 127.296875 C 81.820312 121.054688 90.136719 118.179688 98.421875 118.339844 Z M 98.421875 118.339844 " fill-opacity="1" fill-rule="nonzero"/></g></g></g></g><g clip-path="url(#1b0c6bb43b)"><g clip-path="url(#4e699a18cf)"><g clip-path="url(#02d5b78601)"><g clip-path="url(#cae7c9da8b)"><path fill="#000000" d="M 83.898438 31.335938 C 83.820312 31.566406 84.035156 31.777344 84.265625 31.703125 C 86.761719 30.875 89.242188 30.511719 91.601562 30.777344 C 92.40625 30.867188 93.171875 31.050781 93.882812 31.316406 C 94.050781 31.375 94.222656 31.277344 94.261719 31.105469 C 95.515625 25.171875 98.484375 20.804688 100.148438 18.722656 C 100.550781 18.214844 100.128906 17.464844 99.492188 17.566406 C 89.449219 19.113281 85.363281 27.113281 83.898438 31.335938 Z M 83.898438 31.335938 " fill-opacity="1" fill-rule="nonzero"/></g></g></g></g><g clip-path="url(#b5dcbfaddb)"><g clip-path="url(#287b7b0db0)"><g clip-path="url(#9abf25c068)"><g clip-path="url(#d2314a8383)"><path fill="#000000" d="M 125.035156 23.414062 C 125.6875 25.929688 126.597656 31.027344 125.390625 36.859375 C 125.335938 37.136719 125.527344 37.390625 125.808594 37.421875 C 127.371094 37.605469 129.082031 38.335938 130.941406 39.761719 C 131.941406 40.53125 132.910156 41.421875 133.832031 42.375 C 134.113281 42.664062 134.597656 42.503906 134.640625 42.101562 C 135.097656 37.816406 134.945312 28.378906 126.082031 22.636719 C 125.550781 22.300781 124.882812 22.796875 125.035156 23.414062 Z M 125.035156 23.414062 " fill-opacity="1" fill-rule="nonzero"/></g></g></g></g><g clip-path="url(#2c6debd398)"><g clip-path="url(#12a114ccc5)"><g clip-path="url(#7ddf7eee08)"><g clip-path="url(#4323f1144f)"><path fill="#000000" d="M 164.976562 75.3125 C 165.628906 77.648438 166.734375 83.039062 165.4375 89.265625 C 165.378906 89.554688 165.585938 89.828125 165.882812 89.847656 C 166.261719 89.875 166.628906 89.917969 166.988281 89.980469 C 169.796875 90.472656 172.0625 92.085938 173.878906 94.300781 C 174.152344 94.632812 174.695312 94.476562 174.734375 94.042969 C 175.136719 89.535156 174.726562 80.269531 165.746094 74.734375 C 165.34375 74.488281 164.847656 74.863281 164.976562 75.3125 Z M 164.976562 75.3125 " fill-opacity="1" fill-rule="nonzero"/></g></g></g></g><g clip-path="url(#0851dd1125)"><g clip-path="url(#3d6cd75b8c)"><g clip-path="url(#c050f127de)"><g clip-path="url(#47cc4e2f1a)"><path fill="#000000" d="M 33.695312 79.253906 C 33.609375 79.742188 34.152344 80.09375 34.570312 79.820312 C 36.203125 78.757812 37.292969 77.824219 39.761719 77.449219 C 40.550781 77.332031 42.964844 77.726562 43.855469 77.929688 C 43.996094 77.960938 44.125 77.863281 44.132812 77.71875 C 44.480469 71.628906 46.636719 66.277344 47.984375 63.964844 C 48.316406 63.40625 47.792969 62.726562 47.179688 62.914062 C 37.15625 66.027344 34.425781 74.992188 33.695312 79.253906 Z M 33.695312 79.253906 " fill-opacity="1" fill-rule="nonzero"/></g></g></g></g><g clip-path="url(#f25f20afac)"><g clip-path="url(#e9097cc57d)"><g clip-path="url(#83c980bbd0)"><g clip-path="url(#1b6c4df481)"><path fill="#000000" d="M 296.800781 158.183594 C 291.6875 158.339844 285.820312 160.496094 282.390625 161.550781 C 275.277344 163.738281 268.03125 166.875 263.125 172.6875 C 257.488281 179.367188 253.582031 188.375 253.507812 197.285156 C 253.460938 202.675781 255.085938 208.269531 258.503906 212.496094 C 262.882812 217.910156 272.902344 221.207031 279.738281 218.589844 C 287.34375 215.675781 291.457031 207.441406 294.652344 200.5 C 298.636719 191.84375 303.070312 183.300781 305.328125 173.984375 C 307.171875 166.382812 306.839844 157.867188 296.800781 158.183594 Z M 296.800781 158.183594 " fill-opacity="1" fill-rule="nonzero"/></g></g></g></g><g clip-path="url(#49b7d0fa61)"><g clip-path="url(#637c58c6e5)"><g clip-path="url(#80890d5859)"><g clip-path="url(#ca2e5e3dc1)"><path fill="#000000" d="M 335.359375 175.457031 C 330.09375 171.367188 322.589844 173.921875 318.519531 180.148438 C 314.222656 186.726562 310.054688 193.390625 305.691406 199.921875 C 299.527344 209.148438 288.835938 220.652344 296.089844 232.316406 C 301.789062 241.480469 313.910156 243.859375 323.265625 239.066406 C 334.4375 233.339844 342.105469 220.117188 343.742188 207.980469 C 345.027344 198.460938 343.5625 181.835938 335.359375 175.457031 Z M 335.359375 175.457031 " fill-opacity="1" fill-rule="nonzero"/></g></g></g></g><g clip-path="url(#7c5545c5a2)"><g clip-path="url(#a779c6b710)"><g clip-path="url(#dd0e8edaf1)"><g clip-path="url(#b494eaa8b9)"><path fill="#000000" d="M 349.09375 242.796875 C 348.507812 242.113281 347.855469 241.515625 347.132812 241.039062 C 342.988281 238.296875 337.789062 240.980469 333.945312 242.917969 C 319.492188 250.203125 312.585938 253.546875 307.75 262.097656 C 302.910156 270.644531 293.847656 285.972656 309.566406 298.175781 C 319.902344 306.195312 333.238281 301.824219 341.902344 293.527344 C 352.335938 283.539062 355.890625 267.515625 353.503906 253.539062 C 352.921875 250.132812 351.585938 245.691406 349.09375 242.796875 Z M 349.09375 242.796875 " fill-opacity="1" fill-rule="nonzero"/></g></g></g></g><g clip-path="url(#e6aba96b41)"><g clip-path="url(#54537bdeb8)"><g clip-path="url(#5ec16aa603)"><g clip-path="url(#9acf2ce174)"><path fill="#000000" d="M 237.917969 178.4375 C 230.527344 174.859375 221.398438 181.402344 215.816406 186.984375 C 208.34375 194.457031 199.617188 203.035156 197.207031 213.691406 C 194.410156 226.03125 206.121094 239.765625 218.886719 238.136719 C 230.894531 236.605469 240.15625 227.363281 243.996094 216.070312 C 247.300781 206.339844 248.96875 190.554688 242.175781 181.976562 C 240.859375 180.316406 239.425781 179.167969 237.917969 178.4375 Z M 237.917969 178.4375 " fill-opacity="1" fill-rule="nonzero"/></g></g></g></g><g clip-path="url(#f4a85d3fad)"><g clip-path="url(#e49e953d43)"><g clip-path="url(#0c0896ff73)"><g clip-path="url(#d7bdfb0602)"><path fill="#000000" d="M 278.027344 239.5625 C 268.921875 233.269531 256.699219 231.410156 246.324219 236.589844 C 239.714844 239.890625 232.832031 242.632812 225.789062 244.859375 C 218.363281 247.207031 210.683594 248.292969 203.226562 250.378906 C 190.4375 253.960938 180.632812 267 180.503906 280.203125 C 180.296875 301.320312 199.886719 308.9375 214.566406 312.242188 C 224.300781 314.4375 234.757812 316.484375 241.324219 324.726562 C 247.726562 332.761719 254.886719 339.066406 264.425781 343.25 C 278.207031 349.292969 292.445312 342.800781 298.546875 329.285156 C 302.789062 319.878906 301.945312 309.371094 297.371094 300.25 C 295.132812 295.785156 291.910156 291.8125 290.4375 286.976562 C 287.648438 277.839844 292.480469 269.160156 291.160156 260.046875 C 289.917969 251.464844 284.84375 244.269531 278.027344 239.5625 Z M 278.027344 239.5625 " fill-opacity="1" fill-rule="nonzero"/></g></g></g></g><g clip-path="url(#d6ccefdd55)"><g clip-path="url(#d875e90396)"><g clip-path="url(#941b689ae8)"><g clip-path="url(#524d3aecbb)"><path fill="#000000" d="M 340.640625 177.433594 C 340.570312 177.664062 340.269531 177.710938 340.128906 177.515625 C 338.585938 175.382812 336.785156 173.640625 334.714844 172.476562 C 334.007812 172.082031 333.28125 171.785156 332.546875 171.582031 C 332.378906 171.535156 332.292969 171.351562 332.363281 171.191406 C 334.8125 165.640625 334.953125 160.363281 334.816406 157.703125 C 334.789062 157.054688 335.570312 156.691406 336.027344 157.148438 C 343.277344 164.269531 341.917969 173.148438 340.640625 177.433594 Z M 340.640625 177.433594 " fill-opacity="1" fill-rule="nonzero"/></g></g></g></g><g clip-path="url(#97e5280725)"><g clip-path="url(#5ad5ed483a)"><g clip-path="url(#9257a08b75)"><g clip-path="url(#b7e1a05494)"><path fill="#000000" d="M 311.882812 146.96875 C 309.882812 148.632812 306.167969 152.238281 303.738281 157.671875 C 303.621094 157.929688 303.316406 158.027344 303.070312 157.886719 C 301.699219 157.121094 299.882812 156.710938 297.539062 156.785156 C 296.277344 156.824219 294.972656 156.984375 293.667969 157.21875 C 293.269531 157.289062 292.96875 156.875 293.167969 156.523438 C 295.300781 152.78125 300.9375 145.207031 311.484375 145.726562 C 312.113281 145.761719 312.367188 146.554688 311.882812 146.96875 Z M 311.882812 146.96875 " fill-opacity="1" fill-rule="nonzero"/></g></g></g></g><g clip-path="url(#0979b1e7d1)"><g clip-path="url(#ac44cb2114)"><g clip-path="url(#a78e40373a)"><g clip-path="url(#1b8a9b2316)"><path fill="#000000" d="M 249.148438 165.757812 C 247.253906 167.269531 243.207031 171 240.621094 176.808594 C 240.5 177.078125 240.171875 177.179688 239.921875 177.023438 C 239.597656 176.824219 239.277344 176.644531 238.945312 176.484375 C 236.378906 175.242188 233.597656 175.226562 230.832031 175.964844 C 230.414062 176.074219 230.066406 175.628906 230.289062 175.257812 C 232.59375 171.363281 238.339844 164.082031 248.863281 164.835938 C 249.332031 164.871094 249.515625 165.464844 249.148438 165.757812 Z M 249.148438 165.757812 " fill-opacity="1" fill-rule="nonzero"/></g></g></g></g><g clip-path="url(#d75b526227)"><g clip-path="url(#4f9cb34719)"><g clip-path="url(#f34a8eb2bd)"><g clip-path="url(#0bdc748f68)"><path fill="#000000" d="M 353.394531 245.65625 C 353.175781 246.101562 352.53125 246.066406 352.351562 245.605469 C 351.648438 243.785156 351.3125 242.390625 349.527344 240.648438 C 348.953125 240.089844 346.761719 239 345.917969 238.644531 C 345.789062 238.589844 345.742188 238.433594 345.820312 238.3125 C 349.09375 233.164062 350.46875 227.5625 350.726562 224.898438 C 350.785156 224.25 351.605469 224.003906 351.996094 224.515625 C 358.3125 232.898438 355.289062 241.769531 353.394531 245.65625 Z M 353.394531 245.65625 " fill-opacity="1" fill-rule="nonzero"/></g></g></g></g></g></g></g></g></svg>