<svg xmlns="http://www.w3.org/2000/svg" xmlns:xlink="http://www.w3.org/1999/xlink" width="512" zoomAndPan="magnify" viewBox="0 0 384 599.999999" height="800" preserveAspectRatio="xMidYMid meet" version="1.0"><defs><g/><clipPath id="27000c9398"><path d="M 57.484375 129.152344 L 326.578125 129.152344 L 326.578125 511.652344 L 57.484375 511.652344 Z M 57.484375 129.152344 " clip-rule="nonzero"/></clipPath><clipPath id="03b2329575"><path d="M 101.488281 187.910156 L 282 187.910156 L 282 366.390625 L 101.488281 366.390625 Z M 101.488281 187.910156 " clip-rule="nonzero"/></clipPath></defs><g clip-path="url(#27000c9398)"><path stroke-linecap="butt" transform="matrix(0.849214, 0, 0, 0.849811, 57.565263, 129.152417)" fill="none" stroke-linejoin="miter" d="M 314.00038 447.608546 L 2.462262 447.608546 L 2.462262 154.101245 C 2.462262 151.619076 2.52206 149.136907 2.641656 146.659334 C 2.765852 144.181762 2.945246 141.704189 3.189037 139.23581 C 3.432829 136.767431 3.736419 134.303648 4.099806 131.849059 C 4.463194 129.394469 4.890979 126.949073 5.373963 124.517466 C 5.856946 122.081264 6.399727 119.663447 7.002307 117.254824 C 7.609486 114.8462 8.267263 112.455963 8.989439 110.079516 C 9.711614 107.707666 10.488987 105.349605 11.326158 103.014528 C 12.15873 100.67945 13.051099 98.362759 14.003267 96.069051 C 14.950834 93.775343 15.9582 91.509214 17.020763 89.266069 C 18.078727 87.022923 19.196489 84.807358 20.364849 82.619372 C 21.533208 80.426789 22.756767 78.270979 24.035523 76.142749 C 25.309679 74.014519 26.639033 71.918465 28.014386 69.854587 C 29.394339 67.79071 30.82489 65.763605 32.301439 63.768676 C 33.777989 61.773748 35.305136 59.820189 36.882882 57.898806 C 38.456028 55.98202 40.075173 54.102007 41.740316 52.263363 C 43.410058 50.424719 45.1212 48.627445 46.87374 46.876137 C 48.630879 45.120232 50.424818 43.410293 52.264755 41.741724 C 54.104692 40.077751 55.981427 38.455148 57.899562 36.878511 C 59.817696 35.306471 61.772629 33.780397 63.76896 32.300288 C 65.760692 30.824777 67.789222 29.395231 69.854552 28.016248 C 71.915281 26.637266 74.012809 25.308845 76.142536 24.035585 C 78.272263 22.757727 80.429589 21.535029 82.619114 20.36749 C 84.804039 19.195355 87.021163 18.078379 89.265886 17.021159 C 91.510609 15.959342 93.778331 14.952684 96.069053 14.001186 C 98.364374 13.054285 100.678095 12.162542 103.014815 11.32596 C 105.351535 10.489377 107.706654 9.707953 110.080172 8.990882 C 112.458291 8.269214 114.845609 7.607303 117.255926 7.005147 C 119.661644 6.402991 122.081161 5.855994 124.514477 5.37335 C 126.952394 4.890706 129.39491 4.463222 131.851226 4.10009 C 134.302942 3.736957 136.768457 3.433581 139.238573 3.189961 C 141.708688 2.946341 144.178803 2.762476 146.658118 2.642964 C 149.137433 2.518856 151.616748 2.4591 154.100663 2.4591 L 162.311381 2.4591 C 164.790696 2.4591 167.274611 2.518856 169.753926 2.638368 C 172.233241 2.762476 174.707956 2.941744 177.178072 3.185364 C 179.648187 3.428985 182.109103 3.732361 184.565418 4.095493 C 187.021734 4.458625 189.46425 4.881513 191.902167 5.364157 C 194.335483 5.846801 196.755 6.393798 199.165318 6.995953 C 201.571035 7.598109 203.962953 8.260021 206.341072 8.977092 C 208.71459 9.69876 211.06971 10.475587 213.411029 11.31217 C 215.747749 12.148753 218.06147 13.040495 220.356791 13.987396 C 222.647513 14.938895 224.919835 15.940955 227.159958 17.002772 C 229.404681 18.064589 231.621805 19.181565 233.81133 20.349104 C 236.000855 21.516643 238.162781 22.739341 240.292508 24.017198 C 242.417635 25.295056 244.515163 26.618879 246.580492 27.997862 C 248.645821 29.376845 250.674352 30.80639 252.666083 32.281902 C 254.662415 33.76201 256.617348 35.288084 258.535482 36.864721 C 260.458216 38.436762 262.334952 40.059365 264.174889 41.723338 C 266.014826 43.391907 267.813364 45.101846 269.565904 46.85775 C 271.323044 48.613655 273.034185 50.406333 274.703928 52.249573 C 276.369071 54.088217 277.988215 55.963634 279.565961 57.885016 C 281.139107 59.801802 282.666255 61.759958 284.147404 63.75029 C 285.623953 65.745218 287.054504 67.772323 288.434457 69.836201 C 289.81441 71.900078 291.139164 73.996132 292.41792 76.128959 C 293.692077 78.257189 294.915635 80.412999 296.088594 82.605582 C 297.256954 84.793568 298.374716 87.009134 299.43268 89.252279 C 300.495243 91.495424 301.502609 93.766149 302.450176 96.059858 C 303.402344 98.353566 304.294713 100.66566 305.131884 103.005334 C 305.969056 105.340412 306.746429 107.698473 307.468604 110.070323 C 308.18618 112.44677 308.848557 114.837007 309.455736 117.24563 C 310.058315 119.654254 310.601097 122.076667 311.08408 124.508273 C 311.571664 126.944476 311.994849 129.389872 312.358237 131.844462 C 312.721624 134.299051 313.025214 136.762834 313.269005 139.23581 C 313.512797 141.704189 313.696791 144.177165 313.816387 146.659334 C 313.940582 149.136907 314.00038 151.619076 314.00038 154.101245 Z M 314.00038 447.608546 " stroke="#231f20" stroke-width="4.92" stroke-opacity="1" stroke-miterlimit="10"/></g><g fill="#000000" fill-opacity="1"><g transform="translate(79.724997, 450.073585)"><g><path d="M 21.8125 -28.5625 L 21.8125 -23.828125 L 9.359375 -23.828125 L 9.359375 -16.265625 L 20.671875 -16.265625 L 20.671875 -11.609375 L 9.359375 -11.609375 L 9.359375 0 L 3.71875 0 L 3.71875 -28.5625 Z M 21.8125 -28.5625 "/></g></g></g><g fill="#000000" fill-opacity="1"><g transform="translate(102.203252, 450.073585)"><g><path d="M 12.515625 0.40625 C 10.410156 0.40625 8.5625 -0.0234375 6.96875 -0.890625 C 5.375 -1.753906 4.132812 -3.019531 3.25 -4.6875 C 2.375 -6.363281 1.9375 -8.390625 1.9375 -10.765625 C 1.9375 -13.128906 2.375 -15.148438 3.25 -16.828125 C 4.132812 -18.515625 5.375 -19.789062 6.96875 -20.65625 C 8.5625 -21.519531 10.410156 -21.953125 12.515625 -21.953125 C 14.628906 -21.953125 16.484375 -21.519531 18.078125 -20.65625 C 19.671875 -19.789062 20.910156 -18.515625 21.796875 -16.828125 C 22.679688 -15.148438 23.125 -13.128906 23.125 -10.765625 C 23.125 -8.390625 22.679688 -6.363281 21.796875 -4.6875 C 20.910156 -3.019531 19.671875 -1.753906 18.078125 -0.890625 C 16.484375 -0.0234375 14.628906 0.40625 12.515625 0.40625 Z M 12.515625 -4.1875 C 15.867188 -4.1875 17.546875 -6.378906 17.546875 -10.765625 C 17.546875 -13.046875 17.113281 -14.710938 16.25 -15.765625 C 15.394531 -16.828125 14.148438 -17.359375 12.515625 -17.359375 C 9.171875 -17.359375 7.5 -15.160156 7.5 -10.765625 C 7.5 -6.378906 9.171875 -4.1875 12.515625 -4.1875 Z M 12.515625 -4.1875 "/></g></g></g><g fill="#000000" fill-opacity="1"><g transform="translate(127.239868, 450.073585)"><g><path d="M 9.859375 0.40625 C 7.441406 0.40625 5.65625 -0.253906 4.5 -1.578125 C 3.351562 -2.898438 2.78125 -4.796875 2.78125 -7.265625 L 2.78125 -21.546875 L 8.1875 -21.546875 L 8.1875 -7.953125 C 8.1875 -6.640625 8.46875 -5.675781 9.03125 -5.0625 C 9.601562 -4.457031 10.476562 -4.15625 11.65625 -4.15625 C 13.15625 -4.15625 14.320312 -4.644531 15.15625 -5.625 C 15.988281 -6.613281 16.40625 -8.164062 16.40625 -10.28125 L 16.40625 -21.546875 L 21.8125 -21.546875 L 21.8125 0 L 16.625 0 L 16.625 -3.171875 L 16.21875 -3.265625 C 15.519531 -2.023438 14.671875 -1.101562 13.671875 -0.5 C 12.679688 0.101562 11.410156 0.40625 9.859375 0.40625 Z M 9.859375 0.40625 "/></g></g></g><g fill="#000000" fill-opacity="1"><g transform="translate(152.159308, 450.073585)"><g><path d="M 3.109375 0 L 3.109375 -21.546875 L 8.296875 -21.546875 L 8.296875 -18.375 L 8.71875 -18.28125 C 10.050781 -20.726562 12.222656 -21.953125 15.234375 -21.953125 C 17.722656 -21.953125 19.550781 -21.273438 20.71875 -19.921875 C 21.882812 -18.566406 22.46875 -16.59375 22.46875 -14 L 22.46875 0 L 17.046875 0 L 17.046875 -13.34375 C 17.046875 -14.769531 16.757812 -15.800781 16.1875 -16.4375 C 15.613281 -17.070312 14.695312 -17.390625 13.4375 -17.390625 C 11.882812 -17.390625 10.675781 -16.882812 9.8125 -15.875 C 8.945312 -14.875 8.515625 -13.300781 8.515625 -11.15625 L 8.515625 0 Z M 3.109375 0 "/></g></g></g><g fill="#000000" fill-opacity="1"><g transform="translate(177.391218, 450.073585)"><g><path d="M 10.640625 0.40625 C 8.941406 0.40625 7.4375 -0.00390625 6.125 -0.828125 C 4.8125 -1.660156 3.785156 -2.910156 3.046875 -4.578125 C 2.304688 -6.253906 1.9375 -8.316406 1.9375 -10.765625 C 1.9375 -13.222656 2.316406 -15.285156 3.078125 -16.953125 C 3.835938 -18.628906 4.890625 -19.878906 6.234375 -20.703125 C 7.585938 -21.535156 9.148438 -21.953125 10.921875 -21.953125 C 12.265625 -21.953125 13.425781 -21.71875 14.40625 -21.25 C 15.382812 -20.789062 16.210938 -20.078125 16.890625 -19.109375 L 17.3125 -19.203125 L 17.3125 -30.203125 L 22.71875 -30.203125 L 22.71875 0 L 17.3125 0 L 17.3125 -2.796875 L 16.890625 -2.875 C 16.296875 -1.851562 15.476562 -1.050781 14.4375 -0.46875 C 13.394531 0.113281 12.128906 0.40625 10.640625 0.40625 Z M 12.40625 -4.1875 C 13.925781 -4.1875 15.128906 -4.726562 16.015625 -5.8125 C 16.898438 -6.894531 17.34375 -8.546875 17.34375 -10.765625 C 17.34375 -12.972656 16.898438 -14.625 16.015625 -15.71875 C 15.128906 -16.8125 13.925781 -17.359375 12.40625 -17.359375 C 10.8125 -17.359375 9.59375 -16.828125 8.75 -15.765625 C 7.914062 -14.710938 7.5 -13.046875 7.5 -10.765625 C 7.5 -8.492188 7.914062 -6.828125 8.75 -5.765625 C 9.59375 -4.710938 10.8125 -4.1875 12.40625 -4.1875 Z M 12.40625 -4.1875 "/></g></g></g><g fill="#000000" fill-opacity="1"><g transform="translate(203.209008, 450.073585)"><g><path d="M 8.40625 0.40625 C 7.019531 0.40625 5.816406 0.15625 4.796875 -0.34375 C 3.785156 -0.851562 3.003906 -1.597656 2.453125 -2.578125 C 1.910156 -3.566406 1.640625 -4.753906 1.640625 -6.140625 C 1.640625 -7.410156 1.910156 -8.476562 2.453125 -9.34375 C 3.003906 -10.207031 3.851562 -10.914062 5 -11.46875 C 6.144531 -12.03125 7.644531 -12.457031 9.5 -12.75 C 10.78125 -12.957031 11.753906 -13.1875 12.421875 -13.4375 C 13.097656 -13.6875 13.550781 -13.96875 13.78125 -14.28125 C 14.019531 -14.59375 14.140625 -14.988281 14.140625 -15.46875 C 14.140625 -16.15625 13.898438 -16.679688 13.421875 -17.046875 C 12.941406 -17.410156 12.140625 -17.59375 11.015625 -17.59375 C 9.816406 -17.59375 8.675781 -17.328125 7.59375 -16.796875 C 6.519531 -16.265625 5.582031 -15.5625 4.78125 -14.6875 L 4.390625 -14.6875 L 2.125 -18.109375 C 3.21875 -19.316406 4.550781 -20.257812 6.125 -20.9375 C 7.707031 -21.613281 9.429688 -21.953125 11.296875 -21.953125 C 14.140625 -21.953125 16.195312 -21.347656 17.46875 -20.140625 C 18.75 -18.929688 19.390625 -17.210938 19.390625 -14.984375 L 19.390625 -5.625 C 19.390625 -4.664062 19.816406 -4.1875 20.671875 -4.1875 C 20.992188 -4.1875 21.3125 -4.242188 21.625 -4.359375 L 21.890625 -4.28125 L 22.28125 -0.515625 C 21.988281 -0.316406 21.570312 -0.15625 21.03125 -0.03125 C 20.5 0.09375 19.914062 0.15625 19.28125 0.15625 C 17.988281 0.15625 16.976562 -0.0859375 16.25 -0.578125 C 15.53125 -1.078125 15.015625 -1.851562 14.703125 -2.90625 L 14.296875 -2.953125 C 13.242188 -0.710938 11.28125 0.40625 8.40625 0.40625 Z M 10.125 -3.640625 C 11.375 -3.640625 12.367188 -4.054688 13.109375 -4.890625 C 13.859375 -5.734375 14.234375 -6.90625 14.234375 -8.40625 L 14.234375 -10.59375 L 13.875 -10.671875 C 13.539062 -10.410156 13.109375 -10.191406 12.578125 -10.015625 C 12.054688 -9.835938 11.300781 -9.664062 10.3125 -9.5 C 9.144531 -9.300781 8.300781 -8.960938 7.78125 -8.484375 C 7.269531 -8.015625 7.015625 -7.34375 7.015625 -6.46875 C 7.015625 -5.539062 7.285156 -4.835938 7.828125 -4.359375 C 8.378906 -3.878906 9.144531 -3.640625 10.125 -3.640625 Z M 10.125 -3.640625 "/></g></g></g><g fill="#000000" fill-opacity="1"><g transform="translate(225.667751, 450.073585)"><g><path d="M 14.859375 -5.140625 L 16.265625 -1.140625 C 15.679688 -0.648438 14.945312 -0.269531 14.0625 0 C 13.175781 0.269531 12.175781 0.40625 11.0625 0.40625 C 8.726562 0.40625 6.953125 -0.226562 5.734375 -1.5 C 4.523438 -2.769531 3.921875 -4.613281 3.921875 -7.03125 L 3.921875 -17.265625 L 0.640625 -17.265625 L 0.640625 -21.5625 L 3.921875 -21.5625 L 3.921875 -25.765625 L 9.34375 -26.640625 L 9.34375 -21.5625 L 15.453125 -21.5625 L 15.453125 -17.265625 L 9.34375 -17.265625 L 9.34375 -7.421875 C 9.34375 -6.359375 9.5625 -5.582031 10 -5.09375 C 10.445312 -4.601562 11.09375 -4.359375 11.9375 -4.359375 C 12.894531 -4.359375 13.734375 -4.617188 14.453125 -5.140625 Z M 14.859375 -5.140625 "/></g></g></g><g fill="#000000" fill-opacity="1"><g transform="translate(242.404402, 450.073585)"><g><path d="M 5.796875 -24.125 C 4.828125 -24.125 4.035156 -24.421875 3.421875 -25.015625 C 2.804688 -25.609375 2.5 -26.375 2.5 -27.3125 C 2.5 -28.226562 2.804688 -28.984375 3.421875 -29.578125 C 4.035156 -30.171875 4.828125 -30.46875 5.796875 -30.46875 C 6.453125 -30.46875 7.03125 -30.332031 7.53125 -30.0625 C 8.039062 -29.789062 8.4375 -29.414062 8.71875 -28.9375 C 9 -28.457031 9.140625 -27.914062 9.140625 -27.3125 C 9.140625 -26.695312 9 -26.144531 8.71875 -25.65625 C 8.4375 -25.175781 8.039062 -24.800781 7.53125 -24.53125 C 7.03125 -24.257812 6.453125 -24.125 5.796875 -24.125 Z M 3.109375 0 L 3.109375 -21.546875 L 8.515625 -21.546875 L 8.515625 0 Z M 3.109375 0 "/></g></g></g><g fill="#000000" fill-opacity="1"><g transform="translate(254.004831, 450.073585)"><g><path d="M 12.515625 0.40625 C 10.410156 0.40625 8.5625 -0.0234375 6.96875 -0.890625 C 5.375 -1.753906 4.132812 -3.019531 3.25 -4.6875 C 2.375 -6.363281 1.9375 -8.390625 1.9375 -10.765625 C 1.9375 -13.128906 2.375 -15.148438 3.25 -16.828125 C 4.132812 -18.515625 5.375 -19.789062 6.96875 -20.65625 C 8.5625 -21.519531 10.410156 -21.953125 12.515625 -21.953125 C 14.628906 -21.953125 16.484375 -21.519531 18.078125 -20.65625 C 19.671875 -19.789062 20.910156 -18.515625 21.796875 -16.828125 C 22.679688 -15.148438 23.125 -13.128906 23.125 -10.765625 C 23.125 -8.390625 22.679688 -6.363281 21.796875 -4.6875 C 20.910156 -3.019531 19.671875 -1.753906 18.078125 -0.890625 C 16.484375 -0.0234375 14.628906 0.40625 12.515625 0.40625 Z M 12.515625 -4.1875 C 15.867188 -4.1875 17.546875 -6.378906 17.546875 -10.765625 C 17.546875 -13.046875 17.113281 -14.710938 16.25 -15.765625 C 15.394531 -16.828125 14.148438 -17.359375 12.515625 -17.359375 C 9.171875 -17.359375 7.5 -15.160156 7.5 -10.765625 C 7.5 -6.378906 9.171875 -4.1875 12.515625 -4.1875 Z M 12.515625 -4.1875 "/></g></g></g><g fill="#000000" fill-opacity="1"><g transform="translate(279.041447, 450.073585)"><g><path d="M 3.109375 0 L 3.109375 -21.546875 L 8.296875 -21.546875 L 8.296875 -18.375 L 8.71875 -18.28125 C 10.050781 -20.726562 12.222656 -21.953125 15.234375 -21.953125 C 17.722656 -21.953125 19.550781 -21.273438 20.71875 -19.921875 C 21.882812 -18.566406 22.46875 -16.59375 22.46875 -14 L 22.46875 0 L 17.046875 0 L 17.046875 -13.34375 C 17.046875 -14.769531 16.757812 -15.800781 16.1875 -16.4375 C 15.613281 -17.070312 14.695312 -17.390625 13.4375 -17.390625 C 11.882812 -17.390625 10.675781 -16.882812 9.8125 -15.875 C 8.945312 -14.875 8.515625 -13.300781 8.515625 -11.15625 L 8.515625 0 Z M 3.109375 0 "/></g></g></g><g clip-path="url(#03b2329575)"><path fill="#000000" d="M 269.214844 347.363281 L 269.214844 333.996094 L 255.851562 333.996094 L 255.851562 248.597656 L 269.214844 248.597656 L 269.214844 229.570312 L 258.34375 229.570312 L 191.976562 187.890625 L 125.605469 229.570312 L 114.734375 229.570312 L 114.734375 248.597656 L 128.097656 248.597656 L 128.097656 333.996094 L 114.734375 333.996094 L 114.734375 347.363281 L 101.824219 347.363281 L 101.824219 366.390625 L 281.898438 366.390625 L 281.898438 347.363281 Z M 250.1875 333.769531 L 236.144531 333.769531 L 236.144531 248.597656 L 250.1875 248.597656 Z M 178.382812 333.769531 L 153.46875 333.769531 L 153.46875 248.597656 L 178.382812 248.597656 Z M 184.046875 248.597656 L 198.089844 248.597656 L 198.089844 333.996094 L 184.046875 333.996094 Z M 203.527344 248.597656 L 230.480469 248.597656 L 230.480469 333.996094 L 203.527344 333.996094 Z M 191.976562 194.457031 L 247.695312 229.34375 L 136.253906 229.34375 Z M 120.398438 242.933594 L 120.398438 235.234375 L 263.554688 235.234375 L 263.554688 242.933594 Z M 133.761719 248.597656 L 147.804688 248.597656 L 147.804688 333.996094 L 133.761719 333.996094 Z M 120.398438 339.433594 L 263.78125 339.433594 L 263.78125 347.136719 L 120.398438 347.136719 Z M 276.238281 360.726562 L 107.710938 360.726562 L 107.710938 353.023438 L 276.691406 353.023438 L 276.691406 360.726562 Z M 276.238281 360.726562 " fill-opacity="1" fill-rule="nonzero"/></g></svg>