<svg xmlns="http://www.w3.org/2000/svg" xmlns:xlink="http://www.w3.org/1999/xlink" width="512" zoomAndPan="magnify" viewBox="0 0 384 599.999999" height="800" preserveAspectRatio="xMidYMid meet" version="1.0"><defs><g/><clipPath id="566b28b070"><path d="M 57.484375 129.152344 L 326.578125 129.152344 L 326.578125 511.652344 L 57.484375 511.652344 Z M 57.484375 129.152344 " clip-rule="nonzero"/></clipPath><clipPath id="299e51bb30"><rect x="0" width="247" y="0" height="51"/></clipPath><clipPath id="b59c2f2a30"><path d="M 102.117188 187.910156 L 283.617188 187.910156 L 283.617188 369.410156 L 102.117188 369.410156 Z M 102.117188 187.910156 " clip-rule="nonzero"/></clipPath></defs><g clip-path="url(#566b28b070)"><path stroke-linecap="butt" transform="matrix(0.849214, 0, 0, 0.849811, 57.565263, 129.152417)" fill="none" stroke-linejoin="miter" d="M 314.00038 447.608546 L 2.462262 447.608546 L 2.462262 154.101245 C 2.462262 151.619076 2.52206 149.136907 2.641656 146.659334 C 2.765852 144.181762 2.945246 141.704189 3.189037 139.23581 C 3.432829 136.767431 3.736419 134.303648 4.099806 131.849059 C 4.463194 129.394469 4.890979 126.949073 5.373963 124.517466 C 5.856946 122.081264 6.399727 119.663447 7.002307 117.254824 C 7.609486 114.8462 8.267263 112.455963 8.989439 110.079516 C 9.711614 107.707666 10.488987 105.349605 11.326158 103.014528 C 12.15873 100.67945 13.051099 98.362759 14.003267 96.069051 C 14.950834 93.775343 15.9582 91.509214 17.020763 89.266069 C 18.078727 87.022923 19.196489 84.807358 20.364849 82.619372 C 21.533208 80.426789 22.756767 78.270979 24.035523 76.142749 C 25.309679 74.014519 26.639033 71.918465 28.014386 69.854587 C 29.394339 67.79071 30.82489 65.763605 32.301439 63.768676 C 33.777989 61.773748 35.305136 59.820189 36.882882 57.898806 C 38.456028 55.98202 40.075173 54.102007 41.740316 52.263363 C 43.410058 50.424719 45.1212 48.627445 46.87374 46.876137 C 48.630879 45.120232 50.424818 43.410293 52.264755 41.741724 C 54.104692 40.077751 55.981427 38.455148 57.899562 36.878511 C 59.817696 35.306471 61.772629 33.780397 63.76896 32.300288 C 65.760692 30.824777 67.789222 29.395231 69.854552 28.016248 C 71.915281 26.637266 74.012809 25.308845 76.142536 24.035585 C 78.272263 22.757727 80.429589 21.535029 82.619114 20.36749 C 84.804039 19.195355 87.021163 18.078379 89.265886 17.021159 C 91.510609 15.959342 93.778331 14.952684 96.069053 14.001186 C 98.364374 13.054285 100.678095 12.162542 103.014815 11.32596 C 105.351535 10.489377 107.706654 9.707953 110.080172 8.990882 C 112.458291 8.269214 114.845609 7.607303 117.255926 7.005147 C 119.661644 6.402991 122.081161 5.855994 124.514477 5.37335 C 126.952394 4.890706 129.39491 4.463222 131.851226 4.10009 C 134.302942 3.736957 136.768457 3.433581 139.238573 3.189961 C 141.708688 2.946341 144.178803 2.762476 146.658118 2.642964 C 149.137433 2.518856 151.616748 2.4591 154.100663 2.4591 L 162.311381 2.4591 C 164.790696 2.4591 167.274611 2.518856 169.753926 2.638368 C 172.233241 2.762476 174.707956 2.941744 177.178072 3.185364 C 179.648187 3.428985 182.109103 3.732361 184.565418 4.095493 C 187.021734 4.458625 189.46425 4.881513 191.902167 5.364157 C 194.335483 5.846801 196.755 6.393798 199.165318 6.995953 C 201.571035 7.598109 203.962953 8.260021 206.341072 8.977092 C 208.71459 9.69876 211.06971 10.475587 213.411029 11.31217 C 215.747749 12.148753 218.06147 13.040495 220.356791 13.987396 C 222.647513 14.938895 224.919835 15.940955 227.159958 17.002772 C 229.404681 18.064589 231.621805 19.181565 233.81133 20.349104 C 236.000855 21.516643 238.162781 22.739341 240.292508 24.017198 C 242.417635 25.295056 244.515163 26.618879 246.580492 27.997862 C 248.645821 29.376845 250.674352 30.80639 252.666083 32.281902 C 254.662415 33.76201 256.617348 35.288084 258.535482 36.864721 C 260.458216 38.436762 262.334952 40.059365 264.174889 41.723338 C 266.014826 43.391907 267.813364 45.101846 269.565904 46.85775 C 271.323044 48.613655 273.034185 50.406333 274.703928 52.249573 C 276.369071 54.088217 277.988215 55.963634 279.565961 57.885016 C 281.139107 59.801802 282.666255 61.759958 284.147404 63.75029 C 285.623953 65.745218 287.054504 67.772323 288.434457 69.836201 C 289.81441 71.900078 291.139164 73.996132 292.41792 76.128959 C 293.692077 78.257189 294.915635 80.412999 296.088594 82.605582 C 297.256954 84.793568 298.374716 87.009134 299.43268 89.252279 C 300.495243 91.495424 301.502609 93.766149 302.450176 96.059858 C 303.402344 98.353566 304.294713 100.66566 305.131884 103.005334 C 305.969056 105.340412 306.746429 107.698473 307.468604 110.070323 C 308.18618 112.44677 308.848557 114.837007 309.455736 117.24563 C 310.058315 119.654254 310.601097 122.076667 311.08408 124.508273 C 311.571664 126.944476 311.994849 129.389872 312.358237 131.844462 C 312.721624 134.299051 313.025214 136.762834 313.269005 139.23581 C 313.512797 141.704189 313.696791 144.177165 313.816387 146.659334 C 313.940582 149.136907 314.00038 151.619076 314.00038 154.101245 Z M 314.00038 447.608546 " stroke="#231f20" stroke-width="4.92" stroke-opacity="1" stroke-miterlimit="10"/></g><g fill="#000000" fill-opacity="1"><g transform="translate(89.390622, 433.264425)"><g><path d="M 9.359375 -28.5625 L 9.359375 -4.734375 L 22.1875 -4.734375 L 22.1875 0 L 3.71875 0 L 3.71875 -28.5625 Z M 9.359375 -28.5625 "/></g></g></g><g fill="#000000" fill-opacity="1"><g transform="translate(112.513362, 433.264425)"><g><path d="M 21.296875 -9.546875 L 7.4375 -9.546875 C 7.59375 -7.671875 8.125 -6.304688 9.03125 -5.453125 C 9.945312 -4.609375 11.195312 -4.1875 12.78125 -4.1875 C 14.007812 -4.1875 15.007812 -4.414062 15.78125 -4.875 C 16.550781 -5.332031 17.171875 -6.03125 17.640625 -6.96875 L 18.046875 -6.96875 L 21.640625 -4.671875 C 20.941406 -3.160156 19.878906 -1.9375 18.453125 -1 C 17.035156 -0.0625 15.144531 0.40625 12.78125 0.40625 C 10.550781 0.40625 8.625 -0.015625 7 -0.859375 C 5.382812 -1.703125 4.132812 -2.960938 3.25 -4.640625 C 2.375 -6.316406 1.9375 -8.359375 1.9375 -10.765625 C 1.9375 -13.210938 2.394531 -15.273438 3.3125 -16.953125 C 4.238281 -18.628906 5.488281 -19.878906 7.0625 -20.703125 C 8.644531 -21.535156 10.421875 -21.953125 12.390625 -21.953125 C 15.429688 -21.953125 17.757812 -21.144531 19.375 -19.53125 C 21 -17.914062 21.8125 -15.546875 21.8125 -12.421875 C 21.8125 -11.285156 21.773438 -10.40625 21.703125 -9.78125 Z M 16.640625 -13.046875 C 16.585938 -14.691406 16.207031 -15.882812 15.5 -16.625 C 14.789062 -17.375 13.753906 -17.75 12.390625 -17.75 C 9.648438 -17.75 8.039062 -16.179688 7.5625 -13.046875 Z M 16.640625 -13.046875 "/></g></g></g><g fill="#000000" fill-opacity="1"><g transform="translate(135.929049, 433.264425)"><g><path d="M 8.40625 0.40625 C 7.019531 0.40625 5.816406 0.15625 4.796875 -0.34375 C 3.785156 -0.851562 3.003906 -1.597656 2.453125 -2.578125 C 1.910156 -3.566406 1.640625 -4.753906 1.640625 -6.140625 C 1.640625 -7.410156 1.910156 -8.476562 2.453125 -9.34375 C 3.003906 -10.207031 3.851562 -10.914062 5 -11.46875 C 6.144531 -12.03125 7.644531 -12.457031 9.5 -12.75 C 10.78125 -12.957031 11.753906 -13.1875 12.421875 -13.4375 C 13.097656 -13.6875 13.550781 -13.96875 13.78125 -14.28125 C 14.019531 -14.59375 14.140625 -14.988281 14.140625 -15.46875 C 14.140625 -16.15625 13.898438 -16.679688 13.421875 -17.046875 C 12.941406 -17.410156 12.140625 -17.59375 11.015625 -17.59375 C 9.816406 -17.59375 8.675781 -17.328125 7.59375 -16.796875 C 6.519531 -16.265625 5.582031 -15.5625 4.78125 -14.6875 L 4.390625 -14.6875 L 2.125 -18.109375 C 3.21875 -19.316406 4.550781 -20.257812 6.125 -20.9375 C 7.707031 -21.613281 9.429688 -21.953125 11.296875 -21.953125 C 14.140625 -21.953125 16.195312 -21.347656 17.46875 -20.140625 C 18.75 -18.929688 19.390625 -17.210938 19.390625 -14.984375 L 19.390625 -5.625 C 19.390625 -4.664062 19.816406 -4.1875 20.671875 -4.1875 C 20.992188 -4.1875 21.3125 -4.242188 21.625 -4.359375 L 21.890625 -4.28125 L 22.28125 -0.515625 C 21.988281 -0.316406 21.570312 -0.15625 21.03125 -0.03125 C 20.5 0.09375 19.914062 0.15625 19.28125 0.15625 C 17.988281 0.15625 16.976562 -0.0859375 16.25 -0.578125 C 15.53125 -1.078125 15.015625 -1.851562 14.703125 -2.90625 L 14.296875 -2.953125 C 13.242188 -0.710938 11.28125 0.40625 8.40625 0.40625 Z M 10.125 -3.640625 C 11.375 -3.640625 12.367188 -4.054688 13.109375 -4.890625 C 13.859375 -5.734375 14.234375 -6.90625 14.234375 -8.40625 L 14.234375 -10.59375 L 13.875 -10.671875 C 13.539062 -10.410156 13.109375 -10.191406 12.578125 -10.015625 C 12.054688 -9.835938 11.300781 -9.664062 10.3125 -9.5 C 9.144531 -9.300781 8.300781 -8.960938 7.78125 -8.484375 C 7.269531 -8.015625 7.015625 -7.34375 7.015625 -6.46875 C 7.015625 -5.539062 7.285156 -4.835938 7.828125 -4.359375 C 8.378906 -3.878906 9.144531 -3.640625 10.125 -3.640625 Z M 10.125 -3.640625 "/></g></g></g><g fill="#000000" fill-opacity="1"><g transform="translate(158.641679, 433.264425)"><g><path d="M 3.109375 0 L 3.109375 -21.546875 L 8.359375 -21.546875 L 8.359375 -18.34375 L 8.765625 -18.265625 C 9.285156 -19.460938 9.96875 -20.335938 10.8125 -20.890625 C 11.664062 -21.453125 12.695312 -21.734375 13.90625 -21.734375 C 15.132812 -21.734375 16.066406 -21.523438 16.703125 -21.109375 L 15.78125 -16.453125 L 15.375 -16.375 C 15.019531 -16.507812 14.679688 -16.609375 14.359375 -16.671875 C 14.035156 -16.742188 13.640625 -16.78125 13.171875 -16.78125 C 11.660156 -16.78125 10.503906 -16.25 9.703125 -15.1875 C 8.910156 -14.125 8.515625 -12.421875 8.515625 -10.078125 L 8.515625 0 Z M 3.109375 0 "/></g></g></g><g fill="#000000" fill-opacity="1"><g transform="translate(175.534565, 433.264425)"><g><path d="M 3.109375 0 L 3.109375 -21.546875 L 8.296875 -21.546875 L 8.296875 -18.375 L 8.71875 -18.28125 C 10.050781 -20.726562 12.222656 -21.953125 15.234375 -21.953125 C 17.722656 -21.953125 19.550781 -21.273438 20.71875 -19.921875 C 21.882812 -18.566406 22.46875 -16.59375 22.46875 -14 L 22.46875 0 L 17.046875 0 L 17.046875 -13.34375 C 17.046875 -14.769531 16.757812 -15.800781 16.1875 -16.4375 C 15.613281 -17.070312 14.695312 -17.390625 13.4375 -17.390625 C 11.882812 -17.390625 10.675781 -16.882812 9.8125 -15.875 C 8.945312 -14.875 8.515625 -13.300781 8.515625 -11.15625 L 8.515625 0 Z M 3.109375 0 "/></g></g></g><g fill="#000000" fill-opacity="1"><g transform="translate(200.766475, 433.264425)"><g><path d="M 5.796875 -24.125 C 4.828125 -24.125 4.035156 -24.421875 3.421875 -25.015625 C 2.804688 -25.609375 2.5 -26.375 2.5 -27.3125 C 2.5 -28.226562 2.804688 -28.984375 3.421875 -29.578125 C 4.035156 -30.171875 4.828125 -30.46875 5.796875 -30.46875 C 6.453125 -30.46875 7.03125 -30.332031 7.53125 -30.0625 C 8.039062 -29.789062 8.4375 -29.414062 8.71875 -28.9375 C 9 -28.457031 9.140625 -27.914062 9.140625 -27.3125 C 9.140625 -26.695312 9 -26.144531 8.71875 -25.65625 C 8.4375 -25.175781 8.039062 -24.800781 7.53125 -24.53125 C 7.03125 -24.257812 6.453125 -24.125 5.796875 -24.125 Z M 3.109375 0 L 3.109375 -21.546875 L 8.515625 -21.546875 L 8.515625 0 Z M 3.109375 0 "/></g></g></g><g fill="#000000" fill-opacity="1"><g transform="translate(212.366904, 433.264425)"><g><path d="M 3.109375 0 L 3.109375 -21.546875 L 8.296875 -21.546875 L 8.296875 -18.375 L 8.71875 -18.28125 C 10.050781 -20.726562 12.222656 -21.953125 15.234375 -21.953125 C 17.722656 -21.953125 19.550781 -21.273438 20.71875 -19.921875 C 21.882812 -18.566406 22.46875 -16.59375 22.46875 -14 L 22.46875 0 L 17.046875 0 L 17.046875 -13.34375 C 17.046875 -14.769531 16.757812 -15.800781 16.1875 -16.4375 C 15.613281 -17.070312 14.695312 -17.390625 13.4375 -17.390625 C 11.882812 -17.390625 10.675781 -16.882812 9.8125 -15.875 C 8.945312 -14.875 8.515625 -13.300781 8.515625 -11.15625 L 8.515625 0 Z M 3.109375 0 "/></g></g></g><g fill="#000000" fill-opacity="1"><g transform="translate(237.598814, 433.264425)"><g><path d="M 11.171875 9.140625 C 7.617188 9.140625 4.992188 8.617188 3.296875 7.578125 C 1.609375 6.535156 0.765625 5.082031 0.765625 3.21875 C 0.765625 2.09375 1.125 1.164062 1.84375 0.4375 C 2.570312 -0.28125 3.613281 -0.765625 4.96875 -1.015625 L 4.96875 -1.421875 C 4.238281 -1.867188 3.710938 -2.363281 3.390625 -2.90625 C 3.066406 -3.445312 2.90625 -4.070312 2.90625 -4.78125 C 2.90625 -6.519531 4.035156 -7.6875 6.296875 -8.28125 L 6.296875 -8.6875 C 5.128906 -9.351562 4.253906 -10.175781 3.671875 -11.15625 C 3.085938 -12.144531 2.796875 -13.335938 2.796875 -14.734375 C 2.796875 -16.160156 3.125 -17.414062 3.78125 -18.5 C 4.4375 -19.59375 5.398438 -20.441406 6.671875 -21.046875 C 7.941406 -21.648438 9.460938 -21.953125 11.234375 -21.953125 C 13.023438 -21.953125 14.457031 -21.640625 15.53125 -21.015625 C 16.195312 -21.984375 16.582031 -23.097656 16.6875 -24.359375 L 17.09375 -24.609375 L 20.984375 -23.65625 C 20.859375 -22.625 20.554688 -21.757812 20.078125 -21.0625 C 19.597656 -20.363281 18.847656 -19.742188 17.828125 -19.203125 L 17.828125 -18.765625 C 19.046875 -17.703125 19.65625 -16.210938 19.65625 -14.296875 C 19.65625 -12.972656 19.320312 -11.78125 18.65625 -10.71875 C 17.988281 -9.664062 17.019531 -8.832031 15.75 -8.21875 C 14.476562 -7.613281 12.972656 -7.3125 11.234375 -7.3125 L 10.40625 -7.328125 C 9.882812 -7.347656 9.519531 -7.359375 9.3125 -7.359375 C 8.820312 -7.359375 8.4375 -7.222656 8.15625 -6.953125 C 7.875 -6.691406 7.734375 -6.351562 7.734375 -5.9375 C 7.734375 -5.476562 7.914062 -5.125 8.28125 -4.875 C 8.644531 -4.625 9.179688 -4.484375 9.890625 -4.453125 L 14.703125 -4.28125 C 19.472656 -4.132812 21.859375 -2.082031 21.859375 1.875 C 21.859375 3.269531 21.503906 4.507812 20.796875 5.59375 C 20.085938 6.6875 18.9375 7.550781 17.34375 8.1875 C 15.757812 8.820312 13.703125 9.140625 11.171875 9.140625 Z M 11.234375 -11.09375 C 12.273438 -11.09375 13.085938 -11.398438 13.671875 -12.015625 C 14.253906 -12.628906 14.546875 -13.5 14.546875 -14.625 C 14.546875 -15.757812 14.253906 -16.628906 13.671875 -17.234375 C 13.085938 -17.835938 12.273438 -18.140625 11.234375 -18.140625 C 10.179688 -18.140625 9.367188 -17.835938 8.796875 -17.234375 C 8.222656 -16.628906 7.9375 -15.757812 7.9375 -14.625 C 7.9375 -13.476562 8.222656 -12.601562 8.796875 -12 C 9.367188 -11.394531 10.179688 -11.09375 11.234375 -11.09375 Z M 11.171875 5.21875 C 13.023438 5.21875 14.367188 4.957031 15.203125 4.4375 C 16.046875 3.914062 16.46875 3.238281 16.46875 2.40625 C 16.46875 1.726562 16.25 1.226562 15.8125 0.90625 C 15.382812 0.59375 14.703125 0.421875 13.765625 0.390625 L 9.515625 0.203125 C 9.367188 0.203125 9.234375 0.191406 9.109375 0.171875 C 8.984375 0.160156 8.863281 0.15625 8.75 0.15625 C 7.84375 0.15625 7.148438 0.347656 6.671875 0.734375 C 6.191406 1.128906 5.953125 1.671875 5.953125 2.359375 C 5.953125 3.273438 6.390625 3.976562 7.265625 4.46875 C 8.140625 4.96875 9.441406 5.21875 11.171875 5.21875 Z M 11.171875 5.21875 "/></g></g></g><g fill="#000000" fill-opacity="1"><g transform="translate(269.431653, 433.264425)"><g><path d="M 11.6875 0.40625 C 9.613281 0.40625 7.800781 0.0546875 6.25 -0.640625 C 4.695312 -1.347656 3.5 -2.351562 2.65625 -3.65625 C 1.820312 -4.96875 1.40625 -6.5 1.40625 -8.25 C 1.40625 -10.125 1.875 -11.679688 2.8125 -12.921875 C 3.75 -14.160156 5.160156 -15.179688 7.046875 -15.984375 L 7.09375 -16.390625 C 6.226562 -17.441406 5.609375 -18.410156 5.234375 -19.296875 C 4.859375 -20.191406 4.671875 -21.175781 4.671875 -22.25 C 4.671875 -23.5625 4.984375 -24.722656 5.609375 -25.734375 C 6.234375 -26.753906 7.140625 -27.546875 8.328125 -28.109375 C 9.523438 -28.679688 10.941406 -28.96875 12.578125 -28.96875 C 14.140625 -28.96875 15.476562 -28.707031 16.59375 -28.1875 C 17.707031 -27.664062 18.554688 -26.941406 19.140625 -26.015625 C 19.722656 -25.085938 20.015625 -24.019531 20.015625 -22.8125 C 20.015625 -21.1875 19.53125 -19.773438 18.5625 -18.578125 C 17.59375 -17.378906 16.085938 -16.390625 14.046875 -15.609375 L 14 -15.203125 L 19.28125 -8.21875 C 19.59375 -8.894531 19.8125 -9.671875 19.9375 -10.546875 C 20.0625 -11.429688 20.125 -12.425781 20.125 -13.53125 L 20.09375 -14.53125 L 24.671875 -14.53125 C 24.671875 -10.519531 23.882812 -7.28125 22.3125 -4.8125 C 22.632812 -4.550781 22.914062 -4.367188 23.15625 -4.265625 C 23.394531 -4.160156 23.660156 -4.109375 23.953125 -4.109375 C 24.222656 -4.109375 24.441406 -4.117188 24.609375 -4.140625 C 24.773438 -4.171875 24.960938 -4.21875 25.171875 -4.28125 L 25.46875 -4.203125 L 26.15625 -0.28125 C 25.90625 -0.101562 25.550781 0.0234375 25.09375 0.109375 C 24.644531 0.203125 24.140625 0.25 23.578125 0.25 C 22.628906 0.25 21.789062 0.09375 21.0625 -0.21875 C 20.34375 -0.53125 19.65625 -1.007812 19 -1.65625 L 18.59375 -1.65625 C 16.976562 -0.28125 14.675781 0.40625 11.6875 0.40625 Z M 11.65625 -18.296875 C 12.875 -18.898438 13.753906 -19.507812 14.296875 -20.125 C 14.847656 -20.75 15.125 -21.519531 15.125 -22.4375 C 15.125 -23.25 14.890625 -23.875 14.421875 -24.3125 C 13.953125 -24.75 13.316406 -24.96875 12.515625 -24.96875 C 11.710938 -24.96875 11.066406 -24.734375 10.578125 -24.265625 C 10.085938 -23.796875 9.84375 -23.148438 9.84375 -22.328125 C 9.84375 -21.703125 9.972656 -21.113281 10.234375 -20.5625 C 10.492188 -20.007812 10.96875 -19.253906 11.65625 -18.296875 Z M 12.359375 -4.234375 C 13.609375 -4.234375 14.675781 -4.476562 15.5625 -4.96875 L 9.21875 -13.046875 C 8.46875 -12.554688 7.910156 -11.972656 7.546875 -11.296875 C 7.191406 -10.628906 7.015625 -9.835938 7.015625 -8.921875 C 7.015625 -7.984375 7.234375 -7.160156 7.671875 -6.453125 C 8.109375 -5.742188 8.726562 -5.195312 9.53125 -4.8125 C 10.34375 -4.425781 11.285156 -4.234375 12.359375 -4.234375 Z M 12.359375 -4.234375 "/></g></g></g><g transform="matrix(1, 0, 0, 1, 70, 438)"><g clip-path="url(#299e51bb30)"><g fill="#000000" fill-opacity="1"><g transform="translate(0.140173, 39.686062)"><g><path d="M 12.875 -26.28125 C 17.132812 -26.28125 20.390625 -25.175781 22.640625 -22.96875 C 24.890625 -20.769531 26.015625 -17.492188 26.015625 -13.140625 C 26.015625 -8.796875 24.890625 -5.519531 22.640625 -3.3125 C 20.390625 -1.101562 17.132812 0 12.875 0 L 3.421875 0 L 3.421875 -26.28125 Z M 12.5625 -4.375 C 15.269531 -4.375 17.296875 -5.0625 18.640625 -6.4375 C 19.984375 -7.820312 20.65625 -10.054688 20.65625 -13.140625 C 20.65625 -16.222656 19.984375 -18.453125 18.640625 -19.828125 C 17.296875 -21.210938 15.269531 -21.90625 12.5625 -21.90625 L 8.609375 -21.90625 L 8.609375 -4.375 Z M 12.5625 -4.375 "/></g></g></g><g fill="#000000" fill-opacity="1"><g transform="translate(28.239652, 39.686062)"><g><path d="M 19.59375 -8.796875 L 6.84375 -8.796875 C 6.988281 -7.066406 7.476562 -5.804688 8.3125 -5.015625 C 9.15625 -4.234375 10.300781 -3.84375 11.75 -3.84375 C 12.894531 -3.84375 13.816406 -4.054688 14.515625 -4.484375 C 15.222656 -4.910156 15.796875 -5.554688 16.234375 -6.421875 L 16.609375 -6.421875 L 19.921875 -4.296875 C 19.273438 -2.898438 18.296875 -1.769531 16.984375 -0.90625 C 15.679688 -0.0507812 13.9375 0.375 11.75 0.375 C 9.707031 0.375 7.9375 -0.0078125 6.4375 -0.78125 C 4.945312 -1.5625 3.796875 -2.722656 2.984375 -4.265625 C 2.179688 -5.804688 1.78125 -7.6875 1.78125 -9.90625 C 1.78125 -12.15625 2.203125 -14.050781 3.046875 -15.59375 C 3.898438 -17.144531 5.050781 -18.300781 6.5 -19.0625 C 7.957031 -19.820312 9.585938 -20.203125 11.390625 -20.203125 C 14.203125 -20.203125 16.351562 -19.457031 17.84375 -17.96875 C 19.332031 -16.488281 20.078125 -14.3125 20.078125 -11.4375 C 20.078125 -10.394531 20.039062 -9.582031 19.96875 -9 Z M 15.3125 -12 C 15.269531 -13.507812 14.921875 -14.609375 14.265625 -15.296875 C 13.609375 -15.992188 12.648438 -16.34375 11.390625 -16.34375 C 8.878906 -16.34375 7.398438 -14.894531 6.953125 -12 Z M 15.3125 -12 "/></g></g></g><g fill="#000000" fill-opacity="1"><g transform="translate(49.795172, 39.686062)"><g><path d="M 13.640625 0 L 7.71875 0 L 0.375 -19.828125 L 5.59375 -19.828125 L 10.515625 -5.703125 L 10.921875 -5.703125 L 15.875 -19.828125 L 20.953125 -19.828125 Z M 13.640625 0 "/></g></g></g><g fill="#000000" fill-opacity="1"><g transform="translate(71.116974, 39.686062)"><g><path d="M 19.59375 -8.796875 L 6.84375 -8.796875 C 6.988281 -7.066406 7.476562 -5.804688 8.3125 -5.015625 C 9.15625 -4.234375 10.300781 -3.84375 11.75 -3.84375 C 12.894531 -3.84375 13.816406 -4.054688 14.515625 -4.484375 C 15.222656 -4.910156 15.796875 -5.554688 16.234375 -6.421875 L 16.609375 -6.421875 L 19.921875 -4.296875 C 19.273438 -2.898438 18.296875 -1.769531 16.984375 -0.90625 C 15.679688 -0.0507812 13.9375 0.375 11.75 0.375 C 9.707031 0.375 7.9375 -0.0078125 6.4375 -0.78125 C 4.945312 -1.5625 3.796875 -2.722656 2.984375 -4.265625 C 2.179688 -5.804688 1.78125 -7.6875 1.78125 -9.90625 C 1.78125 -12.15625 2.203125 -14.050781 3.046875 -15.59375 C 3.898438 -17.144531 5.050781 -18.300781 6.5 -19.0625 C 7.957031 -19.820312 9.585938 -20.203125 11.390625 -20.203125 C 14.203125 -20.203125 16.351562 -19.457031 17.84375 -17.96875 C 19.332031 -16.488281 20.078125 -14.3125 20.078125 -11.4375 C 20.078125 -10.394531 20.039062 -9.582031 19.96875 -9 Z M 15.3125 -12 C 15.269531 -13.507812 14.921875 -14.609375 14.265625 -15.296875 C 13.609375 -15.992188 12.648438 -16.34375 11.390625 -16.34375 C 8.878906 -16.34375 7.398438 -14.894531 6.953125 -12 Z M 15.3125 -12 "/></g></g></g><g fill="#000000" fill-opacity="1"><g transform="translate(92.672494, 39.686062)"><g><path d="M 8.234375 0.375 C 6.441406 0.375 5.078125 -0.101562 4.140625 -1.0625 C 3.203125 -2.03125 2.734375 -3.5 2.734375 -5.46875 L 2.734375 -27.796875 L 7.71875 -27.796875 L 7.71875 -5.65625 C 7.71875 -4.445312 8.21875 -3.84375 9.21875 -3.84375 C 9.507812 -3.84375 9.816406 -3.890625 10.140625 -3.984375 L 10.390625 -3.921875 L 10.84375 -0.09375 C 10.5625 0.0507812 10.191406 0.164062 9.734375 0.25 C 9.285156 0.332031 8.785156 0.375 8.234375 0.375 Z M 8.234375 0.375 "/></g></g></g><g fill="#000000" fill-opacity="1"><g transform="translate(104.070489, 39.686062)"><g><path d="M 11.515625 0.375 C 9.578125 0.375 7.875 -0.0195312 6.40625 -0.8125 C 4.9375 -1.613281 3.796875 -2.78125 2.984375 -4.3125 C 2.179688 -5.851562 1.78125 -7.71875 1.78125 -9.90625 C 1.78125 -12.082031 2.179688 -13.941406 2.984375 -15.484375 C 3.796875 -17.035156 4.9375 -18.207031 6.40625 -19 C 7.875 -19.800781 9.578125 -20.203125 11.515625 -20.203125 C 13.460938 -20.203125 15.171875 -19.800781 16.640625 -19 C 18.109375 -18.207031 19.25 -17.035156 20.0625 -15.484375 C 20.875 -13.941406 21.28125 -12.082031 21.28125 -9.90625 C 21.28125 -7.71875 20.875 -5.851562 20.0625 -4.3125 C 19.25 -2.78125 18.109375 -1.613281 16.640625 -0.8125 C 15.171875 -0.0195312 13.460938 0.375 11.515625 0.375 Z M 11.515625 -3.84375 C 14.597656 -3.84375 16.140625 -5.863281 16.140625 -9.90625 C 16.140625 -12 15.742188 -13.535156 14.953125 -14.515625 C 14.160156 -15.492188 13.015625 -15.984375 11.515625 -15.984375 C 8.441406 -15.984375 6.90625 -13.957031 6.90625 -9.90625 C 6.90625 -5.863281 8.441406 -3.84375 11.515625 -3.84375 Z M 11.515625 -3.84375 "/></g></g></g><g fill="#000000" fill-opacity="1"><g transform="translate(127.11817, 39.686062)"><g><path d="M 2.859375 8.03125 L 2.859375 -19.828125 L 7.84375 -19.828125 L 7.84375 -17.234375 L 8.21875 -17.171875 C 8.800781 -18.171875 9.582031 -18.925781 10.5625 -19.4375 C 11.550781 -19.945312 12.703125 -20.203125 14.015625 -20.203125 C 15.609375 -20.203125 17 -19.820312 18.1875 -19.0625 C 19.382812 -18.3125 20.316406 -17.164062 20.984375 -15.625 C 21.648438 -14.082031 21.984375 -12.175781 21.984375 -9.90625 C 21.984375 -7.632812 21.628906 -5.734375 20.921875 -4.203125 C 20.222656 -2.671875 19.25 -1.523438 18 -0.765625 C 16.757812 -0.00390625 15.328125 0.375 13.703125 0.375 C 12.460938 0.375 11.394531 0.171875 10.5 -0.234375 C 9.601562 -0.648438 8.84375 -1.296875 8.21875 -2.171875 L 7.84375 -2.109375 L 7.84375 8.03125 Z M 12.3125 -3.84375 C 13.800781 -3.84375 14.925781 -4.328125 15.6875 -5.296875 C 16.457031 -6.273438 16.84375 -7.8125 16.84375 -9.90625 C 16.84375 -12 16.457031 -13.535156 15.6875 -14.515625 C 14.925781 -15.492188 13.800781 -15.984375 12.3125 -15.984375 C 10.925781 -15.984375 9.820312 -15.476562 9 -14.46875 C 8.1875 -13.457031 7.78125 -11.9375 7.78125 -9.90625 C 7.78125 -7.875 8.1875 -6.351562 9 -5.34375 C 9.820312 -4.34375 10.925781 -3.84375 12.3125 -3.84375 Z M 12.3125 -3.84375 "/></g></g></g><g fill="#000000" fill-opacity="1"><g transform="translate(150.866995, 39.686062)"><g><path d="M 2.859375 0 L 2.859375 -19.828125 L 7.640625 -19.828125 L 7.640625 -17.171875 L 8.015625 -17.09375 C 8.660156 -18.15625 9.414062 -18.9375 10.28125 -19.4375 C 11.15625 -19.945312 12.269531 -20.203125 13.625 -20.203125 C 15.125 -20.203125 16.328125 -19.90625 17.234375 -19.3125 C 18.148438 -18.71875 18.816406 -17.851562 19.234375 -16.71875 L 19.609375 -16.71875 C 20.222656 -17.90625 21.007812 -18.78125 21.96875 -19.34375 C 22.9375 -19.914062 24.140625 -20.203125 25.578125 -20.203125 C 29.691406 -20.203125 31.75 -17.914062 31.75 -13.34375 L 31.75 0 L 26.765625 0 L 26.765625 -12.703125 C 26.765625 -13.867188 26.535156 -14.707031 26.078125 -15.21875 C 25.628906 -15.738281 24.898438 -16 23.890625 -16 C 21.160156 -16 19.796875 -14.171875 19.796875 -10.515625 L 19.796875 0 L 14.8125 0 L 14.8125 -12.703125 C 14.8125 -13.867188 14.578125 -14.707031 14.109375 -15.21875 C 13.648438 -15.738281 12.921875 -16 11.921875 -16 C 10.640625 -16 9.640625 -15.566406 8.921875 -14.703125 C 8.203125 -13.847656 7.84375 -12.488281 7.84375 -10.625 L 7.84375 0 Z M 2.859375 0 "/></g></g></g><g fill="#000000" fill-opacity="1"><g transform="translate(185.168848, 39.686062)"><g><path d="M 19.59375 -8.796875 L 6.84375 -8.796875 C 6.988281 -7.066406 7.476562 -5.804688 8.3125 -5.015625 C 9.15625 -4.234375 10.300781 -3.84375 11.75 -3.84375 C 12.894531 -3.84375 13.816406 -4.054688 14.515625 -4.484375 C 15.222656 -4.910156 15.796875 -5.554688 16.234375 -6.421875 L 16.609375 -6.421875 L 19.921875 -4.296875 C 19.273438 -2.898438 18.296875 -1.769531 16.984375 -0.90625 C 15.679688 -0.0507812 13.9375 0.375 11.75 0.375 C 9.707031 0.375 7.9375 -0.0078125 6.4375 -0.78125 C 4.945312 -1.5625 3.796875 -2.722656 2.984375 -4.265625 C 2.179688 -5.804688 1.78125 -7.6875 1.78125 -9.90625 C 1.78125 -12.15625 2.203125 -14.050781 3.046875 -15.59375 C 3.898438 -17.144531 5.050781 -18.300781 6.5 -19.0625 C 7.957031 -19.820312 9.585938 -20.203125 11.390625 -20.203125 C 14.203125 -20.203125 16.351562 -19.457031 17.84375 -17.96875 C 19.332031 -16.488281 20.078125 -14.3125 20.078125 -11.4375 C 20.078125 -10.394531 20.039062 -9.582031 19.96875 -9 Z M 15.3125 -12 C 15.269531 -13.507812 14.921875 -14.609375 14.265625 -15.296875 C 13.609375 -15.992188 12.648438 -16.34375 11.390625 -16.34375 C 8.878906 -16.34375 7.398438 -14.894531 6.953125 -12 Z M 15.3125 -12 "/></g></g></g><g fill="#000000" fill-opacity="1"><g transform="translate(206.724367, 39.686062)"><g><path d="M 2.859375 0 L 2.859375 -19.828125 L 7.640625 -19.828125 L 7.640625 -16.921875 L 8.015625 -16.828125 C 9.253906 -19.078125 11.253906 -20.203125 14.015625 -20.203125 C 16.304688 -20.203125 17.988281 -19.578125 19.0625 -18.328125 C 20.132812 -17.085938 20.671875 -15.273438 20.671875 -12.890625 L 20.671875 0 L 15.6875 0 L 15.6875 -12.28125 C 15.6875 -13.59375 15.421875 -14.539062 14.890625 -15.125 C 14.367188 -15.707031 13.523438 -16 12.359375 -16 C 10.941406 -16 9.832031 -15.535156 9.03125 -14.609375 C 8.238281 -13.691406 7.84375 -12.242188 7.84375 -10.265625 L 7.84375 0 Z M 2.859375 0 "/></g></g></g><g fill="#000000" fill-opacity="1"><g transform="translate(229.951828, 39.686062)"><g><path d="M 13.671875 -4.734375 L 14.96875 -1.046875 C 14.4375 -0.597656 13.757812 -0.25 12.9375 0 C 12.125 0.25 11.203125 0.375 10.171875 0.375 C 8.023438 0.375 6.394531 -0.207031 5.28125 -1.375 C 4.164062 -2.539062 3.609375 -4.238281 3.609375 -6.46875 L 3.609375 -15.890625 L 0.59375 -15.890625 L 0.59375 -19.84375 L 3.609375 -19.84375 L 3.609375 -23.703125 L 8.59375 -24.515625 L 8.59375 -19.84375 L 14.21875 -19.84375 L 14.21875 -15.890625 L 8.59375 -15.890625 L 8.59375 -6.828125 C 8.59375 -5.847656 8.796875 -5.132812 9.203125 -4.6875 C 9.609375 -4.238281 10.203125 -4.015625 10.984375 -4.015625 C 11.867188 -4.015625 12.640625 -4.253906 13.296875 -4.734375 Z M 13.671875 -4.734375 "/></g></g></g></g></g><g clip-path="url(#b59c2f2a30)"><path fill="#000000" d="M 209.082031 299.136719 C 202.15625 292.769531 193.828125 288.347656 184.851562 286.167969 C 193.488281 281.496094 199.359375 272.355469 199.359375 261.867188 C 199.359375 246.652344 186.988281 234.269531 171.769531 234.269531 C 156.550781 234.269531 144.164062 246.652344 144.164062 261.867188 C 144.164062 272.355469 150.050781 281.496094 158.6875 286.167969 C 149.710938 288.347656 141.378906 292.769531 134.441406 299.136719 C 124.3125 308.449219 118.050781 321.105469 116.8125 334.769531 C 116.8125 334.84375 116.792969 334.917969 116.792969 334.996094 L 116.792969 338.679688 C 116.792969 342.839844 120.1875 346.230469 124.34375 346.230469 L 132.148438 346.230469 C 133.539062 346.230469 134.679688 345.101562 134.679688 343.710938 C 134.679688 342.316406 133.539062 341.1875 132.148438 341.1875 L 124.34375 341.1875 C 122.96875 341.1875 121.851562 340.0625 121.851562 338.679688 L 121.851562 335.109375 C 124.226562 309.175781 145.671875 289.640625 171.769531 289.640625 C 197.863281 289.640625 219.296875 309.175781 221.6875 335.109375 L 221.6875 338.679688 C 221.6875 340.0625 220.550781 341.1875 219.175781 341.1875 L 211.203125 341.1875 C 209.808594 341.1875 208.671875 342.316406 208.671875 343.710938 C 208.671875 345.105469 209.808594 346.230469 211.203125 346.230469 L 219.175781 346.230469 C 223.332031 346.230469 226.726562 342.839844 226.726562 338.679688 L 226.726562 334.996094 C 226.726562 334.917969 226.726562 334.84375 226.710938 334.769531 C 225.488281 321.105469 219.226562 308.449219 209.082031 299.136719 Z M 149.203125 261.867188 C 149.203125 249.429688 159.332031 239.3125 171.769531 239.3125 C 184.207031 239.3125 194.320312 249.429688 194.320312 261.867188 C 194.320312 274.308594 184.207031 284.425781 171.769531 284.425781 C 159.332031 284.425781 149.203125 274.308594 149.203125 261.867188 Z M 270.316406 198.691406 C 262.511719 191.835938 251.925781 187.90625 241.269531 187.90625 C 230.613281 187.90625 220.023438 191.835938 212.21875 198.691406 C 203.652344 206.226562 198.917969 216.839844 198.917969 228.570312 C 198.917969 243.296875 205.042969 251.84375 210.457031 259.378906 C 214.953125 265.660156 218.835938 271.078125 218.835938 279.203125 L 218.835938 285.667969 C 218.835938 288.695312 220.789062 291.269531 223.484375 292.21875 L 223.484375 296.296875 C 223.484375 300.125 226.609375 303.238281 230.425781 303.238281 L 230.78125 303.238281 L 230.78125 305.984375 C 230.78125 309.8125 233.90625 312.929688 237.722656 312.929688 L 244.796875 312.929688 C 248.632812 312.929688 251.738281 309.8125 251.738281 305.984375 L 251.738281 303.238281 L 252.09375 303.238281 C 255.929688 303.238281 259.035156 300.125 259.035156 296.296875 L 259.035156 292.21875 C 261.75 291.269531 263.699219 288.695312 263.699219 285.667969 L 263.699219 279.203125 C 263.699219 271.078125 267.585938 265.660156 272.082031 259.378906 C 277.496094 251.84375 283.621094 243.296875 283.621094 228.570312 C 283.621094 216.839844 278.886719 206.226562 270.316406 198.691406 Z M 246.699219 305.984375 C 246.699219 307.03125 245.847656 307.886719 244.796875 307.886719 L 237.722656 307.886719 C 236.6875 307.886719 235.820312 307.03125 235.820312 305.984375 L 235.820312 303.238281 L 246.699219 303.238281 Z M 253.992188 296.296875 C 253.992188 297.34375 253.144531 298.199219 252.09375 298.199219 L 230.425781 298.199219 C 229.390625 298.199219 228.527344 297.34375 228.527344 296.296875 L 228.527344 292.613281 L 253.992188 292.613281 Z M 258.660156 285.667969 C 258.660156 286.71875 257.8125 287.570312 256.757812 287.570312 L 225.777344 287.570312 C 224.726562 287.570312 223.875 286.71875 223.875 285.667969 L 223.875 281.722656 L 258.660156 281.722656 Z M 267.992188 256.441406 C 263.800781 262.273438 259.492188 268.285156 258.761719 276.683594 L 223.773438 276.683594 C 223.027344 268.285156 218.71875 262.273438 214.542969 256.441406 C 209.351562 249.1875 203.957031 241.679688 203.957031 228.574219 C 203.957031 206.273438 222.925781 192.949219 241.269531 192.949219 C 259.609375 192.949219 278.5625 206.273438 278.5625 228.574219 C 278.5625 241.679688 273.183594 249.1875 267.992188 256.441406 Z M 169.242188 210.242188 L 169.242188 226.140625 C 169.242188 227.53125 170.378906 228.660156 171.769531 228.660156 C 173.160156 228.660156 174.28125 227.53125 174.28125 226.140625 L 174.28125 210.242188 C 178.132812 209.140625 180.949219 205.597656 180.949219 201.40625 C 180.949219 196.339844 176.824219 192.214844 171.769531 192.214844 C 166.710938 192.214844 162.574219 196.339844 162.574219 201.40625 C 162.574219 205.597656 165.40625 209.140625 169.242188 210.242188 Z M 171.769531 197.257812 C 174.058594 197.257812 175.910156 199.117188 175.910156 201.40625 C 175.910156 203.691406 174.058594 205.554688 171.769531 205.554688 C 169.476562 205.554688 167.613281 203.691406 167.613281 201.40625 C 167.613281 199.117188 169.476562 197.257812 171.769531 197.257812 Z M 129.011719 228.296875 C 130.554688 228.296875 132.097656 227.914062 133.472656 227.148438 L 144.722656 238.386719 C 145.214844 238.878906 145.859375 239.125 146.503906 239.125 C 147.148438 239.125 147.792969 238.878906 148.285156 238.386719 C 149.269531 237.402344 149.269531 235.808594 148.285156 234.820312 L 137.035156 223.582031 C 138.988281 220.085938 138.476562 215.582031 135.507812 212.617188 C 131.929688 209.03125 126.09375 209.03125 122.511719 212.617188 C 118.929688 216.199219 118.929688 222.03125 122.511719 225.613281 C 124.292969 227.40625 126.652344 228.296875 129.011719 228.296875 Z M 126.074219 216.179688 C 127.6875 214.566406 130.332031 214.566406 131.945312 216.179688 C 133.558594 217.796875 133.558594 220.429688 131.945312 222.046875 C 130.332031 223.664062 127.6875 223.664062 126.074219 222.046875 C 124.464844 220.429688 124.464844 217.796875 126.074219 216.179688 Z M 120.136719 264.390625 L 136.035156 264.390625 C 137.425781 264.390625 138.5625 263.265625 138.5625 261.867188 C 138.5625 260.472656 137.425781 259.347656 136.035156 259.347656 L 120.136719 259.347656 C 119.03125 255.503906 115.488281 252.679688 111.296875 252.679688 C 106.222656 252.679688 102.117188 256.800781 102.117188 261.867188 C 102.117188 266.9375 106.222656 271.058594 111.296875 271.058594 C 115.488281 271.058594 119.03125 268.238281 120.136719 264.390625 Z M 111.296875 266.019531 C 109.003906 266.019531 107.15625 264.15625 107.15625 261.867188 C 107.15625 259.582031 109.003906 257.71875 111.296875 257.71875 C 113.585938 257.71875 115.453125 259.582031 115.453125 261.867188 C 115.453125 264.15625 113.585938 266.019531 111.296875 266.019531 Z M 206.671875 315.8125 L 206.671875 355.375 L 136.863281 355.375 L 136.863281 315.8125 C 136.863281 313.558594 138.714844 311.710938 140.96875 311.710938 L 202.570312 311.710938 C 204.820312 311.710938 206.671875 313.558594 206.671875 315.8125 Z M 212.101562 363.558594 L 212.101562 366.628906 C 212.101562 368.160156 210.847656 369.414062 209.304688 369.414062 L 134.214844 369.414062 C 132.6875 369.414062 131.433594 368.160156 131.433594 366.628906 L 131.433594 363.558594 C 131.433594 362.027344 132.6875 360.773438 134.214844 360.773438 L 209.304688 360.773438 C 210.847656 360.773438 212.101562 362.027344 212.101562 363.558594 Z M 250.210938 228.574219 C 250.210938 233.5 246.191406 237.511719 241.277344 237.511719 C 236.359375 237.511719 232.324219 233.5 232.324219 228.574219 C 232.324219 223.644531 236.34375 219.632812 241.277344 219.632812 C 246.210938 219.632812 250.210938 223.644531 250.210938 228.574219 Z M 268.113281 223.714844 L 264.265625 222.957031 L 261.5 216.28125 L 263.6875 213.027344 C 264.042969 212.496094 263.976562 211.804688 263.519531 211.355469 L 258.484375 206.324219 C 258.042969 205.871094 257.347656 205.800781 256.820312 206.160156 L 253.566406 208.339844 L 246.886719 205.574219 L 246.125 201.730469 C 246.003906 201.105469 245.464844 200.664062 244.835938 200.664062 L 237.714844 200.664062 C 237.070312 200.664062 236.527344 201.105469 236.410156 201.730469 L 235.664062 205.574219 L 228.984375 208.339844 L 225.730469 206.160156 C 225.1875 205.800781 224.507812 205.871094 224.050781 206.324219 L 219.015625 211.355469 C 218.574219 211.804688 218.507812 212.496094 218.863281 213.027344 L 221.035156 216.28125 L 218.269531 222.957031 L 214.421875 223.714844 C 213.792969 223.839844 213.355469 224.375 213.355469 225.015625 L 213.355469 232.132812 C 213.355469 232.769531 213.792969 233.304688 214.421875 233.429688 L 218.269531 234.1875 L 221.035156 240.863281 L 218.863281 244.117188 C 218.507812 244.648438 218.574219 245.339844 219.015625 245.792969 L 224.050781 250.824219 C 224.507812 251.277344 225.1875 251.339844 225.730469 250.988281 L 228.984375 248.804688 L 235.664062 251.570312 L 236.410156 255.414062 C 236.527344 256.039062 237.070312 256.480469 237.714844 256.480469 L 244.835938 256.480469 C 245.464844 256.480469 246.003906 256.039062 246.125 255.414062 L 246.886719 251.570312 L 253.566406 248.804688 L 256.820312 250.988281 C 257.347656 251.339844 258.042969 251.277344 258.484375 250.824219 L 263.519531 245.792969 C 263.976562 245.339844 264.042969 244.648438 263.6875 244.117188 L 261.5 240.863281 L 264.265625 234.1875 L 268.113281 233.429688 C 268.738281 233.304688 269.179688 232.769531 269.179688 232.132812 L 269.179688 225.015625 C 269.179688 224.375 268.738281 223.839844 268.113281 223.714844 Z M 241.277344 242.554688 C 233.5625 242.554688 227.289062 236.28125 227.289062 228.574219 C 227.289062 220.863281 233.5625 214.59375 241.277344 214.59375 C 248.988281 214.59375 255.246094 220.863281 255.246094 228.574219 C 255.246094 236.285156 248.972656 242.554688 241.277344 242.554688 Z M 241.277344 242.554688 " fill-opacity="1" fill-rule="evenodd"/></g></svg>