<svg xmlns="http://www.w3.org/2000/svg" xmlns:xlink="http://www.w3.org/1999/xlink" width="3780" zoomAndPan="magnify" viewBox="0 0 2835 1417.499962" height="1890" preserveAspectRatio="xMidYMid meet" version="1.0"><defs><g/><clipPath id="216e796df0"><path d="M 0.574219 372 L 864.378906 372 L 864.378906 924.539062 L 0.574219 924.539062 Z M 0.574219 372 " clip-rule="nonzero"/></clipPath><clipPath id="67314dbbea"><path d="M 360 233.304688 L 474 233.304688 L 474 347 L 360 347 Z M 360 233.304688 " clip-rule="nonzero"/></clipPath><clipPath id="1d1d8485ec"><path d="M 609.601562 139 L 1473.402344 139 L 1473.402344 691.414062 L 609.601562 691.414062 Z M 609.601562 139 " clip-rule="nonzero"/></clipPath><clipPath id="56539980e5"><path d="M 969 0.183594 L 1083 0.183594 L 1083 113 L 969 113 Z M 969 0.183594 " clip-rule="nonzero"/></clipPath><clipPath id="61439f0005"><path d="M 1268.398438 394 L 2132.199219 394 L 2132.199219 946.609375 L 1268.398438 946.609375 Z M 1268.398438 394 " clip-rule="nonzero"/></clipPath><clipPath id="fcd3943f6b"><path d="M 1628 255.375 L 1741 255.375 L 1741 369 L 1628 369 Z M 1628 255.375 " clip-rule="nonzero"/></clipPath><clipPath id="2d21819680"><rect x="0" width="2133" y="0" height="947"/></clipPath></defs><g transform="matrix(1, 0, 0, 1, 376, 220)"><g clip-path="url(#2d21819680)"><g clip-path="url(#216e796df0)"><path fill="#231f20" d="M 0.570312 891.59375 C 30.203125 842.105469 106.800781 716.527344 134.65625 668.855469 C 137.007812 665.066406 139.40625 661.433594 142 657.804688 C 146.234375 651.914062 152.757812 647.722656 159.894531 646.382812 C 167.011719 644.960938 174.644531 646.40625 180.789062 650.292969 C 182.683594 651.484375 186.484375 654.582031 188.332031 656.003906 C 192.9375 659.5625 200.246094 665.363281 204.636719 668.742188 C 204.648438 668.746094 204.65625 668.757812 204.664062 668.765625 C 204.675781 668.765625 204.683594 668.769531 204.691406 668.773438 C 204.8125 668.84375 204.851562 668.816406 204.980469 668.828125 C 205.101562 668.808594 205.269531 668.769531 205.324219 668.695312 C 205.363281 668.679688 205.363281 668.632812 205.390625 668.613281 C 205.394531 668.601562 205.402344 668.59375 205.410156 668.585938 C 205.40625 668.566406 205.429688 668.574219 205.425781 668.546875 C 205.429688 668.539062 205.4375 668.535156 205.441406 668.527344 C 205.441406 668.515625 205.445312 668.507812 205.453125 668.496094 C 205.457031 668.488281 205.460938 668.488281 205.464844 668.484375 C 205.46875 668.480469 205.574219 668.3125 205.625 668.234375 C 205.625 668.234375 206 667.636719 206 667.636719 C 263.277344 576.90625 324.265625 479.558594 381.652344 388.566406 C 391.457031 371.457031 414.445312 367.367188 429.449219 380.402344 C 431.542969 382.214844 433.367188 384.339844 434.921875 386.621094 C 497.464844 475.746094 559.390625 565.511719 620.359375 655.726562 C 620.375 655.792969 620.34375 655.777344 620.289062 655.765625 C 620.238281 655.753906 620.167969 655.738281 620.125 655.753906 C 619.976562 655.800781 620.171875 655.890625 620.179688 655.960938 C 620.183594 655.988281 620.171875 656.03125 620.175781 656.066406 C 620.179688 656.101562 620.195312 656.117188 620.265625 656.074219 C 620.273438 656.054688 620.296875 656.046875 620.3125 656.042969 C 620.3125 656.042969 620.507812 655.753906 620.507812 655.753906 C 620.507812 655.753906 621.300781 654.582031 621.300781 654.582031 C 623.914062 650.65625 629.207031 642.917969 631.839844 639.007812 C 636.183594 632.679688 643.246094 628.195312 650.808594 626.964844 C 661.367188 625.058594 672.773438 629.664062 679.003906 638.40625 C 740.0625 724.847656 799.308594 812.796875 853.078125 903.992188 C 856.871094 910.53125 860.679688 917.058594 864.347656 923.6875 C 864.347656 923.6875 863.394531 924.386719 863.394531 924.386719 C 858.171875 918.898438 853.082031 913.308594 847.984375 907.726562 C 777.445312 829.4375 711.59375 746.933594 647.71875 663.164062 C 647.71875 663.164062 646.894531 662.085938 646.894531 662.085938 C 647.886719 663.5 649.304688 664.691406 650.878906 665.496094 C 655.164062 667.746094 660.695312 666.777344 664.015625 663.277344 C 664.429688 662.859375 664.789062 662.414062 665.132812 661.941406 C 665.214844 661.828125 665.332031 661.640625 665.210938 661.832031 C 665.210938 661.832031 665.023438 662.128906 665.023438 662.128906 C 665.023438 662.128906 664.648438 662.726562 664.648438 662.726562 C 664.648438 662.726562 663.140625 665.109375 663.140625 665.109375 C 663.140625 665.109375 657.117188 674.640625 657.117188 674.640625 C 656.585938 675.441406 655.371094 677.425781 654.855469 678.210938 C 652.417969 682.023438 649.429688 685.464844 645.835938 688.351562 C 630.992188 700.535156 608.375 700.5 593.566406 688.195312 C 588.269531 684.246094 583.121094 676.023438 579.238281 670.71875 C 518.070312 585.03125 457.597656 498.644531 397.886719 411.929688 C 397.871094 411.90625 397.640625 411.570312 397.8125 411.824219 C 398.417969 412.683594 399.136719 413.453125 399.933594 414.152344 C 406.085938 419.5625 415.664062 418.207031 420.113281 411.382812 C 420.265625 411.140625 420.140625 411.328125 420.085938 411.417969 C 419.691406 412.015625 418.226562 414.304688 417.792969 414.972656 C 359.8125 504.835938 297.546875 600.378906 239.777344 690.027344 C 239.777344 690.027344 239.554688 690.367188 239.554688 690.367188 C 239.554688 690.367188 239.171875 690.941406 239.171875 690.941406 C 239.171875 690.941406 238.394531 692.074219 238.394531 692.074219 C 234.863281 696.96875 230.246094 701.109375 224.957031 704.007812 C 212 711.316406 195.085938 710.738281 182.714844 702.453125 C 180.621094 701.132812 178.617188 699.390625 176.789062 697.976562 C 173.488281 695.398438 166.804688 690.015625 163.546875 687.460938 C 163.546875 687.460938 159.132812 683.953125 159.132812 683.953125 C 159.132812 683.953125 158.582031 683.515625 158.582031 683.515625 C 158.402344 683.371094 158.589844 683.53125 158.695312 683.613281 C 162.375 686.394531 167.703125 686.535156 171.5 683.933594 C 172.582031 683.191406 173.578125 682.273438 174.332031 681.195312 C 174.480469 680.976562 174.292969 681.246094 174.257812 681.296875 C 171.820312 684.742188 169.269531 688.136719 166.621094 691.429688 C 131.207031 733.320312 37.527344 848.523438 1.433594 892.191406 C 1.425781 892.199219 0.570312 891.59375 0.570312 891.59375 Z M 0.570312 891.59375 " fill-opacity="1" fill-rule="nonzero"/></g><path fill="#231f20" d="M 431.839844 642.53125 L 384.246094 537.324219 L 288.867188 591.035156 L 279.550781 574.496094 L 393 510.605469 L 423.082031 577.101562 L 432.476562 518.386719 L 543.414062 579 L 534.3125 595.664062 L 446.976562 547.941406 Z M 431.839844 642.53125 " fill-opacity="1" fill-rule="nonzero"/><g clip-path="url(#67314dbbea)"><path fill="#ffffff" d="M 473.03125 289.660156 C 473.03125 291.507812 472.941406 293.351562 472.761719 295.191406 C 472.578125 297.03125 472.308594 298.855469 471.949219 300.667969 C 471.585938 302.480469 471.140625 304.269531 470.601562 306.039062 C 470.066406 307.804688 469.445312 309.542969 468.738281 311.25 C 468.03125 312.957031 467.242188 314.625 466.371094 316.253906 C 465.5 317.886719 464.550781 319.46875 463.523438 321.003906 C 462.496094 322.539062 461.398438 324.023438 460.226562 325.453125 C 459.054688 326.878906 457.8125 328.246094 456.507812 329.554688 C 455.199219 330.859375 453.832031 332.101562 452.40625 333.273438 C 450.976562 334.445312 449.496094 335.542969 447.957031 336.570312 C 446.421875 337.597656 444.839844 338.546875 443.210938 339.417969 C 441.578125 340.289062 439.910156 341.078125 438.203125 341.785156 C 436.496094 342.492188 434.757812 343.113281 432.992188 343.648438 C 431.222656 344.183594 429.433594 344.632812 427.621094 344.996094 C 425.808594 345.355469 423.984375 345.625 422.144531 345.804688 C 420.304688 345.988281 418.460938 346.078125 416.613281 346.078125 C 414.765625 346.078125 412.921875 345.988281 411.085938 345.804688 C 409.246094 345.625 407.421875 345.355469 405.609375 344.992188 C 403.796875 344.632812 402.003906 344.183594 400.238281 343.648438 C 398.46875 343.113281 396.730469 342.492188 395.023438 341.785156 C 393.316406 341.078125 391.648438 340.289062 390.019531 339.417969 C 388.390625 338.546875 386.808594 337.597656 385.269531 336.570312 C 383.734375 335.542969 382.25 334.445312 380.824219 333.273438 C 379.394531 332.101562 378.027344 330.859375 376.722656 329.554688 C 375.414062 328.246094 374.175781 326.878906 373.003906 325.453125 C 371.832031 324.023438 370.730469 322.539062 369.703125 321.003906 C 368.679688 319.46875 367.730469 317.886719 366.859375 316.253906 C 365.988281 314.625 365.199219 312.957031 364.492188 311.25 C 363.785156 309.542969 363.164062 307.804688 362.625 306.039062 C 362.089844 304.269531 361.640625 302.480469 361.28125 300.667969 C 360.921875 298.855469 360.648438 297.03125 360.46875 295.191406 C 360.289062 293.351562 360.195312 291.507812 360.195312 289.660156 C 360.195312 287.8125 360.289062 285.96875 360.46875 284.128906 C 360.648438 282.292969 360.921875 280.464844 361.28125 278.652344 C 361.640625 276.84375 362.089844 275.050781 362.625 273.285156 C 363.164062 271.515625 363.785156 269.777344 364.492188 268.070312 C 365.199219 266.363281 365.988281 264.695312 366.859375 263.066406 C 367.730469 261.4375 368.679688 259.851562 369.703125 258.316406 C 370.730469 256.78125 371.832031 255.296875 373.003906 253.871094 C 374.175781 252.441406 375.414062 251.074219 376.722656 249.765625 C 378.027344 248.460938 379.394531 247.222656 380.824219 246.050781 C 382.25 244.878906 383.734375 243.777344 385.269531 242.75 C 386.808594 241.722656 388.390625 240.777344 390.019531 239.90625 C 391.648438 239.035156 393.316406 238.246094 395.023438 237.539062 C 396.730469 236.832031 398.46875 236.207031 400.238281 235.671875 C 402.003906 235.136719 403.796875 234.6875 405.609375 234.328125 C 407.421875 233.964844 409.246094 233.695312 411.085938 233.515625 C 412.921875 233.332031 414.765625 233.242188 416.613281 233.242188 C 418.460938 233.242188 420.304688 233.332031 422.144531 233.515625 C 423.984375 233.695312 425.808594 233.964844 427.621094 234.328125 C 429.433594 234.6875 431.222656 235.136719 432.992188 235.671875 C 434.757812 236.207031 436.496094 236.832031 438.203125 237.539062 C 439.910156 238.246094 441.578125 239.035156 443.210938 239.90625 C 444.839844 240.777344 446.421875 241.722656 447.957031 242.75 C 449.496094 243.777344 450.976562 244.878906 452.40625 246.050781 C 453.832031 247.222656 455.199219 248.460938 456.507812 249.765625 C 457.8125 251.074219 459.054688 252.441406 460.226562 253.871094 C 461.398438 255.296875 462.496094 256.78125 463.523438 258.316406 C 464.550781 259.851562 465.5 261.4375 466.371094 263.066406 C 467.242188 264.695312 468.03125 266.363281 468.738281 268.070312 C 469.445312 269.777344 470.066406 271.515625 470.601562 273.285156 C 471.140625 275.050781 471.585938 276.84375 471.949219 278.652344 C 472.308594 280.464844 472.578125 282.292969 472.761719 284.128906 C 472.941406 285.96875 473.03125 287.8125 473.03125 289.660156 Z M 473.03125 289.660156 " fill-opacity="1" fill-rule="nonzero"/></g><g clip-path="url(#1d1d8485ec)"><path fill="#231f20" d="M 609.59375 658.46875 C 639.226562 608.980469 715.828125 483.402344 743.679688 435.730469 C 746.03125 431.945312 748.429688 428.3125 751.023438 424.679688 C 755.257812 418.792969 761.78125 414.601562 768.917969 413.257812 C 776.035156 411.839844 783.667969 413.28125 789.8125 417.167969 C 791.707031 418.363281 795.507812 421.457031 797.359375 422.878906 C 801.960938 426.441406 809.269531 432.238281 813.660156 435.617188 C 813.671875 435.621094 813.679688 435.632812 813.6875 435.640625 C 813.699219 435.640625 813.710938 435.644531 813.714844 435.648438 C 813.835938 435.71875 813.875 435.695312 814.003906 435.703125 C 814.125 435.6875 814.292969 435.644531 814.347656 435.574219 C 814.390625 435.554688 814.390625 435.507812 814.417969 435.492188 C 814.417969 435.480469 814.425781 435.472656 814.433594 435.460938 C 814.429688 435.445312 814.453125 435.449219 814.449219 435.425781 C 814.453125 435.414062 814.460938 435.414062 814.464844 435.40625 C 814.464844 435.390625 814.46875 435.382812 814.476562 435.371094 C 814.480469 435.367188 814.484375 435.363281 814.488281 435.359375 C 814.492188 435.359375 814.597656 435.191406 814.648438 435.109375 C 814.648438 435.109375 815.023438 434.511719 815.023438 434.511719 C 872.304688 343.785156 933.292969 246.433594 990.679688 155.445312 C 1000.480469 138.332031 1023.46875 134.242188 1038.472656 147.28125 C 1040.566406 149.089844 1042.390625 151.21875 1043.949219 153.496094 C 1106.488281 242.625 1168.417969 332.390625 1229.382812 422.605469 C 1229.398438 422.667969 1229.367188 422.652344 1229.3125 422.644531 C 1229.261719 422.628906 1229.191406 422.617188 1229.148438 422.628906 C 1229 422.679688 1229.199219 422.765625 1229.203125 422.839844 C 1229.207031 422.867188 1229.195312 422.90625 1229.199219 422.941406 C 1229.203125 422.976562 1229.21875 422.996094 1229.292969 422.949219 C 1229.300781 422.933594 1229.320312 422.925781 1229.339844 422.917969 C 1229.339844 422.917969 1229.535156 422.628906 1229.535156 422.628906 C 1229.535156 422.628906 1230.324219 421.460938 1230.324219 421.460938 C 1232.941406 417.53125 1238.230469 409.792969 1240.863281 405.882812 C 1245.210938 399.554688 1252.269531 395.070312 1259.832031 393.839844 C 1270.390625 391.933594 1281.796875 396.542969 1288.027344 405.28125 C 1349.085938 491.722656 1408.332031 579.671875 1462.101562 670.867188 C 1465.898438 677.40625 1469.703125 683.933594 1473.371094 690.5625 C 1473.371094 690.5625 1472.417969 691.261719 1472.417969 691.261719 C 1467.195312 685.773438 1462.109375 680.183594 1457.007812 674.601562 C 1386.46875 596.316406 1320.617188 513.808594 1256.742188 430.042969 C 1256.742188 430.042969 1255.917969 428.960938 1255.917969 428.960938 C 1256.910156 430.375 1258.328125 431.566406 1259.902344 432.371094 C 1264.1875 434.625 1269.71875 433.65625 1273.042969 430.15625 C 1273.453125 429.738281 1273.816406 429.289062 1274.160156 428.816406 C 1274.238281 428.703125 1274.355469 428.519531 1274.234375 428.707031 C 1274.234375 428.707031 1274.046875 429.003906 1274.046875 429.003906 C 1274.046875 429.003906 1273.671875 429.601562 1273.671875 429.601562 C 1273.671875 429.601562 1272.167969 431.984375 1272.167969 431.984375 C 1272.167969 431.984375 1266.144531 441.515625 1266.144531 441.515625 C 1265.609375 442.320312 1264.394531 444.304688 1263.882812 445.085938 C 1261.445312 448.902344 1258.457031 452.339844 1254.859375 455.230469 C 1240.015625 467.410156 1217.398438 467.375 1202.589844 455.070312 C 1197.292969 451.125 1192.144531 442.898438 1188.261719 437.59375 C 1127.097656 351.90625 1066.621094 265.519531 1006.914062 178.808594 C 1006.894531 178.78125 1006.664062 178.445312 1006.835938 178.699219 C 1007.441406 179.5625 1008.160156 180.332031 1008.957031 181.027344 C 1015.113281 186.4375 1024.691406 185.082031 1029.136719 178.257812 C 1029.289062 178.015625 1029.167969 178.203125 1029.109375 178.296875 C 1028.714844 178.890625 1027.25 181.179688 1026.816406 181.847656 C 968.835938 271.710938 906.570312 367.253906 848.804688 456.902344 C 848.804688 456.902344 848.582031 457.242188 848.582031 457.242188 C 848.582031 457.242188 848.199219 457.816406 848.199219 457.816406 C 848.199219 457.816406 847.417969 458.953125 847.417969 458.953125 C 843.890625 463.84375 839.273438 467.984375 833.984375 470.886719 C 821.027344 478.191406 804.109375 477.617188 791.738281 469.332031 C 789.648438 468.007812 787.640625 466.269531 785.816406 464.851562 C 782.511719 462.273438 775.828125 456.890625 772.570312 454.335938 C 772.570312 454.335938 768.15625 450.828125 768.15625 450.828125 C 768.15625 450.828125 767.605469 450.390625 767.605469 450.390625 C 767.425781 450.25 767.617188 450.410156 767.71875 450.488281 C 771.398438 453.269531 776.726562 453.410156 780.527344 450.8125 C 781.609375 450.066406 782.601562 449.148438 783.355469 448.074219 C 783.503906 447.851562 783.316406 448.121094 783.28125 448.171875 C 780.84375 451.617188 778.292969 455.011719 775.644531 458.304688 C 740.230469 500.199219 646.554688 615.398438 610.457031 659.066406 C 610.449219 659.074219 609.59375 658.46875 609.59375 658.46875 Z M 609.59375 658.46875 " fill-opacity="1" fill-rule="nonzero"/></g><path fill="#231f20" d="M 1040.867188 409.40625 L 993.273438 304.199219 L 897.894531 357.914062 L 888.578125 341.371094 L 1002.023438 277.484375 L 1032.109375 343.980469 L 1041.5 285.261719 L 1152.4375 345.878906 L 1143.335938 362.539062 L 1056 314.820312 Z M 1040.867188 409.40625 " fill-opacity="1" fill-rule="nonzero"/><g clip-path="url(#56539980e5)"><path fill="#ffffff" d="M 1082.058594 56.535156 C 1082.058594 58.382812 1081.964844 60.226562 1081.785156 62.066406 C 1081.605469 63.90625 1081.332031 65.730469 1080.972656 67.542969 C 1080.613281 69.355469 1080.164062 71.144531 1079.628906 72.914062 C 1079.089844 74.683594 1078.46875 76.417969 1077.761719 78.125 C 1077.054688 79.835938 1076.265625 81.503906 1075.394531 83.132812 C 1074.523438 84.761719 1073.574219 86.34375 1072.546875 87.878906 C 1071.523438 89.417969 1070.421875 90.898438 1069.25 92.328125 C 1068.078125 93.757812 1066.839844 95.125 1065.53125 96.429688 C 1064.226562 97.738281 1062.859375 98.976562 1061.429688 100.148438 C 1060 101.320312 1058.519531 102.417969 1056.984375 103.445312 C 1055.445312 104.472656 1053.863281 105.421875 1052.234375 106.292969 C 1050.605469 107.164062 1048.9375 107.953125 1047.230469 108.660156 C 1045.523438 109.367188 1043.785156 109.988281 1042.015625 110.523438 C 1040.246094 111.0625 1038.457031 111.511719 1036.644531 111.871094 C 1034.832031 112.230469 1033.007812 112.5 1031.167969 112.683594 C 1029.332031 112.863281 1027.488281 112.953125 1025.640625 112.953125 C 1023.792969 112.953125 1021.949219 112.863281 1020.109375 112.683594 C 1018.269531 112.5 1016.445312 112.230469 1014.632812 111.871094 C 1012.820312 111.511719 1011.03125 111.0625 1009.261719 110.523438 C 1007.492188 109.988281 1005.757812 109.367188 1004.050781 108.660156 C 1002.34375 107.953125 1000.671875 107.164062 999.042969 106.292969 C 997.414062 105.421875 995.832031 104.472656 994.296875 103.445312 C 992.757812 102.417969 991.277344 101.320312 989.847656 100.148438 C 988.417969 98.976562 987.050781 97.738281 985.746094 96.429688 C 984.4375 95.125 983.199219 93.757812 982.027344 92.328125 C 980.855469 90.898438 979.757812 89.417969 978.730469 87.878906 C 977.703125 86.34375 976.753906 84.761719 975.882812 83.132812 C 975.011719 81.503906 974.222656 79.835938 973.515625 78.128906 C 972.808594 76.417969 972.1875 74.683594 971.652344 72.914062 C 971.113281 71.144531 970.664062 69.355469 970.304688 67.542969 C 969.945312 65.730469 969.675781 63.90625 969.492188 62.066406 C 969.3125 60.226562 969.222656 58.382812 969.222656 56.535156 C 969.222656 54.6875 969.3125 52.847656 969.492188 51.007812 C 969.675781 49.167969 969.945312 47.34375 970.304688 45.53125 C 970.664062 43.71875 971.113281 41.929688 971.652344 40.160156 C 972.1875 38.390625 972.808594 36.652344 973.515625 34.945312 C 974.222656 33.238281 975.011719 31.570312 975.882812 29.941406 C 976.753906 28.3125 977.703125 26.730469 978.730469 25.191406 C 979.757812 23.65625 980.855469 22.175781 982.027344 20.746094 C 983.199219 19.316406 984.4375 17.949219 985.746094 16.644531 C 987.050781 15.335938 988.417969 14.097656 989.847656 12.925781 C 991.277344 11.753906 992.757812 10.652344 994.296875 9.628906 C 995.832031 8.601562 997.414062 7.652344 999.042969 6.78125 C 1000.671875 5.910156 1002.34375 5.121094 1004.050781 4.414062 C 1005.757812 3.707031 1007.492188 3.085938 1009.261719 2.546875 C 1011.03125 2.011719 1012.820312 1.5625 1014.632812 1.203125 C 1016.445312 0.84375 1018.269531 0.570312 1020.109375 0.390625 C 1021.949219 0.210938 1023.792969 0.121094 1025.640625 0.121094 C 1027.488281 0.121094 1029.332031 0.210938 1031.167969 0.390625 C 1033.007812 0.570312 1034.832031 0.84375 1036.644531 1.203125 C 1038.457031 1.5625 1040.246094 2.011719 1042.015625 2.546875 C 1043.785156 3.085938 1045.523438 3.707031 1047.230469 4.414062 C 1048.9375 5.121094 1050.605469 5.910156 1052.234375 6.78125 C 1053.863281 7.652344 1055.445312 8.601562 1056.984375 9.628906 C 1058.519531 10.652344 1060 11.753906 1061.429688 12.925781 C 1062.859375 14.097656 1064.226562 15.335938 1065.53125 16.644531 C 1066.839844 17.949219 1068.078125 19.316406 1069.25 20.746094 C 1070.421875 22.175781 1071.523438 23.65625 1072.546875 25.191406 C 1073.574219 26.730469 1074.523438 28.3125 1075.394531 29.941406 C 1076.265625 31.570312 1077.054688 33.238281 1077.761719 34.945312 C 1078.46875 36.652344 1079.089844 38.390625 1079.628906 40.160156 C 1080.164062 41.929688 1080.613281 43.71875 1080.972656 45.53125 C 1081.332031 47.34375 1081.605469 49.167969 1081.785156 51.007812 C 1081.964844 52.847656 1082.058594 54.6875 1082.058594 56.535156 Z M 1082.058594 56.535156 " fill-opacity="1" fill-rule="nonzero"/></g><g clip-path="url(#61439f0005)"><path fill="#231f20" d="M 1268.390625 913.664062 C 1298.023438 864.175781 1374.625 738.597656 1402.476562 690.925781 C 1404.832031 687.136719 1407.226562 683.507812 1409.820312 679.875 C 1414.054688 673.984375 1420.578125 669.796875 1427.714844 668.453125 C 1434.832031 667.03125 1442.464844 668.476562 1448.609375 672.363281 C 1450.507812 673.554688 1454.304688 676.652344 1456.15625 678.074219 C 1460.757812 681.636719 1468.066406 687.433594 1472.457031 690.8125 C 1472.46875 690.816406 1472.476562 690.828125 1472.484375 690.835938 C 1472.496094 690.835938 1472.507812 690.839844 1472.511719 690.84375 C 1472.632812 690.914062 1472.671875 690.886719 1472.800781 690.898438 C 1472.921875 690.878906 1473.089844 690.839844 1473.144531 690.765625 C 1473.1875 690.75 1473.1875 690.703125 1473.214844 690.683594 C 1473.21875 690.671875 1473.222656 690.664062 1473.230469 690.65625 C 1473.226562 690.636719 1473.25 690.644531 1473.246094 690.617188 C 1473.25 690.609375 1473.257812 690.609375 1473.265625 690.597656 C 1473.265625 690.585938 1473.265625 690.578125 1473.273438 690.566406 C 1473.277344 690.5625 1473.285156 690.558594 1473.285156 690.554688 C 1473.292969 690.550781 1473.394531 690.382812 1473.445312 690.304688 C 1473.445312 690.304688 1473.824219 689.707031 1473.824219 689.707031 C 1531.101562 598.980469 1592.089844 501.628906 1649.476562 410.636719 C 1659.277344 393.527344 1682.265625 389.4375 1697.269531 402.472656 C 1699.363281 404.285156 1701.1875 406.410156 1702.746094 408.691406 C 1765.285156 497.816406 1827.214844 587.585938 1888.179688 677.800781 C 1888.195312 677.863281 1888.167969 677.847656 1888.109375 677.835938 C 1888.058594 677.824219 1887.988281 677.808594 1887.945312 677.824219 C 1887.796875 677.875 1887.996094 677.960938 1888 678.03125 C 1888.003906 678.0625 1887.992188 678.101562 1888 678.136719 C 1888 678.171875 1888.019531 678.191406 1888.089844 678.144531 C 1888.097656 678.125 1888.121094 678.117188 1888.136719 678.113281 C 1888.136719 678.113281 1888.332031 677.824219 1888.332031 677.824219 C 1888.332031 677.824219 1889.121094 676.65625 1889.121094 676.65625 C 1891.738281 672.726562 1897.027344 664.988281 1899.664062 661.078125 C 1904.007812 654.75 1911.066406 650.265625 1918.632812 649.035156 C 1929.1875 647.128906 1940.59375 651.738281 1946.828125 660.476562 C 2007.882812 746.917969 2067.128906 834.867188 2120.898438 926.0625 C 2124.695312 932.601562 2128.503906 939.128906 2132.171875 945.757812 C 2132.171875 945.757812 2131.214844 946.457031 2131.214844 946.457031 C 2125.992188 940.96875 2120.90625 935.378906 2115.808594 929.796875 C 2045.265625 851.507812 1979.414062 769.003906 1915.542969 685.238281 C 1915.542969 685.238281 1914.714844 684.15625 1914.714844 684.15625 C 1915.710938 685.570312 1917.125 686.761719 1918.699219 687.566406 C 1922.984375 689.816406 1928.515625 688.847656 1931.839844 685.347656 C 1932.25 684.929688 1932.613281 684.484375 1932.957031 684.011719 C 1933.035156 683.898438 1933.152344 683.710938 1933.03125 683.902344 C 1933.03125 683.902344 1932.847656 684.199219 1932.847656 684.199219 C 1932.847656 684.199219 1932.46875 684.796875 1932.46875 684.796875 C 1932.46875 684.796875 1930.964844 687.179688 1930.964844 687.179688 C 1930.964844 687.179688 1924.941406 696.710938 1924.941406 696.710938 C 1924.40625 697.515625 1923.191406 699.496094 1922.679688 700.28125 C 1920.242188 704.09375 1917.253906 707.535156 1913.65625 710.425781 C 1898.816406 722.605469 1876.195312 722.570312 1861.386719 710.265625 C 1856.089844 706.320312 1850.945312 698.09375 1847.0625 692.789062 C 1785.894531 607.101562 1725.417969 520.714844 1665.710938 434 C 1665.691406 433.976562 1665.460938 433.640625 1665.636719 433.894531 C 1666.242188 434.753906 1666.957031 435.527344 1667.753906 436.222656 C 1673.910156 441.632812 1683.488281 440.277344 1687.933594 433.453125 C 1688.085938 433.210938 1687.964844 433.398438 1687.90625 433.488281 C 1687.511719 434.085938 1686.050781 436.375 1685.613281 437.042969 C 1627.632812 526.90625 1565.367188 622.449219 1507.601562 712.097656 C 1507.601562 712.097656 1507.378906 712.4375 1507.378906 712.4375 C 1507.378906 712.4375 1506.996094 713.011719 1506.996094 713.011719 C 1506.996094 713.011719 1506.214844 714.148438 1506.214844 714.148438 C 1502.6875 719.039062 1498.070312 723.179688 1492.78125 726.082031 C 1479.824219 733.386719 1462.90625 732.8125 1450.535156 724.527344 C 1448.445312 723.203125 1446.4375 721.464844 1444.613281 720.046875 C 1441.308594 717.46875 1434.625 712.085938 1431.367188 709.53125 C 1431.367188 709.53125 1426.957031 706.023438 1426.957031 706.023438 C 1426.957031 706.023438 1426.402344 705.585938 1426.402344 705.585938 C 1426.222656 705.445312 1426.414062 705.601562 1426.519531 705.683594 C 1430.195312 708.464844 1435.523438 708.605469 1439.324219 706.003906 C 1440.40625 705.261719 1441.398438 704.34375 1442.152344 703.265625 C 1442.300781 703.046875 1442.113281 703.316406 1442.078125 703.367188 C 1439.644531 706.8125 1437.09375 710.207031 1434.441406 713.5 C 1399.027344 755.390625 1305.351562 870.59375 1269.257812 914.261719 C 1269.246094 914.269531 1268.390625 913.664062 1268.390625 913.664062 Z M 1268.390625 913.664062 " fill-opacity="1" fill-rule="nonzero"/></g><path fill="#231f20" d="M 1699.664062 664.601562 L 1652.070312 559.394531 L 1556.691406 613.109375 L 1547.375 596.566406 L 1660.824219 532.675781 L 1690.90625 599.175781 L 1700.300781 540.457031 L 1811.234375 601.074219 L 1802.132812 617.734375 L 1714.796875 570.011719 Z M 1699.664062 664.601562 " fill-opacity="1" fill-rule="nonzero"/><g clip-path="url(#fcd3943f6b)"><path fill="#ffffff" d="M 1740.855469 311.730469 C 1740.855469 313.578125 1740.761719 315.421875 1740.582031 317.261719 C 1740.402344 319.101562 1740.128906 320.925781 1739.769531 322.738281 C 1739.410156 324.550781 1738.960938 326.339844 1738.425781 328.109375 C 1737.886719 329.875 1737.265625 331.613281 1736.558594 333.320312 C 1735.851562 335.027344 1735.0625 336.695312 1734.191406 338.328125 C 1733.320312 339.957031 1732.371094 341.539062 1731.347656 343.074219 C 1730.320312 344.613281 1729.21875 346.09375 1728.046875 347.523438 C 1726.875 348.949219 1725.636719 350.316406 1724.328125 351.625 C 1723.023438 352.929688 1721.65625 354.171875 1720.226562 355.34375 C 1718.800781 356.515625 1717.316406 357.613281 1715.78125 358.640625 C 1714.242188 359.667969 1712.660156 360.617188 1711.03125 361.488281 C 1709.402344 362.359375 1707.734375 363.148438 1706.027344 363.855469 C 1704.320312 364.5625 1702.582031 365.183594 1700.8125 365.71875 C 1699.046875 366.257812 1697.253906 366.703125 1695.441406 367.066406 C 1693.628906 367.425781 1691.804688 367.695312 1689.964844 367.878906 C 1688.128906 368.058594 1686.285156 368.148438 1684.4375 368.148438 C 1682.589844 368.148438 1680.746094 368.058594 1678.90625 367.878906 C 1677.066406 367.695312 1675.242188 367.425781 1673.429688 367.066406 C 1671.617188 366.703125 1669.828125 366.257812 1668.058594 365.71875 C 1666.292969 365.183594 1664.554688 364.5625 1662.847656 363.855469 C 1661.140625 363.148438 1659.472656 362.359375 1657.839844 361.488281 C 1656.210938 360.617188 1654.628906 359.667969 1653.09375 358.640625 C 1651.554688 357.613281 1650.074219 356.515625 1648.644531 355.34375 C 1647.21875 354.171875 1645.851562 352.929688 1644.542969 351.625 C 1643.238281 350.316406 1641.996094 348.949219 1640.824219 347.523438 C 1639.652344 346.09375 1638.554688 344.613281 1637.527344 343.074219 C 1636.5 341.539062 1635.550781 339.957031 1634.679688 338.328125 C 1633.808594 336.695312 1633.019531 335.027344 1632.3125 333.320312 C 1631.605469 331.613281 1630.984375 329.875 1630.449219 328.109375 C 1629.910156 326.339844 1629.464844 324.550781 1629.101562 322.738281 C 1628.742188 320.925781 1628.472656 319.101562 1628.289062 317.261719 C 1628.109375 315.421875 1628.019531 313.578125 1628.019531 311.730469 C 1628.019531 309.882812 1628.109375 308.039062 1628.289062 306.203125 C 1628.472656 304.363281 1628.742188 302.535156 1629.101562 300.726562 C 1629.464844 298.914062 1629.910156 297.121094 1630.449219 295.355469 C 1630.984375 293.585938 1631.605469 291.847656 1632.3125 290.140625 C 1633.019531 288.433594 1633.808594 286.765625 1634.679688 285.136719 C 1635.550781 283.507812 1636.5 281.921875 1637.527344 280.386719 C 1638.554688 278.851562 1639.652344 277.367188 1640.824219 275.941406 C 1641.996094 274.511719 1643.238281 273.144531 1644.542969 271.839844 C 1645.851562 270.53125 1647.21875 269.292969 1648.644531 268.121094 C 1650.074219 266.949219 1651.554688 265.847656 1653.09375 264.820312 C 1654.628906 263.796875 1656.210938 262.847656 1657.839844 261.976562 C 1659.472656 261.105469 1661.140625 260.316406 1662.847656 259.609375 C 1664.554688 258.902344 1666.292969 258.28125 1668.058594 257.742188 C 1669.828125 257.207031 1671.617188 256.757812 1673.429688 256.398438 C 1675.242188 256.039062 1677.066406 255.765625 1678.90625 255.585938 C 1680.746094 255.402344 1682.589844 255.3125 1684.4375 255.3125 C 1686.285156 255.3125 1688.128906 255.402344 1689.964844 255.585938 C 1691.804688 255.765625 1693.628906 256.039062 1695.441406 256.398438 C 1697.253906 256.757812 1699.046875 257.207031 1700.8125 257.742188 C 1702.582031 258.28125 1704.320312 258.902344 1706.027344 259.609375 C 1707.734375 260.316406 1709.402344 261.105469 1711.03125 261.976562 C 1712.660156 262.847656 1714.242188 263.796875 1715.78125 264.820312 C 1717.316406 265.847656 1718.800781 266.949219 1720.226562 268.121094 C 1721.65625 269.292969 1723.023438 270.53125 1724.328125 271.839844 C 1725.636719 273.144531 1726.875 274.511719 1728.046875 275.941406 C 1729.21875 277.367188 1730.320312 278.851562 1731.347656 280.386719 C 1732.371094 281.921875 1733.320312 283.507812 1734.191406 285.136719 C 1735.0625 286.765625 1735.851562 288.433594 1736.558594 290.140625 C 1737.265625 291.847656 1737.886719 293.585938 1738.425781 295.355469 C 1738.960938 297.121094 1739.410156 298.914062 1739.769531 300.726562 C 1740.128906 302.535156 1740.402344 304.363281 1740.582031 306.203125 C 1740.761719 308.039062 1740.855469 309.882812 1740.855469 311.730469 Z M 1740.855469 311.730469 " fill-opacity="1" fill-rule="nonzero"/></g><g fill="#000000" fill-opacity="1"><g transform="translate(781.651336, 581.200657)"><g><path d="M 30.5 0.90625 C 25.257812 0.90625 20.726562 -0.285156 16.90625 -2.671875 C 13.082031 -5.066406 10.128906 -8.675781 8.046875 -13.5 C 5.972656 -18.332031 4.9375 -24.300781 4.9375 -31.40625 C 4.9375 -38.5625 6.179688 -44.550781 8.671875 -49.375 C 11.171875 -54.207031 14.628906 -57.804688 19.046875 -60.171875 C 23.472656 -62.535156 28.609375 -63.71875 34.453125 -63.71875 C 40.472656 -63.71875 45.597656 -62.597656 49.828125 -60.359375 C 54.066406 -58.128906 57.046875 -54.804688 58.765625 -50.390625 L 49.703125 -44.890625 L 48.625 -44.9375 C 47.34375 -47.738281 45.535156 -49.785156 43.203125 -51.078125 C 40.867188 -52.367188 37.953125 -53.015625 34.453125 -53.015625 C 29.035156 -53.015625 24.894531 -51.300781 22.03125 -47.875 C 19.175781 -44.457031 17.75 -38.96875 17.75 -31.40625 C 17.75 -23.8125 19.085938 -18.296875 21.765625 -14.859375 C 24.441406 -11.421875 28.398438 -9.703125 33.640625 -9.703125 C 38.160156 -9.703125 41.492188 -10.71875 43.640625 -12.75 C 45.796875 -14.789062 46.875 -17.832031 46.875 -21.875 L 46.875 -24.578125 L 32 -24.578125 L 32 -34.671875 L 59.203125 -34.671875 L 59.203125 0 L 47.34375 0 L 47.34375 -8.421875 L 46.4375 -8.546875 C 45.144531 -5.535156 43.1875 -3.207031 40.5625 -1.5625 C 37.945312 0.0820312 34.59375 0.90625 30.5 0.90625 Z M 30.5 0.90625 "/></g></g></g><g fill="#000000" fill-opacity="1"><g transform="translate(847.160859, 581.200657)"><g><path d="M 27.53125 0.90625 C 22.894531 0.90625 18.820312 -0.046875 15.3125 -1.953125 C 11.800781 -3.859375 9.078125 -6.648438 7.140625 -10.328125 C 5.210938 -14.015625 4.25 -18.460938 4.25 -23.671875 C 4.25 -28.878906 5.210938 -33.332031 7.140625 -37.03125 C 9.078125 -40.726562 11.800781 -43.523438 15.3125 -45.421875 C 18.820312 -47.328125 22.894531 -48.28125 27.53125 -48.28125 C 32.175781 -48.28125 36.25 -47.328125 39.75 -45.421875 C 43.257812 -43.523438 45.988281 -40.726562 47.9375 -37.03125 C 49.882812 -33.332031 50.859375 -28.878906 50.859375 -23.671875 C 50.859375 -18.460938 49.882812 -14.015625 47.9375 -10.328125 C 45.988281 -6.648438 43.257812 -3.859375 39.75 -1.953125 C 36.25 -0.046875 32.175781 0.90625 27.53125 0.90625 Z M 27.53125 -9.1875 C 34.894531 -9.1875 38.578125 -14.015625 38.578125 -23.671875 C 38.578125 -28.679688 37.628906 -32.351562 35.734375 -34.6875 C 33.847656 -37.019531 31.113281 -38.1875 27.53125 -38.1875 C 20.175781 -38.1875 16.5 -33.347656 16.5 -23.671875 C 16.5 -14.015625 20.175781 -9.1875 27.53125 -9.1875 Z M 27.53125 -9.1875 "/></g></g></g><g fill="#000000" fill-opacity="1"><g transform="translate(901.329695, 581.200657)"><g><path d="M 32.609375 0 L 18.4375 0 L 0.90625 -47.390625 L 13.359375 -47.390625 L 25.125 -13.625 L 26.125 -13.625 L 37.9375 -47.390625 L 50.09375 -47.390625 Z M 32.609375 0 "/></g></g></g><g fill="#000000" fill-opacity="1"><g transform="translate(951.374654, 581.200657)"><g><path d="M 46.828125 -21.015625 L 16.375 -21.015625 C 16.71875 -16.890625 17.890625 -13.882812 19.890625 -12 C 21.890625 -10.125 24.625 -9.1875 28.09375 -9.1875 C 30.8125 -9.1875 33.015625 -9.695312 34.703125 -10.71875 C 36.398438 -11.738281 37.765625 -13.28125 38.796875 -15.34375 L 39.703125 -15.34375 L 47.59375 -10.265625 C 46.050781 -6.941406 43.71875 -4.25 40.59375 -2.1875 C 37.476562 -0.125 33.3125 0.90625 28.09375 0.90625 C 23.195312 0.90625 18.960938 -0.0234375 15.390625 -1.890625 C 11.828125 -3.753906 9.078125 -6.523438 7.140625 -10.203125 C 5.210938 -13.878906 4.25 -18.367188 4.25 -23.671875 C 4.25 -29.054688 5.265625 -33.59375 7.296875 -37.28125 C 9.335938 -40.976562 12.085938 -43.734375 15.546875 -45.546875 C 19.015625 -47.367188 22.910156 -48.28125 27.234375 -48.28125 C 33.941406 -48.28125 39.078125 -46.503906 42.640625 -42.953125 C 46.203125 -39.410156 47.984375 -34.203125 47.984375 -27.328125 C 47.984375 -24.828125 47.898438 -22.894531 47.734375 -21.53125 Z M 36.609375 -28.703125 C 36.492188 -32.304688 35.65625 -34.929688 34.09375 -36.578125 C 32.53125 -38.222656 30.242188 -39.046875 27.234375 -39.046875 C 21.222656 -39.046875 17.6875 -35.597656 16.625 -28.703125 Z M 36.609375 -28.703125 "/></g></g></g><g fill="#000000" fill-opacity="1"><g transform="translate(1002.880163, 581.200657)"><g><path d="M 6.828125 0 L 6.828125 -47.390625 L 18.390625 -47.390625 L 18.390625 -40.34375 L 19.296875 -40.171875 C 20.441406 -42.804688 21.941406 -44.738281 23.796875 -45.96875 C 25.660156 -47.195312 27.925781 -47.8125 30.59375 -47.8125 C 33.28125 -47.8125 35.328125 -47.351562 36.734375 -46.4375 L 34.71875 -36.171875 L 33.8125 -36 C 33.039062 -36.3125 32.296875 -36.539062 31.578125 -36.6875 C 30.859375 -36.832031 29.984375 -36.90625 28.953125 -36.90625 C 25.628906 -36.90625 23.09375 -35.738281 21.34375 -33.40625 C 19.601562 -31.070312 18.734375 -27.328125 18.734375 -22.171875 L 18.734375 0 Z M 6.828125 0 "/></g></g></g><g fill="#000000" fill-opacity="1"><g transform="translate(1040.038038, 581.200657)"><g><path d="M 6.828125 0 L 6.828125 -47.390625 L 18.265625 -47.390625 L 18.265625 -40.421875 L 19.15625 -40.21875 C 22.101562 -45.59375 26.890625 -48.28125 33.515625 -48.28125 C 38.984375 -48.28125 43 -46.789062 45.5625 -43.8125 C 48.125 -40.84375 49.40625 -36.503906 49.40625 -30.796875 L 49.40625 0 L 37.5 0 L 37.5 -29.34375 C 37.5 -32.488281 36.867188 -34.753906 35.609375 -36.140625 C 34.347656 -37.535156 32.332031 -38.234375 29.5625 -38.234375 C 26.144531 -38.234375 23.484375 -37.128906 21.578125 -34.921875 C 19.679688 -32.722656 18.734375 -29.257812 18.734375 -24.53125 L 18.734375 0 Z M 6.828125 0 "/></g></g></g><g fill="#000000" fill-opacity="1"><g transform="translate(1095.538561, 581.200657)"><g><path d="M 18.46875 0.90625 C 15.4375 0.90625 12.800781 0.347656 10.5625 -0.765625 C 8.332031 -1.890625 6.613281 -3.53125 5.40625 -5.6875 C 4.207031 -7.851562 3.609375 -10.453125 3.609375 -13.484375 C 3.609375 -16.296875 4.207031 -18.648438 5.40625 -20.546875 C 6.613281 -22.453125 8.476562 -24.015625 11 -25.234375 C 13.519531 -26.453125 16.8125 -27.390625 20.875 -28.046875 C 23.707031 -28.503906 25.863281 -29.003906 27.34375 -29.546875 C 28.820312 -30.097656 29.816406 -30.71875 30.328125 -31.40625 C 30.847656 -32.09375 31.109375 -32.96875 31.109375 -34.03125 C 31.109375 -35.539062 30.578125 -36.695312 29.515625 -37.5 C 28.453125 -38.300781 26.691406 -38.703125 24.234375 -38.703125 C 21.597656 -38.703125 19.085938 -38.113281 16.703125 -36.9375 C 14.328125 -35.769531 12.269531 -34.226562 10.53125 -32.3125 L 9.671875 -32.3125 L 4.6875 -39.828125 C 7.09375 -42.492188 10.023438 -44.566406 13.484375 -46.046875 C 16.953125 -47.535156 20.734375 -48.28125 24.828125 -48.28125 C 31.097656 -48.28125 35.632812 -46.945312 38.4375 -44.28125 C 41.25 -41.625 42.65625 -37.847656 42.65625 -32.953125 L 42.65625 -12.375 C 42.65625 -10.25 43.585938 -9.1875 45.453125 -9.1875 C 46.171875 -9.1875 46.875 -9.316406 47.5625 -9.578125 L 48.15625 -9.40625 L 49.015625 -1.109375 C 48.359375 -0.679688 47.441406 -0.332031 46.265625 -0.0625 C 45.085938 0.207031 43.800781 0.34375 42.40625 0.34375 C 39.570312 0.34375 37.359375 -0.195312 35.765625 -1.28125 C 34.171875 -2.375 33.03125 -4.082031 32.34375 -6.40625 L 31.453125 -6.484375 C 29.128906 -1.554688 24.800781 0.90625 18.46875 0.90625 Z M 22.25 -7.984375 C 25 -7.984375 27.195312 -8.90625 28.84375 -10.75 C 30.488281 -12.601562 31.3125 -15.175781 31.3125 -18.46875 L 31.3125 -23.28125 L 30.5 -23.453125 C 29.78125 -22.878906 28.84375 -22.398438 27.6875 -22.015625 C 26.53125 -21.628906 24.863281 -21.25 22.6875 -20.875 C 20.101562 -20.445312 18.242188 -19.707031 17.109375 -18.65625 C 15.984375 -17.613281 15.421875 -16.132812 15.421875 -14.21875 C 15.421875 -12.1875 16.019531 -10.640625 17.21875 -9.578125 C 18.425781 -8.515625 20.101562 -7.984375 22.25 -7.984375 Z M 22.25 -7.984375 "/></g></g></g><g fill="#000000" fill-opacity="1"><g transform="translate(1145.497628, 581.200657)"><g><path d="M 6.828125 0 L 6.828125 -47.390625 L 18.265625 -47.390625 L 18.265625 -40.421875 L 19.15625 -40.21875 C 22.101562 -45.59375 26.890625 -48.28125 33.515625 -48.28125 C 38.984375 -48.28125 43 -46.789062 45.5625 -43.8125 C 48.125 -40.84375 49.40625 -36.503906 49.40625 -30.796875 L 49.40625 0 L 37.5 0 L 37.5 -29.34375 C 37.5 -32.488281 36.867188 -34.753906 35.609375 -36.140625 C 34.347656 -37.535156 32.332031 -38.234375 29.5625 -38.234375 C 26.144531 -38.234375 23.484375 -37.128906 21.578125 -34.921875 C 19.679688 -32.722656 18.734375 -29.257812 18.734375 -24.53125 L 18.734375 0 Z M 6.828125 0 "/></g></g></g><g fill="#000000" fill-opacity="1"><g transform="translate(1200.99815, 581.200657)"><g><path d="M 27.625 0.90625 C 23.039062 0.90625 18.988281 -0.046875 15.46875 -1.953125 C 11.945312 -3.859375 9.195312 -6.65625 7.21875 -10.34375 C 5.238281 -14.039062 4.25 -18.484375 4.25 -23.671875 C 4.25 -28.878906 5.238281 -33.332031 7.21875 -37.03125 C 9.195312 -40.726562 11.929688 -43.523438 15.421875 -45.421875 C 18.921875 -47.328125 22.914062 -48.28125 27.40625 -48.28125 C 37.40625 -48.28125 43.804688 -44.660156 46.609375 -37.421875 L 38.453125 -31.578125 L 37.546875 -31.578125 C 36.578125 -33.804688 35.3125 -35.460938 33.75 -36.546875 C 32.1875 -37.640625 30.070312 -38.1875 27.40625 -38.1875 C 23.96875 -38.1875 21.289062 -37 19.375 -34.625 C 17.457031 -32.25 16.5 -28.597656 16.5 -23.671875 C 16.5 -18.804688 17.472656 -15.175781 19.421875 -12.78125 C 21.367188 -10.382812 24.101562 -9.1875 27.625 -9.1875 C 30.195312 -9.1875 32.378906 -9.878906 34.171875 -11.265625 C 35.960938 -12.660156 37.242188 -14.660156 38.015625 -17.265625 L 38.921875 -17.359375 L 47.390625 -12.71875 C 46.179688 -8.707031 43.953125 -5.429688 40.703125 -2.890625 C 37.453125 -0.359375 33.09375 0.90625 27.625 0.90625 Z M 27.625 0.90625 "/></g></g></g><g fill="#000000" fill-opacity="1"><g transform="translate(1249.840345, 581.200657)"><g><path d="M 46.828125 -21.015625 L 16.375 -21.015625 C 16.71875 -16.890625 17.890625 -13.882812 19.890625 -12 C 21.890625 -10.125 24.625 -9.1875 28.09375 -9.1875 C 30.8125 -9.1875 33.015625 -9.695312 34.703125 -10.71875 C 36.398438 -11.738281 37.765625 -13.28125 38.796875 -15.34375 L 39.703125 -15.34375 L 47.59375 -10.265625 C 46.050781 -6.941406 43.71875 -4.25 40.59375 -2.1875 C 37.476562 -0.125 33.3125 0.90625 28.09375 0.90625 C 23.195312 0.90625 18.960938 -0.0234375 15.390625 -1.890625 C 11.828125 -3.753906 9.078125 -6.523438 7.140625 -10.203125 C 5.210938 -13.878906 4.25 -18.367188 4.25 -23.671875 C 4.25 -29.054688 5.265625 -33.59375 7.296875 -37.28125 C 9.335938 -40.976562 12.085938 -43.734375 15.546875 -45.546875 C 19.015625 -47.367188 22.910156 -48.28125 27.234375 -48.28125 C 33.941406 -48.28125 39.078125 -46.503906 42.640625 -42.953125 C 46.203125 -39.410156 47.984375 -34.203125 47.984375 -27.328125 C 47.984375 -24.828125 47.898438 -22.894531 47.734375 -21.53125 Z M 36.609375 -28.703125 C 36.492188 -32.304688 35.65625 -34.929688 34.09375 -36.578125 C 32.53125 -38.222656 30.242188 -39.046875 27.234375 -39.046875 C 21.222656 -39.046875 17.6875 -35.597656 16.625 -28.703125 Z M 36.609375 -28.703125 "/></g></g></g><g fill="#000000" fill-opacity="1"><g transform="translate(319.090552, 818.904522)"><g><path d="M 8.15625 0 L 8.15625 -62.8125 L 33.375 -62.8125 C 39.882812 -62.8125 44.789062 -61.3125 48.09375 -58.3125 C 51.40625 -55.320312 53.0625 -51.191406 53.0625 -45.921875 C 53.0625 -42.117188 52.09375 -39 50.15625 -36.5625 C 48.21875 -34.125 45.332031 -32.257812 41.5 -30.96875 L 41.5 -30.078125 C 43.476562 -29.210938 45.070312 -27.9375 46.28125 -26.25 C 47.5 -24.5625 48.65625 -22.054688 49.75 -18.734375 L 56.015625 0 L 43.265625 0 L 37.125 -18.78125 C 36.488281 -20.664062 35.773438 -22.128906 34.984375 -23.171875 C 34.203125 -24.222656 33.203125 -24.984375 31.984375 -25.453125 C 30.765625 -25.921875 29.179688 -26.15625 27.234375 -26.15625 L 20.578125 -26.15625 L 20.578125 0 Z M 31.875 -36 C 37.894531 -36 40.90625 -38.804688 40.90625 -44.421875 C 40.90625 -50.117188 37.894531 -52.96875 31.875 -52.96875 L 20.578125 -52.96875 L 20.578125 -36 Z M 31.875 -36 "/></g></g></g><g fill="#000000" fill-opacity="1"><g transform="translate(377.812859, 818.904522)"><g><path d="M 12.765625 -53.0625 C 10.609375 -53.0625 8.859375 -53.710938 7.515625 -55.015625 C 6.171875 -56.316406 5.5 -58 5.5 -60.0625 C 5.5 -62.09375 6.171875 -63.757812 7.515625 -65.0625 C 8.859375 -66.363281 10.609375 -67.015625 12.765625 -67.015625 C 14.191406 -67.015625 15.460938 -66.710938 16.578125 -66.109375 C 17.703125 -65.515625 18.570312 -64.691406 19.1875 -63.640625 C 19.800781 -62.597656 20.109375 -61.40625 20.109375 -60.0625 C 20.109375 -58.71875 19.800781 -57.515625 19.1875 -56.453125 C 18.570312 -55.390625 17.703125 -54.554688 16.578125 -53.953125 C 15.460938 -53.359375 14.191406 -53.0625 12.765625 -53.0625 Z M 6.828125 0 L 6.828125 -47.390625 L 18.734375 -47.390625 L 18.734375 0 Z M 6.828125 0 "/></g></g></g><g fill="#000000" fill-opacity="1"><g transform="translate(403.329353, 818.904522)"><g><path d="M 22.171875 0.90625 C 18.929688 0.90625 15.960938 0.523438 13.265625 -0.234375 C 10.578125 -0.992188 8.28125 -2.039062 6.375 -3.375 C 4.46875 -4.707031 3.054688 -6.234375 2.140625 -7.953125 L 8.765625 -15.078125 L 9.671875 -15.078125 C 11.242188 -12.960938 13.101562 -11.375 15.25 -10.3125 C 17.394531 -9.25 19.726562 -8.71875 22.25 -8.71875 C 24.570312 -8.71875 26.316406 -9.132812 27.484375 -9.96875 C 28.660156 -10.800781 29.25 -11.988281 29.25 -13.53125 C 29.25 -14.738281 28.828125 -15.75 27.984375 -16.5625 C 27.140625 -17.375 25.773438 -18.007812 23.890625 -18.46875 L 17.609375 -19.984375 C 12.910156 -21.097656 9.476562 -22.804688 7.3125 -25.109375 C 5.15625 -27.410156 4.078125 -30.335938 4.078125 -33.890625 C 4.078125 -36.847656 4.828125 -39.410156 6.328125 -41.578125 C 7.835938 -43.753906 9.957031 -45.414062 12.6875 -46.5625 C 15.425781 -47.707031 18.613281 -48.28125 22.25 -48.28125 C 26.519531 -48.28125 30.054688 -47.664062 32.859375 -46.4375 C 35.671875 -45.207031 37.863281 -43.5625 39.4375 -41.5 L 33.078125 -34.625 L 32.21875 -34.625 C 30.90625 -36.113281 29.421875 -37.203125 27.765625 -37.890625 C 26.117188 -38.578125 24.28125 -38.921875 22.25 -38.921875 C 17.550781 -38.921875 15.203125 -37.460938 15.203125 -34.546875 C 15.203125 -33.304688 15.640625 -32.300781 16.515625 -31.53125 C 17.390625 -30.757812 18.929688 -30.128906 21.140625 -29.640625 L 26.984375 -28.359375 C 31.796875 -27.328125 35.3125 -25.671875 37.53125 -23.390625 C 39.75 -21.117188 40.859375 -18.0625 40.859375 -14.21875 C 40.859375 -11.207031 40.113281 -8.554688 38.625 -6.265625 C 37.132812 -3.972656 34.984375 -2.203125 32.171875 -0.953125 C 29.367188 0.285156 26.035156 0.90625 22.171875 0.90625 Z M 22.171875 0.90625 "/></g></g></g><g fill="#000000" fill-opacity="1"><g transform="translate(447.016689, 818.904522)"><g><path d="M 6.828125 0 L 6.828125 -66.421875 L 18.734375 -66.421875 L 18.734375 -29.5625 L 19.890625 -29.5625 L 33.59375 -47.390625 L 45.671875 -47.390625 L 45.671875 -46.390625 L 29.5625 -25.609375 L 47.46875 -1.078125 L 47.46875 0 L 34.921875 0 L 19.890625 -19.984375 L 18.734375 -19.984375 L 18.734375 0 Z M 6.828125 0 "/></g></g></g><g fill="#000000" fill-opacity="1"><g transform="translate(1443.326184, 818.904522)"><g><path d="M 34.328125 0.90625 C 28.535156 0.90625 23.4375 -0.296875 19.03125 -2.703125 C 14.625 -5.109375 11.171875 -8.722656 8.671875 -13.546875 C 6.179688 -18.378906 4.9375 -24.332031 4.9375 -31.40625 C 4.9375 -38.476562 6.179688 -44.425781 8.671875 -49.25 C 11.171875 -54.082031 14.625 -57.703125 19.03125 -60.109375 C 23.4375 -62.515625 28.535156 -63.71875 34.328125 -63.71875 C 40.367188 -63.71875 45.5 -62.535156 49.71875 -60.171875 C 53.945312 -57.804688 56.960938 -54.203125 58.765625 -49.359375 L 49.703125 -43.828125 L 48.625 -43.859375 C 47.28125 -47.128906 45.457031 -49.472656 43.15625 -50.890625 C 40.851562 -52.304688 37.910156 -53.015625 34.328125 -53.015625 C 29.109375 -53.015625 25.039062 -51.285156 22.125 -47.828125 C 19.207031 -44.378906 17.75 -38.90625 17.75 -31.40625 C 17.75 -23.925781 19.207031 -18.460938 22.125 -15.015625 C 25.039062 -11.566406 29.109375 -9.84375 34.328125 -9.84375 C 42.484375 -9.84375 47.476562 -13.804688 49.3125 -21.734375 L 50.390625 -21.734375 L 59.546875 -16.96875 C 57.828125 -11.007812 54.890625 -6.539062 50.734375 -3.5625 C 46.578125 -0.582031 41.109375 0.90625 34.328125 0.90625 Z M 34.328125 0.90625 "/></g></g></g><g fill="#000000" fill-opacity="1"><g transform="translate(1504.926609, 818.904522)"><g><path d="M 27.53125 0.90625 C 22.894531 0.90625 18.820312 -0.046875 15.3125 -1.953125 C 11.800781 -3.859375 9.078125 -6.648438 7.140625 -10.328125 C 5.210938 -14.015625 4.25 -18.460938 4.25 -23.671875 C 4.25 -28.878906 5.210938 -33.332031 7.140625 -37.03125 C 9.078125 -40.726562 11.800781 -43.523438 15.3125 -45.421875 C 18.820312 -47.328125 22.894531 -48.28125 27.53125 -48.28125 C 32.175781 -48.28125 36.25 -47.328125 39.75 -45.421875 C 43.257812 -43.523438 45.988281 -40.726562 47.9375 -37.03125 C 49.882812 -33.332031 50.859375 -28.878906 50.859375 -23.671875 C 50.859375 -18.460938 49.882812 -14.015625 47.9375 -10.328125 C 45.988281 -6.648438 43.257812 -3.859375 39.75 -1.953125 C 36.25 -0.046875 32.175781 0.90625 27.53125 0.90625 Z M 27.53125 -9.1875 C 34.894531 -9.1875 38.578125 -14.015625 38.578125 -23.671875 C 38.578125 -28.679688 37.628906 -32.351562 35.734375 -34.6875 C 33.847656 -37.019531 31.113281 -38.1875 27.53125 -38.1875 C 20.175781 -38.1875 16.5 -33.347656 16.5 -23.671875 C 16.5 -14.015625 20.175781 -9.1875 27.53125 -9.1875 Z M 27.53125 -9.1875 "/></g></g></g><g fill="#000000" fill-opacity="1"><g transform="translate(1559.99756, 818.904522)"><g><path d="M 6.828125 0 L 6.828125 -47.390625 L 18.265625 -47.390625 L 18.265625 -41.03125 L 19.15625 -40.859375 C 20.707031 -43.398438 22.519531 -45.269531 24.59375 -46.46875 C 26.664062 -47.675781 29.320312 -48.28125 32.5625 -48.28125 C 36.144531 -48.28125 39.023438 -47.570312 41.203125 -46.15625 C 43.378906 -44.738281 44.96875 -42.671875 45.96875 -39.953125 L 46.875 -39.953125 C 48.332031 -42.785156 50.210938 -44.878906 52.515625 -46.234375 C 54.828125 -47.597656 57.703125 -48.28125 61.140625 -48.28125 C 70.960938 -48.28125 75.875 -42.8125 75.875 -31.875 L 75.875 0 L 63.96875 0 L 63.96875 -30.375 C 63.96875 -33.15625 63.421875 -35.160156 62.328125 -36.390625 C 61.242188 -37.617188 59.5 -38.234375 57.09375 -38.234375 C 50.5625 -38.234375 47.296875 -33.863281 47.296875 -25.125 L 47.296875 0 L 35.40625 0 L 35.40625 -30.375 C 35.40625 -33.15625 34.851562 -35.160156 33.75 -36.390625 C 32.644531 -37.617188 30.890625 -38.234375 28.484375 -38.234375 C 25.421875 -38.234375 23.03125 -37.207031 21.3125 -35.15625 C 19.59375 -33.113281 18.734375 -29.859375 18.734375 -25.390625 L 18.734375 0 Z M 6.828125 0 "/></g></g></g><g fill="#000000" fill-opacity="1"><g transform="translate(1641.959632, 818.904522)"><g><path d="M 6.828125 19.203125 L 6.828125 -47.390625 L 18.734375 -47.390625 L 18.734375 -41.203125 L 19.640625 -41.03125 C 21.035156 -43.4375 22.90625 -45.242188 25.25 -46.453125 C 27.601562 -47.671875 30.359375 -48.28125 33.515625 -48.28125 C 37.316406 -48.28125 40.640625 -47.378906 43.484375 -45.578125 C 46.335938 -43.773438 48.5625 -41.03125 50.15625 -37.34375 C 51.75 -33.664062 52.546875 -29.109375 52.546875 -23.671875 C 52.546875 -18.253906 51.707031 -13.710938 50.03125 -10.046875 C 48.351562 -6.378906 46.023438 -3.632812 43.046875 -1.8125 C 40.066406 0 36.628906 0.90625 32.734375 0.90625 C 29.785156 0.90625 27.238281 0.410156 25.09375 -0.578125 C 22.945312 -1.566406 21.128906 -3.109375 19.640625 -5.203125 L 18.734375 -5.03125 L 18.734375 19.203125 Z M 29.421875 -9.1875 C 32.972656 -9.1875 35.664062 -10.347656 37.5 -12.671875 C 39.332031 -14.992188 40.25 -18.660156 40.25 -23.671875 C 40.25 -28.679688 39.332031 -32.351562 37.5 -34.6875 C 35.664062 -37.019531 32.972656 -38.1875 29.421875 -38.1875 C 26.097656 -38.1875 23.460938 -36.984375 21.515625 -34.578125 C 19.578125 -32.171875 18.609375 -28.535156 18.609375 -23.671875 C 18.609375 -18.828125 19.578125 -15.203125 21.515625 -12.796875 C 23.460938 -10.390625 26.097656 -9.1875 29.421875 -9.1875 Z M 29.421875 -9.1875 "/></g></g></g><g fill="#000000" fill-opacity="1"><g transform="translate(1698.705926, 818.904522)"><g><path d="M 19.671875 0.90625 C 15.410156 0.90625 12.15625 -0.242188 9.90625 -2.546875 C 7.65625 -4.859375 6.53125 -8.363281 6.53125 -13.0625 L 6.53125 -66.421875 L 18.4375 -66.421875 L 18.4375 -13.53125 C 18.4375 -10.632812 19.632812 -9.1875 22.03125 -9.1875 C 22.71875 -9.1875 23.453125 -9.300781 24.234375 -9.53125 L 24.828125 -9.359375 L 25.90625 -0.21875 C 25.25 0.125 24.375 0.394531 23.28125 0.59375 C 22.195312 0.800781 20.992188 0.90625 19.671875 0.90625 Z M 19.671875 0.90625 "/></g></g></g><g fill="#000000" fill-opacity="1"><g transform="translate(1725.940691, 818.904522)"><g><path d="M 12.765625 -53.0625 C 10.609375 -53.0625 8.859375 -53.710938 7.515625 -55.015625 C 6.171875 -56.316406 5.5 -58 5.5 -60.0625 C 5.5 -62.09375 6.171875 -63.757812 7.515625 -65.0625 C 8.859375 -66.363281 10.609375 -67.015625 12.765625 -67.015625 C 14.191406 -67.015625 15.460938 -66.710938 16.578125 -66.109375 C 17.703125 -65.515625 18.570312 -64.691406 19.1875 -63.640625 C 19.800781 -62.597656 20.109375 -61.40625 20.109375 -60.0625 C 20.109375 -58.71875 19.800781 -57.515625 19.1875 -56.453125 C 18.570312 -55.390625 17.703125 -54.554688 16.578125 -53.953125 C 15.460938 -53.359375 14.191406 -53.0625 12.765625 -53.0625 Z M 6.828125 0 L 6.828125 -47.390625 L 18.734375 -47.390625 L 18.734375 0 Z M 6.828125 0 "/></g></g></g><g fill="#000000" fill-opacity="1"><g transform="translate(1751.457173, 818.904522)"><g><path d="M 18.46875 0.90625 C 15.4375 0.90625 12.800781 0.347656 10.5625 -0.765625 C 8.332031 -1.890625 6.613281 -3.53125 5.40625 -5.6875 C 4.207031 -7.851562 3.609375 -10.453125 3.609375 -13.484375 C 3.609375 -16.296875 4.207031 -18.648438 5.40625 -20.546875 C 6.613281 -22.453125 8.476562 -24.015625 11 -25.234375 C 13.519531 -26.453125 16.8125 -27.390625 20.875 -28.046875 C 23.707031 -28.503906 25.863281 -29.003906 27.34375 -29.546875 C 28.820312 -30.097656 29.816406 -30.71875 30.328125 -31.40625 C 30.847656 -32.09375 31.109375 -32.96875 31.109375 -34.03125 C 31.109375 -35.539062 30.578125 -36.695312 29.515625 -37.5 C 28.453125 -38.300781 26.691406 -38.703125 24.234375 -38.703125 C 21.597656 -38.703125 19.085938 -38.113281 16.703125 -36.9375 C 14.328125 -35.769531 12.269531 -34.226562 10.53125 -32.3125 L 9.671875 -32.3125 L 4.6875 -39.828125 C 7.09375 -42.492188 10.023438 -44.566406 13.484375 -46.046875 C 16.953125 -47.535156 20.734375 -48.28125 24.828125 -48.28125 C 31.097656 -48.28125 35.632812 -46.945312 38.4375 -44.28125 C 41.25 -41.625 42.65625 -37.847656 42.65625 -32.953125 L 42.65625 -12.375 C 42.65625 -10.25 43.585938 -9.1875 45.453125 -9.1875 C 46.171875 -9.1875 46.875 -9.316406 47.5625 -9.578125 L 48.15625 -9.40625 L 49.015625 -1.109375 C 48.359375 -0.679688 47.441406 -0.332031 46.265625 -0.0625 C 45.085938 0.207031 43.800781 0.34375 42.40625 0.34375 C 39.570312 0.34375 37.359375 -0.195312 35.765625 -1.28125 C 34.171875 -2.375 33.03125 -4.082031 32.34375 -6.40625 L 31.453125 -6.484375 C 29.128906 -1.554688 24.800781 0.90625 18.46875 0.90625 Z M 22.25 -7.984375 C 25 -7.984375 27.195312 -8.90625 28.84375 -10.75 C 30.488281 -12.601562 31.3125 -15.175781 31.3125 -18.46875 L 31.3125 -23.28125 L 30.5 -23.453125 C 29.78125 -22.878906 28.84375 -22.398438 27.6875 -22.015625 C 26.53125 -21.628906 24.863281 -21.25 22.6875 -20.875 C 20.101562 -20.445312 18.242188 -19.707031 17.109375 -18.65625 C 15.984375 -17.613281 15.421875 -16.132812 15.421875 -14.21875 C 15.421875 -12.1875 16.019531 -10.640625 17.21875 -9.578125 C 18.425781 -8.515625 20.101562 -7.984375 22.25 -7.984375 Z M 22.25 -7.984375 "/></g></g></g><g fill="#000000" fill-opacity="1"><g transform="translate(1801.41624, 818.904522)"><g><path d="M 6.828125 0 L 6.828125 -47.390625 L 18.265625 -47.390625 L 18.265625 -40.421875 L 19.15625 -40.21875 C 22.101562 -45.59375 26.890625 -48.28125 33.515625 -48.28125 C 38.984375 -48.28125 43 -46.789062 45.5625 -43.8125 C 48.125 -40.84375 49.40625 -36.503906 49.40625 -30.796875 L 49.40625 0 L 37.5 0 L 37.5 -29.34375 C 37.5 -32.488281 36.867188 -34.753906 35.609375 -36.140625 C 34.347656 -37.535156 32.332031 -38.234375 29.5625 -38.234375 C 26.144531 -38.234375 23.484375 -37.128906 21.578125 -34.921875 C 19.679688 -32.722656 18.734375 -29.257812 18.734375 -24.53125 L 18.734375 0 Z M 6.828125 0 "/></g></g></g><g fill="#000000" fill-opacity="1"><g transform="translate(1856.916785, 818.904522)"><g><path d="M 27.625 0.90625 C 23.039062 0.90625 18.988281 -0.046875 15.46875 -1.953125 C 11.945312 -3.859375 9.195312 -6.65625 7.21875 -10.34375 C 5.238281 -14.039062 4.25 -18.484375 4.25 -23.671875 C 4.25 -28.878906 5.238281 -33.332031 7.21875 -37.03125 C 9.195312 -40.726562 11.929688 -43.523438 15.421875 -45.421875 C 18.921875 -47.328125 22.914062 -48.28125 27.40625 -48.28125 C 37.40625 -48.28125 43.804688 -44.660156 46.609375 -37.421875 L 38.453125 -31.578125 L 37.546875 -31.578125 C 36.578125 -33.804688 35.3125 -35.460938 33.75 -36.546875 C 32.1875 -37.640625 30.070312 -38.1875 27.40625 -38.1875 C 23.96875 -38.1875 21.289062 -37 19.375 -34.625 C 17.457031 -32.25 16.5 -28.597656 16.5 -23.671875 C 16.5 -18.804688 17.472656 -15.175781 19.421875 -12.78125 C 21.367188 -10.382812 24.101562 -9.1875 27.625 -9.1875 C 30.195312 -9.1875 32.378906 -9.878906 34.171875 -11.265625 C 35.960938 -12.660156 37.242188 -14.660156 38.015625 -17.265625 L 38.921875 -17.359375 L 47.390625 -12.71875 C 46.179688 -8.707031 43.953125 -5.429688 40.703125 -2.890625 C 37.453125 -0.359375 33.09375 0.90625 27.625 0.90625 Z M 27.625 0.90625 "/></g></g></g><g fill="#000000" fill-opacity="1"><g transform="translate(1905.758934, 818.904522)"><g><path d="M 46.828125 -21.015625 L 16.375 -21.015625 C 16.71875 -16.890625 17.890625 -13.882812 19.890625 -12 C 21.890625 -10.125 24.625 -9.1875 28.09375 -9.1875 C 30.8125 -9.1875 33.015625 -9.695312 34.703125 -10.71875 C 36.398438 -11.738281 37.765625 -13.28125 38.796875 -15.34375 L 39.703125 -15.34375 L 47.59375 -10.265625 C 46.050781 -6.941406 43.71875 -4.25 40.59375 -2.1875 C 37.476562 -0.125 33.3125 0.90625 28.09375 0.90625 C 23.195312 0.90625 18.960938 -0.0234375 15.390625 -1.890625 C 11.828125 -3.753906 9.078125 -6.523438 7.140625 -10.203125 C 5.210938 -13.878906 4.25 -18.367188 4.25 -23.671875 C 4.25 -29.054688 5.265625 -33.59375 7.296875 -37.28125 C 9.335938 -40.976562 12.085938 -43.734375 15.546875 -45.546875 C 19.015625 -47.367188 22.910156 -48.28125 27.234375 -48.28125 C 33.941406 -48.28125 39.078125 -46.503906 42.640625 -42.953125 C 46.203125 -39.410156 47.984375 -34.203125 47.984375 -27.328125 C 47.984375 -24.828125 47.898438 -22.894531 47.734375 -21.53125 Z M 36.609375 -28.703125 C 36.492188 -32.304688 35.65625 -34.929688 34.09375 -36.578125 C 32.53125 -38.222656 30.242188 -39.046875 27.234375 -39.046875 C 21.222656 -39.046875 17.6875 -35.597656 16.625 -28.703125 Z M 36.609375 -28.703125 "/></g></g></g></g></g></svg>