<svg xmlns="http://www.w3.org/2000/svg" xmlns:xlink="http://www.w3.org/1999/xlink" width="794" zoomAndPan="magnify" viewBox="0 0 595.5 842.249979" height="1123" preserveAspectRatio="xMidYMid meet" version="1.0"><defs><clipPath id="9d1dbba173"><path d="M 0.015625 0 L 594.984375 0 L 594.984375 667 L 0.015625 667 Z M 0.015625 0 " clip-rule="nonzero"/></clipPath><clipPath id="853d36ceb8"><path d="M 48 31 L 594.984375 31 L 594.984375 648 L 48 648 Z M 48 31 " clip-rule="nonzero"/></clipPath><clipPath id="51c49aa8e8"><path d="M -50.371094 105.347656 L 581.65625 -21.695312 L 695.105469 542.71875 L 63.078125 669.761719 Z M -50.371094 105.347656 " clip-rule="nonzero"/></clipPath><clipPath id="7b0aeec281"><path d="M -50.503906 105.371094 L 581.523438 -21.667969 L 694.976562 542.746094 L 62.949219 669.789062 Z M -50.503906 105.371094 " clip-rule="nonzero"/></clipPath><clipPath id="80f08f5066"><rect x="0" width="595" y="0" height="667"/></clipPath></defs><g clip-path="url(#9d1dbba173)"><g transform="matrix(1, 0, 0, 1, -0.000000000000000002, 0)"><g clip-path="url(#80f08f5066)"><g clip-path="url(#853d36ceb8)"><g clip-path="url(#51c49aa8e8)"><g clip-path="url(#7b0aeec281)"><path fill="#d9d9d9" d="M 363.914062 31.214844 L 342.152344 35.847656 C 258.878906 52.386719 216.546875 69.261719 215.160156 86.472656 C 214.425781 91.34375 216.75 96.617188 222.136719 102.28125 L 232.714844 111.128906 C 241.4375 117.242188 252.3125 123.800781 265.347656 130.8125 C 322.359375 161.175781 351.144531 177.070312 351.699219 178.496094 C 366.269531 187.394531 379.445312 196.789062 391.230469 206.683594 C 403.019531 216.578125 412.234375 226.980469 418.875 237.898438 L 426.019531 254.671875 L 427.839844 272.203125 C 427.171875 284.152344 424.027344 296.375 418.394531 308.871094 L 409.042969 327.621094 L 363.007812 400.898438 L 354.113281 417.820312 C 348.851562 428.851562 346.195312 439.128906 346.144531 448.644531 L 348.980469 462.15625 C 352.808594 470.648438 360.191406 478.210938 371.132812 484.84375 C 373.128906 489.070312 395.921875 497.347656 439.507812 509.675781 C 486.167969 521.203125 571.394531 532.125 695.195312 542.445312 L 159.753906 647.679688 C 121.179688 617.914062 90.125 587.894531 66.582031 557.625 C 43.042969 527.355469 42.050781 496.328125 63.609375 464.546875 C 64.636719 459.34375 82.785156 443.195312 118.054688 416.101562 L 217.25 350.332031 C 233.621094 339.332031 248.351562 328.351562 261.449219 317.394531 C 274.546875 306.4375 284.757812 295.535156 292.09375 284.691406 L 300 268.488281 L 302.023438 252.425781 C 301.3125 241.761719 297.691406 231.273438 291.164062 220.964844 C 284.636719 210.65625 276.417969 200.613281 266.507812 190.839844 C 266.707031 189.6875 246.222656 171.640625 205.054688 136.707031 C 195.699219 128.527344 188.300781 120.878906 182.871094 113.765625 C 174.386719 100.84375 173.425781 91.089844 179.984375 84.503906 C 194.230469 64.699219 255.539062 46.9375 363.914062 31.214844 " fill-opacity="1" fill-rule="nonzero"/><path fill="#f5f5f5" d="M 363.914062 31.214844 L 342.152344 35.847656 C 258.878906 52.386719 216.546875 69.261719 215.160156 86.472656 C 214.425781 91.34375 216.75 96.617188 222.136719 102.28125 L 232.714844 111.128906 C 241.4375 117.242188 252.3125 123.800781 265.347656 130.8125 C 322.359375 161.175781 351.144531 177.070312 351.699219 178.496094 C 366.269531 187.394531 379.445312 196.789062 391.230469 206.683594 C 403.019531 216.578125 412.234375 226.980469 418.875 237.898438 L 426.019531 254.671875 L 427.839844 272.203125 C 427.171875 284.152344 424.027344 296.375 418.394531 308.871094 L 409.042969 327.621094 L 363.007812 400.898438 L 354.113281 417.820312 C 348.851562 428.851562 346.195312 439.128906 346.144531 448.644531 L 348.980469 462.15625 C 352.808594 470.648438 360.191406 478.210938 371.132812 484.84375 C 373.128906 489.070312 395.921875 497.347656 439.507812 509.675781 C 486.167969 521.203125 571.394531 532.125 695.195312 542.445312 L 159.753906 647.679688 C 121.179688 617.914062 90.125 587.894531 66.582031 557.625 C 43.042969 527.355469 42.050781 496.328125 63.609375 464.546875 C 64.636719 459.34375 82.785156 443.195312 118.054688 416.101562 L 217.25 350.332031 C 233.621094 339.332031 248.351562 328.351562 261.449219 317.394531 C 274.546875 306.4375 284.757812 295.535156 292.09375 284.691406 L 300 268.488281 L 302.023438 252.425781 C 301.3125 241.761719 297.691406 231.273438 291.164062 220.964844 C 284.636719 210.65625 276.417969 200.613281 266.507812 190.839844 C 266.707031 189.6875 246.222656 171.640625 205.054688 136.707031 C 195.699219 128.527344 188.300781 120.878906 182.871094 113.765625 C 174.386719 100.84375 173.425781 91.089844 179.984375 84.503906 C 194.230469 64.699219 255.539062 46.9375 363.914062 31.214844 " fill-opacity="1" fill-rule="nonzero"/></g></g></g></g></g></g></svg>