<svg xmlns="http://www.w3.org/2000/svg" xmlns:xlink="http://www.w3.org/1999/xlink" width="512" zoomAndPan="magnify" viewBox="0 0 384 599.999999" height="800" preserveAspectRatio="xMidYMid meet" version="1.0"><path fill="#c4e5ee" d="M 21.472656 359.335938 C 43.359375 402.511719 85.035156 436.578125 133.65625 452.441406 C 185.621094 469.398438 244.3125 463.671875 292.457031 437.910156 C 339.289062 412.867188 364.515625 358.152344 375.109375 308.203125 C 383.585938 268.324219 383.957031 225.714844 371.308594 186.644531 C 360.34375 152.800781 339.636719 120.613281 308.03125 102.847656 C 269.628906 81.257812 223.652344 85.105469 183.21875 98.390625 C 109.519531 122.578125 31.867188 173.972656 10.332031 252.832031 C -0.0429688 290.875 5.375 327.585938 21.472656 359.335938 Z M 21.472656 359.335938 " fill-opacity="1" fill-rule="nonzero"/><path fill="#c4e5ee" d="M 21.472656 359.335938 C 43.359375 402.511719 85.035156 436.578125 133.65625 452.441406 C 185.621094 469.398438 244.3125 463.671875 292.457031 437.910156 C 339.289062 412.867188 364.515625 358.152344 375.109375 308.203125 C 383.585938 268.324219 383.957031 225.714844 371.308594 186.644531 C 360.34375 152.800781 339.636719 120.613281 308.03125 102.847656 C 269.628906 81.257812 223.652344 85.105469 183.21875 98.390625 C 109.519531 122.578125 31.867188 173.972656 10.332031 252.832031 C -0.0429688 290.875 5.375 327.585938 21.472656 359.335938 Z M 21.472656 359.335938 " fill-opacity="1" fill-rule="nonzero"/></svg>