<svg xmlns="http://www.w3.org/2000/svg" xmlns:xlink="http://www.w3.org/1999/xlink" width="1410" zoomAndPan="magnify" viewBox="0 0 1057.5 1687.499993" height="2250" preserveAspectRatio="xMidYMid meet" version="1.0"><defs><g/><clipPath id="427a886638"><path d="M 164.765625 388.832031 L 891.921875 388.832031 L 891.921875 1298.152344 L 164.765625 1298.152344 Z M 164.765625 388.832031 " clip-rule="nonzero"/></clipPath><clipPath id="65aecb552c"><path d="M 262.304688 1292 L 794.550781 1292 L 794.550781 1409 L 262.304688 1409 Z M 262.304688 1292 " clip-rule="nonzero"/></clipPath><clipPath id="8b40401305"><rect x="0" width="307" y="0" height="96"/></clipPath><clipPath id="fce5b2becb"><rect x="0" width="254" y="0" height="96"/></clipPath><clipPath id="6a648018bd"><rect x="0" width="250" y="0" height="96"/></clipPath></defs><g clip-path="url(#427a886638)"><path fill="#000000" d="M 808.28125 700.785156 L 409.953125 700.785156 C 407.644531 700.785156 405.539062 701.730469 404.023438 703.25 C 402.503906 704.769531 401.554688 706.871094 401.554688 709.175781 L 401.554688 818.457031 C 401.554688 820.761719 402.503906 822.863281 404.023438 824.382812 C 405.539062 825.902344 407.644531 826.851562 409.953125 826.851562 L 808.277344 826.851562 C 809.539062 826.851562 810.625 826.664062 811.519531 826.304688 C 812.433594 825.90625 813.347656 825.265625 814.21875 824.394531 L 868.859375 769.757812 C 870.480469 768.132812 871.300781 765.976562 871.300781 763.816406 C 871.300781 761.640625 870.488281 759.480469 868.878906 757.855469 L 814.21875 703.238281 C 813.34375 702.363281 812.433594 701.726562 811.515625 701.347656 L 811.230469 701.226562 C 810.394531 700.933594 809.410156 700.785156 808.28125 700.785156 Z M 555.109375 457.050781 L 555.109375 410.167969 L 502.175781 410.167969 L 502.175781 457.050781 Z M 480.859375 457.050781 L 480.859375 399.511719 C 480.859375 393.625 485.632812 388.855469 491.515625 388.855469 L 565.765625 388.855469 C 571.652344 388.855469 576.425781 393.625 576.425781 399.511719 L 576.425781 457.050781 L 647.335938 457.050781 C 655.515625 457.050781 662.949219 460.390625 668.328125 465.765625 C 673.703125 471.144531 677.042969 478.578125 677.042969 486.757812 L 677.042969 596.035156 C 677.042969 604.222656 673.703125 611.652344 668.328125 617.027344 C 662.949219 622.40625 655.515625 625.742188 647.335938 625.742188 L 576.425781 625.742188 L 576.425781 679.46875 L 808.28125 679.46875 C 812.015625 679.46875 815.59375 680.136719 818.992188 681.445312 L 819.671875 681.703125 C 823.238281 683.179688 826.457031 685.347656 829.285156 688.171875 L 883.925781 742.851562 C 889.714844 748.644531 892.617188 756.242188 892.617188 763.816406 C 892.617188 771.414062 889.714844 779.035156 883.925781 784.824219 L 829.285156 839.460938 C 826.453125 842.289062 823.238281 844.453125 819.671875 845.933594 L 819.628906 845.933594 C 816.042969 847.414062 812.25 848.164062 808.277344 848.164062 L 576.425781 848.164062 L 576.425781 901.890625 L 647.335938 901.890625 C 655.523438 901.890625 662.949219 905.226562 668.328125 910.605469 C 673.703125 915.984375 677.042969 923.414062 677.042969 931.601562 L 677.042969 1040.875 C 677.042969 1049.0625 673.703125 1056.496094 668.328125 1061.871094 C 662.949219 1067.25 655.515625 1070.585938 647.335938 1070.585938 L 576.425781 1070.585938 L 576.425781 1287.472656 C 576.425781 1293.355469 571.652344 1298.128906 565.765625 1298.128906 L 491.515625 1298.128906 C 485.632812 1298.128906 480.859375 1293.355469 480.859375 1287.472656 L 480.859375 1070.585938 L 249.011719 1070.585938 C 245.039062 1070.585938 241.246094 1069.835938 237.65625 1068.351562 L 237.621094 1068.335938 C 234.105469 1066.894531 230.890625 1064.730469 228.027344 1061.859375 L 173.359375 1007.242188 L 172.691406 1006.511719 C 167.34375 1000.792969 164.667969 993.496094 164.667969 986.238281 C 164.667969 978.640625 167.5625 971.027344 173.359375 965.234375 L 228.003906 910.59375 L 228.703125 909.949219 C 231.363281 907.445312 234.347656 905.5 237.625 904.140625 C 241.199219 902.644531 245.007812 901.890625 249.007812 901.890625 L 480.859375 901.890625 L 480.859375 848.164062 L 409.953125 848.164062 C 401.765625 848.164062 394.335938 844.824219 388.957031 839.449219 C 383.578125 834.070312 380.242188 826.636719 380.242188 818.457031 L 380.242188 709.175781 C 380.242188 700.996094 383.578125 693.5625 388.957031 688.1875 C 394.335938 682.808594 401.765625 679.46875 409.953125 679.46875 L 480.859375 679.46875 L 480.859375 625.742188 L 249.011719 625.742188 C 245.039062 625.742188 241.242188 624.992188 237.65625 623.511719 L 237.621094 623.5 C 234.046875 622.035156 230.828125 619.867188 228.003906 617.042969 L 173.359375 562.402344 C 167.566406 556.609375 164.667969 548.996094 164.667969 541.398438 C 164.667969 533.792969 167.566406 526.183594 173.355469 520.394531 L 228.003906 465.753906 L 228.703125 465.113281 C 231.363281 462.601562 234.347656 460.660156 237.625 459.300781 C 241.199219 457.800781 245.007812 457.050781 249.007812 457.050781 Z M 502.175781 625.742188 L 502.175781 679.46875 L 555.109375 679.46875 L 555.109375 625.742188 Z M 502.175781 848.164062 L 502.175781 901.890625 L 555.109375 901.890625 L 555.109375 848.164062 Z M 502.175781 1070.585938 L 502.175781 1276.816406 L 555.109375 1276.816406 L 555.109375 1070.585938 Z M 647.335938 923.203125 L 249.007812 923.203125 C 247.765625 923.203125 246.679688 923.394531 245.777344 923.769531 L 245.734375 923.769531 C 244.953125 924.09375 244.191406 924.59375 243.441406 925.265625 L 188.425781 980.296875 C 186.796875 981.925781 185.980469 984.078125 185.980469 986.238281 C 185.980469 988.261719 186.671875 990.257812 188.042969 991.8125 C 192.734375 996.273438 243.070312 1046.742188 243.070312 1046.859375 C 243.894531 1047.683594 244.804688 1048.308594 245.769531 1048.707031 C 246.667969 1049.089844 247.753906 1049.273438 249.011719 1049.273438 L 647.335938 1049.273438 C 649.640625 1049.273438 651.742188 1048.328125 653.261719 1046.808594 C 654.78125 1045.285156 655.730469 1043.1875 655.730469 1040.875 L 655.730469 931.601562 C 655.730469 929.292969 654.78125 927.1875 653.261719 925.671875 C 651.742188 924.152344 649.640625 923.203125 647.335938 923.203125 Z M 647.335938 478.363281 L 249.007812 478.363281 C 247.765625 478.363281 246.679688 478.554688 245.777344 478.929688 L 245.734375 478.929688 C 244.953125 479.253906 244.191406 479.753906 243.441406 480.425781 L 188.425781 535.457031 C 186.796875 537.082031 185.980469 539.238281 185.980469 541.398438 C 185.980469 543.554688 186.796875 545.710938 188.421875 547.332031 L 243.070312 601.976562 C 243.945312 602.851562 244.855469 603.488281 245.769531 603.867188 C 246.664062 604.246094 247.746094 604.429688 249.011719 604.429688 L 647.335938 604.429688 C 649.640625 604.429688 651.742188 603.480469 653.261719 601.964844 C 654.78125 600.445312 655.730469 598.34375 655.730469 596.035156 L 655.730469 486.757812 C 655.730469 484.453125 654.78125 482.351562 653.261719 480.832031 C 651.742188 479.308594 649.640625 478.363281 647.335938 478.363281 Z M 647.335938 478.363281 " fill-opacity="1" fill-rule="evenodd"/></g><g clip-path="url(#65aecb552c)"><path fill="#000000" d="M 790.621094 1408.820312 C 789.578125 1408.796875 788.667969 1408.433594 787.890625 1407.730469 C 783.636719 1403.492188 779.277344 1399.363281 774.820312 1395.34375 C 770.359375 1391.320312 765.804688 1387.40625 761.15625 1383.609375 C 756.503906 1379.808594 751.765625 1376.125 746.933594 1372.558594 C 742.105469 1368.988281 737.1875 1365.542969 732.1875 1362.214844 C 727.191406 1358.886719 722.113281 1355.683594 716.953125 1352.605469 C 711.796875 1349.527344 706.570312 1346.578125 701.269531 1343.753906 C 695.96875 1340.929688 690.601562 1338.238281 685.167969 1335.679688 C 679.734375 1333.121094 674.242188 1330.695312 668.691406 1328.402344 C 663.140625 1326.109375 657.535156 1323.957031 651.878906 1321.9375 C 646.21875 1319.921875 640.515625 1318.042969 634.769531 1316.308594 C 629.019531 1314.570312 623.230469 1312.972656 617.402344 1311.515625 C 611.574219 1310.0625 605.714844 1308.75 599.824219 1307.582031 C 593.933594 1306.414062 588.015625 1305.390625 582.074219 1304.511719 C 576.132812 1303.636719 570.171875 1302.902344 564.195312 1302.316406 C 558.21875 1301.730469 552.230469 1301.289062 546.230469 1300.996094 C 540.230469 1300.699219 534.226562 1300.554688 528.222656 1300.554688 C 522.214844 1300.554688 516.210938 1300.699219 510.210938 1300.996094 C 504.214844 1301.289062 498.226562 1301.730469 492.246094 1302.316406 C 486.269531 1302.902344 480.308594 1303.636719 474.367188 1304.511719 C 468.425781 1305.390625 462.507812 1306.414062 456.617188 1307.582031 C 450.726562 1308.75 444.867188 1310.0625 439.039062 1311.515625 C 433.210938 1312.972656 427.421875 1314.570312 421.675781 1316.308594 C 415.925781 1318.042969 410.222656 1319.921875 404.566406 1321.9375 C 398.90625 1323.957031 393.304688 1326.109375 387.75 1328.402344 C 382.199219 1330.695312 376.707031 1333.121094 371.273438 1335.679688 C 365.839844 1338.238281 360.472656 1340.929688 355.171875 1343.753906 C 349.871094 1346.578125 344.644531 1349.527344 339.488281 1352.605469 C 334.332031 1355.683594 329.253906 1358.886719 324.253906 1362.214844 C 319.253906 1365.542969 314.339844 1368.988281 309.507812 1372.558594 C 304.675781 1376.125 299.9375 1379.808594 295.285156 1383.609375 C 290.636719 1387.40625 286.082031 1391.320312 281.621094 1395.34375 C 277.164062 1399.363281 272.808594 1403.492188 268.550781 1407.730469 C 268.371094 1407.910156 268.179688 1408.074219 267.96875 1408.214844 C 267.757812 1408.359375 267.535156 1408.480469 267.300781 1408.578125 C 267.066406 1408.675781 266.824219 1408.75 266.574219 1408.800781 C 266.324219 1408.851562 266.074219 1408.875 265.820312 1408.875 C 265.566406 1408.875 265.3125 1408.851562 265.0625 1408.800781 C 264.8125 1408.75 264.570312 1408.675781 264.335938 1408.578125 C 264.101562 1408.480469 263.878906 1408.359375 263.671875 1408.214844 C 263.460938 1408.074219 263.265625 1407.910156 263.085938 1407.730469 C 262.902344 1407.554688 262.734375 1407.363281 262.585938 1407.152344 C 262.441406 1406.945312 262.316406 1406.722656 262.214844 1406.488281 C 262.113281 1406.253906 262.035156 1406.007812 261.984375 1405.757812 C 261.929688 1405.507812 261.90625 1405.253906 261.90625 1405 C 261.90625 1404.742188 261.929688 1404.492188 261.984375 1404.238281 C 262.035156 1403.988281 262.113281 1403.746094 262.214844 1403.511719 C 262.316406 1403.277344 262.441406 1403.054688 262.585938 1402.847656 C 262.734375 1402.636719 262.902344 1402.445312 263.085938 1402.269531 C 267.433594 1397.9375 271.886719 1393.714844 276.441406 1389.601562 C 280.996094 1385.488281 285.648438 1381.488281 290.398438 1377.605469 C 295.148438 1373.71875 299.988281 1369.953125 304.925781 1366.304688 C 309.859375 1362.65625 314.882812 1359.128906 319.988281 1355.726562 C 325.097656 1352.324219 330.285156 1349.050781 335.554688 1345.902344 C 340.824219 1342.753906 346.164062 1339.734375 351.582031 1336.847656 C 356.996094 1333.960938 362.480469 1331.210938 368.03125 1328.59375 C 373.582031 1325.972656 379.195312 1323.492188 384.867188 1321.148438 C 390.542969 1318.808594 396.269531 1316.605469 402.050781 1314.539062 C 407.832031 1312.476562 413.65625 1310.558594 419.53125 1308.78125 C 425.40625 1307.003906 431.324219 1305.371094 437.277344 1303.882812 C 443.234375 1302.394531 449.222656 1301.054688 455.242188 1299.859375 C 461.261719 1298.664062 467.308594 1297.617188 473.382812 1296.71875 C 479.453125 1295.820312 485.542969 1295.074219 491.652344 1294.472656 C 497.761719 1293.871094 503.882812 1293.421875 510.011719 1293.121094 C 516.144531 1292.820312 522.277344 1292.671875 528.417969 1292.671875 C 534.554688 1292.671875 540.6875 1292.820312 546.820312 1293.121094 C 552.949219 1293.421875 559.070312 1293.871094 565.179688 1294.472656 C 571.289062 1295.074219 577.378906 1295.820312 583.449219 1296.71875 C 589.523438 1297.617188 595.570312 1298.664062 601.589844 1299.859375 C 607.609375 1301.054688 613.597656 1302.394531 619.554688 1303.882812 C 625.507812 1305.371094 631.425781 1307.003906 637.300781 1308.78125 C 643.175781 1310.558594 649.003906 1312.476562 654.78125 1314.539062 C 660.5625 1316.605469 666.289062 1318.808594 671.964844 1321.148438 C 677.636719 1323.492188 683.25 1325.972656 688.800781 1328.59375 C 694.351562 1331.210938 699.835938 1333.960938 705.25 1336.847656 C 710.667969 1339.734375 716.011719 1342.753906 721.277344 1345.902344 C 726.546875 1349.050781 731.734375 1352.324219 736.84375 1355.726562 C 741.949219 1359.128906 746.972656 1362.65625 751.90625 1366.304688 C 756.84375 1369.953125 761.683594 1373.71875 766.433594 1377.605469 C 771.183594 1381.488281 775.835938 1385.488281 780.390625 1389.601562 C 784.945312 1393.714844 789.398438 1397.9375 793.746094 1402.269531 C 794.101562 1402.632812 794.378906 1403.050781 794.570312 1403.523438 C 794.761719 1403.996094 794.859375 1404.488281 794.859375 1405 C 794.859375 1405.511719 794.761719 1406 794.570312 1406.472656 C 794.378906 1406.945312 794.101562 1407.363281 793.746094 1407.730469 C 793.328125 1408.128906 792.847656 1408.425781 792.300781 1408.613281 C 791.757812 1408.804688 791.199219 1408.875 790.621094 1408.820312 Z M 790.621094 1408.820312 " fill-opacity="1" fill-rule="nonzero"/></g><g transform="matrix(1, 0, 0, 1, 268, 495)"><g clip-path="url(#8b40401305)"><g fill="#000000" fill-opacity="1"><g transform="translate(1.174792, 74.627568)"><g><path d="M 22 0.71875 C 18.5625 0.71875 15.5 0.296875 12.8125 -0.546875 C 10.132812 -1.398438 7.898438 -2.515625 6.109375 -3.890625 C 4.316406 -5.273438 2.945312 -6.796875 2 -8.453125 L 7.40625 -15.046875 L 8.25 -15.046875 C 9.738281 -12.828125 11.632812 -11.0625 13.9375 -9.75 C 16.238281 -8.4375 18.925781 -7.78125 22 -7.78125 C 24.625 -7.78125 26.601562 -8.332031 27.9375 -9.4375 C 29.269531 -10.550781 29.9375 -12.078125 29.9375 -14.015625 C 29.9375 -15.191406 29.722656 -16.175781 29.296875 -16.96875 C 28.867188 -17.757812 28.15625 -18.4375 27.15625 -19 C 26.164062 -19.570312 24.820312 -20.0625 23.125 -20.46875 L 16.734375 -21.9375 C 12.273438 -22.945312 8.953125 -24.632812 6.765625 -27 C 4.585938 -29.375 3.5 -32.445312 3.5 -36.21875 C 3.5 -39.03125 4.195312 -41.5 5.59375 -43.625 C 7 -45.75 9.039062 -47.398438 11.71875 -48.578125 C 14.40625 -49.753906 17.617188 -50.34375 21.359375 -50.34375 C 25.179688 -50.34375 28.457031 -49.835938 31.1875 -48.828125 C 33.914062 -47.828125 36.21875 -46.285156 38.09375 -44.203125 L 33.234375 -37.546875 L 32.390625 -37.546875 C 30.984375 -39.015625 29.375 -40.117188 27.5625 -40.859375 C 25.757812 -41.597656 23.691406 -41.96875 21.359375 -41.96875 C 18.660156 -41.96875 16.609375 -41.488281 15.203125 -40.53125 C 13.804688 -39.582031 13.109375 -38.269531 13.109375 -36.59375 C 13.109375 -35.03125 13.597656 -33.785156 14.578125 -32.859375 C 15.566406 -31.929688 17.269531 -31.207031 19.6875 -30.6875 L 26.203125 -29.328125 C 31.023438 -28.316406 34.519531 -26.59375 36.6875 -24.15625 C 38.863281 -21.71875 39.953125 -18.539062 39.953125 -14.625 C 39.953125 -11.53125 39.285156 -8.832031 37.953125 -6.53125 C 36.617188 -4.238281 34.601562 -2.457031 31.90625 -1.1875 C 29.21875 0.0820312 25.914062 0.71875 22 0.71875 Z M 22 0.71875 "/></g></g><g transform="translate(43.815161, 74.627568)"><g><path d="M 37 -16.609375 L 12.9375 -16.609375 C 13.207031 -13.347656 14.132812 -10.972656 15.71875 -9.484375 C 17.300781 -8.003906 19.460938 -7.265625 22.203125 -7.265625 C 24.347656 -7.265625 26.085938 -7.664062 27.421875 -8.46875 C 28.765625 -9.269531 29.84375 -10.488281 30.65625 -12.125 L 31.375 -12.125 L 37.625 -8.109375 C 36.394531 -5.484375 34.546875 -3.351562 32.078125 -1.71875 C 29.617188 -0.09375 26.328125 0.71875 22.203125 0.71875 C 18.328125 0.71875 14.976562 -0.015625 12.15625 -1.484375 C 9.34375 -2.960938 7.171875 -5.15625 5.640625 -8.0625 C 4.117188 -10.96875 3.359375 -14.515625 3.359375 -18.703125 C 3.359375 -22.960938 4.160156 -26.550781 5.765625 -29.46875 C 7.378906 -32.382812 9.550781 -34.5625 12.28125 -36 C 15.019531 -37.4375 18.101562 -38.15625 21.53125 -38.15625 C 26.820312 -38.15625 30.875 -36.75 33.6875 -33.9375 C 36.507812 -31.132812 37.921875 -27.019531 37.921875 -21.59375 C 37.921875 -19.625 37.851562 -18.097656 37.71875 -17.015625 Z M 28.921875 -22.671875 C 28.835938 -25.523438 28.175781 -27.601562 26.9375 -28.90625 C 25.707031 -30.207031 23.90625 -30.859375 21.53125 -30.859375 C 16.769531 -30.859375 13.972656 -28.128906 13.140625 -22.671875 Z M 28.921875 -22.671875 "/></g></g><g transform="translate(84.520418, 74.627568)"><g><path d="M 21.828125 0.71875 C 18.203125 0.71875 15 -0.03125 12.21875 -1.53125 C 9.4375 -3.039062 7.265625 -5.253906 5.703125 -8.171875 C 4.140625 -11.097656 3.359375 -14.609375 3.359375 -18.703125 C 3.359375 -22.828125 4.140625 -26.347656 5.703125 -29.265625 C 7.265625 -32.179688 9.425781 -34.390625 12.1875 -35.890625 C 14.945312 -37.398438 18.101562 -38.15625 21.65625 -38.15625 C 29.5625 -38.15625 34.625 -35.296875 36.84375 -29.578125 L 30.390625 -24.953125 L 29.671875 -24.953125 C 28.898438 -26.722656 27.894531 -28.035156 26.65625 -28.890625 C 25.425781 -29.753906 23.757812 -30.1875 21.65625 -30.1875 C 18.945312 -30.1875 16.832031 -29.242188 15.3125 -27.359375 C 13.789062 -25.484375 13.03125 -22.597656 13.03125 -18.703125 C 13.03125 -14.859375 13.800781 -11.988281 15.34375 -10.09375 C 16.882812 -8.207031 19.046875 -7.265625 21.828125 -7.265625 C 23.867188 -7.265625 25.59375 -7.8125 27 -8.90625 C 28.414062 -10.007812 29.429688 -11.585938 30.046875 -13.640625 L 30.765625 -13.71875 L 37.453125 -10.046875 C 36.492188 -6.878906 34.726562 -4.289062 32.15625 -2.28125 C 29.59375 -0.28125 26.148438 0.71875 21.828125 0.71875 Z M 21.828125 0.71875 "/></g></g><g transform="translate(123.120815, 74.627568)"><g><path d="M 17.140625 0.71875 C 12.929688 0.71875 9.828125 -0.425781 7.828125 -2.71875 C 5.828125 -5.019531 4.828125 -8.320312 4.828125 -12.625 L 4.828125 -37.453125 L 14.21875 -37.453125 L 14.21875 -13.8125 C 14.21875 -11.53125 14.707031 -9.863281 15.6875 -8.8125 C 16.675781 -7.757812 18.203125 -7.234375 20.265625 -7.234375 C 22.867188 -7.234375 24.894531 -8.085938 26.34375 -9.796875 C 27.789062 -11.503906 28.515625 -14.191406 28.515625 -17.859375 L 28.515625 -37.453125 L 37.921875 -37.453125 L 37.921875 0 L 28.890625 0 L 28.890625 -5.5 L 28.171875 -5.671875 C 26.972656 -3.515625 25.507812 -1.910156 23.78125 -0.859375 C 22.050781 0.191406 19.835938 0.71875 17.140625 0.71875 Z M 17.140625 0.71875 "/></g></g><g transform="translate(166.440171, 74.627568)"><g><path d="M 10.078125 -41.921875 C 8.378906 -41.921875 7 -42.4375 5.9375 -43.46875 C 4.875 -44.5 4.34375 -45.832031 4.34375 -47.46875 C 4.34375 -49.070312 4.875 -50.390625 5.9375 -51.421875 C 7 -52.453125 8.378906 -52.96875 10.078125 -52.96875 C 11.210938 -52.96875 12.21875 -52.726562 13.09375 -52.25 C 13.976562 -51.769531 14.664062 -51.117188 15.15625 -50.296875 C 15.644531 -49.472656 15.890625 -48.53125 15.890625 -47.46875 C 15.890625 -46.40625 15.644531 -45.453125 15.15625 -44.609375 C 14.664062 -43.773438 13.976562 -43.117188 13.09375 -42.640625 C 12.21875 -42.160156 11.210938 -41.921875 10.078125 -41.921875 Z M 5.390625 0 L 5.390625 -37.453125 L 14.796875 -37.453125 L 14.796875 0 Z M 5.390625 0 "/></g></g><g transform="translate(186.606077, 74.627568)"><g><path d="M 5.390625 0 L 5.390625 -37.453125 L 14.53125 -37.453125 L 14.53125 -31.875 L 15.25 -31.75 C 16.15625 -33.832031 17.34375 -35.359375 18.8125 -36.328125 C 20.28125 -37.296875 22.066406 -37.78125 24.171875 -37.78125 C 26.296875 -37.78125 27.914062 -37.421875 29.03125 -36.703125 L 27.4375 -28.59375 L 26.71875 -28.453125 C 26.101562 -28.703125 25.515625 -28.878906 24.953125 -28.984375 C 24.390625 -29.097656 23.703125 -29.15625 22.890625 -29.15625 C 20.253906 -29.15625 18.242188 -28.234375 16.859375 -26.390625 C 15.484375 -24.546875 14.796875 -21.585938 14.796875 -17.515625 L 14.796875 0 Z M 5.390625 0 "/></g></g><g transform="translate(215.972255, 74.627568)"><g><path d="M 10.078125 -41.921875 C 8.378906 -41.921875 7 -42.4375 5.9375 -43.46875 C 4.875 -44.5 4.34375 -45.832031 4.34375 -47.46875 C 4.34375 -49.070312 4.875 -50.390625 5.9375 -51.421875 C 7 -52.453125 8.378906 -52.96875 10.078125 -52.96875 C 11.210938 -52.96875 12.21875 -52.726562 13.09375 -52.25 C 13.976562 -51.769531 14.664062 -51.117188 15.15625 -50.296875 C 15.644531 -49.472656 15.890625 -48.53125 15.890625 -47.46875 C 15.890625 -46.40625 15.644531 -45.453125 15.15625 -44.609375 C 14.664062 -43.773438 13.976562 -43.117188 13.09375 -42.640625 C 12.21875 -42.160156 11.210938 -41.921875 10.078125 -41.921875 Z M 5.390625 0 L 5.390625 -37.453125 L 14.796875 -37.453125 L 14.796875 0 Z M 5.390625 0 "/></g></g><g transform="translate(236.138162, 74.627568)"><g><path d="M 25.84375 -8.921875 L 28.28125 -1.96875 C 27.257812 -1.132812 25.976562 -0.476562 24.4375 0 C 22.90625 0.476562 21.164062 0.71875 19.21875 0.71875 C 15.164062 0.71875 12.085938 -0.382812 9.984375 -2.59375 C 7.878906 -4.800781 6.828125 -8.007812 6.828125 -12.21875 L 6.828125 -30.015625 L 1.125 -30.015625 L 1.125 -37.484375 L 6.828125 -37.484375 L 6.828125 -44.78125 L 16.234375 -46.3125 L 16.234375 -37.484375 L 26.859375 -37.484375 L 26.859375 -30.015625 L 16.234375 -30.015625 L 16.234375 -12.90625 C 16.234375 -11.050781 16.613281 -9.695312 17.375 -8.84375 C 18.144531 -8 19.269531 -7.578125 20.75 -7.578125 C 22.414062 -7.578125 23.875 -8.023438 25.125 -8.921875 Z M 25.84375 -8.921875 "/></g></g><g transform="translate(265.232744, 74.627568)"><g><path d="M 8.28125 15.890625 C 6.675781 15.890625 5.222656 15.765625 3.921875 15.515625 C 2.617188 15.265625 1.5625 14.9375 0.75 14.53125 L 2.234375 6.921875 L 2.859375 6.71875 C 3.421875 7.007812 4.117188 7.242188 4.953125 7.421875 C 5.796875 7.609375 6.65625 7.703125 7.53125 7.703125 C 9.050781 7.703125 10.3125 7.503906 11.3125 7.109375 C 12.320312 6.710938 13.175781 6.054688 13.875 5.140625 C 14.582031 4.222656 15.207031 2.953125 15.75 1.328125 L 0.8125 -37.453125 L 10.65625 -37.453125 L 19.96875 -11.40625 L 20.78125 -11.40625 L 29.84375 -37.453125 L 39.421875 -37.453125 L 24.375 2.34375 C 23.175781 5.550781 21.859375 8.132812 20.421875 10.09375 C 18.984375 12.050781 17.285156 13.503906 15.328125 14.453125 C 13.367188 15.410156 11.019531 15.890625 8.28125 15.890625 Z M 8.28125 15.890625 "/></g></g></g></g></g><g transform="matrix(1, 0, 0, 1, 486, 716)"><g clip-path="url(#fce5b2becb)"><g fill="#000000" fill-opacity="1"><g transform="translate(1.113367, 74.955548)"><g><path d="M 25.640625 -49.640625 C 29.191406 -49.640625 32.226562 -48.988281 34.75 -47.6875 C 37.269531 -46.382812 39.175781 -44.5625 40.46875 -42.21875 C 41.757812 -39.875 42.40625 -37.148438 42.40625 -34.046875 C 42.40625 -30.953125 41.757812 -28.238281 40.46875 -25.90625 C 39.175781 -23.570312 37.269531 -21.753906 34.75 -20.453125 C 32.226562 -19.148438 29.191406 -18.5 25.640625 -18.5 L 16.265625 -18.5 L 16.265625 0 L 6.453125 0 L 6.453125 -49.640625 Z M 24.34375 -26.28125 C 29.800781 -26.28125 32.53125 -28.867188 32.53125 -34.046875 C 32.53125 -39.253906 29.800781 -41.859375 24.34375 -41.859375 L 16.265625 -41.859375 L 16.265625 -26.28125 Z M 24.34375 -26.28125 "/></g></g></g><g fill="#000000" fill-opacity="1"><g transform="translate(45.485152, 74.955548)"><g><path d="M 5.390625 0 L 5.390625 -37.453125 L 14.53125 -37.453125 L 14.53125 -31.875 L 15.25 -31.75 C 16.15625 -33.832031 17.34375 -35.359375 18.8125 -36.328125 C 20.28125 -37.296875 22.066406 -37.78125 24.171875 -37.78125 C 26.296875 -37.78125 27.914062 -37.421875 29.03125 -36.703125 L 27.4375 -28.59375 L 26.71875 -28.453125 C 26.101562 -28.703125 25.515625 -28.878906 24.953125 -28.984375 C 24.390625 -29.097656 23.703125 -29.15625 22.890625 -29.15625 C 20.253906 -29.15625 18.242188 -28.234375 16.859375 -26.390625 C 15.484375 -24.546875 14.796875 -21.585938 14.796875 -17.515625 L 14.796875 0 Z M 5.390625 0 "/></g></g><g transform="translate(74.85133, 74.955548)"><g><path d="M 10.078125 -41.921875 C 8.378906 -41.921875 7 -42.4375 5.9375 -43.46875 C 4.875 -44.5 4.34375 -45.832031 4.34375 -47.46875 C 4.34375 -49.070312 4.875 -50.390625 5.9375 -51.421875 C 7 -52.453125 8.378906 -52.96875 10.078125 -52.96875 C 11.210938 -52.96875 12.21875 -52.726562 13.09375 -52.25 C 13.976562 -51.769531 14.664062 -51.117188 15.15625 -50.296875 C 15.644531 -49.472656 15.890625 -48.53125 15.890625 -47.46875 C 15.890625 -46.40625 15.644531 -45.453125 15.15625 -44.609375 C 14.664062 -43.773438 13.976562 -43.117188 13.09375 -42.640625 C 12.21875 -42.160156 11.210938 -41.921875 10.078125 -41.921875 Z M 5.390625 0 L 5.390625 -37.453125 L 14.796875 -37.453125 L 14.796875 0 Z M 5.390625 0 "/></g></g><g transform="translate(95.017236, 74.955548)"><g><path d="M 25.765625 0 L 14.5625 0 L 0.71875 -37.453125 L 10.5625 -37.453125 L 19.859375 -10.765625 L 20.640625 -10.765625 L 29.984375 -37.453125 L 39.59375 -37.453125 Z M 25.765625 0 "/></g></g></g><g fill="#000000" fill-opacity="1"><g transform="translate(134.568216, 74.955548)"><g><path d="M 14.59375 0.71875 C 12.195312 0.71875 10.113281 0.273438 8.34375 -0.609375 C 6.582031 -1.492188 5.226562 -2.789062 4.28125 -4.5 C 3.332031 -6.207031 2.859375 -8.257812 2.859375 -10.65625 C 2.859375 -12.875 3.332031 -14.734375 4.28125 -16.234375 C 5.226562 -17.742188 6.695312 -18.976562 8.6875 -19.9375 C 10.675781 -20.90625 13.28125 -21.648438 16.5 -22.171875 C 18.738281 -22.535156 20.441406 -22.929688 21.609375 -23.359375 C 22.773438 -23.785156 23.5625 -24.269531 23.96875 -24.8125 C 24.375 -25.363281 24.578125 -26.054688 24.578125 -26.890625 C 24.578125 -28.085938 24.15625 -29.003906 23.3125 -29.640625 C 22.476562 -30.273438 21.085938 -30.59375 19.140625 -30.59375 C 17.066406 -30.59375 15.085938 -30.128906 13.203125 -29.203125 C 11.328125 -28.273438 9.695312 -27.050781 8.3125 -25.53125 L 7.640625 -25.53125 L 3.703125 -31.46875 C 5.597656 -33.570312 7.914062 -35.210938 10.65625 -36.390625 C 13.394531 -37.566406 16.382812 -38.15625 19.625 -38.15625 C 24.582031 -38.15625 28.171875 -37.101562 30.390625 -35 C 32.609375 -32.894531 33.71875 -29.910156 33.71875 -26.046875 L 33.71875 -9.78125 C 33.71875 -8.101562 34.453125 -7.265625 35.921875 -7.265625 C 36.484375 -7.265625 37.035156 -7.367188 37.578125 -7.578125 L 38.0625 -7.4375 L 38.734375 -0.875 C 38.210938 -0.539062 37.488281 -0.265625 36.5625 -0.046875 C 35.632812 0.160156 34.617188 0.265625 33.515625 0.265625 C 31.265625 0.265625 29.507812 -0.160156 28.25 -1.015625 C 27 -1.878906 26.101562 -3.226562 25.5625 -5.0625 L 24.859375 -5.125 C 23.023438 -1.226562 19.601562 0.71875 14.59375 0.71875 Z M 17.59375 -6.3125 C 19.757812 -6.3125 21.492188 -7.039062 22.796875 -8.5 C 24.097656 -9.957031 24.75 -11.988281 24.75 -14.59375 L 24.75 -18.40625 L 24.109375 -18.53125 C 23.535156 -18.082031 22.789062 -17.703125 21.875 -17.390625 C 20.957031 -17.085938 19.640625 -16.789062 17.921875 -16.5 C 15.890625 -16.15625 14.425781 -15.570312 13.53125 -14.75 C 12.632812 -13.925781 12.1875 -12.753906 12.1875 -11.234375 C 12.1875 -9.628906 12.660156 -8.40625 13.609375 -7.5625 C 14.566406 -6.726562 15.894531 -6.3125 17.59375 -6.3125 Z M 17.59375 -6.3125 "/></g></g><g transform="translate(174.051296, 74.955548)"><g><path d="M 21.828125 0.71875 C 18.203125 0.71875 15 -0.03125 12.21875 -1.53125 C 9.4375 -3.039062 7.265625 -5.253906 5.703125 -8.171875 C 4.140625 -11.097656 3.359375 -14.609375 3.359375 -18.703125 C 3.359375 -22.828125 4.140625 -26.347656 5.703125 -29.265625 C 7.265625 -32.179688 9.425781 -34.390625 12.1875 -35.890625 C 14.945312 -37.398438 18.101562 -38.15625 21.65625 -38.15625 C 29.5625 -38.15625 34.625 -35.296875 36.84375 -29.578125 L 30.390625 -24.953125 L 29.671875 -24.953125 C 28.898438 -26.722656 27.894531 -28.035156 26.65625 -28.890625 C 25.425781 -29.753906 23.757812 -30.1875 21.65625 -30.1875 C 18.945312 -30.1875 16.832031 -29.242188 15.3125 -27.359375 C 13.789062 -25.484375 13.03125 -22.597656 13.03125 -18.703125 C 13.03125 -14.859375 13.800781 -11.988281 15.34375 -10.09375 C 16.882812 -8.207031 19.046875 -7.265625 21.828125 -7.265625 C 23.867188 -7.265625 25.59375 -7.8125 27 -8.90625 C 28.414062 -10.007812 29.429688 -11.585938 30.046875 -13.640625 L 30.765625 -13.71875 L 37.453125 -10.046875 C 36.492188 -6.878906 34.726562 -4.289062 32.15625 -2.28125 C 29.59375 -0.28125 26.148438 0.71875 21.828125 0.71875 Z M 21.828125 0.71875 "/></g></g><g transform="translate(212.651693, 74.955548)"><g><path d="M 8.28125 15.890625 C 6.675781 15.890625 5.222656 15.765625 3.921875 15.515625 C 2.617188 15.265625 1.5625 14.9375 0.75 14.53125 L 2.234375 6.921875 L 2.859375 6.71875 C 3.421875 7.007812 4.117188 7.242188 4.953125 7.421875 C 5.796875 7.609375 6.65625 7.703125 7.53125 7.703125 C 9.050781 7.703125 10.3125 7.503906 11.3125 7.109375 C 12.320312 6.710938 13.175781 6.054688 13.875 5.140625 C 14.582031 4.222656 15.207031 2.953125 15.75 1.328125 L 0.8125 -37.453125 L 10.65625 -37.453125 L 19.96875 -11.40625 L 20.78125 -11.40625 L 29.84375 -37.453125 L 39.421875 -37.453125 L 24.375 2.34375 C 23.175781 5.550781 21.859375 8.132812 20.421875 10.09375 C 18.984375 12.050781 17.285156 13.503906 15.328125 14.453125 C 13.367188 15.410156 11.019531 15.890625 8.28125 15.890625 Z M 8.28125 15.890625 "/></g></g></g></g></g><g transform="matrix(1, 0, 0, 1, 296, 937)"><g clip-path="url(#6a648018bd)"><g fill="#000000" fill-opacity="1"><g transform="translate(1.371261, 75.16628)"><g><path d="M 39.453125 12.359375 C 35.078125 12.359375 31.445312 11.304688 28.5625 9.203125 C 25.675781 7.097656 23.738281 4.164062 22.75 0.40625 C 18.96875 -0.132812 15.664062 -1.414062 12.84375 -3.4375 C 10.03125 -5.46875 7.835938 -8.269531 6.265625 -11.84375 C 4.691406 -15.425781 3.90625 -19.75 3.90625 -24.8125 C 3.90625 -30.5 4.890625 -35.25 6.859375 -39.0625 C 8.828125 -42.875 11.546875 -45.707031 15.015625 -47.5625 C 18.492188 -49.414062 22.507812 -50.34375 27.0625 -50.34375 C 31.613281 -50.34375 35.617188 -49.421875 39.078125 -47.578125 C 42.535156 -45.734375 45.242188 -42.898438 47.203125 -39.078125 C 49.160156 -35.253906 50.140625 -30.5 50.140625 -24.8125 C 50.140625 -17.394531 48.550781 -11.695312 45.375 -7.71875 C 42.195312 -3.75 37.734375 -1.28125 31.984375 -0.3125 L 31.8125 0.375 C 32.507812 1.570312 33.554688 2.492188 34.953125 3.140625 C 36.347656 3.785156 37.972656 4.109375 39.828125 4.109375 C 41.316406 4.109375 42.660156 3.914062 43.859375 3.53125 L 44.546875 3.671875 L 45.9375 11.34375 C 45.207031 11.613281 44.234375 11.847656 43.015625 12.046875 C 41.796875 12.253906 40.609375 12.359375 39.453125 12.359375 Z M 27.0625 -7.8125 C 31.269531 -7.8125 34.484375 -9.160156 36.703125 -11.859375 C 38.921875 -14.566406 40.03125 -18.882812 40.03125 -24.8125 C 40.03125 -30.75 38.921875 -35.070312 36.703125 -37.78125 C 34.484375 -40.5 31.269531 -41.859375 27.0625 -41.859375 C 22.820312 -41.859375 19.585938 -40.5 17.359375 -37.78125 C 15.128906 -35.070312 14.015625 -30.75 14.015625 -24.8125 C 14.015625 -18.882812 15.128906 -14.566406 17.359375 -11.859375 C 19.585938 -9.160156 22.820312 -7.8125 27.0625 -7.8125 Z M 27.0625 -7.8125 "/></g></g><g transform="translate(55.452557, 75.16628)"><g><path d="M 17.140625 0.71875 C 12.929688 0.71875 9.828125 -0.425781 7.828125 -2.71875 C 5.828125 -5.019531 4.828125 -8.320312 4.828125 -12.625 L 4.828125 -37.453125 L 14.21875 -37.453125 L 14.21875 -13.8125 C 14.21875 -11.53125 14.707031 -9.863281 15.6875 -8.8125 C 16.675781 -7.757812 18.203125 -7.234375 20.265625 -7.234375 C 22.867188 -7.234375 24.894531 -8.085938 26.34375 -9.796875 C 27.789062 -11.503906 28.515625 -14.191406 28.515625 -17.859375 L 28.515625 -37.453125 L 37.921875 -37.453125 L 37.921875 0 L 28.890625 0 L 28.890625 -5.5 L 28.171875 -5.671875 C 26.972656 -3.515625 25.507812 -1.910156 23.78125 -0.859375 C 22.050781 0.191406 19.835938 0.71875 17.140625 0.71875 Z M 17.140625 0.71875 "/></g></g><g transform="translate(98.771913, 75.16628)"><g><path d="M 14.59375 0.71875 C 12.195312 0.71875 10.113281 0.273438 8.34375 -0.609375 C 6.582031 -1.492188 5.226562 -2.789062 4.28125 -4.5 C 3.332031 -6.207031 2.859375 -8.257812 2.859375 -10.65625 C 2.859375 -12.875 3.332031 -14.734375 4.28125 -16.234375 C 5.226562 -17.742188 6.695312 -18.976562 8.6875 -19.9375 C 10.675781 -20.90625 13.28125 -21.648438 16.5 -22.171875 C 18.738281 -22.535156 20.441406 -22.929688 21.609375 -23.359375 C 22.773438 -23.785156 23.5625 -24.269531 23.96875 -24.8125 C 24.375 -25.363281 24.578125 -26.054688 24.578125 -26.890625 C 24.578125 -28.085938 24.15625 -29.003906 23.3125 -29.640625 C 22.476562 -30.273438 21.085938 -30.59375 19.140625 -30.59375 C 17.066406 -30.59375 15.085938 -30.128906 13.203125 -29.203125 C 11.328125 -28.273438 9.695312 -27.050781 8.3125 -25.53125 L 7.640625 -25.53125 L 3.703125 -31.46875 C 5.597656 -33.570312 7.914062 -35.210938 10.65625 -36.390625 C 13.394531 -37.566406 16.382812 -38.15625 19.625 -38.15625 C 24.582031 -38.15625 28.171875 -37.101562 30.390625 -35 C 32.609375 -32.894531 33.71875 -29.910156 33.71875 -26.046875 L 33.71875 -9.78125 C 33.71875 -8.101562 34.453125 -7.265625 35.921875 -7.265625 C 36.484375 -7.265625 37.035156 -7.367188 37.578125 -7.578125 L 38.0625 -7.4375 L 38.734375 -0.875 C 38.210938 -0.539062 37.488281 -0.265625 36.5625 -0.046875 C 35.632812 0.160156 34.617188 0.265625 33.515625 0.265625 C 31.265625 0.265625 29.507812 -0.160156 28.25 -1.015625 C 27 -1.878906 26.101562 -3.226562 25.5625 -5.0625 L 24.859375 -5.125 C 23.023438 -1.226562 19.601562 0.71875 14.59375 0.71875 Z M 17.59375 -6.3125 C 19.757812 -6.3125 21.492188 -7.039062 22.796875 -8.5 C 24.097656 -9.957031 24.75 -11.988281 24.75 -14.59375 L 24.75 -18.40625 L 24.109375 -18.53125 C 23.535156 -18.082031 22.789062 -17.703125 21.875 -17.390625 C 20.957031 -17.085938 19.640625 -16.789062 17.921875 -16.5 C 15.890625 -16.15625 14.425781 -15.570312 13.53125 -14.75 C 12.632812 -13.925781 12.1875 -12.753906 12.1875 -11.234375 C 12.1875 -9.628906 12.660156 -8.40625 13.609375 -7.5625 C 14.566406 -6.726562 15.894531 -6.3125 17.59375 -6.3125 Z M 17.59375 -6.3125 "/></g></g><g transform="translate(138.254993, 75.16628)"><g><path d="M 15.546875 0.71875 C 12.171875 0.71875 9.59375 -0.191406 7.8125 -2.015625 C 6.039062 -3.835938 5.15625 -6.609375 5.15625 -10.328125 L 5.15625 -52.484375 L 14.5625 -52.484375 L 14.5625 -10.6875 C 14.5625 -8.40625 15.515625 -7.265625 17.421875 -7.265625 C 17.960938 -7.265625 18.535156 -7.351562 19.140625 -7.53125 L 19.625 -7.40625 L 20.46875 -0.171875 C 19.945312 0.0976562 19.253906 0.3125 18.390625 0.46875 C 17.535156 0.632812 16.585938 0.71875 15.546875 0.71875 Z M 15.546875 0.71875 "/></g></g><g transform="translate(159.778873, 75.16628)"><g><path d="M 10.078125 -41.921875 C 8.378906 -41.921875 7 -42.4375 5.9375 -43.46875 C 4.875 -44.5 4.34375 -45.832031 4.34375 -47.46875 C 4.34375 -49.070312 4.875 -50.390625 5.9375 -51.421875 C 7 -52.453125 8.378906 -52.96875 10.078125 -52.96875 C 11.210938 -52.96875 12.21875 -52.726562 13.09375 -52.25 C 13.976562 -51.769531 14.664062 -51.117188 15.15625 -50.296875 C 15.644531 -49.472656 15.890625 -48.53125 15.890625 -47.46875 C 15.890625 -46.40625 15.644531 -45.453125 15.15625 -44.609375 C 14.664062 -43.773438 13.976562 -43.117188 13.09375 -42.640625 C 12.21875 -42.160156 11.210938 -41.921875 10.078125 -41.921875 Z M 5.390625 0 L 5.390625 -37.453125 L 14.796875 -37.453125 L 14.796875 0 Z M 5.390625 0 "/></g></g><g transform="translate(179.94478, 75.16628)"><g><path d="M 25.84375 -8.921875 L 28.28125 -1.96875 C 27.257812 -1.132812 25.976562 -0.476562 24.4375 0 C 22.90625 0.476562 21.164062 0.71875 19.21875 0.71875 C 15.164062 0.71875 12.085938 -0.382812 9.984375 -2.59375 C 7.878906 -4.800781 6.828125 -8.007812 6.828125 -12.21875 L 6.828125 -30.015625 L 1.125 -30.015625 L 1.125 -37.484375 L 6.828125 -37.484375 L 6.828125 -44.78125 L 16.234375 -46.3125 L 16.234375 -37.484375 L 26.859375 -37.484375 L 26.859375 -30.015625 L 16.234375 -30.015625 L 16.234375 -12.90625 C 16.234375 -11.050781 16.613281 -9.695312 17.375 -8.84375 C 18.144531 -8 19.269531 -7.578125 20.75 -7.578125 C 22.414062 -7.578125 23.875 -8.023438 25.125 -8.921875 Z M 25.84375 -8.921875 "/></g></g><g transform="translate(209.039363, 75.16628)"><g><path d="M 8.28125 15.890625 C 6.675781 15.890625 5.222656 15.765625 3.921875 15.515625 C 2.617188 15.265625 1.5625 14.9375 0.75 14.53125 L 2.234375 6.921875 L 2.859375 6.71875 C 3.421875 7.007812 4.117188 7.242188 4.953125 7.421875 C 5.796875 7.609375 6.65625 7.703125 7.53125 7.703125 C 9.050781 7.703125 10.3125 7.503906 11.3125 7.109375 C 12.320312 6.710938 13.175781 6.054688 13.875 5.140625 C 14.582031 4.222656 15.207031 2.953125 15.75 1.328125 L 0.8125 -37.453125 L 10.65625 -37.453125 L 19.96875 -11.40625 L 20.78125 -11.40625 L 29.84375 -37.453125 L 39.421875 -37.453125 L 24.375 2.34375 C 23.175781 5.550781 21.859375 8.132812 20.421875 10.09375 C 18.984375 12.050781 17.285156 13.503906 15.328125 14.453125 C 13.367188 15.410156 11.019531 15.890625 8.28125 15.890625 Z M 8.28125 15.890625 "/></g></g></g></g></g></svg>