<svg xmlns="http://www.w3.org/2000/svg" xmlns:xlink="http://www.w3.org/1999/xlink" width="1410" zoomAndPan="magnify" viewBox="0 0 1057.5 1687.499993" height="2250" preserveAspectRatio="xMidYMid meet" version="1.0"><defs><clipPath id="200e2950f9"><path d="M 485 407.839844 L 524 407.839844 L 524 526 L 485 526 Z M 485 407.839844 " clip-rule="nonzero"/></clipPath><clipPath id="8324e35d8e"><path d="M 826 674 L 907.683594 674 L 907.683594 728 L 826 728 Z M 826 674 " clip-rule="nonzero"/></clipPath><clipPath id="3d6bd356f1"><path d="M 149.042969 895 L 252 895 L 252 947 L 149.042969 947 Z M 149.042969 895 " clip-rule="nonzero"/></clipPath><clipPath id="d4b42608c2"><path d="M 316 1084 L 374 1084 L 374 1163.964844 L 316 1163.964844 Z M 316 1084 " clip-rule="nonzero"/></clipPath><clipPath id="2e2104c7fc"><path d="M 485 407.839844 L 524 407.839844 L 524 526 L 485 526 Z M 485 407.839844 " clip-rule="nonzero"/></clipPath><clipPath id="6deeee516e"><path d="M 826 674 L 907.683594 674 L 907.683594 728 L 826 728 Z M 826 674 " clip-rule="nonzero"/></clipPath><clipPath id="c7a2153de5"><path d="M 149.042969 895 L 252 895 L 252 947 L 149.042969 947 Z M 149.042969 895 " clip-rule="nonzero"/></clipPath><clipPath id="c683e03bee"><path d="M 316 1084 L 374 1084 L 374 1163.964844 L 316 1163.964844 Z M 316 1084 " clip-rule="nonzero"/></clipPath></defs><g clip-path="url(#200e2950f9)"><path fill="#000000" d="M 487.535156 414.90625 C 485.179688 419.277344 484.503906 429.703125 485.515625 440.800781 C 487.53125 464.34375 500.320312 512.8125 506.710938 520.882812 C 511.085938 526.601562 511.761719 526.601562 516.132812 520.882812 C 527.238281 506.757812 524.882812 433.738281 512.769531 414.867188 C 506.375 405.117188 492.917969 405.152344 487.535156 414.90625 Z M 487.535156 414.90625 " fill-opacity="1" fill-rule="evenodd"/></g><path fill="#000000" d="M 724.167969 485.855469 C 717.4375 493.253906 712.390625 509.734375 705.324219 552.820312 C 702.96875 566.273438 707.34375 571.988281 715.085938 565.601562 C 717.777344 563.246094 725.515625 550.800781 731.90625 538.023438 C 744.355469 513.132812 747.382812 489.890625 739.644531 482.15625 C 733.925781 476.4375 732.582031 477.109375 724.167969 485.855469 Z M 724.167969 485.855469 " fill-opacity="1" fill-rule="evenodd"/><path fill="#000000" d="M 498.398438 626.238281 C 429.382812 644.738281 371.808594 702.285156 351.621094 772.613281 C 337.828125 819.398438 346.910156 869.210938 376.859375 911.589844 C 396.710938 939.839844 413.90625 955.011719 443.851562 970.820312 C 532.382812 1017.269531 640.800781 987.296875 697.367188 900.492188 C 741.480469 832.851562 732.398438 731.878906 677.179688 672.652344 C 658.671875 653.144531 636.429688 640.664062 610.183594 635.953125 C 599.753906 633.9375 587.640625 630.238281 583.601562 627.210938 C 570.816406 618.800781 527.371094 618.128906 498.4375 626.203125 Z M 578.179688 646.417969 C 606.109375 651.125 650.558594 678.742188 666.035156 701.613281 C 690.9375 737.972656 702.75 795.183594 693.292969 835.207031 C 675.792969 909.234375 608.460938 962.746094 533.355469 962.746094 C 458.246094 962.746094 388.597656 906.878906 375.773438 833.859375 C 365.679688 773.957031 411.8125 695.558594 474.769531 665.589844 C 488.566406 659.199219 508.121094 652.136719 518.214844 650.117188 C 528.308594 648.101562 539.746094 645.746094 543.449219 645.074219 C 554.890625 643.054688 556.273438 643.054688 578.179688 646.417969 Z M 578.179688 646.417969 " fill-opacity="1" fill-rule="evenodd"/><path fill="#000000" d="M 212.5 637.003906 C 206.445312 643.058594 207.453125 654.832031 214.855469 661.21875 C 224.613281 669.964844 249.886719 676.355469 283.871094 678.375 C 340.097656 682.070312 334.714844 667.609375 272.09375 646.050781 C 231.679688 632.257812 219.230469 630.277344 212.5 637.003906 Z M 212.5 637.003906 " fill-opacity="1" fill-rule="evenodd"/><g clip-path="url(#8324e35d8e)"><path fill="#000000" d="M 880.296875 677.394531 C 857.753906 685.464844 822.050781 716.78125 826.761719 724.179688 C 831.808594 732.253906 863.8125 725.527344 886.019531 711.398438 C 918.015625 691.558594 913.277344 665.289062 880.296875 677.394531 Z M 880.296875 677.394531 " fill-opacity="1" fill-rule="evenodd"/></g><g clip-path="url(#3d6bd356f1)"><path fill="#000000" d="M 230.511719 897.847656 C 166.878906 911.972656 139.960938 926.773438 151.738281 941.269531 C 161.496094 953.378906 204.601562 941.945312 233.875 919.746094 C 259.109375 900.578125 257.765625 891.792969 230.511719 897.847656 Z M 230.511719 897.847656 " fill-opacity="1" fill-rule="evenodd"/></g><path fill="#000000" d="M 807.632812 931.109375 C 807.632812 942.210938 859.488281 982.605469 880.351562 987.648438 C 890.441406 990.339844 898.519531 984.960938 898.519531 976.214844 C 898.519531 965.789062 873.621094 947.292969 845.320312 936.15625 C 814.363281 924.382812 807.632812 923.375 807.632812 931.109375 Z M 807.632812 931.109375 " fill-opacity="1" fill-rule="evenodd"/><path fill="#000000" d="M 636.011719 1083.234375 C 636.011719 1106.105469 656.199219 1156.253906 666.628906 1159.617188 C 684.796875 1165.335938 688.835938 1138.09375 673.695312 1113.839844 C 661.917969 1095.679688 643.074219 1073.78125 639 1073.78125 C 637.320312 1073.78125 635.972656 1078.152344 635.972656 1083.199219 Z M 636.011719 1083.234375 " fill-opacity="1" fill-rule="evenodd"/><g clip-path="url(#d4b42608c2)"><path fill="#000000" d="M 351.824219 1097.332031 C 333.988281 1117.175781 315.445312 1146.472656 316.792969 1153.199219 C 318.8125 1163.289062 328.570312 1166.988281 339 1161.269531 C 350.101562 1155.214844 373.355469 1110.785156 373.355469 1094.640625 C 373.355469 1079.84375 366.964844 1080.851562 351.824219 1097.332031 Z M 351.824219 1097.332031 " fill-opacity="1" fill-rule="evenodd"/></g><g clip-path="url(#2e2104c7fc)"><path fill="#000000" d="M 487.535156 414.90625 C 485.179688 419.277344 484.503906 429.703125 485.515625 440.800781 C 487.53125 464.34375 500.320312 512.8125 506.710938 520.882812 C 511.085938 526.601562 511.761719 526.601562 516.132812 520.882812 C 527.238281 506.757812 524.882812 433.738281 512.769531 414.867188 C 506.375 405.117188 492.917969 405.152344 487.535156 414.90625 Z M 487.535156 414.90625 " fill-opacity="1" fill-rule="evenodd"/></g><path fill="#000000" d="M 724.167969 485.855469 C 717.4375 493.253906 712.390625 509.734375 705.324219 552.820312 C 702.96875 566.273438 707.34375 571.988281 715.085938 565.601562 C 717.777344 563.246094 725.515625 550.800781 731.90625 538.023438 C 744.355469 513.132812 747.382812 489.890625 739.644531 482.15625 C 733.925781 476.4375 732.582031 477.109375 724.167969 485.855469 Z M 724.167969 485.855469 " fill-opacity="1" fill-rule="evenodd"/><path fill="#000000" d="M 498.398438 626.238281 C 429.382812 644.738281 371.808594 702.285156 351.621094 772.613281 C 337.828125 819.398438 346.910156 869.210938 376.859375 911.589844 C 396.710938 939.839844 413.90625 955.011719 443.851562 970.820312 C 532.382812 1017.269531 640.800781 987.296875 697.367188 900.492188 C 741.480469 832.851562 732.398438 731.878906 677.179688 672.652344 C 658.671875 653.144531 636.429688 640.664062 610.183594 635.953125 C 599.753906 633.9375 587.640625 630.238281 583.601562 627.210938 C 570.816406 618.800781 527.371094 618.128906 498.4375 626.203125 Z M 578.179688 646.417969 C 606.109375 651.125 650.558594 678.742188 666.035156 701.613281 C 690.9375 737.972656 702.75 795.183594 693.292969 835.207031 C 675.792969 909.234375 608.460938 962.746094 533.355469 962.746094 C 458.246094 962.746094 388.597656 906.878906 375.773438 833.859375 C 365.679688 773.957031 411.8125 695.558594 474.769531 665.589844 C 488.566406 659.199219 508.121094 652.136719 518.214844 650.117188 C 528.308594 648.101562 539.746094 645.746094 543.449219 645.074219 C 554.890625 643.054688 556.273438 643.054688 578.179688 646.417969 Z M 578.179688 646.417969 " fill-opacity="1" fill-rule="evenodd"/><path fill="#000000" d="M 212.5 637.003906 C 206.445312 643.058594 207.453125 654.832031 214.855469 661.21875 C 224.613281 669.964844 249.886719 676.355469 283.871094 678.375 C 340.097656 682.070312 334.714844 667.609375 272.09375 646.050781 C 231.679688 632.257812 219.230469 630.277344 212.5 637.003906 Z M 212.5 637.003906 " fill-opacity="1" fill-rule="evenodd"/><g clip-path="url(#6deeee516e)"><path fill="#000000" d="M 880.296875 677.394531 C 857.753906 685.464844 822.050781 716.78125 826.761719 724.179688 C 831.808594 732.253906 863.8125 725.527344 886.019531 711.398438 C 918.015625 691.558594 913.277344 665.289062 880.296875 677.394531 Z M 880.296875 677.394531 " fill-opacity="1" fill-rule="evenodd"/></g><g clip-path="url(#c7a2153de5)"><path fill="#000000" d="M 230.511719 897.847656 C 166.878906 911.972656 139.960938 926.773438 151.738281 941.269531 C 161.496094 953.378906 204.601562 941.945312 233.875 919.746094 C 259.109375 900.578125 257.765625 891.792969 230.511719 897.847656 Z M 230.511719 897.847656 " fill-opacity="1" fill-rule="evenodd"/></g><path fill="#000000" d="M 807.632812 931.109375 C 807.632812 942.210938 859.488281 982.605469 880.351562 987.648438 C 890.441406 990.339844 898.519531 984.960938 898.519531 976.214844 C 898.519531 965.789062 873.621094 947.292969 845.320312 936.15625 C 814.363281 924.382812 807.632812 923.375 807.632812 931.109375 Z M 807.632812 931.109375 " fill-opacity="1" fill-rule="evenodd"/><path fill="#000000" d="M 636.011719 1083.234375 C 636.011719 1106.105469 656.199219 1156.253906 666.628906 1159.617188 C 684.796875 1165.335938 688.835938 1138.09375 673.695312 1113.839844 C 661.917969 1095.679688 643.074219 1073.78125 639 1073.78125 C 637.320312 1073.78125 635.972656 1078.152344 635.972656 1083.199219 Z M 636.011719 1083.234375 " fill-opacity="1" fill-rule="evenodd"/><g clip-path="url(#c683e03bee)"><path fill="#000000" d="M 351.824219 1097.332031 C 333.988281 1117.175781 315.445312 1146.472656 316.792969 1153.199219 C 318.8125 1163.289062 328.570312 1166.988281 339 1161.269531 C 350.101562 1155.214844 373.355469 1110.785156 373.355469 1094.640625 C 373.355469 1079.84375 366.964844 1080.851562 351.824219 1097.332031 Z M 351.824219 1097.332031 " fill-opacity="1" fill-rule="evenodd"/></g></svg>