<svg xmlns="http://www.w3.org/2000/svg" xmlns:xlink="http://www.w3.org/1999/xlink" width="3780" zoomAndPan="magnify" viewBox="0 0 2835 1417.499962" height="1890" preserveAspectRatio="xMidYMid meet" version="1.0"><defs><clipPath id="abdd0a493e"><path d="M 0.5 0 L 2834.5 0 L 2834.5 1417 L 0.5 1417 Z M 0.5 0 " clip-rule="nonzero"/></clipPath><clipPath id="22ab2d3b83"><path d="M 0.5 0 L 2834.5 0 L 2834.5 1417 L 0.5 1417 Z M 0.5 0 " clip-rule="nonzero"/></clipPath><clipPath id="93b1a585b0"><path d="M 728.324219 191.816406 L 2106.511719 191.816406 L 2106.511719 1153.097656 L 728.324219 1153.097656 Z M 728.324219 191.816406 " clip-rule="nonzero"/></clipPath><clipPath id="eb9da05d61"><path d="M 728.324219 191.816406 L 2106.511719 191.816406 L 2106.511719 1153.097656 L 728.324219 1153.097656 Z M 728.324219 191.816406 " clip-rule="nonzero"/></clipPath><clipPath id="869caa5c2d"><rect x="0" width="2835" y="0" height="1417"/></clipPath></defs><g clip-path="url(#abdd0a493e)"><path fill="#ffffff" d="M 0.5 0 L 2834.5 0 L 2834.5 1417 L 0.5 1417 Z M 0.5 0 " fill-opacity="1" fill-rule="nonzero"/><g transform="matrix(1, 0, 0, 1, 0, 0)"><g clip-path="url(#869caa5c2d)"><g clip-path="url(#22ab2d3b83)"><path fill="#ffffff" d="M 0.5 0 L 2834.855469 0 L 2834.855469 1417.175781 L 0.5 1417.175781 Z M 0.5 0 " fill-opacity="1" fill-rule="nonzero"/></g><g clip-path="url(#93b1a585b0)"><path fill="#000000" d="M 1797.867188 1077.308594 C 1968.054688 1077.308594 2106.511719 938.753906 2106.511719 768.449219 C 2106.511719 700.566406 2084.828125 636.105469 2043.8125 582.042969 C 2040.875 578.175781 2037.851562 574.378906 2034.738281 570.660156 C 2021.320312 554.617188 2006.285156 539.980469 1989.976562 526.988281 L 1987.578125 525.074219 L 1940.617188 487.652344 L 1939.644531 486.878906 C 1921.675781 472.558594 1902.160156 460.230469 1881.542969 450.203125 C 1858.375 395.296875 1822.023438 347.367188 1774.96875 309.855469 L 1774.898438 309.796875 L 1724.644531 269.75 L 1724.574219 269.695312 C 1721.128906 266.949219 1717.625 264.261719 1714.066406 261.628906 C 1652.316406 215.957031 1579.070312 191.816406 1502.253906 191.816406 C 1418.949219 191.816406 1338.230469 221.0625 1274.191406 274.316406 C 1238.039062 258.234375 1199.457031 250.089844 1159.40625 250.089844 C 1092.652344 250.089844 1027.835938 273.9375 976.90625 317.242188 C 970.128906 323.007812 963.652344 329.066406 957.484375 335.394531 C 919.070312 374.820312 892.796875 424.726562 882.34375 478.6875 C 854.867188 492.761719 829.976562 511.183594 808.570312 533.152344 C 795.085938 546.992188 782.984375 562.238281 772.488281 578.695312 C 743.597656 623.984375 728.324219 676.386719 728.324219 730.238281 C 728.324219 819.578125 770 899.363281 834.914062 951.148438 C 834.933594 951.167969 834.957031 951.183594 834.976562 951.199219 L 885.148438 991.226562 L 885.214844 991.273438 L 885.273438 991.324219 C 933.496094 1029.769531 994.535156 1052.769531 1060.835938 1052.769531 C 1090.460938 1052.769531 1119.699219 1048.097656 1147.886719 1038.871094 L 1183.210938 1067.046875 C 1252.347656 1122.191406 1339.261719 1153.097656 1428.257812 1153.097656 C 1522.851562 1153.097656 1614.125 1118.703125 1686.019531 1056.117188 C 1721.910156 1070.183594 1759.503906 1077.308594 1797.871094 1077.308594 Z M 1797.867188 1077.308594 " fill-opacity="1" fill-rule="nonzero"/></g><path fill="#ffffff" d="M 1502.253906 202.191406 C 1656.097656 202.191406 1786.867188 302.992188 1832.070312 442.070312 C 1955.484375 478.628906 2045.804688 593.128906 2045.804688 728.332031 C 2045.804688 892.90625 1912.003906 1026.800781 1747.542969 1026.800781 C 1708.046875 1026.800781 1669.371094 1018.828125 1633.628906 1003.960938 C 1564.515625 1066.128906 1473.636719 1102.585938 1377.945312 1102.585938 C 1271.945312 1102.585938 1173.574219 1058.828125 1103.132812 985.84375 C 1073.824219 996.546875 1042.542969 1002.261719 1010.535156 1002.261719 C 860.644531 1002.261719 738.699219 880.234375 738.699219 730.238281 C 738.699219 622.898438 801.15625 529.875 891.609375 485.652344 C 913.855469 357.894531 1025.476562 260.464844 1159.414062 260.464844 C 1200.691406 260.464844 1240.269531 269.65625 1275.867188 286.5 C 1337.398438 233.355469 1417.132812 202.191406 1502.257812 202.191406 Z M 1502.253906 202.191406 " fill-opacity="1" fill-rule="nonzero"/><g clip-path="url(#eb9da05d61)"><path stroke-linecap="butt" transform="matrix(1.432626, 0, 0, 1.43261, 728.325083, 191.814819)" fill="none" stroke-linejoin="miter" d="M 540.216957 7.243137 C 647.602804 7.243137 738.882411 77.604793 770.435047 174.685063 C 856.580397 200.203945 919.625683 280.128023 919.625683 374.50344 C 919.625683 489.380669 826.230207 582.842652 711.433362 582.842652 C 683.864342 582.842652 656.867915 577.277524 631.919192 566.899827 C 583.676814 610.294741 520.241619 635.742729 453.447207 635.742729 C 379.457202 635.742729 310.792318 605.198599 261.622884 554.253543 C 241.164932 561.724612 219.330027 565.713727 196.987969 565.713727 C 92.361478 565.713727 7.241343 480.53536 7.241343 375.834053 C 7.241343 300.907956 50.837532 235.975096 113.975524 205.106493 C 129.503718 115.928105 207.417353 47.919563 300.908261 47.919563 C 329.720628 47.919563 357.346908 54.335412 382.194745 66.092802 C 425.144722 28.996491 480.800824 7.243137 540.219684 7.243137 Z M 540.216957 7.243137 " stroke="#000000" stroke-width="10" stroke-opacity="1" stroke-miterlimit="10"/></g></g></g></g></svg>