<svg xmlns="http://www.w3.org/2000/svg" xmlns:xlink="http://www.w3.org/1999/xlink" width="3780" zoomAndPan="magnify" viewBox="0 0 2835 1417.499962" height="1890" preserveAspectRatio="xMidYMid meet" version="1.0"><defs><clipPath id="a199f810e7"><path d="M 0.5 0 L 2834.5 0 L 2834.5 1416 L 0.5 1416 Z M 0.5 0 " clip-rule="nonzero"/></clipPath><clipPath id="8f75018690"><path d="M 0.5 0.960938 L 2834.5 0.960938 L 2834.5 800.816406 L 0.5 800.816406 Z M 0.5 0.960938 " clip-rule="nonzero"/></clipPath><clipPath id="fb6eb3bd2a"><path d="M 0.5 1 L 2834.5 1 L 2834.5 800 L 0.5 800 Z M 0.5 1 " clip-rule="nonzero"/></clipPath><clipPath id="8d29291ce6"><rect x="0" width="2835" y="0" height="801"/></clipPath><clipPath id="3db08a5ad5"><path d="M 0.5 616.382812 L 2834.5 616.382812 L 2834.5 1415.980469 L 0.5 1415.980469 Z M 0.5 616.382812 " clip-rule="nonzero"/></clipPath><clipPath id="ddeabaeef6"><path d="M 0.5 1 L 2834.5 1 L 2834.5 799.980469 L 0.5 799.980469 Z M 0.5 1 " clip-rule="nonzero"/></clipPath><clipPath id="fdebcc59e2"><rect x="0" width="2835" y="0" height="800"/></clipPath><clipPath id="4402a683b1"><rect x="0" width="2835" y="0" height="1416"/></clipPath></defs><g clip-path="url(#a199f810e7)"><g transform="matrix(1, 0, 0, 1, 0, 0)"><g clip-path="url(#4402a683b1)"><g clip-path="url(#8f75018690)"><g transform="matrix(1, 0, 0, 1, 0, 0)"><g clip-path="url(#8d29291ce6)"><g clip-path="url(#fb6eb3bd2a)"><path fill="#d9d9d9" d="M 2875.570312 138.082031 C 2875.570312 138.082031 2177.917969 380.304688 1464.398438 304.777344 C 750.878906 229.25 514.707031 1.058594 -41.214844 1.058594 L -41.214844 799.386719 L 2875.570312 799.386719 Z M 2875.570312 138.082031 " fill-opacity="1" fill-rule="nonzero"/></g></g></g></g><g clip-path="url(#3db08a5ad5)"><g transform="matrix(1, 0, 0, 1, 0, 616)"><g clip-path="url(#fdebcc59e2)"><g clip-path="url(#ddeabaeef6)"><path fill="#d9d9d9" d="M -40.574219 662.910156 C -40.574219 662.910156 657.078125 420.6875 1370.59375 496.214844 C 2084.113281 571.742188 2320.289062 799.929688 2876.207031 799.929688 L 2876.207031 1.601562 L -40.574219 1.601562 Z M -40.574219 662.910156 " fill-opacity="1" fill-rule="nonzero"/></g></g></g></g></g></g></g></svg>